/* XPM */
static char *_4f781039eb84ba9cfd1b642b2c7bd173msUd60xUpeeZbYC[] = {
/* columns rows colors chars-per-pixel */
"64 64 231 2 ",
"   c #133117",
".  c #503E31",
"X  c #0D5713",
"o  c #16571A",
"O  c #104D15",
"+  c #1A691D",
"@  c #1A791E",
"#  c #1E5420",
"$  c #285924",
"%  c #197324",
"&  c #256A25",
"*  c #237725",
"=  c #387632",
"-  c #366E30",
";  c #7A5532",
":  c #467133",
">  c #526E39",
",  c #6F5B51",
"<  c #567942",
"1  c #58655E",
"2  c #657E55",
"3  c #767056",
"4  c #676C75",
"5  c #677378",
"6  c #6F726E",
"7  c #4A6358",
"8  c #97560F",
"9  c #B25F06",
"0  c #B3660E",
"q  c #CA7711",
"w  c #9A7941",
"e  c #1F8222",
"r  c #248628",
"t  c #34842C",
"y  c #29942A",
"u  c #2C8630",
"i  c #2C9D33",
"p  c #359736",
"a  c #359031",
"s  c #38AC3A",
"d  c #5D813C",
"f  c #4A953A",
"g  c #4D8B37",
"h  c #648F3F",
"j  c #6A953B",
"k  c #44A13C",
"l  c #58A83F",
"z  c #5CB63C",
"x  c #58B739",
"c  c #64B63E",
"v  c #6DBC3E",
"b  c #66B83C",
"n  c #72BE3E",
"m  c #7DBA3C",
"M  c #79AF3B",
"N  c #75C13D",
"B  c #7CC43A",
"V  c #3C9B46",
"C  c #39B942",
"Z  c #599745",
"A  c #4A9857",
"S  c #579B59",
"D  c #489045",
"F  c #658B43",
"G  c #688B49",
"H  c #6C9649",
"J  c #749849",
"K  c #6A8B57",
"L  c #669A5B",
"P  c #799958",
"I  c #738E51",
"U  c #4CA446",
"Y  c #5EAA4C",
"T  c #55A747",
"R  c #5BB043",
"E  c #59A353",
"W  c #68AA49",
"Q  c #7AA949",
"!  c #6BB645",
"~  c #6CBA41",
"^  c #66B346",
"/  c #73BC43",
"(  c #7CBE45",
")  c #73B44B",
"_  c #74B849",
"`  c #7CBA4A",
"'  c #79B348",
"]  c #6BAB53",
"[  c #65A35A",
"{  c #6AA45B",
"}  c #65A754",
"|  c #74AC54",
" . c #7BAB56",
".. c #78A65B",
"X. c #74B251",
"o. c #7BB352",
"O. c #75B45B",
"+. c #418965",
"@. c #6E8B67",
"#. c #798F69",
"$. c #778675",
"%. c #709965",
"&. c #3DC547",
"*. c #48C64B",
"=. c #51C04D",
"-. c #7DC143",
";. c #77C042",
":. c #A89A32",
">. c #BD8D3E",
",. c #83BE3F",
"<. c #B6A431",
"1. c #CD8A19",
"2. c #D28C17",
"3. c #E7981B",
"4. c #E68E17",
"5. c #F8A618",
"6. c #F7AB1C",
"7. c #D79221",
"8. c #DDBF2A",
"9. c #FFB223",
"0. c #FFBC26",
"q. c #F3A321",
"w. c #84C73B",
"e. c #92CD3A",
"r. c #9AD637",
"t. c #89CE2F",
"y. c #A7DD34",
"u. c #B1E52E",
"i. c #FDD828",
"p. c #FED430",
"a. c #F9E435",
"s. c #FBEB37",
"d. c #FDF039",
"f. c #819D5C",
"g. c #908A42",
"h. c #81AD4A",
"j. c #80A74A",
"k. c #84BD44",
"l. c #83B44C",
"z. c #84BD4B",
"x. c #89BE4C",
"c. c #8BBA49",
"v. c #83AB57",
"b. c #84B553",
"n. c #85B951",
"m. c #89B952",
"M. c #86B456",
"N. c #91BD58",
"B. c #90BF4F",
"V. c #839674",
"C. c #9BB27C",
"Z. c #8DA771",
"A. c #A8A751",
"S. c #83C245",
"D. c #8CC546",
"F. c #86C149",
"G. c #8DC54A",
"H. c #8DC34C",
"J. c #8BC34A",
"K. c #8EC94A",
"L. c #88CA44",
"P. c #93CA43",
"I. c #91C54B",
"U. c #92CC4C",
"Y. c #90C746",
"T. c #8CC050",
"R. c #93C852",
"E. c #92D149",
"W. c #6B7688",
"Q. c #757C86",
"!. c #737B91",
"~. c #788798",
"^. c #76898C",
"/. c #7A8BA5",
"(. c #858C9A",
"). c #8C9398",
"_. c #95989D",
"`. c #899381",
"'. c #9EAB88",
"]. c #A4B192",
"[. c #8993A6",
"{. c #969BA8",
"}. c #969BB0",
"|. c #9CA1AA",
" X c #9AA2B4",
".X c #8DA6B2",
"XX c #A3A5AB",
"oX c #A8A9A9",
"OX c #B2B6AA",
"+X c #A7ABB6",
"@X c #BBBBBC",
"#X c #B5B8BE",
"$X c #AEB0B2",
"%X c #C1BFBE",
"&X c #B0C68F",
"*X c #B8C2A7",
"=X c #C5CBB4",
"-X c #A6ABC4",
";X c #ACB4C6",
":X c #B4B6C4",
">X c #B4BACA",
",X c #B8BAC5",
"<X c #B7BFDB",
"1X c #C3BEC3",
"2X c #BDC3CB",
"3X c #BBC6D9",
"4X c #C4C4CA",
"5X c #C8C6C9",
"6X c #CCCDD4",
"7X c #C8CAD6",
"8X c #DAD8DA",
"9X c #D1D0D6",
"0X c #E1E1D5",
"qX c #DBDCE5",
"wX c #D7D9E6",
"eX c #CDD4E2",
"rX c #E2DCE4",
"tX c #E0DCF3",
"yX c #DCE1EA",
"uX c #E4E2E4",
"iX c #E4E5EA",
"pX c #EBEBED",
"aX c #E9E8EB",
"sX c #F1EEED",
"dX c #EDEDF1",
"fX c #ECE6F9",
"gX c #F3F2F3",
"hX c #FCFBF6",
"jX c #FDFDFD",
"kX c #F6F5F8",
"lX c #F1EFF5",
/* pixels */
"J.J.J.m._ v I.J.J.J.J.J.J.J.J.J.J.J.J.J.J.J.J.J.J.J.J.J.J.J.J.J.J.J.J.J.J.J.J.J.J.J.J.J.J.J.J.J.J.J.J.J.J.J.J.J.J.J.J.J.J.J.J.J.",
"J.J.J. .%.^ S.J.J.J.J.J.J.J.J.J.J.J.J.J.J.J.J.J.J.J.J.J.J.J.J.J.J.J.J.J.J.J.J.J.J.J.J.J.J.J.J.J.J.J.J.J.J.J.J.J.J.J.J.J.J.J.J.J.",
"J.J.J.J.M.` S.J.J.J.J.J.J.J.J.J.J.J.J.J.J.J.J.J.J.J.J.J.J.J.J.J.J.J.J.J.J.J.J.J.J.J.J.J.J.J.J.J.J.J.J.J.J.J.J.J.J.J.J.J.J.J.J.J.",
"J.J.J.J.G.G.J.J.J.J.J.J.J.J.J.J.J.J.J.J.J.J.J.J.J.J.J.J.J.J.J.G.~ ( H.J.J.J.J.J.J.J.J.J.J.J.J.J.J.J.J.P.P.J.J.J.J.J.J.J.J.J.J.J.",
"J.J.J.J.J.J.J.J.J.J.J.J.J.J.J.J.J.J.J.J.J.J.J.z.J.J.J.J.J.J.J.G.~ ( ` J.J.J.J.J.G.J.z.J.J.J.z.J.J.J.J.G.G.J.J.J.J.J.J.J.J.J.J.J.",
"J.J.J.J.J.J.J.J.J.S.S.J.J.J.J.J.J.J.J.J.J.J.z.z.z.J.J.J.J.J.J.G.~ ) Y x.J.J.J.G.F.z.F.J.D.F.z.J.J.J.J.J.J.J.G.J.J.J.J.J.J.J.J.J.",
"J.J.J.J.J.J.J.J.H.v ;.H.z.G.J.J.J.J.J.J.J.J.J.F.J.J.J.J.J.J.J.J.S.z.o.x.J.J.J.z.z.J.J.J.D.z.J.J.J.J.J.J.J.G./ ( J.J.J.J.J.J.J.J.",
"J.J.J.J.J.J.J.J.I.} ] ! z.G.J.J.J.J.J.J.J.J.G.J.G.J.J.J.J.J.J.J.G.G.G.G.J.J.J.J.J.G.J.J.J.J.J.J.J.J.J.J.J.G./ / / J.J.J.J.J.J.J.",
"J.J.J.J.J.J.J.J.G.X.| ] z.G.J.J.J.J.J.J.J.J.J.J.( F.J.G.F.F.x.J.J.J.J.J.J.J.J.G.J.J.J.J.J.J.J.J.J.J.J.J.J.J.G.^ ( z.z.J.J.J.J.J.",
"J.J.J.J.J.J.J.J.J.G.G.G.J.J.J.J.J.J.J.J.J.J.J.G.( ! J.F.z ) m.J.J.J.J.J.J.J.J.J.J.J.J.J.J.J.J.J.J.J.J.J.J.J.G.[ ] Y x.J.J.J.J.J.",
"J.J.J.J.J.J.J.J.J.J.J.J.J.J.J.J.J.J.J.J.J.J.J.J.H.r.N / c b.J.J.J.J.J.J.J.J.J.z.z.J.G.;.S.J.J.J.J.J.J.J.J.J.G.z.n.o.x.J.J.J.J.J.",
"J.J.J.J.J.J.J.J.F.z.G.J.J.J.J.J.J.J.J.J.J.J.J.J.J.r.b { [ H.J.J.J.J.J.J.J.J.S.G.J.J.J.n S.I.J.J.J.D.P.J.J.J.J.G.G.G.J.J.J.J.J.J.",
"J.J.J.J.J.J.J.J.z.z.G.J.J.J.J.J.J.J.J.J.J.J.J.J.G.] S ..| G.J.J.H.J.J.J.J.J.N S.H.G.N / H.( J.G.J.J.J.J.J.J.J.J.J.J.J.J.J.J.J.J.",
"J.J.J.G.J.J.G.J.` z.G.J.J.J.J.J.J.J.J.J.S.S.J.J.J.G.o.T.G.J.J.J.D.H.J.J.H.H.L.t.F.D.l ) w.( ( ( G.J.J.J.J.J.J.J.J.J.J.J.J.J.J.J.",
"J.J.z.z.J.J.J.J.| o.G.J.J.J.J.J.J.J.J.G.m B H.J.J.H.w.m D.H.D.M.v.D.H.K.m k.I.w.-.P.( ] B G.~ ~ I.J.J.J.J.J.J.J.J.J.J.J.J.J.J.J.",
"J.J.J.z.J.J.J.J.| ..G.J.J.J.J.J.J.J.z.x./ U z.H.H.k.'.].v.S.l.9X8Xv.L.Q *XZ.x.[ X.Y } ! A ` l _ G.J.J.J.J.J.J.J.J.J.J.J.J.J.J.J.",
"J.J.J.J.J.J.J.G.m.n.G.J.J.J.J.J.J.J.n.m.-.W ' S.U.Q 9XjXdXP *XjXjX=XI 8XjX5XJ O.' W X.o.[ S.) n.G.J.J.J.J.J.J.J.J.J.J.Y.P.J.J.J.",
"J.J.J.J.J.J.J.J.J.G.J./ J.J.J.J.J.J.G.G.J.I.C.C.j.j 2XjXjX6X5XjXjX%X1XjXhX:XG l.C.'.x.G.G.J.G.G.J.J.J.J.J.J.J.J.J.J.J.Y.P.J.J.J.",
"J.J.J.J.J.J.J.G.J.J.J.L.r.J.G.J.J.J.J.H.K.P lXjXrX].6 kXdXpXoXaXuXoXdXaXyX4 OXuXkXjX#.K.H.J.J.J.J.J.J.J.G.D.J.G.J.J.J.J.J.J.J.J.",
"J.J.J.J.J.J.J.( J.G.H.S.n J.( G./ / I.k.k.j {.kXjXjX6X|.aXpXoX6X4XoXiXiX[.@XjXjXkX}.I m k.G.J.J.J.J.J.J.D.y.P.S.J.G.J.J.J.J.J.J.",
"J.J.J.J.J.J.J.~ ( ( S.z.Y z c G./ c k.&X=X=XOXXX4XdXjX5X+X<X!.[.~.W.3X XoXgXqX#X|.XXOXOX].z.G.G.J.J.J.J.J.P.e.^ z.x.J.J.J.J.J.J.",
"J.J.J.J.J.J.G.S.^ S.~ S A c J.H.;.x H 9XhXsXpX0XOX_.>XiX[.3 :.<.<.:.3 Q.qX X(.,XpXjXjXjXfXI n.b.G.J.J.J.J.I.] X.M.b.G.J.J.J.J.J.",
"J.J.J.J.J.J.G.z.} I.z.S S X.z.J.-.z z.V.>XwXeXyXiX5X(./.A.i.i.p.p.p.5.>./.|.uXjXdXgXpX7X).m.J.x.G.J.J.J.J.-.U | n.x.J.J.J.J.J.J.",
"J.J.J.J.J.J.J.J.J.J.J.J.J.J.J.J.J.F.,.J 4 XX+X+X|.+X;Xg.i.p.a.s.s.a.p.9.w -X:XoXXXoXXX4 G M J.G.J.J.J.J.J.S.Y | J.J.J.J.J.J.J.J.",
"J.J.J.G.J.J.J.J.J.J.J.J.J.J.J.J.F.N.=XaXjXhXjXaX5X|.4 8.9.a.d.s.s.d.a.9.3.6 #X4XuXgXgXgX8XOXv.D.J.J.J.J.J.J.G.G.J.J.J.J.J.J.J.J.",
"J.J.J.J.J.J.J.J.J.J.J.J.J.J.J.J.L.Z.tXdXqX7X4X,X+X:X6 1.9.0.a.s.s.a.0.9.2.3 >X+X+X7X9XpXjXfX$.F.J.J.J.J.J.J.J.J.J.J.J.J.J.G.J.J.",
"J.J.z... .G.J.J.J.J.J.J.J.J.J.J.G.k.@.Q.(.XX$X5X5X;X4 0 7.5.9.0.0.9.q.1.8 Q.,X@X,XoXoX).4 $.m.G.J.J.J.J.J.J.G.J.J.J.J.J.J.z.J.J.",
"J.J.J.( J.G.J.J.J.J.J.J.J.J.J.( J.I.S.V.rXgXdXjXjX7X/.. 9 3.q.q.3.q.7.0 , /.>XwXdXdXhXaX`.' I.J.J.J.J.J.P.J.F.J.J.J.J.G.z...z.J.",
"J.J.J.z / J.F.J.J.J.J.J.J.Y.J./ S.n Z.jXjXgXkX7XXXXXXX~., 8 q 4.4.q 8 ,  X_._.{.,XiXpXkXjX'.k.H.J.J.J.G.u.z.z.J.J.J.J.J.z.J.G.J.",
"J.J.G.Y S J.J.J.J.J.J.J.J.D.J.P.B c V.-X+X;X).$X8XpXyX+XW.~., ; ; , _.W.2XkXgX8X$X[.+X:X:X`.k.G.J.J.J.J.N z.z.G.J.J.J.J.G.J.J.J.",
"J.J.J.z.z.G.J.J.J.J.J.J.G.J.J.D.c | b.H G G @XjXpX8X2XQ.#XeX[..X3X(.yX8X!.7XpXpXjX@X< I G x.G.l.z.G.J.J.F.J.z.J.J.J.J.J.J.J.J.J.",
"J.J.J.G.G.J.J.J.J.J.J.J.z.J.J.J.J.J.J.U.L.&XjXpXiX;XW.uXdXiX^.2XsX_.6XgX8XW.;XdXsXjX*XF.U.G.J. .b.J.J.J.G.J.J.J.J.J.J.J.J.J.J.J.",
"J.J.J.J.J.J.J.J.J.J.J.J.z.J.G.J.J.J.J.G.Q 7XiX>X[.4 @XjXiX6X5 eXgX$X,XiXjX$X6 }.>XdXwXI K.J.J.G.G.J.J.J.J.G.J.J.J.J.J.J.G.J.J.J.",
"J.J.J.J.J.J.J.F.J.H.J.J.G.z.F.G.J.J.J.G.x.$.^.K P f.aXpXkX~.^.qXpX8X(.dXaXaXf.Q 2 $.$.m.J.J.J.J.J.J.J.J.J.z.G.J.J.J.J.J.x.J.J.J.",
"J.J.J.J.J.J.J.v S.` x.J.J.z.F.J.G.G.J.J.G.F.k.I.P...dXhX-X7 {.qXpX8X1 ;XlXrXI E.K.k.F.G.J.J.J.J.J.J.J.J.S.B F.S.G.J.G.z...J.J.J.",
"J.J.J.J.J.J.J.w.! ` x.J.J.J.J.J.D.D.J.J.J.G.G.J.K.I -X X#.l.~.8XpX4XJ %.{.}.K K.x.G.J.J.G.J.J.J.J.J.J.J.P.r.~ ` J.J.J.F.J.F.J.J.",
"J.J.J.J.J.J.G.z.^ ` ` H.J.J.J.J.J.J.J.J.J.J.J.J.J.J.2 P I.D.K .XwX5 ' U.H < T.G.;.F.J.J./ F.G.J.J.J.J.J.M._ ~ ) ` J.J.J.J.J.J.J.",
"J.J.J.J.J.J.J...[ ! ) H.J.J.J.J.J.J.J.J.J.J.J.J.J.G.K.K.J.G.J.@.7 # l.G.K.I.J.J.S.v J./ T z.m.J.J.J.J.J.m.{ L ^ o.J.J.J.J.J.J.J.",
"J.J.J.J.J.J.J.J.J.J.J.J.J.J.J.J.H.n S.I.G.K.K.G.J.J.J.J.J.J.G.c.t # l.K.J.J.J.J.I.b ^ ! ;.m.m.G.J.J.J.J.G.J.x.J.J.J.J.J.J.J.J.J.",
"J.J.J.J.J.J.J.J.G.J.J.J.J.J.J.J.G.W ` ( j.J j.l.x.K.K.J.J.J.S.k.f $ ' -.J.J.I.x.Q ] L K | T.J.J.J.J.J.J.J.G.G.J.J.J.J.J.J.J.J.J.",
"J.J.J.J.J.J.J.J.J.J.J.J.J.J.J.J.G.{ Z * f f U Z | J h.I.J.I.r.c u - z.T n.c.W ^ p V D E - d H.J.J.J.J.J.J.J.J.J.J.J.J.J.J.J.J.J.",
"J.J.J.J.G.J.P.P.J.J.J.J.J.J.J.J.J.J.d = k f t a p T Z h H.w.r.W % : J.T Z f s a + = t s u > I.J.z.J.J.J.J.G.D.G.J.J.J.J.J.J.J.J.",
"J.J.z.z.J.J.J.J.J.J.J.J.J.J.J.J.J.J.U.H r *.=.U = * i * Z n [ h % F L.f i i + & p *.*.r F R.J.z.F.J.J.J.J.G.P.G.J.J.J.J.J.G.G.J.",
"J.J.J.F.z.J.J.J.J.J.J.J.J.J.J.J.J.J.J.I.- r C &.*.Z - % r f T t & h.f + @ & p *.&.C y - x.J.J.J.J.J.J.J.J.J.J.J.J.G.z.F.J.D.D.J.",
"J.J.J.G.G.J.J.J.J.J.J.J.J.J.J.J.J.J.J.K.h.o y s s &.k & X - H e - ) + X & a C &.C y o J K.J.J.J.J.J.J.J.J.J.J.J.J.z.J.J.J.J.J.J.",
"J.J.J.J.J.J.J.J.J.J.J.J.J.J.J.J.J.J.J.J.I.h X @ r y r + & $ G r < W O & * r i i @ X G I.J.J.J.J.S.J.J.J.J.J.J.J.J.J.J.J.z.J.J.J.",
"J.J.J.J.J.J.J.J.J.J.J.J.J.J.G.J.D.G.J.J.J.U.h $ o X X X O o g r J x.o O O X X o $ G R.J.J.J.J.J.N -.J.J.J.J.J.J.J.J.J.J.J.J.J.J.",
"J.J.J.J.J.J.J.J.J.J.J.J.J.J.z.J.D.D.J.J.J.J.I.H.h.H F F J : & u J f - J F F G h.T.I.J.J.J.J.J.J.S.v J.J.G.S.-.J.J.J.J.J.J.J.J.J.",
"J.J.J.J.G.( S.H.J.J.J.J.J.F.` z.J.J.J.G.G.J.J.J.K.I.U.U.U.c.g u $ - N.U.I.U.U.K.J.J.J.J.;.L.z.b.z.~ / z F.-.n G.x.m.J.J.J.J.J.J.",
"J.J.J.J.J.e.w.J.x.x.J.J.J.J.J.J.J.G.J.e.y.` F.J.J.J.J.J.J.I.l %   M.G.D.D.J.J.J.J.J.J.J.S.N ( ! o.S z ) n.S.x _ M.J.J.J.J.J.J.J.",
"J.J.J.J.H.B T o.v.z.J.J.J.J.J.J.J.J.J.P.D.^ D.J.J.J.J.J.J.J.W t > U.J.J.J.z.J.J.J.J.J.J.F.c n./ A A } M.H.-.x ) n.J.J.J.J.J.J.J.",
"J.J.J.J.J.S.) b.x.G.J.J.J.J.J.J.J.G.x.M.^ ) ( J.J.J.J.J.J.J.G.I.I.J.J.J.J.z.J.J.J.J.J.J.J.( z.G.o.| o.J.G.F./ z.J.J.J.G.P.J.J.J.",
"J.J.J.J.J.J.G.G.J.J.G.J.J.J.J.J.J.J.J.M.[ ) v J.J.J.J.J.J.J.J.J.J.J.J.J.J.G.G.G.G.J.J.J.J.G.G.J.G.I.G.J.J.J.G.G.J.J.J.G.P.J.J.J.",
"J.J.J.J.J.J.J.J.J.J.( J.J.G.S.J.G.J.J.G.J.J.J.J.J.J.J.J.J.J.J.J.J.J.J.J.J.P.P.P.D.J.J.J.J.J.J.J.J.J.J.J.J.J.J.J.J.J.J.J.J.J.J.J.",
"J.J.J.J.J.J.J.J.J.J./ ( I.o.R S.x.J.J.J.G.J.J.J.J.J.J.J.G.J.J.J.J.J.J.J.J.J.J.J.J.J.J.J.J.J.J.J.J.J.J.J.J.J.J.J.J.J.J.J.J.J.J.J.",
"J.G.z.J.J.J.J.J.J.J.I.t.( ^ ! n.x.J.J.J.J.J.J.J.J.J.J.G./ S.G.J.J.J.J.J.J.J.J.J.J.G.J.J.J.J.J.J.J.J.J.J.J.G.o.o.z.J.J.J.J.J.J.J.",
"J.J.J.J.J.J.J.J.J.J.D.z ] ] X.m.J.J.J.J.J.J.G.J.J.J./ _ / J.J.J.J.J.J.J.J.J.J.G.~ ( J.J.J.J.H.J.J.G.J.J.J.z.z.z.J.J.J.J.J.J.J.J.",
"J.J.J.J.J.J.J.J.J.J.J.E S [ | G.J.J.J.J.J.J.P.J.J.G.` Y G.J.J.J.J.J.J.J.G.J.J.J.J.B J.I.G.F.S.J.J.x.J.J.J.J.J.G.J.J.J.J.J.J.J.J.",
"J.J.J.J.J.J.J.J.J.J.J.b.] o.J.J.J.J.J.J.J.J.J.J.J.J.F.( J.J.G.D.J.J.J.G./ F.G.J.G.u.S.~ F.( ~ I.z.z.J.J.J.J.J.J.J.J.J.J.J.J.J.J.",
"J.J.J.J.J.J.J.J.J.J.J.G.I.G.J.J.J.J.J.G.z.` x.J.J.J.J.G.J.J.P.D.J.J.J.J.( ~ ( / J.) z ^ J.S.x ) m.J.J.J.J.J.J.J.J.J.J.J.J.J.J.J.",
"J.J.J.J.J.J.J.J.J.J.J.J.J.J.J.J.J.J.J.G.z.z. .J.J.J.J.J.J.J.G.J.J.J.J.J.J.R l.! S +.E ..v.S.U L M.J.J.J.J.J.J.G.S.~ J.n.x.J.J.J.",
"J.J.J.-.J.J.J.J.J.J.J.J.J.J.J.J.J.J.J.J.J.J.J.J.J.J.J.J.J.J.J.J.J.J.J.J.J.] b.G.] [ { b.G.S.^ | n.J.J.J.J.J.J.J.G._ ! I.b.J.J.J.",
"J.J.J.Y F.G.J.J.J.J.J.J.J.J.J.J.J.J.J.J.J.J.J.J.J.J.J.J.J.J.J.J.J.J.J.J.J.G.G.J.G.G.G.G.J.J.G.G.J.J.J.J.J.J.J.J.G.X.S o.b.J.J.J.",
"J.J.G.Y } G.J.J.J.J.J.J.J.J.J.J.J.J.J.J.J.J.J.J.J.J.J.J.J.J.J.J.J.J.J.J.J.J.J.J.J.J.J.J.J.J.J.J.J.J.J.J.J.J.J.J.G.( A ..x.J.J.J."
};
