/* XPM */
static char *e48cb0c90b1a4000970d6d6790766987efm8ER7hlShYDBHn[] = {
/* columns rows colors chars-per-pixel */
"64 64 166 2 ",
"   c #5CB63C",
".  c #63B73F",
"X  c #63BA3C",
"o  c #69BA3D",
"O  c #74BE3E",
"+  c #7EC734",
"@  c #7ECB32",
"#  c #75C03E",
"$  c #7BC23F",
"%  c #4C955D",
"&  c #509E53",
"*  c #579D59",
"=  c #5C9E5A",
"-  c #54AD42",
";  c #5CAD47",
":  c #57A54E",
">  c #58A54E",
",  c #53A848",
"<  c #5EAA4B",
"1  c #5DB142",
"2  c #56A251",
"3  c #5CA255",
"4  c #5DA059",
"5  c #60AF47",
"6  c #63AD4B",
"7  c #6AAE4E",
"8  c #63B443",
"9  c #6AB545",
"0  c #6CB942",
"q  c #66B14A",
"w  c #6DB34B",
"e  c #71B747",
"r  c #74BC44",
"t  c #7CBE46",
"y  c #73B44B",
"u  c #7AB64D",
"i  c #76B949",
"p  c #7CBB4A",
"a  c #64A654",
"s  c #6BA657",
"d  c #65AA51",
"f  c #6CAC53",
"g  c #67A25B",
"h  c #6AA559",
"j  c #6CA859",
"k  c #74AE54",
"l  c #7AAB56",
"z  c #70A659",
"x  c #74AC59",
"c  c #79AA5A",
"v  c #74B251",
"b  c #7CB353",
"n  c #7FB159",
"m  c #6EA460",
"M  c #77C040",
"N  c #7DC143",
"B  c #85CB36",
"V  c #82C63C",
"C  c #8DCA3D",
"Z  c #94CF3D",
"A  c #8CD132",
"S  c #93D337",
"D  c #94D13A",
"F  c #A5DC34",
"G  c #A0D739",
"H  c #80BF47",
"J  c #85BD4C",
"K  c #88BE4D",
"L  c #80AF56",
"P  c #84B652",
"I  c #85B652",
"U  c #84B652",
"Y  c #82B655",
"T  c #83B553",
"R  c #86B950",
"E  c #84BA51",
"W  c #85BA51",
"Q  c #86BA50",
"!  c #85BA52",
"~  c #86BA52",
"^  c #85B950",
"/  c #81C341",
"(  c #87C642",
")  c #81C144",
"_  c #83C144",
"`  c #83C344",
"'  c #82C245",
"]  c #83C245",
"[  c #80C046",
"{  c #80C047",
"}  c #81C047",
"|  c #82C146",
" . c #82C047",
".. c #83C246",
"X. c #85C245",
"o. c #85C246",
"O. c #85C247",
"+. c #87C346",
"@. c #86C247",
"#. c #87C247",
"$. c #83C246",
"%. c #8AC643",
"&. c #88C347",
"*. c #8CC646",
"=. c #8FC746",
"-. c #8EC647",
";. c #8FC647",
":. c #8FC747",
">. c #8DC646",
",. c #8AC840",
"<. c #8BC841",
"1. c #8EC842",
"2. c #82C048",
"3. c #83C148",
"4. c #84C148",
"5. c #85C148",
"6. c #85C149",
"7. c #86C149",
"8. c #87C248",
"9. c #87C249",
"0. c #86C04A",
"q. c #87C04B",
"w. c #86C149",
"e. c #88C348",
"r. c #89C348",
"t. c #88C249",
"y. c #89C249",
"u. c #88C349",
"i. c #89C349",
"p. c #8AC349",
"a. c #8BC349",
"s. c #88C14A",
"d. c #88C04B",
"f. c #88C14B",
"g. c #89C14B",
"h. c #8AC14B",
"j. c #89C24A",
"k. c #89C24B",
"l. c #8AC24A",
"z. c #8BC24A",
"x. c #8AC34A",
"c. c #8BC34A",
"v. c #8AC24B",
"b. c #8BC24B",
"n. c #8CC34A",
"m. c #8BC448",
"M. c #8BC449",
"N. c #8BC44A",
"B. c #8DC548",
"V. c #8CC449",
"C. c #8CC44A",
"Z. c #88C04C",
"A. c #89C04C",
"S. c #88C04D",
"D. c #89C04D",
"F. c #8AC04C",
"G. c #8AC14C",
"H. c #8BC14C",
"J. c #8BC34A",
"K. c #90C746",
"L. c #90C746",
"P. c #92CA44",
"I. c #93CA44",
"U. c #90C846",
"Y. c #95CA44",
"T. c #92CA44",
/* pixels */
"c.c.c.~ y r n.c.c.c.c.c.c.c.c.c.c.c.c.c.c.c.c.c.c.c.c.c.c.c.c.c.c.c.c.c.c.c.c.c.c.c.c.c.c.c.c.c.c.c.c.c.c.c.c.c.c.c.c.c.c.c.c.c.",
"c.c.c.n m w 3.c.c.c.c.c.c.c.c.c.c.c.c.c.c.c.c.c.c.c.c.c.c.c.c.c.c.c.c.c.c.c.c.c.c.c.c.c.c.c.c.c.c.c.c.c.c.c.c.c.c.c.c.c.c.c.c.c.",
"c.c.c.G.Y u 4.c.c.c.c.c.c.c.c.c.c.c.c.c.c.c.c.c.c.c.c.c.c.c.c.c.c.c.c.c.c.c.c.c.c.c.c.c.c.c.c.c.c.c.c.c.C.c.c.c.c.c.c.c.c.c.c.c.",
"c.c.c.c.M.n.c.c.c.c.c.c.c.c.c.c.c.c.c.c.c.c.c.c.c.c.c.c.c.c.c.c.r H G.c.c.c.c.c.c.c.c.c.c.c.c.c.c.c.c.P.P.C.c.c.c.c.c.c.c.c.c.c.",
"c.c.c.c.c.c.c.c.c.c.c.c.c.c.c.c.c.c.c.c.c.c.c.J c.c.c.c.c.c.c.c.0 t u c.c.c.c.c.c.c.J c.c.c.4.c.c.c.c.C.C.c.c.c.c.c.c.c.c.c.c.c.",
"c.c.c.c.c.c.c.c.c.] @.c.c.c.c.c.c.c.c.c.c.c.J J J c.c.c.c.c.c.c.0 e 6 J c.c.c.c.c.J c.c.;.c.J c.c.c.c.c.c.c.c.c.c.c.c.c.c.c.c.c.",
"c.c.c.c.c.c.c.c.n.r t c.J c.c.c.c.c.c.c.c.c.c.4.c.c.c.c.c.c.c.c.] J b K c.c.c.J 4.c.c.c.C.J c.c.c.c.c.c.c.n.t t c.c.c.c.c.c.c.c.",
"c.c.c.c.c.c.c.c.C.f v w J c.c.c.c.c.c.c.c.c.c.c.n.c.c.c.c.c.c.c.n.n.C.c.c.c.c.c.c.c.c.c.c.c.c.c.c.c.c.c.c.n.r r r c.c.c.c.c.c.c.",
"c.c.c.c.c.c.c.c.c.v k f J c.c.c.c.c.c.c.c.c.c.c.] 4.c.c.] 4.K c.c.c.c.c.c.c.c.c.c.c.c.c.c.c.c.c.c.c.c.c.c.c.c.w t p K c.c.c.c.c.",
"c.c.c.c.c.c.c.c.c.c.c.c.c.c.c.c.c.c.c.c.c.c.c.c.t r 4.] . u J c.c.c.c.c.c.c.c.c.c.c.c.c.c.c.c.c.c.c.c.c.c.c.c.a k 7 K c.c.c.c.c.",
"c.c.c.c.c.c.c.c.c.c.c.c.c.c.c.c.c.c.c.c.c.c.c.c.C.S # r 9 T G.c.c.c.c.c.c.c.c.J J c.n.N ] c.c.c.c.c.C.c.c.c.c.J J b G.c.c.c.c.c.",
"c.c.c.c.c.c.c.c.4.J c.c.c.c.c.c.c.c.c.c.c.c.c.c.C.Z 9 s s K c.c.c.c.c.c.c.c.@.c.c.c.c.M ] n.c.c.c.C.;.c.c.c.c.n.M.C.c.c.c.c.c.c.",
"c.c.c.c.c.c.c.c.J J c.c.c.c.c.c.c.c.c.c.c.c.c.c.c.v = z b c.c.c.c.c.c.c.c.4.# ] c.c.# r c.t c.c.c.c.c.c.c.c.c.c.c.c.c.c.c.c.c.c.",
"c.c.c.c.c.c.c.c.u J c.c.n.c.c.c.c.c.c.c.] @.c.c.c.c.b J c.c.c.c.c.c.c.c.c.c.,.B @.@.8 y ) t t t n.c.c.c.c.c.c.c.c.c.c.c.c.c.c.c.",
"c.c.4.J c.c.c.c.v b M.c.c.c.c.c.c.c.c.n.M M c.c.c.c.C.c.c.c.c.c.c.c.c.c.c.c.;.V ] %.r f # @.r r n.c.c.c.c.c.c.c.c.c.c.c.c.c.c.c.",
"c.c.c.J c.c.c.c.k l M.c.c.c.c.c.c.c.K K r 1 u c.c.c.c.c.c.c.c.T b G.c.c.c.c.G.f y 5 f w 3 p 1 i n.c.c.c.c.c.c.c.c.c.c.c.c.c.c.c.",
"c.c.c.c.c.c.c.c.J U c.c.c.c.c.c.c.c.~ J t 7 T c.c.c.c.c.c.c.c.J b J c.c.c.c.J x u f v v f p y ~ c.c.c.c.c.c.c.c.c.c.c.;.;.c.c.c.",
"c.c.c.c.c.c.c.c.c.c.c.t M.c.c.c.c.c.c.c.c.c.c.c.c.c.c.c.c.c.c.c.c.c.c.c.c.c.c.c.c.c.c.c.c.c.c.c.c.c.c.c.c.c.c.c.c.c.c.;.;.c.c.c.",
"c.c.c.c.c.c.c.n.c.c.c.( D n.n.c.c.c.c.c.c.c.c.c.c.c.c.c.c.c.c.c.c.c.c.c.c.c.c.c.c.c.c.c.c.c.c.c.c.c.c.c.C.;.c.n.c.c.c.c.c.c.c.c.",
"c.c.c.c.c.c.c.] c.n.n.] r 3.t c.r t n.c.c.c.c.c.c.c.c.c.c.c.c.c.c.c.c.c.c.c.c.c.c.c.c.c.c.c.c.c.c.c.c.c.K.G P.] c.c.c.c.c.c.c.c.",
"c.c.c.c.c.c.c.r t t 4.p 5 . 0 c.r o 4.n.c.c.c.c.c.c.c.c.c.c.c.c.c.c.c.c.c.c.c.c.c.c.c.c.c.c.c.c.c.c.c.c.c.Y.C 9 J K c.c.c.c.c.c.",
"c.c.c.c.c.c.n.J 0 ] 0 3 & 0 4.n.M   t n.c.c.c.c.c.c.c.c.J b G.c.c.c.c.c.c.c.c.c.c.c.c.c.c.c.~ ~ c.c.c.c.c.c.7 v U U c.c.c.c.c.c.",
"c.c.c.c.c.c.n.J f c.J 4 * y J c.N X ] n.c.c.c.c.4.c.c.c.c.J c.c.c.c.c.c.c.c.c.c.c.c.c.c.c.c.G.G.c.c.c.c.n.N : k U K c.c.c.c.c.c.",
"c.c.c.c.c.c.c.c.c.c.c.4.J c.c.c.c.4.c.c.c.c.n.t r n.c.c.c.c.c.c.c.&.$ c.c.c.c.c.c.n.N # c.c.K c.c.c.c.c.n.] 6 b G.c.c.c.c.c.c.c.",
"c.c.c.c.c.c.c.c.c.c.c.c.c.c.c.c.c.c.c.c.c.c.c.r p c.c.c.c.c.c.c.c.;.B t c.c.c.c.c.c.,.@ ] ~ J c.c.c.c.c.c.c.c.c.c.c.c.c.c.c.c.c.",
"c.c.c.K G.c.c.c.c.c.c.c.c.c.c.c.c.c.c.c.c.c.] 8 b n.c.c.c.c.c.c.c.&.O w c.c.c.c.c.c.Z A @.T J c.c.c.c.c.c.c.c.c.c.c.c.c.c.c.c.c.",
"c.c.J l L c.c.c.c.c.c.c.c.c.c.n.c.c.c.c.c.c.c.J J c.c.c.c.c.c.c.c.c.3.J c.c.c.c.c.c.;.y ) K G.c.c.c.c.c.c.c.c.c.c.c.c.c.c.J c.c.",
"c.c.c.p c.c.c.c.c.c.c.c.c.c.c.t c.c.c.c.c.c.c.n.c.c.c.c.c.c.c.c.c.c.c.c.c.c.c.c.c.c.c.v 9 4.c.c.c.c.c.C.Y.c.4.c.c.c.c.c.J b J c.",
"c.c.c.8 r 4.c.c.c.c.c.c.c.;.M.r ) t J J c.c.c.c.c.c.c.c.c.c.c.c.c.c.c.c.c.c.c.c.c.c.c.c.c.c.c.c.c.c.c.C.F 4.J c.c.c.c.c.4.c.c.c.",
"c.c.c.6 a c.c.c.c.c.c.c.c.C.C.1.+ r J U c.c.c.c.c.c.c.c.c.c.c.c.c.c.c.c.c.c.c.c.c.c.c.c.c.c.c.c.c.c.c.c.$ J J c.c.c.c.c.c.c.c.c.",
"c.c.c.J J c.c.c.c.c.c.c.c.c.c.+.0 y U G.c.c.c.c.c.c.c.c.c.n.c.c.c.c.c.c.c.c.c.c.c.c.c.c.c.c.c.J J c.c.c.4.c.4.c.c.c.c.c.c.c.c.c.",
"c.c.c.c.c.c.c.c.c.c.c.c.J c.c.c.c.c.c.c.c.c.c.c.c.c.c.c.c.t c.c.c.c.c.c.c.c.c.c.c.c.c.c.c.c.c.b J c.c.c.c.c.c.c.c.c.c.c.c.c.c.c.",
"c.c.c.c.c.c.c.c.c.c.c.c.J c.c.c.c.c.c.c.c.c.c.c.c.c.c.c.c.0 t t c.c.c.c.J c.c.c.c.c.c.c.c.c.c.c.c.c.c.c.c.c.c.c.c.c.c.c.c.c.c.c.",
"c.c.c.c.c.c.c.4.c.c.c.c.c.J 4.c.c.c.c.c.c.c.c.c.c.c.c.c.J 0 y w c.c.c.c.J b G.c.c.c.c.c.c.c.c.c.c.c.c.c.c.4.c.c.c.c.c.c.K c.c.c.",
"c.c.c.c.c.c.c.r ] J K c.c.J 4.c.C.C.c.c.c.c.c.c.c.c.c.c.4.4.J q.c.c.c.c.c.G.c.c.c.c.c.c.c.c.c.c.c.c.c.c.&.$ 4.4.c.c.c.J b c.c.c.",
"c.c.c.c.c.c.c.N r p K c.c.c.c.c.C.C.c.c.c.c.c.c.c.c.c.c.c.c.c.c.c.c.c.c.c.c.c.c.c.c.c.c.c.c.c.c.c.c.c.c.;.Z r p c.c.c.c.c.c.c.c.",
"c.c.c.c.c.c.n.p 9 i p c.c.c.c.c.c.c.c.c.c.c.c.c.c.c.c.c.c.c.c.c.c.c.c.c.c.c.c.c.N @.c.c.r 4.c.c.c.c.c.c.Y i 0 e u c.c.c.c.c.c.c.",
"c.c.c.c.c.c.c.x f e u G.c.c.c.c.c.c.c.c.c.c.c.c.c.c.c.c.c.c.c.c.c.c.c.c.c.c.c.c.` # @.r < J ~ c.c.c.c.c.~ x g 7 u c.c.c.c.c.c.c.",
"c.c.c.c.c.c.c.G.J c.c.c.c.c.c.c.c.O ] n.c.c.c.c.c.c.c.c.c.c.c.c.c.c.c.c.c.c.c.c.c.o 9 9 r ~ J c.c.c.c.c.c.G.J 4.c.c.c.c.c.c.c.c.",
"c.c.c.c.c.c.c.c.c.c.c.c.c.c.c.c.c.w p t c.c.c.c.c.c.c.c.c.c.@.] c.c.3.t c.c.c.c.4.5 8 d y J c.c.c.c.c.c.c.c.c.c.c.c.c.c.c.c.c.c.",
"c.c.c.c.c.c.C.C.c.c.c.c.c.c.c.c.c.f v 7 c.c.c.c.c.c.c.c.c.;.S # c.n.t ; u C.c.C.c.v 7 J J c.c.c.c.c.c.c.c.c.c.c.c.c.c.c.c.c.c.c.",
"c.c.c.c.c.c.P.P.C.c.c.c.c.c.c.c.c.J q.J c.c.c.c.c.M ] c.c.%.D &.4.c.t - y n.C.;.c.c.J c.c.c.c.c.J c.c.c.c.C.C.C.c.c.c.c.c.c.c.c.",
"c.c.J 4.c.c.C.C.c.c.c.c.c.c.c.c.c.c.c.c.c.c.c.c.c.4.O ] c.O a J r ] r q k J c.c.c.c.c.c.c.c.c.4.c.c.c.c.c.C.P.C.c.c.c.c.c.C.C.c.",
"c.c.c.4.c.c.c.c.c.c.c.c.c.c.c.c.c.c.c.c.c.c.c.c.c.c.# O c.o 5 r r 3.0 c.T T c.c.c.c.c.c.c.c.c.c.c.c.c.c.c.c.c.c.c.c.J c.c.C.C.c.",
"c.c.c.c.c.c.c.c.c.c.c.c.c.c.c.c.c.c.c.c.c.c.c.c.c.n.] 0 r > 7 ; f 9 6 J J K c.c.c.c.c.c.c.c.c.c.c.c.c.c.c.c.c.c.c.4.c.c.c.c.c.c.",
"c.c.c.c.c.c.c.c.c.c.c.c.c.c.c.c.c.c.c.c.c.c.c.c.c.n.] e e a v < z 9 b ~ c.c.c.c.c.c.c.c.c.c.c.c.@.c.c.c.c.c.c.c.c.c.c.c.4.c.c.c.",
"c.c.c.c.c.c.c.c.c.c.c.c.c.c.c.c.C.C.c.c.c.c.c.c.c.c.c.c.c.c.c.c.c.c.c.c.c.c.c.c.c.c.c.c.c.c.c.c.M N c.c.c.c.c.c.c.c.c.c.c.c.c.c.",
"c.c.c.c.c.c.c.c.c.c.c.c.c.c.J c.C.C.c.c.c.c.c.c.c.c.c.c.c.c.c.c.c.c.c.c.c.c.c.c.c.c.c.c.c.c.c.c.@.# c.c.c.@.] c.c.c.c.c.c.c.c.c.",
"c.c.c.c.c.N ] n.c.c.c.c.c.4.J J c.c.c.C.C.c.c.c.c.c.c.c.c.c.c.c.c.c.c.C.C.c.c.c.c.c.c.c.M ( J T J 0 r 0 J N O c.K J c.c.c.c.c.c.",
"c.c.c.c.c.C V c.K G.c.c.c.c.c.c.c.c.c.Y.G 3.c.c.c.c.c.c.c.c.c.c.c.c.c.;.;.c.c.c.c.c.c.c.] O t e v 2 1 y ~ N X p U G.c.c.c.c.c.c.",
"c.c.c.c.c.$ 1 b T K c.c.c.c.c.c.c.c.c.P.;.e 4.c.c.c.c.c.c.c.c.c.c.c.c.c.c.4.c.c.c.c.c.c.4.9 J i * % d T G.N   y U c.c.c.c.c.c.c.",
"c.c.c.c.c.@.u E K c.c.c.c.c.c.c.c.c.G.Y w e r c.c.c.c.c.c.c.c.c.c.c.c.c.c.4.c.c.c.c.c.c.c.p J c.b v b G.c.4.r J c.c.c.C.P.c.c.c.",
"c.c.c.c.c.c.C.c.c.c.n.c.c.c.n.c.c.c.c.U j y 0 4.c.c.c.c.c.c.c.c.c.c.c.c.c.C.C.C.C.c.c.c.c.n.c.c.C.C.C.c.c.c.n.c.c.c.c.C.P.C.c.c.",
"c.c.c.c.c.c.c.c.c.c.] c.c.c.] c.c.c.c.c.J c.c.c.c.c.c.c.c.c.c.c.c.c.c.c.c.P.T.T.C.c.c.c.c.c.c.c.c.c.c.c.c.c.c.c.c.c.c.c.C.c.c.c.",
"c.c.c.c.c.c.c.c.c.c.t N c.u 8 J K c.c.c.c.c.c.c.c.c.c.c.c.c.c.c.c.c.c.c.c.c.c.c.c.c.c.c.c.c.c.c.c.c.c.c.c.c.c.c.c.c.c.c.c.c.c.c.",
"c.c.J c.c.c.c.c.c.c.;.B r w w T K c.c.c.c.c.c.c.c.c.c.c.t ] n.c.c.c.c.c.c.c.c.c.c.c.c.c.c.c.c.c.c.c.c.c.c.c.T u J c.c.c.c.c.c.c.",
"c.c.c.c.c.c.c.c.c.c.c.8 d f v ~ c.c.c.c.c.c.C.c.c.c.r i r c.c.c.c.c.c.c.c.c.c.c.r t c.c.c.c.n.c.c.c.c.c.c.J J J c.c.c.c.c.c.c.c.",
"c.c.c.c.c.c.c.c.c.c.4.d = h b c.c.c.c.c.c.C.K.C.c.c.p 7 c.c.c.c.c.c.c.c.c.c.c.c.@.V c.n.c.4.] c.c.K c.c.c.c.c.c.c.c.c.c.c.c.c.c.",
"c.c.c.c.c.c.c.c.c.c.c.b f b G.c.c.c.c.c.c.c.c.c.c.c.4.t c.c.C.;.c.c.c.c.t 4.c.c.;.F ] r 4.t 0 c.J J c.c.c.c.c.c.c.c.c.c.c.c.c.c.",
"c.c.c.c.c.c.c.c.c.c.c.M.C.C.c.c.c.c.c.c.4.J J c.c.c.c.c.c.C.P.C.c.c.c.c.t r t t J w 8 9 J t   y ~ c.c.c.c.c.c.c.c.c.c.c.c.c.c.c.",
"c.c.c.n.c.c.c.c.c.c.c.c.c.c.c.c.c.c.c.c.4.J b c.c.c.c.c.c.c.C.c.c.c.c.c.c.8 u e 3 % 3 c T t , h T c.c.c.c.c.c.c.4.r 4.J K c.c.c.",
"c.c.c.t c.c.c.c.c.c.c.c.c.c.c.c.c.c.c.c.c.c.c.c.c.c.c.c.c.c.c.c.c.c.c.c.c.k E c.k a h Y c.3.w k U c.c.c.c.c.c.c.c.i e G.U c.c.c.",
"c.c.c.6 J c.c.c.c.c.c.c.c.c.c.c.c.c.c.c.c.c.c.c.c.c.c.c.c.c.c.c.c.c.c.c.c.c.c.c.c.c.c.c.c.c.c.c.c.c.c.c.c.c.c.c.C.v = b T c.c.c.",
"c.c.c.5 f c.c.c.c.c.c.c.c.c.c.c.c.c.c.c.c.c.c.c.c.c.c.c.c.c.c.c.c.c.c.c.c.c.c.c.c.c.c.c.c.c.c.c.c.c.c.c.c.c.c.c.n.p & z K c.c.c."
};
