/* XPM */
static char *_85eacdf05db404afdb1711dfe55fac1L5frMjWLUwgf00Yl[] = {
/* columns rows colors chars-per-pixel */
"64 64 212 2 ",
"   c #030201",
".  c #0A0504",
"X  c #060B04",
"o  c #0A0B05",
"O  c #0D0B0A",
"+  c #110A06",
"@  c #130D0A",
"#  c #1A0E0B",
"$  c #0D1307",
"%  c #14180B",
"&  c #15120B",
"*  c #151113",
"=  c #1D1617",
"-  c #17200D",
";  c #7E5237",
":  c #57585D",
">  c #7B4B47",
",  c #56645B",
"<  c #4D5565",
"1  c #515361",
"2  c #5A5C68",
"3  c #4A4E6A",
"4  c #635C67",
"5  c #656E7F",
"6  c #6A6A7B",
"7  c #62677D",
"8  c #65717E",
"9  c #68767B",
"0  c #707B77",
"q  c #883E3E",
"w  c #84453E",
"e  c #8D5B3E",
"r  c #85573A",
"t  c #915D3E",
"y  c #93633F",
"u  c #8D633F",
"i  c #883E41",
"p  c #853E48",
"a  c #894341",
"s  c #874845",
"d  c #974C41",
"f  c #895641",
"g  c #945E41",
"h  c #9A5646",
"j  c #964954",
"k  c #A34D53",
"l  c #8F6041",
"z  c #8E6A47",
"x  c #966142",
"c  c #996343",
"v  c #946941",
"b  c #996B43",
"n  c #95644A",
"m  c #9D6A4C",
"M  c #966A4D",
"N  c #9A7147",
"B  c #9F6851",
"V  c #A16D4E",
"C  c #A26C51",
"Z  c #A77457",
"A  c #A2714F",
"S  c #D3487C",
"D  c #569F39",
"F  c #5CB63C",
"G  c #57B539",
"H  c #54AE3F",
"J  c #6EBD3D",
"K  c #65B73C",
"L  c #72BE3E",
"P  c #78BB3E",
"I  c #72A73C",
"U  c #75C13D",
"Y  c #7CC33B",
"T  c #4A9857",
"R  c #579B59",
"E  c #649C5E",
"W  c #4CA547",
"Q  c #5DAA4B",
"!  c #5AA948",
"~  c #5BB043",
"^  c #5BA254",
"/  c #65AD4D",
"(  c #6EAE4C",
")  c #7CAE42",
"_  c #76AB45",
"`  c #65B543",
"'  c #6BB545",
"]  c #6CBA41",
"[  c #67B347",
"{  c #74BC43",
"}  c #7CBE45",
"|  c #74B44C",
" . c #7BB54F",
".. c #74B949",
"X. c #7CBA4B",
"o. c #78B445",
"O. c #64A554",
"+. c #68A455",
"@. c #6CAB53",
"#. c #66A35A",
"$. c #6AA25C",
"%. c #67A955",
"&. c #74AC55",
"*. c #7AAB56",
"=. c #7EAB5A",
"-. c #72A45B",
";. c #6EB052",
":. c #74B251",
">. c #7BB352",
",. c #71B853",
"<. c #418965",
"1. c #6B9D65",
"2. c #7DC143",
"3. c #77C040",
"4. c #83BA3C",
"5. c #87C83A",
"6. c #92CD3A",
"7. c #98D437",
"8. c #87CF31",
"9. c #A5DC34",
"0. c #B1E52E",
"q. c #81B544",
"w. c #84B946",
"e. c #8BBB47",
"r. c #83B64C",
"t. c #8DB64B",
"y. c #85BD4C",
"u. c #8ABD4C",
"i. c #82AC56",
"p. c #84B553",
"a. c #85BA52",
"s. c #8ABB51",
"d. c #85B859",
"f. c #8EB34D",
"g. c #83C245",
"h. c #8CC546",
"j. c #86C14A",
"k. c #8BC34A",
"l. c #8AC24A",
"z. c #89C14A",
"x. c #8CC34B",
"c. c #8BC44A",
"v. c #8CC44A",
"b. c #8DC54A",
"n. c #8BC34A",
"m. c #8EC84B",
"M. c #91C646",
"N. c #93CA44",
"B. c #91C54A",
"V. c #91CB4C",
"C. c #8AC254",
"Z. c #87C158",
"A. c #95C65B",
"S. c #92C452",
"D. c #5F6A82",
"F. c #636B82",
"G. c #616B8A",
"H. c #686B80",
"J. c #65728A",
"K. c #4E5DBC",
"L. c #535CBC",
"P. c #5160BE",
"I. c #4E54C6",
"U. c #4D59C5",
"Y. c #4B56CB",
"T. c #4C59CC",
"R. c #4C5AD0",
"E. c #5978CC",
"W. c #5475D7",
"Q. c #5A76D2",
"!. c #5374DD",
"~. c #567BD7",
"^. c #5174E2",
"/. c #547AE0",
"(. c #D8488C",
"). c #5F9ACA",
"_. c #5A95D6",
"`. c #5995DC",
"'. c #5A96D8",
"]. c #649CC8",
"[. c #6496DA",
"{. c #71AEC7",
"}. c #72B4CE",
"|. c #76B9C4",
" X c #6FACD3",
".X c #6EAEDA",
"XX c #6EB2DB",
"oX c #71B3D3",
"OX c #70B3DA",
"+X c #7BB2D8",
"@X c #73AED6",
"#X c #5693E1",
"$X c #F0B8BE",
"%X c #E6B1BB",
"&X c #DCCBBC",
"*X c #E6D2BF",
"=X c #82B5D8",
"-X c #ECACC9",
";X c #F4B3CC",
":X c #F9B7CE",
">X c #F6B9CA",
",X c #FEBAD5",
"<X c #F4BBD6",
"1X c #EDBAD3",
"2X c #E1CDC1",
"3X c #EBD4C9",
"4X c #F3DBCC",
"5X c #F6DCCB",
"6X c #F4DCD4",
"7X c #EAD6D0",
"8X c #FDE6D9",
"9X c #EFE4CC",
/* pixels */
"k.k.k.s...J B.k.k.k.k.k.k.k.k.k.k.k.k.k.k.k.k.k.k.k.k.k.k.k.k.k.k.k.k.k.k.k.k.k.k.k.k.k.k.k.k.k.k.k.k.k.k.k.k.k.k.k.k.k.k.k.k.k.",
"k.k.c.=.1.[ g.x.k.k.k.k.k.k.k.k.k.k.k.k.k.k.k.k.k.k.k.k.k.k.k.k.k.k.k.k.k.k.k.k.k.k.k.k.k.k.k.k.k.k.k.k.k.k.k.k.k.k.k.k.k.k.k.k.",
"k.k.k.c.d. .g.x.k.k.k.k.k.k.k.k.k.k.k.k.k.k.k.k.k.k.k.k.k.k.k.k.k.k.k.k.k.k.k.k.k.k.k.k.k.k.k.k.k.k.k.k.k.k.k.k.k.k.k.k.k.k.k.k.",
"k.k.k.k.b.b.x.k.k.k.k.k.k.k.k.k.k.k.k.k.k.k.k.k.k.k.k.k.k.k.k.b.] } x.k.k.k.k.k.k.k.k.k.k.k.k.k.k.k.k.N.N.k.k.k.k.k.k.k.k.k.k.k.",
"k.k.k.k.k.k.k.k.k.x.x.k.k.k.k.k.k.k.k.k.k.x.k.y.k.k.k.k.k.k.k.b.] } X.c.k.k.k.k.b.k.y.x.k.k.y.k.k.k.k.b.b.k.k.k.k.k.k.k.k.k.k.k.",
"k.k.k.k.k.k.k.k.x.g.g.x.c.k.k.k.k.k.k.k.k.k.y.y.y.k.k.k.k.k.k.b.] | Q u.c.k.k.b.j.y.j.k.h.j.y.k.k.k.k.k.k.k.b.x.k.k.k.k.k.k.k.k.",
"k.k.k.k.k.k.k.k.b.J 2.x.r.b.k.k.k.k.k.k.k.k.k.j.k.k.k.k.k.k.k.x.g.r.>.u.c.k.k.y.y.k.k.k.h.y.k.k.k.k.k.k.k.b.{ } x.k.c.k.k.k.k.k.",
"k.k.k.k.k.k.k.k.B.%.@.' y.b.k.k.k.k.k.k.k.k.b.c.b.x.k.k.x.x.b.k.b.b.b.b.k.k.k.k.k.b.k.k.k.k.k.k.k.k.k.k.k.b.{ { { z.k.k.k.k.k.k.",
"k.k.k.k.k.k.k.k.b.:.&.%.r.b.k.k.k.k.k.k.k.k.k.x.} j.x.b.j.j.u.c.k.k.k.k.c.c.k.b.k.k.k.k.k.k.k.k.k.k.k.k.k.k.b.[ } y.y.c.k.k.k.k.",
"k.k.k.k.k.k.k.k.k.b.b.b.c.k.k.k.k.k.k.k.k.k.k.b.} ] k.j.F | f.e.k.k.k.k.u.u.k.k.k.x.k.x.x.k.k.k.k.k.k.k.k.k.b.#.@.Q u.c.k.k.k.k.",
"k.k.k.k.k.k.k.k.k.k.k.k.k.k.k.k.k.k.k.k.k.k.c.c.x.7.U { ` i.b b e.c.m.t.s s u.j.y.k.b.2.g.x.k.k.k.k.k.k.k.k.b.r.a.>.u.c.k.k.k.k.",
"k.k.k.k.k.x.k.c.j.y.b.k.k.k.k.k.k.k.k.k.k.k.k.k.k.7.K $.#.t.c c t.u.w.q.q w w.b.k.k.x.L g.B.k.x.k.h.N.k.k.k.k.b.b.b.c.k.k.k.k.k.",
"k.k.k.k.k.k.k.x.y.y.b.k.k.k.k.k.k.k.k.k.x.x.k.k.b.%.R -.>.B.b c b v % X . O K g.x.b.U { x.} x.b.k.k.k.k.k.k.k.k.k.k.k.k.k.k.k.k.",
"k.k.k.b.k.k.b.k.X.y.b.k.k.k.k.k.k.k.k.x.g.g.x.k.k.x.:.r.q.) c c c g # . . & 4.8.j.h.H | 5.} } } b.k.k.k.k.k.k.k.k.k.k.k.k.k.k.k.",
"k.k.y.y.k.x.k.c.&.>.b.k.k.k.k.k.k.k.c.b.P Y b.k.k.k.V.u.$ @ x b c c x x t y M.5.} N.} @.Y b.] ] B.k.k.k.k.k.k.k.k.k.k.k.k.k.k.k.",
"k.k.k.y.k.k.k.c.&.*.b.k.k.k.k.k.k.k.y.u.{ W r.b.k.k.w.) X . x b c c c b V m t.+.| Q %.' T ..H ..b.k.k.k.k.k.k.k.k.k.k.k.k.k.k.k.",
"k.k.k.k.k.k.k.b.a.a.b.x.k.k.k.k.k.k.a.a.2./ p.k.b.w.% X   O g c c b c V 4X4XA z r.%.:.>.#.g.| a.b.k.k.k.k.k.k.k.k.k.k.M.N.k.k.k.",
"k.k.k.k.k.k.k.k.c.b.k.{ k.k.c.k.x.x.b.c.x.B.b.k.b.) X     @ g b x x t M 6X4Xm y e.h.b.b.b.x.b.b.k.k.k.k.k.k.k.k.k.k.k.M.N.k.k.k.",
"k.k.k.k.k.k.k.b.k.k.k.g.7.z.b.x.k.k.k.k.k.k.k.k.V.w.X   ; e b t + . . # m M @ . $ - w.b.k.k.k.k.k.k.k.k.b.h.z.b.x.k.k.k.k.k.k.k.",
"k.k.k.k.k.k.k.} x.b.b.g.L k.} b.{ { B.k.k.k.k.k.w.I X   t c c g = @   . t t = O   X w.b.k.k.k.k.k.k.k.k.h.9.N.g.k.b.k.k.k.k.k.k.",
"k.k.k.k.k.k.k.] } } g.y.Q F K b.{ K k.x.k.k.m.) o .     e c x m 3X3X*   g m 4X&X  X w.b.k.k.b.b.k.k.k.k.k.N.6.[ y.u.k.k.k.k.k.k.",
"k.k.k.k.k.k.b.g.` g.] R T K k.x.2.G } b.k.k.m.)     . + e c x m 4X4X= + t V 5X&XO $ w.b.k.b.a.p.b.k.k.k.k.B.@.:.d.p.b.k.k.k.k.k.",
"k.k.k.k.k.k.b.y.%.B.y.R R :.y.k.2.F g.b.k.k.m.)   . r t x c c b m m e e c c V m e u u.c.x.c.z.u.c.k.k.k.x.2.W &.a.u.k.k.k.k.k.k.",
"k.k.k.k.k.k.k.k.k.k.x.k.k.k.k.k.k.k.k.k.k.k.V._   . x c c c c c x x c c c c x c c m q.P x.k.u.b.k.k.k.k.x.g.Q &.x.c.k.k.k.k.k.k.",
"k.k.k.b.c.k.k.k.k.k.k.k.k.k.k.k.k.k.k.k.k.k.m.I   . t b c c c c b b c c c c b c x x c v w.a.r.c.k.k.k.k.k.x.b.b.k.k.k.k.k.k.k.k.",
"k.k.k.k.k.k.k.k.k.k.k.k.k.k.k.k.k.k.k.k.k.x.c.D O @ g b c c c g c c c c c c c b V V c v e.p.r.b.k.k.k.k.k.k.k.k.k.k.k.k.k.b.k.k.",
"k.x.y.-.=.b.k.k.k.k.k.k.k.k.x.b.k.k.k.k.k.k.c.r.l t c c c x a a c c c c c c t C 4X3Xm l 5.y.u.c.k.k.k.k.z.k.b.k.k.k.k.c.k.y.k.k.",
"k.k.k.} x.b.k.k.k.k.k.k.k.k.k.} x.x.x.c.k.k.c.t.b b c c c g i a c c c c c c g A 8X4XC M ( c.x.k.k.k.k.k.N.k.j.k.k.k.k.b.r.*.y.k.",
"k.k.k.F { k.j.x.k.k.k.k.k.M.h.{ g.2.g.u.b.b.c.t.c c c c c x i a c c c c c b t C 8X8X4X4X8X9Xb.k.k.k.k.b.0.y.r.k.k.k.k.k.y.k.b.k.",
"k.k.b.! R k.k.k.k.k.k.k.k.b.s.B.Y [ a.=.r.r.c.t.b c c c c c a a g g g x c b V Z 2X3X8X8X3X&Xb.c.b.k.k.k.U y.y.b.k.k.k.k.b.k.k.k.",
"k.k.k.y.y.b.k.k.k.k.k.k.b.u.8 F.8 F.F.F.F.8 z.e.c c c c c c c g a i i a c m 5X2XX * ;X:X* $ y.a.y.b.k.k.j.k.y.x.k.k.k.k.k.k.k.k.",
"k.k.k.b.b.k.k.k.k.k.k.k.y.p.F.F.F.F.F.F.F.F.a.t.n n c c c c b c a a a s g M 4X&X@ = ;X:X= % y.>.r.c.k.k.b.k.k.k.k.k.k.k.k.k.k.k.",
"k.k.k.k.k.k.k.k.k.k.b.u.9 F.F.F.F.F.F.F.F.F.8 8 5 6 n c c c c c c x 6 7 1 : M Z -X;X,X,X;X%XB.h.b.k.k.k.k.b.k.k.k.k.k.k.b.k.k.k.",
"k.k.k.k.k.k.k.j.x.x.z.u.8 F.F.F.F.F.F.F.F.F.F.F.F.5 n c n n n n n n 6 D.< 1 g C :X,X:X:X,X>Xs.y.k.k.k.k.k.y.b.x.k.k.k.k.u.k.k.k.",
"k.k.k.k.k.x.k.J g. .9 8 5 F.F.F.a.u.r.p.F.F.F.F.F.F.6 H.E.Q.Q.Q.Q.E.G.7 F.7 1 : B C C C 4 2 : , y.b.k.x.g.Y j.g.b.k.b.y.*.k.k.k.",
"k.k.k.k.k.k.k.g.] | J.G.G.G.8 9 x.N.b.u.5 F.F.F.F.F.F.G.!.^.^.^.^.!.G.7 F.F.< : v v v v 1 3 3 < r.b.k.k.N.7.] X.x.k.k.j.k.j.k.k.",
"k.k.k.k.k.k.b.y.` >.~.!.^.E.a.k.k.k.b.u.5 F.F.F.F.F.F.F.U.Y.T.T.Y.T.G.F.F.8 r.k.} y.x.s.P.Y.Y.K.a.b.k.k.d...] |  .x.k.k.k.x.k.k.",
"k.k.k.k.k.k.x.-.O.;.E.W.!.E.z.b.k.k.c.r.5 F.F.F.F.F.F.F.U.Y.Y.Y.Y.T.G.F.F.8 u.b.g.J c...K.I.I.L.a.b.k.k.a.$.E /  .x.k.k.k.k.k.k.",
"k.k.k.k.k.k.k.z.z.u.M n n M u.c.x.L g.s.5 F.F.F.F.F.F.F.W.!.Y.Y.!.!.G.F.F.8 u.b.x.K [ ( > p p s u.c.k.k.b.z.u.k.k.k.k.k.k.k.k.k.",
"k.k.k.k.k.k.k.k.c.e.b c c b e.c.b./ ....F.F.F.F.F.F.F.F.W.!.T.T.!.!.G.F.F.8 u.b.k.! ` +.w q q w u.c.k.k.k.b.b.x.k.k.k.k.k.k.k.k.",
"k.k.k.k.k.k.k.x.c.t.b c g b e.k.b.#.:.^ 8 F.F.F.F.F.F.F.U.T.!.!.T.Y.G.F.F.8 u.b.b.@./ r.s i i a u.c.k.k.k.k.k.k.k.k.k.k.k.k.k.k.",
"k.x.k.k.b.k.N.N.c.e.N b b N e.c.x.y.k.p.5 F.F.F.F.F.F.F.U.R.!.!.T.T.G.F.F.5 u.N.k.x.y.e.f a s f r.c.k.k.k.b.h.b.k.k.k.k.k.k.k.k.",
"k.k.y.y.k.k.k.k.k.k.e.e.e.e.k.k.k.x.b.u.5 F.F.F.F.F.F.F.W.!.T.T.!.!.G.F.F.8 u.b.k.c.b.k.u.u.e.r.j.x.k.k.k.b.N.b.k.k.k.k.k.b.b.k.",
"k.k.k.j.y.k.k.k.k.k.c.c.c.c.k.k.k.k.b.r.5 F.F.F.F.F.F.F.!.^.T.T.!.!.G.F.F.8 u.b.k.k.k.k.c.c.c.b.k.k.k.k.k.k.k.k.k.b.y.j.k.h.h.k.",
"k.k.k.b.b.k.k.k.k.k.k.k.k.k.k.k.k.k.b.u.5 F.F.F.F.F.F.F.U.R.!.!.T.T.G.F.F.8 u.b.k.k.k.k.k.k.k.k.x.k.k.k.k.k.k.k.k.y.k.k.k.k.k.k.",
"k.k.k.k.k.k.k.k.k.k.k.k.k.k.k.k.k.k.b.r.5 F.F.F.F.F.F.F.U.R.!.!.T.T.G.F.F.8 u.b.k.k.k.k.k.k.k.k.g.x.k.k.k.k.k.k.k.k.x.k.y.k.k.k.",
"k.k.k.k.k.k.k.k.k.k.k.k.k.k.b.k.h.b.c.u.5 F.F.F.F.F.F.F.!.^.Y.Y.!.!.G.F.F.8 u.b.k.k.k.k.k.k.k.x.U 2.x.k.k.x.x.k.k.k.k.k.k.k.k.k.",
"k.k.k.k.k.k.k.k.k.k.k.k.k.k.y.k.h.b.c.r.8 F.F.F.F.F.F.F.~./.T.T./.~.G.F.F.8 u.b.k.k.k.k.k.k.x.x.g.J x.x.b.g.2.x.k.k.k.k.k.k.k.k.",
"k.k.k.k.b.} g.x.c.c.k.k.k.j.X.y.k.k.b.u.F.F.F.F.F.F.F.F. XXX.X.X.X XJ.7 F.5 u.b.k.k.k.x.3.g.y.p.y.] { F j.2.L b.u.a.c.k.k.k.k.k.",
"k.k.k.c.z.6.5.k.u.u.c.k.k.k.k.k.k.k.k.x.0 F.F.F.F.F.F.J. XOXOXOXOXoXJ.F.F.9 u.b.k.k.k.x.g.U ..' >.R G ..a.g.G ..p.k.k.k.k.k.k.k.",
"x.k.k.k.x.Y W >.i.y.c.k.k.k.k.k.k.k.k.N.u.%.{. X X X X XOXOXOXOXOXOX X{.a.r.k.k.k.k.k.x.j.K a.{ T T O.p.x.2.G ( a.c.k.k.k.k.k.k.",
"k.k.k.k.x.g.| p.u.b.k.k.k.k.k.k.k.b.u.d.' ,.|.oXOXOXOXOXOXOXOXOXXXXXXXoXZ.a.z.k.k.k.k.k.k.} y.b.>.&.>.k.b.j.{ y.x.k.k.b.N.k.k.k.",
"k.k.k.k.k.x.b.b.c.k.b.k.k.k.x.k.k.k.k.d.#.| ] d.OXXXOXOXOXOXOXXX`.`.`.'.'.).C.h.k.k.k.k.k.b.b.k.b.B.b.k.k.x.b.b.k.k.k.b.N.k.k.k.",
"k.k.x.k.k.k.k.k.k.x.} k.k.b.g.k.b.k.k.b.z.z.h.Z.}.oXoXoXOXOXOXXX`.`.`.`.#X_.C.N.b.k.k.k.k.k.k.k.k.k.k.k.k.k.k.k.k.k.k.k.k.k.k.k.",
"k.k.k.k.k.k.k.k.k.x.{ } B.>.~ g.u.c.k.k.b.k.k.z.C.C.C.Z.}.XXOXOXXXXX`.`.`.'.'.).z.k.k.k.k.k.k.k.k.k.k.k.k.k.b.b.k.k.k.k.k.k.k.k.",
"k.b.y.k.x.k.k.k.k.k.B.8.} [ ' a.u.c.k.k.k.k.k.k.b.x.C.Z.}.OXOXOXXX.X`.`.`.'._.].z.b.k.k.k.k.k.k.k.k.k.k.k.b.>.>.y.k.k.k.k.k.k.k.",
"k.k.k.k.k.k.k.k.k.k.h.F @.@.:.s.c.k.k.k.k.k.b.k.h.C.}.OXOXOXXXXX`.`.`.`.#X_.d.x.] } x.k.k.x.b.k.k.b.k.k.k.r.r.y.k.k.k.k.k.k.k.k.",
"k.k.k.k.k.k.k.k.k.k.k.^ R #.&.b.k.k.k.k.k.k.N.x.S.A.oXOXOXOX+X+X`.`.`.'._.).C.h.k.Y k.B.b.j.g.x.k.u.k.k.k.k.c.b.k.k.k.k.k.k.k.k.",
"k.k.k.k.k.k.k.k.k.k.k.p.%.>.x.k.k.k.k.k.k.b.h.A.9X9XOXXXXX+X<X1X[.`.#X_.,.y.x.x.b.0.g.] j.} ] B.r.r.c.k.k.k.k.k.k.x.k.k.k.k.k.k.",
"k.k.k.k.k.k.k.k.k.k.k.b.B.b.k.k.k.k.k.b.y.X.y.A.6X6X+X@XOX=X:X;X[._.`.].X.J } { k.( F ` z.g.F | s.c.k.k.k.k.k.k.k.k.b.k.k.k.k.k.",
"k.k.k.x.k.k.k.k.k.k.k.k.k.k.k.k.k.k.k.b.y.y.*.f.(.(.(.(.6X7Xk k j j -X1XS.~ p.' R <.^ =.i.g.W E p.k.k.k.k.k.k.b.g.] k.a.u.k.k.k.",
"k.k.k.2.k.k.k.k.k.k.k.k.k.k.k.k.k.k.k.k.k.x.c.f.S S S S 4X*Xh d d h $X$Xx.%.p.b.@.O.$.p.b.g./ &.a.k.k.k.k.k.k.k.b...' B.p.k.k.k.",
"k.k.k.Q j.b.k.k.k.k.k.k.k.k.k.k.k.k.k.k.k.k.k.k.u.u.u.u.B.b.e.e.u.u.x.x.k.b.b.k.b.b.b.b.k.x.b.b.c.k.k.k.k.k.k.k.b.:.R >.p.k.k.k.",
"k.k.b.Q O.b.k.k.k.k.k.k.k.k.k.k.k.k.k.k.k.k.k.k.c.c.c.c.k.k.c.c.c.c.k.k.k.k.k.k.k.k.k.k.k.k.k.k.k.k.k.k.k.k.k.k.b.} T -.u.k.k.k."
};
