/* XPM */
static char *fde6fcdfe6c94690b57feb93cc9fd27cXTwMj7C3juyhFRg3[] = {
/* columns rows colors chars-per-pixel */
"64 64 213 2 ",
"   c #020201",
".  c #0A0604",
"X  c #060904",
"o  c #0B0C04",
"O  c #0B0B0B",
"+  c #150D0A",
"@  c #110A07",
"#  c #0F1208",
"$  c #14130A",
"%  c #15190A",
"&  c #191615",
"*  c #241B1C",
"=  c #271A21",
"-  c #7D3C3C",
";  c #525E5E",
":  c #58665C",
">  c #4D5364",
",  c #4B506B",
"<  c #515C67",
"1  c #4B4F65",
"2  c #5D6E7D",
"3  c #646A7E",
"4  c #69697B",
"5  c #66737D",
"6  c #68757A",
"7  c #8A3D3C",
"8  c #8D5C3E",
"9  c #88573A",
"0  c #925E3E",
"q  c #89463E",
"w  c #99643E",
"e  c #8A623D",
"r  c #883E41",
"t  c #D63B7E",
"y  c #8A4341",
"u  c #85444A",
"i  c #874944",
"p  c #9A4847",
"a  c #8B5244",
"s  c #945E41",
"d  c #9A5349",
"f  c #824852",
"g  c #82515C",
"h  c #A24C53",
"j  c #A45056",
"k  c #966242",
"l  c #996343",
"z  c #956B43",
"x  c #996944",
"c  c #95654D",
"v  c #9B674A",
"b  c #9E694A",
"n  c #9B7148",
"m  c #936853",
"M  c #93725A",
"N  c #8F6549",
"B  c #A26B4D",
"V  c #A46E52",
"C  c #A57253",
"Z  c #A77659",
"A  c #D2497D",
"S  c #5CB63C",
"D  c #57B539",
"F  c #50A43D",
"G  c #63B63E",
"H  c #6DBC3D",
"J  c #68B83C",
"K  c #71BE3E",
"L  c #79BF3F",
"P  c #6BA73E",
"I  c #75C23E",
"U  c #7BC33B",
"Y  c #72C532",
"T  c #499757",
"R  c #529D54",
"E  c #589B5A",
"W  c #649C5E",
"Q  c #4CA447",
"!  c #5DAA4B",
"~  c #57A847",
"^  c #5BB142",
"/  c #58A156",
"(  c #64AC4D",
")  c #6CAD4E",
"_  c #6AAE42",
"`  c #7DAE42",
"'  c #7AAE48",
"]  c #65B443",
"[  c #6BB545",
"{  c #6CBA41",
"}  c #6AB24A",
"|  c #67B248",
" . c #74BC43",
".. c #7BBE45",
"X. c #74B44C",
"o. c #74BA4A",
"O. c #7CBA4A",
"+. c #79B448",
"@. c #63A654",
"#. c #6BAB53",
"$. c #66A359",
"%. c #69A557",
"&. c #73AC54",
"*. c #7AAC56",
"=. c #7DAB5B",
"-. c #73A559",
";. c #74B251",
":. c #7BB352",
">. c #7DBC52",
",. c #6FBA58",
"<. c #499466",
"1. c #6B9D65",
"2. c #7DC144",
"3. c #77C141",
"4. c #91C02F",
"5. c #86C73A",
"6. c #92CD3A",
"7. c #99D23B",
"8. c #89CE2F",
"9. c #A7DE34",
"0. c #B1E52E",
"q. c #81B445",
"w. c #84B947",
"e. c #8CBB46",
"r. c #8AB54B",
"t. c #84BD4B",
"y. c #8BBD4B",
"u. c #85B74B",
"i. c #91BB49",
"p. c #81AD59",
"a. c #84B553",
"s. c #86BC53",
"d. c #8ABB52",
"f. c #86BD58",
"g. c #86B859",
"h. c #94B551",
"j. c #96BE56",
"k. c #85AF45",
"l. c #83C245",
"z. c #8CC546",
"x. c #86C14A",
"c. c #8CC34B",
"v. c #8BC44A",
"b. c #8DC54A",
"n. c #8BC34A",
"m. c #8DC84A",
"M. c #8EC841",
"N. c #91C645",
"B. c #93CA43",
"V. c #90C54B",
"C. c #91C94D",
"Z. c #8AC353",
"A. c #85C059",
"S. c #89C25A",
"D. c #94C354",
"F. c #97C659",
"G. c #5D6B80",
"H. c #636B82",
"J. c #616B8A",
"K. c #616784",
"L. c #647189",
"P. c #657790",
"I. c #5056BD",
"U. c #5366B8",
"Y. c #4D59C5",
"T. c #4B57CA",
"R. c #4C59CC",
"E. c #4D56C1",
"W. c #4F61CD",
"Q. c #5B78CD",
"!. c #5574D6",
"~. c #5374DD",
"^. c #577BD8",
"/. c #5276E2",
"(. c #567CE0",
"). c #DC3C85",
"_. c #DD4889",
"`. c #DE518E",
"'. c #5A95D7",
"]. c #5694DD",
"[. c #5995DC",
"{. c #5796DB",
"}. c #5C86C9",
"|. c #6A98D9",
" X c #6EADD5",
".X c #6EA7D2",
"XX c #6FB2DA",
"oX c #6CB1D5",
"OX c #72B3D5",
"+X c #70B3DB",
"@X c #7CB7D7",
"#X c #70ACD4",
"$X c #D7C4B8",
"%X c #E0CABD",
"&X c #81B8D8",
"*X c #F4AFC4",
"=X c #EEB7C2",
"-X c #F4B4CB",
";X c #F7B8C9",
":X c #FDBBD4",
">X c #F5B9D6",
",X c #EFAFCB",
"<X c #E3CFC3",
"1X c #EBD4C2",
"2X c #E9D7C5",
"3X c #F1D7C6",
"4X c #F3DACB",
"5X c #F3D7CA",
"6X c #F5DED2",
"7X c #F6D6D2",
"8X c #EFE4D7",
"9X c #FBE5D8",
"0X c #EFE3C7",
/* pixels */
"n.n.n.d.o.H V.n.n.n.n.n.n.n.n.n.n.n.n.n.n.n.n.n.n.n.n.n.n.n.v.v.n.n.n.n.v.v.n.n.n.n.n.n.n.n.n.n.n.n.n.n.n.n.n.n.n.n.n.n.n.n.n.n.",
"n.n.v.=.1.| l.c.n.n.n.n.n.n.n.n.n.n.n.n.n.n.n.n.n.n.n.n.n.n.y.y.n.n.n.n.y.y.n.n.n.n.v.v.n.n.n.n.n.n.n.n.n.n.n.n.n.n.n.n.n.n.n.n.",
"n.n.n.v.g.:.l.c.n.n.c.c.n.n.n.n.n.n.n.n.n.n.n.n.n.n.n.n.v.e.z n y.v.m.y.a a r.v.n.n.v.n.n.n.n.n.n.n.n.n.n.n.n.n.n.n.n.n.n.n.n.n.",
"n.n.n.n.b.b.c.n.n.n.n.n.n.n.n.n.n.n.n.n.n.n.n.n.n.n.n.n.v.e.l l ' w.q.` - - r.v.n.n.n.n.n.n.n.n.n.n.n.B.B.n.n.n.n.n.n.n.n.n.n.n.",
"n.n.n.n.n.n.n.n.n.c.c.n.n.n.n.n.n.n.n.n.n.c.n.t.n.n.n.n.m.y.x l z k $     o q.b.n.n.t.c.n.n.t.n.n.n.n.b.b.n.n.n.n.n.n.n.n.n.n.n.",
"n.n.n.n.n.n.n.n.c.l.l.c.v.n.n.n.n.n.n.n.n.n.t.t.t.n.n.n.w.k.x l l s +     # q.b.t.t.x.n.z.x.t.n.n.n.n.n.n.n.b.c.n.n.n.n.n.n.n.n.",
"n.n.n.n.n.n.n.n.b.H 3.c.u.b.n.n.n.n.n.n.n.n.n.x.n.n.C.n.% $ k l l l 8 8 9 8 r.x.t.n.n.n.z.t.n.n.n.n.n.n.n.b. ...c.n.v.n.n.n.n.n.",
"n.n.n.n.n.n.n.n.V.@.#.[ t.b.n.n.n.n.n.n.n.n.b.n.b.n.` P X . k l l l l x C C r.r.n.n.n.n.n.n.n.n.n.n.n.n.n.b. . . .n.n.n.n.n.n.n.",
"n.n.n.n.n.n.n.n.b.;.&.%.u.b.n.n.n.n.n.n.n.n.n.c.l.` #     o s l l x l V 6X6XV n b.b.n.n.n.n.n.n.n.n.n.n.n.n.b.| ..t.t.v.n.n.n.n.",
"n.n.n.n.n.n.n.n.n.b.b.b.v.n.n.n.n.n.n.n.n.n.n.c.2.P X   . + s x 8 8 9 c 5X3Xc e q.q.n.c.c.n.n.n.n.n.n.n.n.n.b.$.#.! y.v.n.n.n.n.",
"n.n.n.n.n.n.n.n.n.n.n.n.n.n.n.n.n.n.n.n.n.n.n.n.C.8.o   9 s l 8 o   . + v c @   X % w.2.l.c.n.n.n.n.n.n.n.n.b.t.a.:.y.v.n.n.n.n.",
"n.n.n.n.n.c.n.v.x.t.b.n.n.n.n.n.n.n.n.n.n.n.n.n.t.4.o   8 x l 8 + X   . 0 0 $ X   o w.I 2.V.n.n.n.z.B.n.n.n.n.b.b.b.v.n.n.n.n.n.",
"n.n.n.n.n.n.n.c.t.t.b.n.n.n.n.n.n.n.n.n.c.n.m.` % X     8 x k b <X<X$   0 b 1X$X  o J 3.c...c.b.n.n.n.n.n.n.n.n.n.n.n.n.n.n.n.n.",
"n.n.n.b.n.n.b.n.O.t.b.n.n.n.n.n.n.n.n.c.l.l.C.`     o + 8 x k b 3X3X* + 0 b 4X%X+ % F ;.5.......b.n.n.n.n.n.n.n.n.n.n.n.n.n.n.n.",
"n.n.t.t.n.c.n.v.&.:.b.n.n.n.n.n.n.n.v.b.L U C.`   . 8 k l l l l v v k s l l b l s w +.#.U b.{ { V.n.n.n.n.n.n.n.n.n.n.n.n.n.n.n.",
"n.n.n.t.n.n.n.v.&.*.b.n.n.n.n.n.n.n.t.y. .Q t.`   . s x l l l l l l l l l l l l x z -.[ R O.D o.b.n.n.n.n.n.n.n.n.n.n.n.n.n.n.n.",
"n.n.n.n.n.n.n.b.d.a.b.c.n.n.n.n.n.n.a.d.2.( a.`   . 0 l l l l l l l l l l l l l l k l z %.2.X.s.b.n.n.n.n.n.n.n.n.n.n.N.B.n.n.n.",
"n.n.n.n.n.n.n.n.v.b.n. .n.v.v.n.c.c.b.v.c.b.C.` X @ s l l l l l l l l l l l l l b b l l i.b.b.b.n.n.n.n.n.n.n.n.n.n.n.N.B.n.n.n.",
"n.n.n.n.n.n.n.b.n.n.n.l.7.n.b.c.n.n.n.n.n.n.v.r.8 8 l l x l y y l l l l l l w V 3X1Xx w e.z.n.n.n.n.n.n.b.z.n.b.c.n.n.n.n.n.n.n.",
"n.n.n.n.n.n.n...c.b.b.l.K n...b. . .V.n.n.n.v.e.x x l l x k r y l l l l l l k C 9X6XZ n j.D.n.n.n.n.n.n.z.9.B.l.n.b.n.n.n.n.n.n.",
"n.n.n.n.n.n.n.{ ....l.t.! S G b. .G n.c.n.n.v.e.x l l l x k r y l x l l l l 0 C 9X9X6X6X9X0XV.v.n.n.n.n.n.B.6.| t.y.n.n.n.n.n.n.",
"n.n.n.n.n.n.b.l.] l.{ E T G n.c.2.D ..b.n.n.v.e.l l l l x k y y s l l l l l x Z 2X4X9X9X6X2Xg.a.b.n.n.n.n.V.#.;.g.a.b.n.n.n.n.n.",
"n.n.n.n.n.n.b.t.#.V.t.E E ;.t.n.2.S l.b.n.n.m.e.x l l l l l l s y y y y s b 4X%XO & -X;X& % t.n.n.n.n.n.c.2.Q &.a.y.n.n.n.n.n.n.",
"n.n.n.n.n.n.n.n.n.n.c.n.n.n.n.n.n.n.n.n.n.n.d.' N c l l l l l l y y u u z n 3X$X& * -X-X= & t.b.n.n.n.n.c.l.! *.c.v.n.n.n.n.n.n.",
"n.n.n.b.v.n.n.n.n.n.n.n.n.n.n.n.n.n.n.n.b.n.6 H.H.4 l l l l l l w l 4 5 y.y.x V -X:X:X:X:X=Xd.v.n.n.n.n.n.c.b.b.n.n.n.n.n.n.n.n.",
"n.n.n.n.n.n.n.n.n.n.n.n.n.n.n.n.n.n.n.n.y.a.5 H.H.3 c l c c c c c m 3 5 d.r.z C *X;X-X-X:X=Xd.v.n.n.n.n.n.n.n.n.n.n.n.n.n.b.n.n.",
"n.c.t.-.=.b.n.n.n.n.n.n.n.n.c.b.n.n.b.y.6 H.H.H.H.H.3 H.Q.!.!.!.!.!.J.3 H.5 y.i.b b B c N.d.y.n.n.n.n.n.n.n.b.n.n.n.n.v.n.t.n.n.",
"n.n.n...c.b.n.n.n.n.n.n.n.n.n...c.c.n.a.H.J.H.H.H.H.H.J.!././././.~.J.H.J.H.d.r.z l x z _ l.c.n.n.n.n.n.B.n.x.n.n.n.n.b.t.*.t.n.",
"n.n.n.S  .n.x.c.n.n.n.n.n.N.v. .l.O.6 5 H.H.H.H.H.H.H.J.Y.R.R.R.R.T.J.H.H.H.< : r.y.e.y.c.c.n.n.n.n.n.b.0.t.t.n.n.n.n.n.t.n.b.n.",
"n.n.b.! E n.n.n.n.n.n.n.n.z.c.B.Y } 5 K.H.H.H.H.H.H.H.J.Y.R.T.T.R.T.J.H.H.H.1 ; n.v.v.v.n.n.n.b.b.n.n.n.I t.t.b.n.n.n.n.b.n.n.n.",
"n.n.n.t.t.b.n.n.n.n.n.n.b.n.n.z.J &.5 H.H.H.H.H.H.H.H.J.!./.T.R.~.~.J.H.H.H.> ; y.b.n.n.n.n.n.a.t.b.n.n.x.n.t.c.n.n.n.n.n.n.n.n.",
"n.n.n.b.b.n.n.n.n.n.n.n.t.n.n.n.v.n.6 H.H.H.3 3 H.H.H.J.!./.R.R.~.~.J.H.H.H.> ; n.b.n.n.n.n.n.*.a.v.n.n.b.n.n.n.n.n.n.n.n.n.n.n.",
"n.n.n.n.n.n.n.n.n.n.c.n.t.n.b.n.b.n.6 H.H.H.> > H.H.H.J.Y.R.~.~.R.T.J.H.H.H.> ; n.b.n.n.n.n.n.b.b.n.n.n.n.b.n.n.n.n.n.n.b.n.n.n.",
"n.n.n.n.n.n.n.x.c.c.n.n.b.t.x.c.n.y.6 H.H.H.> > H.H.H.J.Y.R.~.~.R.T.J.H.H.H.> ; n.b.n.n.n.n.n.n.n.n.n.n.n.t.b.c.n.n.n.n.y.n.n.n.",
"n.n.n.n.n.c.n.H l.O.y.v.c.t.x.n.b.n.5 H.H.H.> > H.H.H.J.!.~.R.R.~.!.J.H.H.H.> ; n.v.n.n.n.n.n.n.n.n.n.c.l.U x.l.b.n.b.t.*.n.n.n.",
"n.n.n.n.n.n.n.5.[ O.y.n.n.n.n.n.z.c.5 H.H.H.> > H.H.H.J.!.~.R.R.~.!.J.H.H.H.> ; n.b.n.n.b.c.n.n.n.n.n.n.B.7.{ O.c.n.n.x.n.x.n.n.",
"n.n.n.n.n.n.b.t.] O.O.c.n.n.n.n.v.y.6 H.H.H.> > H.H.H.J.Y.R.~.~.R.T.J.H.H.H.> ;  .l.c.n. .x.b.n.n.n.n.n.p.o.{ X.:.c.n.n.n.c.n.n.",
"n.n.n.n.n.n.c.-.$.[ X.c.n.n.n.n.b.y.6 H.H.H.> > H.H.H.J.Y.R.~.~.R.T.J.H.H.H.> ; l.H n. .~ t.d.v.n.n.n.n.d.%.W ( :.c.n.n.n.n.n.n.",
"n.n.n.n.n.n.n.n.n.n.n.n.n.n.n.n.b.K 5 J.H.H.> > H.H.H.J.!.~.R.R.~.~.J.H.H.H.> ; n.Y | [ ..d.d.b.n.n.n.n.b.n.y.n.n.n.n.n.n.n.n.n.",
"n.n.n.n.n.n.n.n.b.n.n.n.n.n.n.n.b.) 2 H.H.H.> > H.H.H.H.^.(.W.W.(.^.J.H.H.H.> ; y.^ | @.;.d.v.n.n.n.n.n.n.b.b.c.n.n.n.n.n.n.n.n.",
"n.n.n.n.n.n.n.n.n.n.n.n.n.n.n.n.b.$.G.H.H.3 > > 3 H.3 H. XXXXXXXXX XL.3 H.3 > ; n.&.( t.a.b.n.c.n.n.n.n.n.n.n.n.n.n.n.n.n.n.n.n.",
"n.c.n.n.b.n.B.B.n.n.n.n.n.n.n.n.b.t.5 J.J.J.< < L.L.L.L. X+X+X+X+XOXP.H.J.J.> ; n.b.t.b.b.n.n.n.t.n.n.n.n.b.z.b.n.n.n.n.n.n.n.n.",
"n.n.t.t.n.n.n.n.n.n.n.n.n.n.n.n.v.n.6 J.!.~. XoX X X X XXX+X+X+X+X+X+X.XR.E., ; y.v.b.n.n.n.c.t.x.c.n.n.n.b.B.b.n.n.n.n.n.b.b.n.",
"n.n.n.x.t.n.n.n.n.n.n.n.n.n.n.n.v.y.6 J.!.^.#XOX+X+X+X+XOXOXXXXXXXXXOX.XT.E., < n.v.n.n.n.n.n.c.n.n.n.n.n.n.n.n.n.b.t.x.n.z.z.n.",
"n.n.n.b.b.n.n.n.n.n.n.n.n.n.n.n.b.n.Q.!.m c c M OX+XXXOX,.<.'.[.[.'.g u u f I.U.y.b.n.n.n.n.n.n.c.n.n.n.n.n.n.n.n.t.n.n.n.n.n.n.",
"n.n.n.n.n.n.n.n.n.n.n.n.n.n.n.n.n.n.}.Q.l w w m OX+XXXOX} / [.[.].'.u 7 7 y I.U.n.b.n.n.n.n.n.n.l.c.n.n.n.n.n.n.n.n.c.n.t.n.n.n.",
"n.n.n.n.n.n.n.n.n.n.n.n.n.n.b.n.z.b.Z.r.l l l m OX+X+XOXZ.Z.'.[.[.'.f 7 r y r.n.n.n.n.n.n.n.n.c.I 2.c.n.n.c.c.n.n.n.n.n.n.n.n.n.",
"n.n.n.n.n.n.n.n.n.n.n.n.n.n.t.n.b.z.v.y.z x w M OX+X+XOXZ.f.'.[.[.'.f q y a r.b.n.n.n.n.n.n.c.c.l.H c.c.b.l.2.c.n.n.n.n.n.n.n.n.",
"n.n.n.n.b...l.c.v.v.n.n.n.x.O.t.n.n.n.c.y.y.e.f.OX+X+XOXZ.f.'.[.[.'.g.e.r.r.n.n.n.n.n.c.3.l.t.a.t.{  .S x.2.K b.y.d.v.n.n.n.n.n.",
"n.n.n.v.n.6.5.n.y.y.v.n.n.n.n.n.n.b.n.7.9.O.l.S.OX+X+XOXZ.f.'.[.[.'.A.B.m.v.n.n.n.n.n.c.l.I ..[ :.R D X.a.l.S O.a.n.n.n.n.n.n.n.",
"c.n.n.n.c.U ~ :.p.t.v.n.n.n.n.n.n.n.n.B.M.} z.S.OX+X+XOXZ.f.'.[.[.'.f.z.n.t.n.n.n.n.n.c.x.G a. .T T @.a.c.2.D ) a.v.n.n.n.n.n.n.",
"n.n.n.n.c.l.X.a.y.b.n.n.n.n.n.n.n.b.y.g.} X.L A.OX+X+XOXZ.f.'.[.[.'.f.z.v.t.n.n.n.n.n.n.n...t.b.:.&.:.n.b.x. .t.c.n.n.b.B.n.n.n.",
"n.n.n.n.n.c.b.b.v.n.b.n.n.n.c.n.n.n.n.g.$.X.H A.OX+X+XOXZ.f.'.[.[.'.f.z.v.b.b.b.b.n.n.n.n.b.b.n.b.V.b.n.n.c.b.b.n.n.n.b.B.n.n.n.",
"n.n.c.n.n.n.n.n.n.c...n.n.b.l.n.b.n.n.b.n.n.z.S.OX+X+XOXZ.f.'.[.[.'.f.z.n.B.B.B.z.n.n.n.n.n.n.n.n.n.n.n.n.n.n.n.n.n.n.n.n.n.n.n.",
"n.n.n.n.n.n.n.n.n.c. ...V.:.^ l.y.v.n.n.b.n.z.S.oXXX+XOXZ.f.{.].].'.f.z.n.n.n.n.n.n.n.n.n.n.n.n.n.n.n.n.n.n.b.b.n.n.n.n.n.n.n.n.",
"n.b.t.n.c.n.n.n.n.n.V.8...} [ a.y.v.n.n.n.n.z.S.&X@X+XOXo.>.|.|.[.'.f.z.n.n.n.n.n.b.n.n.n.n.n.n.n.n.n.n.n.b.:.:.t.n.n.n.n.n.n.n.",
"n.n.n.n.n.n.n.n.n.n.z.S #.#.;.d.v.n.n.n.n.c.z.F.9X8X+XoXo.D.:X>X[.{.f.z.n.n.n.b.{ ..c.n.n.c.b.n.n.b.n.n.n.t.t.t.n.n.n.n.n.n.n.n.",
"n.n.n.n.n.n.n.n.n.n.n./ E $.&.b.n.n.n.n.n.c.M.F.4X7X&X@XZ.D.*X,X|.|.f.z.b.c.n.n.n.U n.V.b.x.l.c.n.y.n.n.n.n.v.b.n.n.n.n.n.n.n.n.",
"n.n.n.n.n.n.n.n.n.n.n.a.%.:.c.n.n.n.n.n.n.c.v.h._.`.6X8XD.r.d j -X>XD.z. .x.b.c.b.0.l.{ x...{ V.u.u.v.n.n.n.n.n.n.c.n.n.n.n.n.n.",
"n.n.n.n.n.n.n.n.n.n.n.b.V.b.n.n.n.n.n.b.t.O.x.h.t _.7X4XF.r.p p *X;XF.c...{ .. .n.) S ] n.l.D X.d.v.n.n.n.n.n.n.n.n.n.n.n.n.n.n.",
"n.n.n.c.n.n.n.n.n.n.n.n.n.n.n.n.n.n.n.b.t.t.*.h.).)._.`.4X1Xp p h j *X=XD.^ a.[ R <./ =.p.l.Q W a.n.n.n.n.n.n.b.l.{ n.a.y.n.n.n.",
"n.n.n.2.n.n.n.n.n.n.n.n.n.n.n.n.n.n.n.n.n.c.v.h.A A A A 5X2Xd p p d *X=Xc.%.a.b.#.@.$.a.b.l.( &.a.n.n.n.n.n.n.n.b.o.[ V.a.n.n.n.",
"n.n.n.! x.b.n.n.n.n.n.n.n.n.n.n.n.n.n.n.n.n.n.n.y.y.y.y.b.b.y.y.y.y.c.c.n.b.b.v.b.b.b.b.n.c.b.b.v.n.n.n.n.n.n.n.b.;.E :.a.n.n.n.",
"n.n.b.! @.b.n.n.n.n.n.n.n.n.n.n.n.n.n.n.n.n.n.n.v.v.v.v.n.n.v.v.v.v.n.n.n.n.n.v.n.n.n.n.n.n.n.n.n.n.n.n.n.n.n.n.b...T -.y.n.n.n."
};
