/* XPM */
static char *_be745a37b8b402cdb08f4fbee5e9916cnzQIutGeFq3PLDG[] = {
/* columns rows colors chars-per-pixel */
"64 64 205 2 ",
"   c #020201",
".  c #0B0604",
"X  c #050904",
"o  c #0B0A05",
"O  c #0C0B0B",
"+  c #130D09",
"@  c #190F0B",
"#  c #0C1408",
"$  c #161709",
"%  c #191414",
"&  c #171415",
"*  c #7B3C3B",
"=  c #4D555E",
"-  c #525B5F",
";  c #55625E",
":  c #4D5262",
">  c #4D5569",
",  c #515861",
"<  c #4A4E62",
"1  c #646D7E",
"2  c #6A6A78",
"3  c #66727E",
"4  c #69777B",
"5  c #697879",
"6  c #893F3F",
"7  c #8D5B3E",
"8  c #86593A",
"9  c #925E3F",
"0  c #89463F",
"q  c #9B623F",
"w  c #93653E",
"e  c #8A613D",
"r  c #883D41",
"t  c #843F49",
"y  c #894241",
"u  c #884C42",
"i  c #854348",
"p  c #954C41",
"a  c #8B5143",
"s  c #945E41",
"d  c #995247",
"f  c #A34C53",
"g  c #966242",
"h  c #996343",
"j  c #976D44",
"k  c #9A6B45",
"l  c #94644A",
"z  c #9E6B4B",
"x  c #99664A",
"c  c #9A7246",
"v  c #926553",
"b  c #A0724F",
"n  c #A26F50",
"m  c #A67458",
"M  c #A0684A",
"N  c #D2477C",
"B  c #54AC3C",
"V  c #5CB63C",
"C  c #57B539",
"Z  c #62B43E",
"A  c #6DBC3E",
"S  c #66B93D",
"D  c #71BE3E",
"F  c #78B63F",
"G  c #76C23D",
"H  c #7BC33B",
"J  c #7DC92F",
"K  c #4A9757",
"L  c #579C57",
"P  c #659C57",
"I  c #4CA547",
"U  c #5DAA4B",
"Y  c #59A748",
"T  c #5BB142",
"R  c #5BA253",
"E  c #6FAC4E",
"W  c #64A94A",
"Q  c #7CAD42",
"!  c #77A343",
"~  c #65B542",
"^  c #6BB545",
"/  c #6CBA41",
"(  c #68B14A",
")  c #67B248",
"_  c #74BC43",
"`  c #7CBE46",
"'  c #73B44B",
"]  c #7BB54D",
"[  c #74B849",
"{  c #7CBA4B",
"}  c #78B443",
"|  c #63A554",
" . c #6CAB53",
".. c #66A359",
"X. c #69A658",
"o. c #74AC54",
"O. c #7AAC56",
"+. c #7DAB5B",
"@. c #75A55B",
"#. c #75B151",
"$. c #7BB452",
"%. c #7BB757",
"&. c #418965",
"*. c #6B9D65",
"=. c #7DC143",
"-. c #77C040",
";. c #84C73D",
":. c #92CD3A",
">. c #98D338",
",. c #89CE2F",
"<. c #A7DD34",
"1. c #B1E52E",
"2. c #82B544",
"3. c #83B54D",
"4. c #8BB649",
"5. c #84BD4C",
"6. c #8BBD4B",
"7. c #86BB46",
"8. c #91B84D",
"9. c #81AD59",
"0. c #84B553",
"q. c #85B952",
"w. c #89BC52",
"e. c #85BD5B",
"r. c #85B759",
"t. c #95BA55",
"y. c #84BC60",
"u. c #83C246",
"i. c #8DC546",
"p. c #86C14A",
"a. c #8CC34B",
"s. c #8EC34B",
"d. c #8BC44A",
"f. c #8CC44A",
"g. c #8EC54A",
"h. c #8BC34A",
"j. c #8FC84C",
"k. c #90C746",
"l. c #93CA43",
"z. c #90C54B",
"x. c #90CA4C",
"c. c #89C253",
"v. c #89C25A",
"b. c #92C353",
"n. c #96C659",
"m. c #99C35A",
"M. c #86C063",
"N. c #636B82",
"B. c #616B8A",
"V. c #657182",
"C. c #64728A",
"Z. c #667992",
"A. c #5259BD",
"S. c #4D59C5",
"D. c #4B56CB",
"F. c #4C59CD",
"G. c #4E55C4",
"H. c #4E58C9",
"J. c #5A79CF",
"K. c #5575D6",
"L. c #5374DD",
"P. c #5678D9",
"I. c #5276E1",
"U. c #5479E0",
"Y. c #DE4A8C",
"T. c #73B5BF",
"R. c #5D98CF",
"E. c #5B97D4",
"W. c #5793DE",
"Q. c #5995DD",
"!. c #5C98D4",
"~. c #629DC2",
"^. c #6597DA",
"/. c #72B3CD",
"(. c #74B6C5",
"). c #6EADDA",
"_. c #6DAAD5",
"`. c #6EB1D5",
"'. c #6FB1DB",
"]. c #71B4D3",
"[. c #70B4DB",
"{. c #7BB6D8",
"}. c #6FB1D0",
"|. c #5692E3",
" X c #70B3E1",
".X c #E2ACB9",
"XX c #DACABB",
"oX c #E7C6BF",
"OX c #EBADC5",
"+X c #F1ADC6",
"@X c #EFB7C1",
"#X c #F5B5CB",
"$X c #FBB6CC",
"%X c #F5B7C7",
"&X c #F4BAD4",
"*X c #FFBCD6",
"=X c #E2CEC2",
"-X c #ECD5C4",
";X c #E9D3C9",
":X c #F4DACB",
">X c #F5DBCC",
",X c #FBDFD3",
"<X c #F5DFD1",
"1X c #F9E5D8",
"2X c #F0E3CF",
/* pixels */
"h.h.h.w.[ A z.h.h.h.h.h.h.h.h.h.h.h.h.h.h.h.h.h.h.h.h.h.h.h.h.h.h.h.a.h.h.h.h.h.h.h.h.h.h.h.h.h.h.h.h.h.h.h.h.h.h.h.h.h.h.h.h.h.",
"h.h.d.+.*.) u.a.h.h.h.h.h.h.h.h.h.h.h.h.h.h.h.h.h.h.h.h.h.h.h.h.h.h.h.h.h.h.h.h.h.h.h.h.h.h.h.h.h.h.h.h.h.h.h.h.h.h.h.h.h.h.h.h.",
"h.h.h.d.r.] u.a.h.h.h.h.h.h.h.h.h.h.h.h.h.h.h.h.h.h.h.h.h.h.h.h.h.h.h.h.h.h.h.h.h.h.h.h.h.h.h.h.h.h.h.h.h.h.h.h.h.h.h.h.h.h.h.h.",
"h.h.h.h.g.g.a.h.h.h.h.h.h.h.h.h.h.h.h.h.h.h.h.h.h.h.h.h.h.h.h.g./ ` s.h.h.h.h.h.h.h.h.h.h.h.h.h.h.h.h.l.l.h.h.h.h.h.h.h.h.h.h.h.",
"h.h.h.h.h.h.h.h.h.a.a.h.h.h.h.h.h.h.h.h.h.a.h.5.h.h.h.h.h.h.d.g./ ` { d.d.d.h.h.g.h.5.a.h.h.5.h.h.h.h.g.g.h.h.h.h.h.h.h.h.h.h.h.",
"h.h.h.h.h.h.h.h.a.u.u.a.d.h.h.h.h.h.h.h.h.h.5.5.5.h.h.h.h.h.6.6./ ' U 3.6.4.h.g.p.5.p.h.i.p.5.h.h.h.h.h.h.h.g.a.h.h.h.h.h.h.h.h.",
"h.h.h.h.h.h.h.h.s.A =.s.3.g.h.h.h.h.h.h.h.h.h.p.h.h.h.h.d.4.j c 7.5.%.6.a a 4.5.5.h.h.h.i.5.h.h.h.h.h.h.h.g._ ` a.h.d.h.h.h.h.h.",
"h.h.h.h.h.h.h.h.z.|  .^ 5.g.h.h.h.h.h.h.h.h.g.d.g.a.h.h.g.4.h h 4.4.2.! * * 4.d.h.g.h.h.h.h.h.h.h.h.h.h.h.g._ _ _ h.h.h.h.h.h.h.",
"h.h.h.h.h.h.h.h.g.#.o.X.3.g.h.h.h.h.h.h.h.h.a.a.` p.a.a.u.6.k h h g +     o } j.h.h.h.h.h.h.h.h.h.h.h.h.h.h.g.) ` 5.5.d.h.h.h.h.",
"h.h.h.h.h.h.h.h.h.g.g.g.d.h.h.h.h.h.h.h.h.h.h.g.` ^ h.u.B ! h h h s @ . . + 2.a.h.a.h.a.a.h.h.h.h.h.h.h.h.h.g... .U 6.d.h.h.h.h.",
"h.h.h.h.h.h.h.h.h.h.h.h.h.h.h.h.h.h.h.h.h.h.h.h.s.>.G [ # + g h h h s 9 7 w 4.p.5.h.g.=.u.a.h.h.h.h.h.h.h.h.g.5.0.$.6.d.h.h.h.h.",
"h.h.h.h.h.a.h.d.p.5.g.h.h.h.h.h.h.h.h.h.h.h.h.h.h.>.Z P X . g h h h h h M z 4.h.h.h.a.D u.z.h.h.h.i.l.h.h.h.h.g.g.g.d.h.h.h.h.h.",
"h.h.h.h.h.h.h.a.5.5.g.h.h.h.h.h.h.h.h.h.a.a.h.h.g.| # o   . s h h h h n :X:Xb c s.x.G _ s.` a.g.h.h.h.h.h.h.h.h.h.h.h.h.h.h.h.h.",
"h.h.h.g.h.h.g.h.{ 5.g.h.h.h.h.h.h.h.h.a.u.u.a.h.g.2.X   . @ g h 7 7 8 l :X-Xl 8 Q F B ' ;.` ` ` g.h.h.h.h.h.h.h.h.h.h.h.h.h.h.h.",
"h.h.5.5.h.a.h.d.o.$.g.h.h.h.h.h.h.h.d.g.D H g.h.x.2.X   8 g h 7 .     + x h .     $ F  .H g./ / z.h.h.h.h.h.h.h.h.h.h.h.h.h.h.h.",
"h.h.h.5.h.h.h.d.o.O.g.h.h.h.h.h.h.h.5.6._ I 5.a.7.! X   7 h h 9 % O   . 9 9 % o   X P ^ K { B [ g.h.h.h.h.h.h.h.h.h.h.h.h.h.h.h.",
"h.h.h.h.h.h.h.g.q.q.g.a.h.h.h.h.h.h.q.q.=.W 0.Q # o     7 h g z -X=X&   9 z -XXX  X E $...u.' e.g.h.h.h.h.h.h.h.h.h.h.k.l.h.h.h.",
"h.h.h.h.h.h.h.h.d.g.h._ h.h.d.h.a.a.g.d.a.g.x.Q       . 7 h g z <X<X% . 9 z ,X=X. # 7.g.g.a.g.g.h.h.h.h.h.h.h.h.h.h.h.k.l.h.h.h.",
"h.h.h.h.h.h.h.g.h.h.h.u.>.h.g.a.h.h.h.h.h.h.j.Q   . 8 7 g h h h n n 7 7 h h n z 7 e 6.d.h.h.h.h.h.h.h.h.g.i.h.g.a.h.h.h.h.h.h.h.",
"h.h.h.h.h.h.h.` a.g.s.u.D h.` g._ _ z.h.h.h.j.Q   . g h h h h h g g h h h h g g h k 4.6.h.h.h.d.h.h.h.h.i.<.l.u.h.g.h.h.h.h.h.h.",
"h.h.h.h.h.h.h./ ` ` u.5.U V Z g._ S h.a.h.h.j.Q   . 9 h h h h h h h h h h h h h g g h j 4.d.g.g.h.h.h.h.h.l.:.) 5.6.h.h.h.h.h.h.",
"h.h.h.h.h.h.g.u.~ u./ L K S h.s.=.C ` g.h.h.j.Q o + s h h h h h h h h h h h h h z z h h 4.g.0.0.g.h.h.h.h.z. .#.r.0.g.h.h.h.h.h.",
"h.h.h.h.h.h.g.5. .z.5.L L #.5.h.=.V u.g.h.h.d.4.7 7 h h h h y y h h h h h h q n :X-Xh q 7.i.h.h.d.h.h.h.a.=.I o.q.6.h.h.h.h.h.h.",
"h.h.h.h.h.h.h.h.h.h.a.h.h.h.h.h.h.h.h.h.h.h.g.2.h h h h h g r y h h h h h h g n 1X<Xm b t.n.6.g.h.h.h.h.a.u.U O.a.d.h.h.h.h.h.h.",
"h.h.h.g.d.h.h.h.h.h.h.h.h.h.h.h.h.h.h.h.h.a.d.} h h h h h g r y h h h h h h 9 n 1X1X1X1X1X2Xw.h.h.h.h.h.h.a.g.g.h.h.h.h.h.h.h.h.",
"h.h.h.h.h.h.h.h.h.h.h.h.h.h.h.h.h.h.h.h.h.a.u.W h h h h h h y y s h g h h h z m =X;X1X1X:XXXw.d.h.h.h.h.h.h.h.h.h.h.h.h.h.g.h.h.",
"h.a.5.@.+.g.h.h.h.h.h.h.h.h.a.g.h.h.h.h.d.g.d.4.h h h h h h h s y y y y s z :XoXO % #X#X% $ 5.g.h.h.h.h.h.h.g.h.h.h.h.d.h.5.h.h.",
"h.h.h.` a.g.h.h.h.h.h.h.h.h.h.` a.g.a.h.6.6.h.4.x h h h h h h h y y i y g z >X=Xo % #X#X% # 5.g.h.h.h.h.l.h.p.h.h.h.h.g.5.O.5.h.",
"h.h.h.V _ h.p.a.h.h.h.h.h.k.g._ u.` u.q.4 3 3 3 1 2 h h h q q q q g 2 2 4.4.z m OX+X*X*X+X.Xs.h.h.h.h.g.1.5.5.h.h.h.h.h.5.h.g.h.",
"h.h.g.Y L h.h.h.h.h.h.h.h.i.a.l.J ^ 3.@.N.N.N.N.N.1 l l v v v v v v N.V.q.6.w b %X$X%X%X$XoXz.d.g.h.h.h.G 5.5.g.h.h.h.h.g.h.h.h.",
"h.h.h.5.5.g.h.h.h.h.h.h.g.h.h.i.S o.4 N.N.N.N.N.N.N.1 N.K.P.P.P.P.K.B.1 N.3 6.8.h h x z 8.s.h.3.5.g.h.h.p.h.5.a.h.h.h.h.h.h.h.h.",
"h.h.h.g.g.h.h.h.h.h.h.h.5.h.p.h.6.q.3 N.N.N.N.N.N.N.N.B.K.I.I.I.I.L.B.N.N.1 0.4.g g h j 4.d.h.O.0.d.h.h.g.h.h.h.h.h.h.h.h.h.h.h.",
"h.h.h.h.h.h.h.h.h.h.a.h.5.h.g.6.4 1 N.N.N.N.N.N.N.N.N.N.S.D.F.F.F.F.B.N.N.N., - : - 4.a.h.h.h.g.g.h.h.h.h.g.h.h.h.h.h.h.g.h.h.h.",
"h.h.h.h.h.h.h.p.a.s.h.h.g.5.p.6.1 N.N.N.N.N.N.N.N.N.N.N.S.D.D.D.D.D.B.N.N.N.: : : , 3.h.h.h.h.h.h.h.h.h.h.5.g.a.h.h.h.h.6.h.h.h.",
"h.h.h.h.h.a.h.A u.{ 6.d.a.5.d.6.3 N.N.N.: : N.N.N.N.N.N.K.L.D.D.L.K.B.N.N.N.: : : : - ; 3.g.h.h.h.h.h.a.u.H p.u.g.h.g.5.O.h.h.h.",
"h.h.h.h.h.h.h.;.^ { 6.h.d.h.6.q.3 N.N.1 : : N.N.N.N.N.N.K.L.F.F.L.K.B.N.N.N.: : : : < : 6.g.h.h.h.h.h.h.l.>./ { a.h.h.p.h.p.h.h.",
"h.h.h.h.h.h.g.5.~ { { s.d.3.3 N.N.N.N.N.: : N.N.N.N.N.N.S.F.L.L.F.D.B.N.N.N.: : : : : , ^ p.a.h.h.h.h.h.9.[ / [ ] a.h.h.h.a.h.h.",
"h.h.h.h.h.h.a.@...^ ' s.g.q.N.N.N.N.V.1 : : N.N.N.N.N.N.S.F.L.L.F.F.B.N.N.N., = : : : = L 5.q.d.h.h.h.h.q.X.P ) ] a.h.h.h.h.h.h.",
"h.h.h.h.h.h.h.h.h.h.h.h.g.3.1 N.N.1 0.w.1 N.N.N.N.N.N.N.K.L.F.F.L.L.B.N.N.1 3.3.= = = = ] w.q.g.h.h.h.h.g.h.6.h.h.h.h.h.h.h.h.h.",
"h.h.h.h.h.h.h.h.g.h.d.d.g.q.C.B.B.B.{ _ N.N.N.N.N.N.N.N.K.L.F.F.L.K.B.N.N.3 h.3.> > > > o.6.h.h.h.h.h.h.h.g.g.a.h.h.h.h.h.h.h.h.",
"h.h.h.h.h.h.h.h.h.h.h.h.i.e.P.I.I.P.%.R V.N.N.N.N.N.N.N.S.F.L.L.F.D.B.N.N.N.6.e.S.D.D.S.+.i.h.a.h.h.h.h.h.h.h.h.h.h.h.h.h.h.h.h.",
"h.a.h.h.g.h.l.l.h.h.h.h.i.e.J.K.K.J.e.0.V.N.N.N.N.N.N.N.S.F.L.L.F.F.B.N.N.N.a.w.A.G.G.A.q.i.h.h.5.h.h.h.h.g.i.g.h.h.h.h.h.h.h.h.",
"h.h.5.5.h.h.h.h.h.h.h.h.d.4.l l l l 6.6.1 N.N.N.N.N.N.N.K.L.D.F.L.L.B.N.N.1 h.4.i i t i 4.d.a.5.p.a.h.h.h.g.l.g.h.h.h.h.h.g.g.h.",
"h.h.h.p.5.h.h.h.h.h.h.h.d.4.h h h h 4.5.1 N.N.N.N.N.N.B.P.U.F.F.U.P.B.N.N.3 h.4.y 6 6 0 4.d.h.a.h.h.h.h.h.h.h.h.h.g.5.p.h.i.i.h.",
"h.h.h.g.g.h.h.h.h.h.h.h.d.4.h h h h 4.5.N.N.N.N.N.N.1 B._.)._.).)._.C.1 N.N.h.4.y r r y 4.d.h.h.a.h.h.h.h.h.h.h.h.5.h.h.h.h.h.h.",
"h.h.h.h.h.h.h.h.h.h.h.h.d.4.c j j j 6.6.4 3 C.C.C.C.C.C.}.[.[.[.[.].Z.C.3 5 h.4.u u u a 4.d.h.h.u.a.h.h.h.h.h.h.h.h.a.h.5.h.h.h.",
"h.h.h.h.h.h.h.h.h.h.h.h.h.d.a.6.i.i.h.h.h.w./.'.].`.`.`.'.'.[.[.[.[.'./.w.h.h.h.6.6.6.6.h.h.h.a.G =.a.h.h.a.a.h.h.h.h.h.h.h.h.h.",
"h.h.h.h.h.h.h.h.h.h.h.h.h.d.p.d.i.g.h.h.d.c.(.].[.[.[.[.].].'.'.'.'.].(.c.g.h.h.d.d.d.d.h.d.a.a.u.A a.a.g.u.=.a.h.h.h.h.h.h.h.h.",
"h.h.h.h.g.` u.s.d.d.h.h.h.p.{ 5.h.h.h.g.g.s.h.M.].[.[.].v.e.Q.Q.Q.!.y.s.h.h.h.h.h.h.h.a.-.u.5.0.5./ _ V p.=.D g.6.q.d.h.h.h.h.h.",
"h.h.h.d.h.:.;.h.6.6.d.h.h.h.h.h.h.g.h.>.<.{ u.v./.].[.].v.e.E.Q.W.E.e.i.g.h.h.h.h.h.h.a.u.G ` ^ $.L C ' q.u.C { 0.h.h.h.h.h.h.h.",
"a.h.h.h.s.H I $.9.5.d.h.h.h.h.h.h.h.h.l.i.( d.s.v.M.].[.].(.e.y.E.Q.E.~.c.p.h.h.h.h.h.a.p.Z q._ K K | 0.s.=.C E q.d.h.h.h.h.h.h.",
"h.h.h.h.a.u.' 0.6.g.h.h.h.h.h.h.h.g.6.r.( ' _ h.i.c.].[. X/.g.h.E.W.|.E.c.p.h.h.h.h.h.h.h.` 5.g.$.o.$.h.g.p._ 5.a.h.h.g.l.h.h.h.",
"h.h.h.h.h.a.g.g.d.h.g.h.h.h.a.h.h.h.h.r...' A p.a.v.].[.[./.a.c.E.W.W.R.c.i.g.g.g.h.h.h.h.g.g.h.g.z.g.h.h.a.g.g.h.h.h.g.l.h.h.h.",
"h.h.a.h.h.h.h.h.h.a.` h.h.g.u.h.g.h.h.g.h.h.h.h.h.v.].[.'./.h.c.E.W.W.R.c.l.l.l.i.h.h.h.h.h.h.h.h.h.h.h.h.h.h.h.h.h.h.h.h.h.h.h.",
"h.h.h.h.h.h.h.h.h.a._ ` z.$.T u.6.d.h.h.g.h.h.h.i.c.].[. X].g.h.E.W.|.E.c.h.h.h.h.h.h.h.h.h.h.h.h.h.h.h.h.h.d.g.h.h.h.h.h.h.h.h.",
"h.g.5.h.a.h.h.h.h.h.z.,.` ( ^ q.6.d.h.h.h.h.h.h.v.M.].[.}.T.e.y.!.Q.R.~.c.g.h.h.h.g.h.h.h.h.h.h.h.h.h.h.h.g.$.$.5.h.h.h.h.h.h.h.",
"h.h.h.h.h.h.h.h.h.h.i.V  . .#.w.d.h.h.h.h.h.i.v.`.`.'.`.%.e.E.W.W.W.e.h.h.h.h.g./ ` a.h.h.a.s.h.h.g.h.h.h.5.5.5.h.h.h.h.h.h.h.h.",
"h.h.h.h.h.h.h.h.h.h.h.R L ..o.g.h.h.h.h.h.h.l.v.{.{.{.{.c.w.^.^.^.^.e.i.s.a.h.h.h.H h.z.g.p.u.a.h.6.h.h.h.h.d.g.h.h.h.h.h.h.h.h.",
"h.h.h.h.h.h.h.h.h.h.h.0.X.$.a.h.h.h.h.h.h.g.p.n.2X1X1X2Xb.b.&X&X&X&Xb.i._ p.g.a.g.1.u./ p.` / z.3.3.d.h.h.h.h.h.h.a.h.h.h.h.h.h.",
"h.h.h.h.h.h.h.h.h.h.h.g.z.g.h.h.h.h.h.g.5.{ 5.n.<X,X,X>Xn.m.$X$X$X%Xm.s.` / ` _ h.E V ~ h.u.C ' w.d.h.h.h.h.h.h.h.h.h.h.h.h.h.h.",
"h.h.h.a.h.h.h.h.h.h.h.h.h.h.h.h.h.h.h.g.5.5.O.t.Y.Y.Y.Y.:X-Xf f f f +X@Xb.T 0.^ L &.R +.9.u.I P 0.h.h.h.h.h.h.g.u./ h.q.6.h.h.h.",
"h.h.h.=.h.h.h.h.h.h.h.h.h.h.h.h.h.h.h.h.h.a.d.8.N N N N :X-Xd p p d +X@Xs.X.0.g. .| ..0.g.u.) o.q.h.h.h.h.h.h.h.g.[ ^ z.0.h.h.h.",
"h.h.h.U p.g.h.h.h.h.h.h.h.h.h.h.h.h.h.h.h.h.h.h.6.6.6.6.s.s.6.6.6.6.s.s.h.g.g.d.g.g.g.g.h.a.g.g.d.h.h.h.h.h.h.h.g.#.L $.0.h.h.h.",
"h.h.g.U | g.h.h.h.h.h.h.h.h.h.h.h.h.h.h.h.h.h.h.d.d.d.d.h.h.d.d.d.d.h.h.h.h.d.d.h.h.h.h.h.h.h.h.h.h.h.h.h.h.h.h.g.` K @.6.h.h.h."
};
