/* XPM */
static char *_d76f3fa4006437385c3dc65951d00f2O4oPYLwAgvfUqWgm[] = {
/* columns rows colors chars-per-pixel */
"64 64 209 2 ",
"   c #060405",
".  c #05190B",
"X  c #1E0913",
"o  c #1A0D13",
"O  c #220B16",
"+  c #1D251D",
"@  c #331322",
"#  c #2D2928",
"$  c #431A2E",
"%  c #7C7E75",
"&  c #BB1B6C",
"*  c #B8256B",
"=  c #B43969",
"-  c #BA3371",
";  c #AD3B6A",
":  c #C21C71",
">  c #D3397D",
",  c #C02473",
"<  c #AE4068",
"1  c #C8467F",
"2  c #D4477E",
"3  c #C8517B",
"4  c #5DB63D",
"5  c #57B539",
"6  c #6DBC3E",
"7  c #64B83E",
"8  c #71BE3E",
"9  c #7DCA2F",
"0  c #78C23C",
"q  c #4A9857",
"w  c #579C58",
"e  c #649C5E",
"r  c #4BA24B",
"t  c #5DAA4B",
"y  c #57AA44",
"u  c #4CA65F",
"i  c #58A456",
"p  c #58B042",
"a  c #6DAD4D",
"s  c #63AE4A",
"d  c #65B443",
"f  c #6CB645",
"g  c #6CBA41",
"h  c #6AB14B",
"j  c #66B149",
"k  c #74BC43",
"l  c #7BBE45",
"z  c #74B54B",
"x  c #74B849",
"c  c #7CBA4A",
"v  c #7CB54B",
"b  c #62A653",
"n  c #6CAB53",
"m  c #66A359",
"M  c #68A757",
"N  c #74AC54",
"B  c #7BAC56",
"V  c #78A85B",
"C  c #75B151",
"Z  c #7CB352",
"A  c #418965",
"S  c #7A8371",
"D  c #6B9D65",
"F  c #4BA068",
"G  c #7EB46E",
"H  c #79AB73",
"J  c #6EB67D",
"K  c #75B176",
"L  c #7BB372",
"P  c #73B47C",
"I  c #78B87C",
"U  c #7BA860",
"Y  c #7DC143",
"T  c #77C140",
"R  c #8EB73D",
"E  c #A0BE3A",
"W  c #CB9E14",
"Q  c #D99F0A",
"!  c #D5A606",
"~  c #DCA401",
"^  c #D3A50B",
"/  c #D9AB08",
"(  c #CBA313",
")  c #C6A516",
"_  c #D3A217",
"`  c #E1AD04",
"'  c #E2B20C",
"]  c #84C63D",
"[  c #92CA3C",
"{  c #9AD23C",
"}  c #8DD22E",
"|  c #A7DD34",
" . c #B1E52E",
".. c #EDDD2C",
"X. c #F3DE2A",
"o. c #E9DC37",
"O. c #F4DD37",
"+. c #FAE225",
"@. c #F5E32C",
"#. c #F9E62C",
"$. c #FDEA2C",
"%. c #FEF22E",
"&. c #EDE13B",
"*. c #ECE638",
"=. c #F3E433",
"-. c #FEE534",
";. c #F6EB34",
":. c #FDEE33",
">. c #F2E33A",
",. c #FAE93C",
"<. c #FFF132",
"1. c #84BD4C",
"2. c #8BBC4D",
"3. c #89B84B",
"4. c #94BE42",
"5. c #94BD4E",
"6. c #93B54C",
"7. c #86AC58",
"8. c #84B453",
"9. c #85B951",
"0. c #8CBA51",
"q. c #86B457",
"w. c #95B655",
"e. c #94BD54",
"r. c #9ABD5A",
"t. c #9AB959",
"y. c #8EA54F",
"u. c #818172",
"i. c #85AC6B",
"p. c #85B17A",
"a. c #82B174",
"s. c #A5B966",
"d. c #83C245",
"f. c #8BC547",
"g. c #86C14A",
"h. c #8BC34A",
"j. c #8CC946",
"k. c #92C345",
"l. c #93CA44",
"z. c #91C54B",
"x. c #9AC846",
"c. c #88C052",
"v. c #93C152",
"b. c #98C457",
"n. c #E4D842",
"m. c #F7D94F",
"M. c #FEE445",
"N. c #FDE646",
"B. c #F6E24A",
"V. c #D73983",
"C. c #CA4880",
"Z. c #DD458A",
"A. c #D14E86",
"S. c #D55183",
"D. c #E2428B",
"F. c #DB6A98",
"G. c #DD749D",
"H. c #D77A98",
"J. c #CD7D93",
"K. c #E36B9E",
"L. c #E3769D",
"P. c #DE72A0",
"I. c #E56EA5",
"U. c #E76DA7",
"Y. c #E572A5",
"T. c #E774A8",
"R. c #E876AA",
"E. c #E97AAC",
"W. c #6BAD84",
"Q. c #66B386",
"!. c #6AB384",
"~. c #69B389",
"^. c #72B780",
"/. c #7CB586",
"(. c #D78391",
"). c #DE9AB7",
"_. c #EF8FBB",
"`. c #F18EBD",
"'. c #EC9CB4",
"]. c #EB94BB",
"[. c #F59ABB",
"{. c #EBA2B4",
"}. c #EEA1BA",
"|. c #E7A1B3",
" X c #FFA9B3",
".X c #F3A1BC",
"XX c #FFA4BD",
"oX c #FAA5B7",
"OX c #F1A9AA",
"+X c #99EC85",
"@X c #B0F191",
"#X c #C4F79B",
"$X c #FC95C5",
"%X c #F59DC3",
"&X c #FB9CC5",
"*X c #FE97CA",
"=X c #FF9ACA",
"-X c #FF9DCA",
";X c #FF9CCB",
":X c #F696C2",
">X c #FF9AD0",
",X c #F48DC0",
"<X c #F7A2C2",
"1X c #FBA1C5",
"2X c #FFA3CB",
"3X c #F4AAC0",
"4X c #FFABD0",
"5X c #FCDBD6",
"6X c #F7E3D3",
/* pixels */
"h.h.h.0.x 6 z.h.h.h.h.h.h.h.h.h.h.h.h.h.h.h.h.h.h.h.h.h.h.h.h.h.h.h.h.h.h.h.h.h.h.h.h.h.h.h.h.h.h.h.h.h.h.h.h.h.h.h.h.h.h.h.h.h.",
"h.h.h.B D j d.h.h.h.h.h.h.h.h.h.h.h.h.h.h.h.h.h.h.h.h.h.h.h.h.h.h.h.h.h.h.h.h.h.h.h.h.h.h.h.h.h.h.h.h.h.h.h.h.h.h.h.h.h.h.h.h.h.",
"h.h.h.h.q.v d.h.h.h.h.h.h.h.h.h.h.h.h.h.h.h.h.h.h.h.h.h.h.h.h.h.h.h.h.h.h.h.h.h.h.h.h.h.h.h.h.h.h.h.h.h.h.h.h.h.h.h.h.h.h.h.h.h.",
"h.h.h.h.h.h.h.h.h.h.h.h.h.h.h.h.h.h.h.h.h.h.h.h.h.h.h.h.h.h.h.h.k d.h.h.h.h.h.h.h.h.h.h.h.h.h.h.h.h.h.l.l.h.h.h.h.h.h.h.h.h.h.h.",
"h.h.h.h.h.h.h.h.h.h.h.h.h.h.h.h.h.h.h.h.h.h.h.1.g.g.h.h.f.f.g.h.7 k c h.h.h.f.h.h.h.1.h.h.h.1.h.h.h.h.h.h.h.h.h.h.h.h.h.h.h.h.h.",
"h.h.h.h.h.h.h.h.h.d.d.h.h.h.h.h.h.h.h.h.h.h.1.1.e.e.h.h.e.v.b.b.v Z b 1.h.h.e.v.g.1.g.h.f.g.1.h.h.h.h.h.h.h.h.h.h.h.h.h.h.h.h.h.",
"h.h.h.h.h.h.h.h.h.6 Y h.1.h.h.h.h.h.h.h.h.h.d.e.&X.Xv.5.[.2X6X6X1X`.i.g.d.z.&X{.1.g.h.h.f.1.h.h.h.h.h.h.h.h.k l h.h.h.h.h.h.h.h.",
"h.h.h.h.h.h.h.h.z.M n f 1.h.h.h.h.h.h.h.h.h.r.s.$X:Xv.2.'.3X5X5X4X-Xt.h.r.s.$X'.h.h.h.h.h.h.h.h.h.h.h.h.h.h.k k k g.h.h.h.h.h.h.",
"h.h.h.h.h.h.h.h.h.C N M 1.h.h.h.h.h.h.h.f.e.&X$XI.G.e.h.Y w.$X2X6X5Xr.h..X;XY.H.h.h.h.h.h.h.h.h.h.h.h.h.h.h.h.j l 1.1.h.h.h.h.h.",
"h.h.h.h.h.h.h.h.h.h.h.h.h.h.h.h.h.h.h.h.f.e.&X$XY.Y.t.g.4 7.$X2X5X5Xs.e.%X*XT.H.h.h.h.h.h.h.h.h.h.h.h.h.h.h.h.m n t 2.h.h.h.h.h.",
"h.h.h.h.h.h.h.h.h.h.h.h.h.h.h.h.h.h.h.h.f.e.&X;X$X$X<X.X}.%X-X-X2X2X<X<X;X-X*X'.1.h.h.Y d.h.h.h.h.h.h.h.h.h.h.1.9.Z 2.h.h.h.h.h.",
"h.h.h.h.h.h.h.h.g.1.h.h.h.h.h.h.h.h.h.h.h.e.&X;X-X-X$X$X$X$X-X-X;X;X$X$X:X:X;X}.h.h.h.8 d.z.h.h.h.f.l.h.h.h.h.h.h.h.h.h.h.h.h.h.",
"h.h.h.h.h.h.h.h.1.1.h.h.h.h.h.h.h.h.h.h.d.v.&X;X2X`.@ X O $ $X-X;X$X$ X O @ ,X.Xf.f.0 k h.l h.h.h.h.h.h.h.h.h.h.h.h.h.h.h.h.h.h.",
"h.h.h.h.h.h.h.h.c 1.h.h.h.h.h.h.h.h.h.h.0.t.&X;X2X_.+ .   o $X-X-X$X# .     `..Xw.e.p h ] l l l h.h.h.h.h.h.h.h.h.h.h.h.h.h.h.h.",
"h.h.1.1.h.h.h.h.N Z h.h.h.h.h.h.h.h.h.z.'.$X-X-X;X&X@X+X. X $X;X;X2X@X+X    _.;X$X[.9.n 0 h.g g z.h.h.h.h.h.h.h.h.h.h.h.h.h.h.h.",
"h.h.h.1.h.h.h.h.N V h.h.h.h.h.h.h.h.1.0..X;X-X-X;X1X#X@X+ @ $X-X$X&X#X+Xo O _.;X;X%XU d q c 5 x h.h.h.h.h.h.h.h.h.h.h.h.h.h.h.h.",
"h.h.h.h.h.h.h.h.9.8.h.h.h.h.h.h.h.h.1.q..X;X-X-X-X-X1X<X_._.-X$XZ.Z.%X1X].].;X-X-X%X7.z m d.z 9.h.h.h.h.h.h.h.h.h.h.h.l.l.h.h.h.",
"h.h.h.h.h.h.h.h.h.h.h.k h.h.h.h.h.h.h.z..X;X-X-X-X-X;X;X;X;X-X$XZ.Z.$X;X;X;X-X-X;X&Xb.f.z.h.h.h.h.h.h.h.h.h.h.h.h.h.h.l.l.h.h.h.",
"h.h.h.h.h.h.h.h.h.h.h.d.{ g.h.h.h.h.h.z..X;X-X-X-X-X-X$XR.T.R.E.:X$XE.T.T.E.;X-X;X&Xe.f.h.h.h.h.h.h.h.h.h.f.g.h.h.h.h.h.h.h.h.h.",
"h.h.h.h.h.h.h.l h.h.h.d.8 h.l h.k k h.h..X;X-X-X-X-X-X$XT.Y.Y.Y.;X;XR.I.Y.T.;X-X-X&Xe.f.h.h.h.h.h.h.h.h.f.| l.d.h.h.h.h.h.h.h.h.",
"h.h.h.h.h.h.h.g l l d.1.t 4 7 h.k 7 g.v.%X>X-X-X-X-X-X-X$X$X$X$X;X-X$X$X$X$X-X-X;X-Xe.f.h.h.h.h.h.h.h.h.h.l.[ j 1.2.h.h.h.h.h.h.",
"h.h.h.h.h.h.h.d.d d.g w q 7 h.h.Y 5 l v.{.&X-X-X-X-X-X-X-X-X-X-X-X-X-X-X-X-X-X-X%X}.v.f.h.h.9.8.h.h.h.h.h.z.n C q.8.h.h.h.h.h.h.",
"h.h.h.h.h.h.h.1.n z.1.w w C 1.h.Y 4 d.h.h.r.-X>X;X;X;X;X-X-X-X-X-X-X;X;X;X;X>X.Xv.v.h.h.h.h.g.2.h.h.h.h.h.Y r N 8.2.h.h.h.h.h.h.",
"h.h.h.h.h.h.h.h.h.h.h.h.h.h.h.h.h.h.h.h.d.v.{.}.|.}.}..X$X$X$X$X$X$X'.}.}.}..X|.h.h.l 8 h.h.2.h.h.h.h.h.h.d.t N h.h.h.h.h.h.h.h.",
"h.h.h.h.h.h.h.h.h.h.h.h.h.h.h.h.h.h.h.h.h.h.h.k l h.h.6.F.T.Y.Y.Y.K.R T h.g.h.h.h.g.j.9 d.9.1.h.h.h.h.h.h.h.h.h.h.h.h.h.h.h.h.h.",
"h.h.h.h.h.h.h.h.h.h.h.h.h.h.h.h.h.h.h.h.h.h.1.a 7.5.h.w.F.Y.Y.Y.Y.K.y.a k.f.f.f.h.g.{ } d.7.1.h.h.h.h.h.h.h.h.h.h.h.h.h.h.h.h.h.",
"h.h.1.V B h.h.h.h.h.h.h.h.h.h.h.h.h.h.h.g.z.&.>.&.>..X.X,.m.*X*X*X*Xm.=./ ^ ! ) h.h.l.n ] 2.2.h.h.h.h.h.g.h.h.h.h.h.h.h.h.1.h.h.",
"h.h.h.l h.h.h.h.h.h.h.h.h.h.h.l h.h.h.h.4.x.:.<.%.:. X X,.N.XXXXXXXXm.:.' ~ ~ ^ 2.1.h.N j f.h.h.h.h.h.h.l.h.g.h.h.h.h.h.1.V 1.h.",
"h.h.h.4 k h.g.h.h.h.h.h.h.l.h.k d.l l q.o.#.:.:.:.:.:.N.-X X:.:.:.:. XXX,.#.~ Q W ) k.j.h.h.h.h.h.h.h.h. .1.1.h.h.h.h.h.1.h.h.h.",
"h.h.h.t w h.h.h.h.h.h.h.h.f.h.l.9 f 4.6.;.<.:.:.:.:.%.,. X XM.N.N.N.oX;XM.$.' / ~ ~ 6.2.h.h.h.h.h.h.h.h.0 1.1.h.h.h.h.h.h.h.h.h.",
"h.h.h.1.1.h.h.h.h.h.h.h.h.h.g.f.7 n o.$.:.:.<.<.<.<.:.:.%.N.-X-X;X;X;X1XM.%.<.#.~ ~ ^ W 2.h.h.9.1.h.h.h.g.h.1.h.h.h.h.h.h.h.h.h.",
"h.h.h.h.h.h.h.h.h.h.h.h.1.h.g.h.z.z.*.<.:.:.;.;.;.;.:.:.%.M.%X%X1XXX%X.XM.%.<.#.^ ! ~ ^ 6.f.h.B 8.h.h.h.h.h.h.h.h.h.h.h.h.h.h.h.",
"h.h.h.h.h.h.h.h.h.h.h.h.1.h.h.z.*.;.:.:.<.>.5.l.l.5.>.<.<.=.p./.N.-.p.p.$.<.<.o.3.k.^ ~ ! ) 2.h.h.h.h.h.h.h.h.h.h.h.h.h.h.h.h.h.",
"h.h.h.h.h.h.h.g.h.h.h.h.h.1.1.z.;.<.:.:.$.o.2.h.h.0.>.<.<.@.K J =.+.K L $.<.<.o.9.f.^ ~ ~ W 2.h.h.h.h.h.h.1.h.h.h.h.h.h.2.h.h.h.",
"h.h.h.h.h.h.h.6 d.c 2.h.h.1.g.z.;.:.<.@.E k.h.h.h.0.>.<.<.@.L !.L L ~.a.$.<.<.&.0.f.^ ~ ~ ( 2.h.h.h.h.h.d.0 g.d.h.h.h.1.V h.h.h.",
"h.h.h.h.h.h.h.] f c 2.h.h.h.h.z.;.:.<.@.4.g.h.h.h.0.>.<.:.@.K Q.!.!.Q.L #.:.#.o.0.k.^ ~ ~ ( 2.h.h.h.h.h.l.{ g c h.h.h.g.h.g.h.h.",
"h.h.h.h.h.h.h.1.d c c h.h.h.h.l.:.<.<.@.[ g.h.h.h.2.>.$.` ( F u ( ^ i F ^ / 4.k.T d.! ~ ~ W 2.h.h.h.h.h.q.x g x v h.h.h.h.h.h.h.",
"h.h.h.h.h.h.h.V m f z h.h.h.h.z.&.>.M.O.5.v.h.h.h.2.>.$.` ( F u ( ^ i F ^ / h.g.1.l _ Q ! ) 8.h.h.h.h.h.9.M e s Z h.h.h.h.h.h.h.",
"h.h.h.h.h.h.h.g.g.h.h.h.h.h.h.h.0.v |.-X&X}.v.h.h.0.=.%.%.@.K Q.P P Q.L $.=.2.w.L.G.L.H.3.2.9.h.h.h.h.h.h.g.2.h.h.h.h.h.h.h.h.h.",
"h.h.h.h.h.h.h.h.h.h.h.h.h.h.h.h.h.j ).>X;X%Xv.h.h.0.n.&.&.o.H W.W.W.W.i.O.n.2.w.Y.I.U.H.B 1.h.h.h.h.h.h.h.h.h.h.h.h.h.h.h.h.h.h.",
"h.h.h.h.h.h.h.h.h.h.h.h.h.h.h.h.h.m ].;X;X[.v.h.h.h.S % % % % % % % % % B 2.f.t.I.I.U.G.9.f.h.h.h.h.h.h.h.h.h.h.h.h.h.h.h.h.h.h.",
"h.h.h.h.h.h.l.l.h.h.h.h.h.h.h.h.h.1.|.-X&X.Xv.h.h.k S % u.u.% % % % % S 8.2.f.e.P.L.Y.H.z.h.h.h.1.h.h.h.h.h.f.h.h.h.h.h.h.h.h.h.",
"h.h.1.1.h.h.h.h.h.h.h.h.h.h.h.h.h.h.v.e.e.v.h.c.!.!.W.H o.O.H W.W.W.W.i.=.n.2.h.e.e.e.e.h.h.h.1.g.h.h.h.h.h.l.h.h.h.h.h.h.h.h.h.",
"h.h.h.g.1.h.h.h.h.h.h.h.h.h.h.h.h.h.h.f.f.h.h.c.K K Q.P @.+.K Q.K K Q.G +.=.2.h.h.h.h.h.h.h.h.h.h.h.h.h.h.h.h.h.h.h.1.g.h.f.f.h.",
"h.h.h.h.h.h.h.h.h.h.h.h.h.h.h.h.h.h.h.h.h.h.g.x.@.=.I !.L L !.P &.X.L !.L G g.h.h.h.h.h.h.h.h.h.h.h.h.h.h.h.h.h.h.1.h.h.h.h.h.h.",
"h.h.h.h.h.h.h.h.h.h.h.h.h.h.h.h.h.h.h.h.h.h.h.x.#.=.I !.K K !.P =.@.L !.K L g.h.h.h.h.h.h.h.h.h.d.h.h.h.h.h.h.h.h.h.h.h.1.h.h.h.",
"h.h.h.h.h.h.h.h.h.h.h.h.h.h.h.h.f.h.h.h.h.h.h.c.K K !.P X.X.K !.K K Q.L +.O.2.h.h.h.h.h.h.h.h.h.0 Y h.h.h.h.h.h.h.h.h.h.h.h.h.h.",
"h.h.h.h.h.h.h.h.h.h.h.h.h.h.1.h.f.f.h.h.h.h.h.c.^.^.Q.K *.=.K !.^.^.Q.G ;.B.0.h.h.h.h.h.h.h.h.h.d.6 h.h.h.d.Y h.h.h.h.h.h.h.h.h.",
"h.h.h.h.h.l d.h.h.h.h.h.h.g.c 1.h.h.h.h.h.h.h.x.;.*.I !.P P !.P *.=.L !.P ^.!.P h.h.h.h.T d.1.8.1.g k 4 g.Y 8 h.2.9.h.h.h.h.h.h.",
"h.h.h.h.g.[ ] h.2.2.h.h.h.h.h.h.h.h.g.{ | l g.x.$.@.I Q.K K !.P =.+.L !.K K !.J h.h.h.h.d.0 l f Z w 5 z 8.d.5 c 8.h.h.h.h.h.h.h.",
"h.h.h.h.h.0 y Z 7.1.h.h.h.h.h.h.h.h.h.l.j.j f.h.k.4.!.P ....K !.L L Q.L @.&.^.J h.h.h.h.g.7 8.k q q b 8.h.Y 5 a 8.h.h.h.h.h.h.h.",
"h.h.h.h.h.d.z 8.2.h.h.h.h.h.h.h.h.h.2.q.j z k h.h.g.J K =.-.L ~.Q.!.W.i.-.,.P J h.h.h.h.h.l 1.h.Z N Z h.h.g.k 1.h.h.h.h.l.h.h.h.",
"h.h.h.h.h.h.h.h.h.h.h.h.h.h.h.h.h.h.h.q.m z 6 h.h.h.g.e.'.XX%X}.e.g.J.P.L.(.v.h.h.h.h.h.h.h.h.h.h.z.h.h.h.h.h.h.h.h.h.h.l.h.h.h.",
"h.h.h.h.h.h.h.h.h.h.l h.h.h.d.h.h.h.h.h.g.h.h.h.h.h.f.e.:X>X;X&Xv.g.H.U.U.G.x.[ h.h.h.h.h.h.h.h.h.h.h.h.h.h.h.h.h.h.h.h.h.h.h.h.",
"h.h.h.h.h.h.h.h.h.h.k l z.Z p d.2.h.h.h.h.h.h.h.h.h.d.2.[.-X;X&Xv.d.H.I.U.G.2.h.h.h.h.h.h.h.h.h.h.h.h.h.h.h.h.h.h.h.h.h.h.h.h.h.",
"h.h.1.h.h.h.h.h.h.h.z.} l j f 8.2.h.h.h.h.h.h.h.h.h.r.s.:X-X.X{.t.w.H.I.H.(.2.h.h.h.h.h.h.h.h.h.h.h.h.h.h.h.Z Z 1.h.h.h.h.h.h.h.",
"h.h.h.h.h.h.h.h.h.h.f.4 n n C 0.h.h.h.h.h.h.h.h.h.v..X;X;X.Xh.e.G.Y.Y.F.6.h.h.h.g l h.h.h.h.h.h.h.h.h.h.h.1.1.1.h.h.h.h.h.h.h.h.",
"h.h.h.h.h.h.h.h.h.h.h.i w m N h.h.h.h.h.h.h.l.h.h.v.[.*X*X'.h.e.G.I.I.F.6.h.h.h.h.0 h.z.h.g.d.h.h.2.h.h.h.h.h.h.h.h.h.h.h.h.h.h.",
"h.h.h.h.h.h.h.h.h.h.h.8.M Z h.h.h.h.h.h.h.h.h.h.h.2.S.Z.D.A.g.k.- , : - x d.h.h.h. .d.g g.l g z.1.1.h.h.h.h.h.h.h.h.h.h.h.h.h.h.",
"h.h.h.h.h.h.h.h.h.h.h.h.z.h.h.h.h.h.h.h.1.c 1.h.h.2.2 V.V.1 6.6.* & * ; v g l k h.a 4 d g.d.5 z 0.h.h.h.h.h.h.h.h.h.h.h.h.h.h.h.",
"h.h.h.h.h.h.h.h.h.h.h.h.h.h.h.h.h.h.h.h.1.1.B h.h.2.2 V.7.y.> > : * y.2.= ; 8.f w A i V 7.d.r e 8.h.h.h.h.h.h.h.d.g h.8.2.h.h.h.",
"h.h.h.Y h.h.h.h.h.h.h.h.h.h.h.h.h.h.h.h.h.h.h.h.h.2.3 C.2.6.1 C.= < 2.h.= = 8.h.n b m 8.h.d.s N 8.h.h.h.h.h.h.h.h.x f z.8.h.h.h.",
"h.h.h.t g.h.h.h.h.h.h.h.h.h.h.h.h.h.h.h.h.h.h.h.h.h.2.2.h.h.2.2.h.h.h.h.h.h.h.h.h.h.h.h.h.h.h.h.h.h.h.h.h.h.h.h.h.C w Z 8.h.h.h.",
"h.h.h.t M h.h.h.h.h.h.h.h.h.h.h.h.h.h.h.h.h.h.h.h.h.h.h.h.h.h.h.h.h.h.h.h.h.h.h.h.h.h.h.h.h.h.h.h.h.h.h.h.h.h.h.h.l q V 2.h.h.h."
};
