/* XPM */
static char *_3548485b9154da9fe802150c463d4a7EzQX3ZTpH7sNU396[] = {
/* columns rows colors chars-per-pixel */
"64 64 226 2 ",
"   c #050705",
".  c #11090C",
"X  c #121511",
"o  c #27141C",
"O  c #210F17",
"+  c #371927",
"@  c #330F21",
"#  c #2B2424",
"$  c #7C7E74",
"%  c #BB1A6B",
"&  c #B43969",
"*  c #B6306D",
"=  c #C11970",
"-  c #CC2F7A",
";  c #AE4068",
":  c #C8477E",
">  c #D4477E",
",  c #C8517B",
"<  c #5CB63C",
"1  c #57B639",
"2  c #54AE3F",
"3  c #6EBD3D",
"4  c #63B83E",
"5  c #71BE3E",
"6  c #75C13C",
"7  c #7CC43B",
"8  c #6FC730",
"9  c #3E9258",
"0  c #3D954F",
"q  c #499757",
"w  c #579C58",
"e  c #4A964C",
"r  c #649C5E",
"t  c #4BA24B",
"y  c #5DAA4B",
"u  c #5AA948",
"i  c #58AA4A",
"p  c #64AC4C",
"a  c #6FAC4F",
"s  c #6BB645",
"d  c #6CBA41",
"f  c #67B347",
"g  c #74BC43",
"h  c #7BBE45",
"j  c #73B44B",
"k  c #74B849",
"l  c #7DBB4A",
"z  c #7AB54D",
"x  c #63A555",
"c  c #6CAB53",
"v  c #66A359",
"b  c #6BA35B",
"n  c #67A953",
"m  c #74AD54",
"M  c #7AAA57",
"N  c #76A85A",
"B  c #74B152",
"V  c #7BB451",
"C  c #7BAF46",
"Z  c #508E63",
"A  c #7A8576",
"S  c #768579",
"D  c #6B9D65",
"F  c #74AE6D",
"G  c #7AB36E",
"H  c #78AF72",
"J  c #6DB67C",
"K  c #75B275",
"L  c #7BB273",
"P  c #74B47B",
"I  c #7BB97A",
"U  c #76B87D",
"Y  c #61AF7F",
"T  c #7CC143",
"R  c #77C040",
"E  c #BD9E23",
"W  c #C99E15",
"Q  c #D19E0D",
"!  c #CEA50B",
"~  c #D5A606",
"^  c #DBA402",
"/  c #DFA802",
"(  c #D4A20C",
")  c #D5AA09",
"_  c #CBA114",
"`  c #C7A015",
"'  c #D2A414",
"]  c #E0A902",
"[  c #E2B009",
"{  c #DB9C23",
"}  c #86C53C",
"|  c #94C83C",
" . c #97D439",
".. c #8BD32C",
"X. c #A3C73B",
"o. c #ACDC36",
"O. c #ADE32E",
"+. c #ECDC2D",
"@. c #F3DE2A",
"#. c #EBDC38",
"$. c #F1DE33",
"%. c #F5E32C",
"&. c #FAE62D",
"*. c #FDEA2C",
"=. c #FAE426",
"-. c #FEF22E",
";. c #EDE23C",
":. c #ECE738",
">. c #F2E433",
",. c #F6EB33",
"<. c #FEEE32",
"1. c #F2E339",
"2. c #F3EB38",
"3. c #FEEA3B",
"4. c #FCE53C",
"5. c #FFF132",
"6. c #EEE42D",
"7. c #98AD49",
"8. c #84BD4C",
"9. c #8BBD4D",
"0. c #89B74A",
"q. c #93BD43",
"w. c #95B94A",
"e. c #86AD57",
"r. c #96A758",
"t. c #84B553",
"y. c #8CB452",
"u. c #85B952",
"i. c #8BBA51",
"p. c #85B45A",
"a. c #94BE54",
"s. c #99BB55",
"d. c #9AB759",
"f. c #9CBC5C",
"g. c #94B656",
"h. c #888468",
"j. c #8E9265",
"k. c #86AD78",
"l. c #8EB26C",
"z. c #A6B167",
"x. c #908B5E",
"c. c #84C246",
"v. c #8BC547",
"b. c #86C14A",
"n. c #8BC34A",
"m. c #8FCA45",
"M. c #93C344",
"N. c #93CA44",
"B. c #91C44B",
"V. c #99C948",
"C. c #8AC351",
"Z. c #85C152",
"A. c #92C151",
"S. c #9AC35A",
"D. c #A4C94A",
"F. c #8BDC7B",
"G. c #DBD243",
"H. c #FBDC43",
"J. c #FED95B",
"K. c #E9E741",
"L. c #FDE543",
"P. c #FCE34A",
"I. c #FFE153",
"U. c #D73983",
"Y. c #CA4880",
"T. c #DB478A",
"R. c #D55183",
"E. c #E2428A",
"W. c #DE7B88",
"Q. c #DC679B",
"!. c #DB799B",
"~. c #D06D8C",
"^. c #E0749F",
"/. c #E27392",
"(. c #DE74A3",
"). c #E46EA4",
"_. c #E66EAB",
"`. c #E472A4",
"'. c #E775A9",
"]. c #EA79AC",
"[. c #E776A8",
"{. c #EF77B1",
"}. c #6AAF85",
"|. c #60AE81",
" X c #7CAB8A",
".X c #7DAC82",
"XX c #66B385",
"oX c #69B384",
"OX c #6AB587",
"+X c #76B583",
"@X c #7DB091",
"#X c #86AC84",
"$X c #D9839B",
"%X c #EA8298",
"&X c #EF8EBB",
"*X c #F38DBE",
"=X c #EF93BD",
"-X c #EA9CBA",
";X c #F49EBD",
":X c #F697BE",
">X c #FDA7AE",
",X c #ECA2B5",
"<X c #E7A3B0",
"1X c #FDA6B6",
"2X c #FFA9B4",
"3X c #F3A1BD",
"4X c #FFA4BB",
"5X c #E4A5AC",
"6X c #94EA80",
"7X c #ACEF8D",
"8X c #C3FA9B",
"9X c #FB95C4",
"0X c #F59DC2",
"qX c #FB9BC6",
"wX c #FF99C8",
"eX c #FF9CCA",
"rX c #FF9CCB",
"tX c #F895C6",
"yX c #FF9AD0",
"uX c #FA8FC2",
"iX c #FDA1C3",
"pX c #FFA2CC",
"aX c #F9A5C7",
"sX c #FBDDD6",
"dX c #FCD6D5",
"fX c #FBE2D7",
/* pixels */
"n.n.n.i.k 3 B.n.n.n.n.n.n.n.n.n.n.n.n.n.n.n.n.n.n.n.n.n.n.n.n.n.n.n.n.n.n.n.n.n.n.n.n.n.n.n.n.n.n.n.n.n.n.n.n.n.n.n.n.n.n.n.n.n.",
"n.n.n.M D f c.n.n.n.n.n.n.n.n.n.n.n.n.n.n.n.n.n.n.n.n.n.n.n.n.n.n.n.n.n.n.n.n.n.n.n.n.n.n.n.n.n.n.n.n.n.n.n.n.n.n.n.n.n.n.n.n.n.",
"n.n.n.n.p.z c.n.n.n.n.n.n.n.n.n.n.n.n.n.n.n.n.n.n.n.n.n.n.n.n.n.n.n.n.n.n.n.n.n.n.n.n.n.n.n.n.n.n.n.n.n.n.n.n.n.n.n.n.n.n.n.n.n.",
"n.n.n.n.n.n.n.n.n.n.n.n.n.n.n.n.n.n.n.n.n.n.n.n.n.n.n.n.n.n.n.n.d h n.n.n.n.n.n.n.n.n.n.n.n.n.n.n.n.n.N.N.n.n.n.n.n.n.n.n.n.n.n.",
"n.n.n.n.n.n.n.n.n.n.n.n.n.n.n.n.n.n.n.n.n.n.n.8.n.n.n.n.n.n.n.n.d h l n.n.n.n.n.n.n.8.n.n.n.8.n.n.n.n.n.n.n.n.n.n.n.n.n.n.n.n.n.",
"n.n.n.n.n.n.n.n.n.c.c.n.n.n.n.n.n.n.n.n.n.n.8.8.8.n.n.n.n.n.n.n.d j y 9.n.n.n.n.b.8.b.n.v.b.8.n.n.n.n.n.n.n.n.n.n.n.n.n.n.n.n.n.",
"n.n.n.n.n.n.n.n.n.3 T n.8.n.n.n.n.n.n.n.n.n.n.b.n.n.n.n.n.n.c.v.T l V 9.n.n.n.8.8.n.n.n.v.8.n.n.n.n.n.n.n.n.g h n.n.n.n.n.n.n.n.",
"n.n.n.n.n.n.n.n.B.n c s 8.n.n.n.n.n.n.n.n.n.n.n.n.n.n.n.n.n.S.S.f.f.B.n.n.n.n.n.n.n.n.n.n.n.n.n.n.n.n.n.n.n.g g g n.n.n.n.n.n.n.",
"n.n.n.n.n.n.n.n.n.B m c 8.n.n.n.n.n.n.n.n.n.n.n.h b.n.n.c.f.sXfXpX9Xd.v.n.n.n.n.n.n.n.n.n.n.n.n.n.n.n.n.n.n.n.f h 8.8.n.n.n.n.n.",
"n.n.n.n.n.n.n.n.n.n.n.n.n.n.n.n.n.n.n.n.n.n.A.A.h s n.b.1 p.dXsXpXwXd.v.A.A.n.n.n.n.n.n.n.n.n.n.n.n.n.n.n.n.n.v c y 9.n.n.n.n.n.",
"n.n.n.n.n.n.n.n.n.n.n.n.n.n.n.n.n.n.n.n.v.A.3X5Xn. .6 k 4 r.qXpXsXdXf.n.,X,Xn.c.8.n.n.T c.n.n.n.n.n.n.n.n.n.n.8.u.V 9.n.n.n.n.n.",
"n.n.n.n.n.n.n.n.b.8.n.n.n.n.n.n.n.n.n.n.v.A.rX;Xy.X.d b v d.9XpXfXsXf.n.qXqXy.0.n.n.n.5 c.B.n.n.n.v.N.n.n.n.n.n.n.n.n.n.n.n.n.n.",
"n.n.n.n.n.n.n.n.8.8.n.n.n.n.n.n.n.n.n.n.n.a.iX9XQ.~.r b j s.9XpXfXfXS.v.3XwXQ.~.n.n.6 g n.h n.n.n.n.n.n.n.n.n.n.n.n.n.n.n.n.n.n.",
"n.n.n.n.n.n.n.n.l 8.n.n.n.n.n.n.n.n.n.n.T i.iX9X].[.j.g.s.z.9XpXdXdXz.d.;XwX{.$Xn.v.2 j } h h h n.n.n.n.n.n.n.n.n.n.n.n.n.n.n.n.",
"n.n.8.8.n.n.n.n.m V n.n.n.n.n.n.n.n.n.n.6 8.eXwXrXrXeXwXwXwXrXrXrXrXwXwXrXrXrX<Xc.N.h c 7 n.d d B.n.n.n.n.n.n.n.n.n.n.n.n.n.n.n.",
"n.n.n.8.n.n.n.n.m M n.n.n.n.n.n.n.n.8.9.3 y 0XrXrXwXtX=X=X=XrXrXrXwXtX=X=X=XrX-XV u n s q l 2 k n.n.n.n.n.n.n.n.n.n.n.n.n.n.n.n.",
"n.n.n.n.n.n.n.n.u.u.n.n.n.n.n.n.n.n.u.i.T m 0XwXrX&Xo . . + 9XrXrX9X+   . o *X-X8.c B V v c.j u.n.n.n.n.n.n.n.n.n.n.n.N.N.n.n.n.",
"n.n.n.n.n.n.n.n.n.n.n.g n.n.n.n.n.n.n.n.n.S.0XwXrX&XX     O 9XrXrX9X#     . *X3Xn.n.n.n.B.n.n.n.n.n.n.n.n.n.n.n.n.n.n.N.N.n.n.n.",
"n.n.n.n.n.n.n.n.n.n.n.c. .n.n.n.n.n.n.B.5X3XrXrXwXqX7X6XX O 9XrXrXpX7XF.    &XrX-X<Xa.n.n.n.n.n.n.n.n.n.n.v.n.n.n.n.n.n.n.n.n.n.",
"n.n.n.n.n.n.n.h n.n.n.c.5 n.h n.g g n.n.0XyXrXrXwXiX8X7X# + qXrX9X0X8X7Xo @ &XrXrXrXa.v.n.n.n.n.n.n.n.n.v.o.N.c.n.n.n.n.n.n.n.n.",
"n.n.n.n.n.n.n.d h h c.8.y < 4 n.g 4 b.B.3XrXrXrXrXrXaXaX9X9XrX9XT.T.;XaX:X9XrXrXrX0Xa.v.n.n.n.n.n.n.n.n.n.N.| f 8.9.n.n.n.n.n.n.",
"n.n.n.n.n.n.n.c.d c.d w q 4 n.n.T 1 h A.3XrXrXrXrXrXwXrXrXwXwX9XT.T.uXwXwXrXrXrXrXqXa.v.n.n.u.t.n.n.n.n.n.B.c B p.t.n.n.n.n.n.n.",
"n.n.n.n.n.n.n.8.n B.8.w w V 8.n.T < c.A.3XrXrXrXrXrXrXwX`.).`.`.9X9X'.`.).'.wXrXwXqXa.v.n.n.n.9.n.n.n.n.n.T t m u.9.n.n.n.n.n.n.",
"n.n.n.n.n.n.n.n.n.n.n.n.n.n.n.n.n.n.n.B.3XrXrXrXrXrXrXwX[.'.'.].wXrX].'.'.].wXrXwXeX8.3 n.n.9.n.n.n.n.n.n.c.y m n.n.n.n.n.n.n.n.",
"n.n.n.n.n.n.n.n.n.n.n.n.n.n.n.n.n.n.n.B.;XrXrXrXrXrXrXrXrXrXrXrXrXrXrXrXrXrXrXrXrXqXB.8 c.u.8.n.n.n.n.n.n.n.n.n.n.n.n.n.n.n.n.n.",
"n.n.n.n.n.n.n.n.n.n.n.n.n.n.n.n.n.n.n.B.,XeXrXrXrXrXrXrXrXrXrXrXrXrXrXrXrXrXrXrXeX0XD...c.e.8.n.n.n.n.n.n.n.n.n.n.n.n.n.n.n.n.n.",
"n.n.8.N M n.n.n.n.n.n.n.n.n.n.n.n.n.n.n.A.f.qXrXrXrXrXrXrXrXrXrXrXrXrXrXrXrXrX3XS.a.N.n } 8.9.n.n.n.n.n.n.n.n.n.n.n.n.n.n.8.n.n.",
"n.n.n.h n.n.n.n.n.n.n.n.n.n.n.h M.q.q.q.} w.1X4X4X4X0X;XwXwXwXwXwXwX;X3X;X;XwX-X9.8.9.m p 8.n.n.n.n.n.n.N.n.b.n.n.n.n.n.8.M 8.n.",
"n.n.n.< g n.b.n.n.n.n.n.n.N.b.h +.%.%.%.%.%.3.3.3.4.V.y.Q._.`.`.`.Q.r.C.C.B.{ { W _ _ _ _ E 9.n.n.n.n.n.O.8.8.n.n.n.n.n.8.n.n.n.",
"n.n.n.u w n.n.n.n.n.n.n.n.n.M.X.5.5.5.5.5.5.5.5.5.,.D.r.W.%X'.'.].).7.| 9.q.~ ^ / / / / ] ( y.9.n.n.n.n.6 8.8.n.n.n.n.n.n.n.n.n.",
"n.n.n.8.8.n.n.n.n.n.n.n.n.M.@.&.<.<.<.<.<.<.5.5.5.3.:X:X<.L.rXrXrXwXH.=.' Q ^ ^ ^ ^ ^ ^ ^ ^ ( ` 0.n.n.n.b.n.8.n.n.n.n.n.n.n.n.n.",
"n.n.n.n.n.n.n.n.n.n.n.n.l q.&.5.<.<.,.,.,.,.,.,.5.3.1X4X3.I.iXiXiXiXI.3.[ / ^ ^ ~ ~ ~ ~ ^ ^ / ~ 0.n.n.n.n.n.n.n.n.n.n.n.n.n.n.n.",
"n.n.n.n.n.n.n.n.n.n.n.n.l q.&.5.5.&.| B.B.B.B.D.5.5.3.P.4X>X3.3.3.3.>X4X4.=./ ! M.M.M.0._ / ^ ~ M.n.n.n.n.n.n.n.n.n.n.n.n.n.n.n.",
"n.n.n.n.n.n.n.b.n.n.n.n.n.q.&.5.5.&.q.b.n.n.b.V.%.&.-.3.rX1X-.-.-.<.4XwXL.*./ ! n.n.n.i.W / ^ ~ M.n.n.n.n.8.n.n.n.n.n.n.9.n.n.n.",
"n.n.n.n.n.n.n.3 c.l 9.n.v.g.>X2X2X>Xd.v.n.n.n.n.M.w.1.5.L.J.1X1X1X1XrXiXL.-.*.#.9.n.n.y.~.W.W.W.a.n.n.n.c.7 b.c.n.n.n.8.M n.n.n.",
"n.n.n.n.n.n.n.} s l 9.n.v.d.tXyXyXtXd.v.n.n.n.n.b.i.1.5.-.L.tXtXrXrXtX;X4.5.5.;.i.n.n.y.Q.'._.(.a.n.n.n.N. .d l n.n.n.b.n.b.n.n.",
"n.n.n.n.n.n.n.8.d l l n.v.d.9XrXrX9Xd.v.n.n.n.n.n.9.1.5.5.%.k..XL.4.k.k.&.5.-.#.k c.n.y.Q.).).^.a.n.n.n.p.k d j z n.n.n.n.n.n.n.",
"n.n.n.n.n.n.n.m v s j n.v.d.;X3X3X;Xd.v.n.n.n.n.n.i.1.5.5.%.K oX:.%.K L &.5.5.#.8.6 n.C ~.!.!.!.a.n.n.n.u.b r p z n.n.n.n.n.n.n.",
"n.n.n.n.n.n.n.n.n.n.n.n.n.n.A.A.A.h c.B.n.n.n.n.n.i.1.5.5.%.L OXOX+XOXl.*.5.-.;.i.8 s s h y.y.B.n.n.n.n.n.n.9.n.n.n.n.n.n.n.n.n.",
"n.n.n.n.n.n.n.n.n.n.n.n.n.n.n.n.n.p k T n.n.n.n.n.i.1.5.&.+.F Y L L |.F @.%.;.G.i.u f x j 9.n.n.n.n.n.n.n.n.n.n.n.n.n.n.n.n.n.n.",
"n.n.n.n.n.n.n.n.n.n.n.n.n.n.n.n.B.v m p n.n.n.n.n.9.1.*./ W 9 0 ! / e 9 ( ~ 9.i.n.c p 8.t.n.n.n.n.n.n.n.n.n.n.n.n.n.n.n.n.n.n.n.",
"n.n.n.n.n.n.N.N.n.n.n.n.n.n.n.n.n.8.b.8.n.n.n.n.n.8.1.*.] _ 9 0 ! ~ e q ( ) M.m.n.n.8.n.n.n.n.n.8.n.n.n.n.n.v.n.n.n.n.n.n.n.n.n.",
"n.n.8.8.n.n.n.n.n.n.n.n.n.n.n.n.n.n.n.n.n.n.n.n.n.i.1.5.<.@.F XXK K XXG =.>.9.n.n.n.n.n.n.n.n.8.b.n.n.n.n.n.N.n.n.n.n.n.n.n.n.n.",
"n.n.n.b.8.n.n.n.n.n.n.n.n.n.n.n.n.n.n.n.n.n.n.n.n.9.$.*.*.%.H }.}.}.}.k.>.K.i.n.n.n.n.n.n.n.n.n.n.n.n.n.n.n.n.n.n.n.8.b.n.v.v.n.",
"n.n.n.n.n.n.n.n.n.n.n.n.n.n.n.n.n.n.n.n.n.n.n.n.n.n.x.x.h.h.$ $ $ $ $ $ p.C.n.n.n.n.n.n.n.n.n.n.n.n.n.n.n.n.n.n.n.8.n.n.n.n.n.n.",
"n.n.n.n.n.n.n.n.n.n.n.n.n.n.n.n.n.n.n.n.n.n.n.n.C.u.S S h.h.A A A A A A q.| n.n.n.n.n.n.n.n.n.n.c.n.n.n.n.n.n.n.n.n.n.n.8.n.n.n.",
"n.n.n.n.n.n.n.n.n.n.n.n.n.n.n.n.v.n.n.n.n.n.n.Z.oXoXOXK @.@.K oXoXoXXXL =.$.9.n.n.n.n.n.n.n.n.n.6 T n.n.n.n.n.n.n.n.n.n.n.n.n.n.",
"n.n.n.n.n.n.n.n.n.n.n.n.n.n.8.n.v.v.n.n.n.n.n.C.U U OXK :.>.L OXU U oXG ,.;.i.n.n.n.n.n.n.n.n.n.v.3 n.n.n.c.T n.n.n.n.n.n.n.n.n.",
"n.n.n.n.n.h c.n.n.n.n.n.n.b.l 8.n.n.n.n.n.n.n.V.2.:.U oX+XP oXU K.>.L oX+XU n.n.n.n.n.n.R c.8.t.8.d g < b.T 5 n.9.u.n.n.n.n.n.n.",
"n.n.n.n.n.| } n.9.9.n.n.n.n.n.n.n.n.n. .o.l c.V.*.%.I XXK K oXU >.=.L XXK K n.n.n.n.n.n.c.6 h s V w 1 j u.c.< l t.n.n.n.n.n.n.n.",
"n.n.n.n.n.7 u V e.8.n.n.n.n.n.n.n.n.n.N.m.f v.C.L L oXK +.@.K oXL L XXL %.:.U K n.n.n.n.b.4 u.k q q x t.n.T 1 a u.n.n.n.n.n.n.n.",
"n.n.n.n.n.c.j t.9.n.n.n.n.n.n.n.n.n.9.p.f j h Z.L L OXK +.@.K oXL L oXL %.:.+XJ C.C.n.n.n.h 8.n.V m V n.n.b.g 8.n.n.n.n.N.n.n.n.",
"n.n.n.n.n.n.n.n.n.n.n.n.n.n.n.n.n.n.n.p.v j d V.*.,.U XXK K oXP >.=.L XXK K XXI 2.:.V.n.n.n.n.n.n.B.n.n.n.n.n.n.n.n.n.n.N.n.n.n.",
"n.n.n.n.n.n.n.n.n.n.h n.n.n.c.n.n.n.n.n.n.n.b.V.1.;.U oXU +XoXU K.>.L OX+XU oXI 2.2.B.b.n.n.n.n.n.n.n.n.n.n.n.n.n.n.n.n.n.n.n.n.",
"n.n.n.n.n.n.n.n.n.n.g h B.V u c.9.n.n.n.n.n.n.n.9.i.J K 6.%.K XXJ J XXG %.:.J XXJ J oXJ n.n.n.n.n.n.n.n.n.n.n.n.n.n.n.n.n.n.n.n.",
"n.n.8.n.n.n.n.n.n.n.B...h f s u.9.n.n.n.n.n.n.n.n.n. X#XH.H.k.@X#X#X@Xk.H.H.#X X X X X.Xn.n.n.n.n.n.n.n.n.n.V V 8.n.n.n.n.n.n.n.",
"n.n.n.n.n.n.n.n.n.n.v.< c c B i.n.n.n.n.n.n.n.n.n.A.3XrXrXrXrXrXrXrXrXrXrXwX`.).`.`.).!.9.n.n.n.n.n.n.n.n.8.8.8.n.n.n.n.n.n.n.n.",
"n.n.n.n.n.n.n.n.n.n.n.w w v m n.n.n.n.n.n.n.N.n.n.A.;XwXwXwXqXqX9X9X9X9XeX0X`.^.`.^.`.!.B.b.8.n.n.9.n.n.n.n.n.n.n.n.n.n.n.n.n.n.",
"n.n.n.n.n.n.n.n.n.n.n.p.c V n.n.n.n.n.n.n.n.n.n.n.9.R.T.E.R.f.s.* - = * t.A.a.a.a.o.9.j b.h d B.8.8.n.n.n.n.n.n.n.n.n.n.n.n.n.n.",
"n.n.n.n.n.n.n.n.n.n.n.n.B.n.n.n.n.n.n.n.8.l 8.n.n.9.> U.U.: w.7.* % * & j d T g n.s 1 4 n.c.1 j i.n.n.n.n.n.n.n.n.n.n.n.n.n.n.n.",
"n.n.n.n.n.n.n.n.n.n.n.n.n.n.n.n.n.n.n.n.8.8.M n.n.9.> U.r.r.- - = % y.9.& & t.s w Z w N M c.t r t.n.n.n.n.n.n.n.c.d n.u.9.n.n.n.",
"n.n.n.T n.n.n.n.n.n.n.n.n.n.n.n.n.n.n.n.n.n.n.n.n.9., Y.9.w.: Y.& ; 9.n.& & y.n.c x b p.n.c.p m u.n.n.n.n.n.n.n.n.k s B.t.n.n.n.",
"n.n.n.y b.n.n.n.n.n.n.n.n.n.n.n.n.n.n.n.n.n.n.n.n.n.9.9.n.n.9.9.n.n.n.n.n.n.n.n.n.n.n.n.n.n.n.n.n.n.n.n.n.n.n.n.n.B w V p.n.n.n.",
"n.n.n.u x n.n.n.n.n.n.n.n.n.n.n.n.n.n.n.n.n.n.n.n.n.n.n.n.n.n.n.n.n.n.n.n.n.n.n.n.n.n.n.n.n.n.n.n.n.n.n.n.n.n.n.n.h q b 9.n.n.n."
};
