/* XPM */
static char *_527497037e64cd0df394959b1925e66nI6EKlWkf3aXY94b[] = {
/* columns rows colors chars-per-pixel */
"64 64 206 2 ",
"   c #030302",
".  c #0A0604",
"X  c #050B03",
"o  c #0C0C05",
"O  c #0A0D0A",
"+  c #110B06",
"@  c #130D0A",
"#  c #0C1304",
"$  c #16130A",
"%  c #140F11",
"&  c #111211",
"*  c #1E1917",
"=  c #171811",
"-  c #21171C",
";  c #19200C",
":  c #7F5338",
">  c #4B535F",
",  c #4B5A5D",
"<  c #525C5E",
"1  c #56635D",
"2  c #4D5363",
"3  c #4D5567",
"4  c #505964",
"5  c #494D62",
"6  c #63697F",
"7  c #69697A",
"8  c #66717E",
"9  c #69777B",
"0  c #697979",
"q  c #863E3E",
"w  c #86463F",
"e  c #8E5C3F",
"r  c #87583B",
"t  c #925D3E",
"y  c #94633F",
"u  c #98643F",
"i  c #883D41",
"p  c #833F4D",
"a  c #894341",
"s  c #864947",
"d  c #954C41",
"f  c #885642",
"g  c #935E41",
"h  c #995247",
"j  c #A34C53",
"k  c #966142",
"l  c #996343",
"z  c #966B42",
"x  c #996A43",
"c  c #95644B",
"v  c #9D6B4B",
"b  c #9C664A",
"n  c #977143",
"m  c #9A7048",
"M  c #936850",
"N  c #8F6343",
"B  c #A16D4F",
"V  c #A2674F",
"C  c #A1714E",
"Z  c #A26E50",
"A  c #A86F59",
"S  c #A57356",
"D  c #D2477C",
"F  c #5CB63C",
"G  c #57B539",
"H  c #4FA33C",
"J  c #76A73E",
"K  c #63B63E",
"L  c #6DBC3D",
"P  c #68B83C",
"I  c #71BE3E",
"U  c #79BA3F",
"Y  c #75C13D",
"T  c #7BC33B",
"R  c #7EC92F",
"E  c #4A9757",
"W  c #579C58",
"Q  c #649C5E",
"!  c #4CA447",
"~  c #5DAA4B",
"^  c #58A648",
"/  c #5BB142",
"(  c #59A254",
")  c #64AC4C",
"_  c #6CAE4C",
"`  c #69A847",
"'  c #7DAE42",
"]  c #78AB49",
"[  c #65B542",
"{  c #6BB644",
"}  c #6CBA42",
"|  c #68B14B",
" . c #67B248",
".. c #73BC43",
"X. c #7BBE46",
"o. c #74B44B",
"O. c #74BA4A",
"+. c #7CBA4A",
"@. c #7AB44A",
"#. c #64A554",
"$. c #6CAB53",
"%. c #66A359",
"&. c #69A658",
"*. c #74AC54",
"=. c #7AAC56",
"-. c #7DAB5B",
";. c #75A55B",
":. c #74B351",
">. c #7BB352",
",. c #7BBB52",
"<. c #418965",
"1. c #6B9D65",
"2. c #7DC143",
"3. c #77C141",
"4. c #86C73A",
"5. c #91CA37",
"6. c #99D33B",
"7. c #89CE2F",
"8. c #A7DD34",
"9. c #B1E52E",
"0. c #82B546",
"q. c #84B54D",
"w. c #84BD4C",
"e. c #8ABD4B",
"r. c #8ABA47",
"t. c #91B84C",
"y. c #81AD59",
"u. c #84B553",
"i. c #86BC53",
"p. c #89BB52",
"a. c #86BE59",
"s. c #84B759",
"d. c #93B953",
"f. c #81A948",
"g. c #83C246",
"h. c #8CC546",
"j. c #86C04A",
"k. c #8BC34A",
"l. c #8AC24A",
"z. c #89C14A",
"x. c #8CC34B",
"c. c #8BC54A",
"v. c #8CC44A",
"b. c #8DC549",
"n. c #8BC34A",
"m. c #8EC94C",
"M. c #90C746",
"N. c #93CA43",
"B. c #90C54B",
"V. c #92CB4D",
"C. c #8BC352",
"Z. c #86C05B",
"A. c #89C15A",
"S. c #92C353",
"D. c #99C35A",
"F. c #97C75A",
"G. c #636B82",
"H. c #616B8A",
"J. c #616784",
"K. c #657388",
"L. c #525EBD",
"P. c #4D59C5",
"I. c #4B56CB",
"U. c #4C5ACC",
"Y. c #4C56C7",
"T. c #4C5BD0",
"R. c #5057C1",
"E. c #5975CD",
"W. c #5976D3",
"Q. c #5375DD",
"!. c #557ADD",
"~. c #5678D3",
"^. c #5174E1",
"/. c #5479E0",
"(. c #DE4A8C",
"). c #5A96D7",
"_. c #5693DD",
"`. c #5995DC",
"'. c #5795D7",
"]. c #6597DA",
"[. c #74B6C8",
"{. c #6FADD3",
"}. c #6EADD9",
"|. c #6EB1DB",
" X c #6DB2D5",
".X c #71B4D5",
"XX c #70B3DB",
"oX c #7BB6D7",
"OX c #70ACCB",
"+X c #E7B1BE",
"@X c #DCCABC",
"#X c #E0CABD",
"$X c #EFB7C1",
"%X c #F5B4CC",
"&X c #FAB6CC",
"*X c #F1BEC3",
"=X c #F4BAD4",
"-X c #FEBBD4",
";X c #F0AFC4",
":X c #E3CFC4",
">X c #EBD6C7",
",X c #F3DBCC",
"<X c #F4DACB",
"1X c #FBDFD3",
"2X c #F9E5D9",
"3X c #EFE5CC",
/* pixels */
"k.k.k.p.O.L B.k.k.k.k.k.k.k.k.k.k.k.k.k.k.k.k.k.k.k.k.k.k.k.k.k.k.k.k.k.k.k.k.k.k.k.k.k.k.k.k.k.k.k.k.k.k.k.k.k.k.k.k.k.k.k.k.k.",
"k.k.c.-.1. .g.x.k.k.k.k.k.k.k.k.k.k.k.k.k.k.k.k.k.k.k.k.k.k.k.k.x.k.x.k.k.k.k.k.k.k.k.k.k.k.k.k.k.k.k.k.k.k.k.k.k.k.k.k.k.k.k.k.",
"k.k.k.c.s.+.g.x.k.k.k.k.k.k.k.k.k.k.k.k.k.k.k.k.k.k.k.k.k.k.c.c.k.k.k.k.c.c.k.k.k.k.k.k.k.k.k.k.k.k.k.k.k.k.k.k.k.k.k.k.k.k.k.k.",
"k.k.k.k.b.b.x.k.k.k.k.k.k.k.k.k.k.k.k.k.k.k.k.k.k.k.k.k.k.k.r.e.} X.x.k.r.r.k.k.k.k.k.k.k.k.k.k.k.k.k.N.N.k.k.k.k.k.k.k.k.k.k.k.",
"k.k.k.k.k.k.k.k.k.x.x.k.k.k.k.k.k.k.k.k.k.x.k.w.k.k.k.k.c.r.x x [ X.w.r.s s r.c.x.k.w.x.k.k.w.k.k.k.k.b.b.k.k.k.k.k.k.k.k.k.k.k.",
"k.k.k.k.k.k.k.k.x.g.g.x.c.k.k.k.k.k.k.k.k.k.w.w.w.k.k.k.c.r.l x { o.^ f.q w r.b.w.w.j.k.h.j.w.k.k.k.k.k.k.k.b.x.k.k.k.k.k.k.k.k.",
"k.k.k.k.k.k.k.k.b.L 2.x.q.b.k.k.k.k.k.k.k.k.k.j.k.k.k.k.m.e.l l x N & X   o ' j.w.k.k.k.h.w.k.k.k.k.k.k.k.b...X.x.k.c.k.k.k.k.k.",
"k.k.k.k.k.k.k.k.B.#.$.{ w.b.k.k.k.k.k.k.k.k.b.c.b.x.k.k.' ' l l l g $ . o $ 0.c.k.b.k.k.k.k.k.k.k.k.k.k.k.b.......z.k.k.k.k.k.k.",
"k.k.k.k.k.k.k.k.b.:.*.&.q.b.k.k.k.k.k.k.k.k.k.x.X.j.V.e.# + k l l l k k t y e.b.k.k.k.k.k.k.k.k.k.k.k.k.k.k.b. .X.w.w.c.k.k.k.k.",
"k.k.k.k.k.k.k.k.k.b.b.b.c.k.k.k.k.k.k.k.k.k.k.b.X.[ 0.J X . k l l l l l B C t.r.k.k.k.x.x.k.k.k.k.k.k.k.k.k.b.%.$.~ e.c.k.k.k.k.",
"k.k.k.k.k.k.k.k.k.k.k.k.k.k.k.k.k.k.k.k.k.k.k.k.B.7.# X   o g l l b l B ,X<XC n e.c.b.2.g.x.k.k.k.k.k.k.k.k.b.w.u.>.e.c.k.k.k.k.",
"k.k.k.k.k.x.k.c.j.w.b.k.k.k.k.k.k.k.k.k.k.k.k.k.b.5.X     @ g l g k t v ,X,Xb y 0.w.x.I g.B.k.k.k.h.N.k.k.k.k.b.b.b.c.k.k.k.k.k.",
"k.k.k.k.k.k.k.x.w.w.b.k.k.k.k.k.k.k.k.k.x.x.k.k.V.$.X   : e l e +   . $ v v +   o ; P 3.x.X.x.b.k.k.k.k.k.k.k.k.k.k.k.k.k.k.k.k.",
"k.k.k.b.k.k.b.k.+.w.b.k.k.k.k.k.k.k.k.x.g.g.b.k.0.J X   e b l g * &   . t t * &   X H :.4.X.X.X.b.k.k.k.k.k.k.k.k.k.k.k.k.k.k.k.",
"k.k.w.w.k.x.k.c.*.>.b.k.k.k.k.k.k.k.c.b.U T V.' o       e b k v <X>X&   g v ,X@X  # U $.T b.} } B.k.k.k.k.k.k.k.k.k.k.k.k.k.k.k.",
"k.k.k.w.k.k.k.c.*.=.b.k.k.k.k.k.k.k.w.e...! w.'     . + e b k v <X<X* + t b <X#X+ O #.{ E +.G O.b.k.k.k.k.k.k.k.k.k.k.k.k.k.k.k.",
"k.k.k.k.k.k.k.b.p.u.b.x.k.k.k.k.k.k.u.p.2.) u.'   . r g l l l l v v g e l l v b t f *.:.%.g.o.i.b.k.k.k.k.k.k.k.k.k.k.M.N.k.k.k.",
"k.k.k.k.k.k.k.k.c.b.k...k.c.c.k.x.x.b.c.x.b.V.'   . k b l l l l k k l b l l k l l x e.x.B.x.b.b.k.k.k.k.k.k.k.k.k.k.k.M.N.k.k.k.",
"k.k.k.k.k.k.k.b.k.k.k.g.6.z.b.x.k.k.k.k.k.k.m.'     t l l l l l l l l l l l l l y k x n r.c.k.k.k.k.k.k.b.h.z.b.x.k.k.k.k.k.k.k.",
"k.k.k.k.k.k.k.X.x.b.b.g.I k.X.b.....B.k.k.k.m.' o @ g l l l l l l l l l l l l l Z B l l r.c.k.k.k.k.k.k.h.8.N.g.k.b.k.k.k.k.k.k.",
"k.k.k.k.k.k.k.} X.X.g.w.~ F K b...K k.x.k.k.c.r.k g l l l k a a l l l l l l y Z ,X<Xb y r.c.x.b.k.k.k.k.k.N.5. .w.e.k.k.k.k.k.k.",
"k.k.k.k.k.k.b.g.[ g.} W E K k.x.2.G X.b.k.k.c.r.l l l l l k a a l l l l l l k S 2X,XS v d.B.u.u.b.k.k.k.k.B.$.:.s.u.b.k.k.k.k.k.",
"k.k.k.k.k.k.b.w.$.B.w.W W :.w.k.2.F g.b.k.k.c.r.l l l l l k i a l l l l l l t Z 2X2X,X,X2X3XC.w.b.k.k.k.x.2.! *.u.e.k.k.k.k.k.k.",
"k.k.k.k.k.k.k.k.k.k.x.k.k.k.k.k.k.k.k.k.k.k.b.0.k l l l l l a a g k g l l l B S @X:X2X2X>X@XC.c.k.k.k.k.x.g.~ =.x.c.k.k.k.k.k.k.",
"k.k.k.b.c.k.k.k.k.k.k.k.k.k.k.k.k.k.k.k.k.x.h.U l l l l l l l k a i i a t b 1X:XX % %X%X% # q.b.k.k.k.k.k.x.b.b.k.k.k.k.k.k.k.k.",
"k.k.k.k.k.k.k.k.k.k.k.k.k.k.k.k.k.k.k.k.k.x.w.` c c l l l l l l a a a s l m <X@X@ - %X%X- = q.b.k.k.k.k.k.k.k.k.k.k.k.k.k.b.k.k.",
"k.x.w.;.-.b.k.k.k.k.k.k.k.k.x.b.k.k.k.k.b.e.9 G.6 7 c l l l l l l k 7 8 e.r.v A ;X%X-X-X%X+XC.k.k.k.k.k.z.k.b.k.k.k.k.c.k.w.k.k.",
"k.k.k.X.x.b.k.k.k.k.k.k.k.k.k.X.x.b.x.k.z.p.8 J.G.6 c c c c c c c c 6 K.w.e.y Z &X-X&X&X-X*XB.k.k.k.k.k.N.k.j.k.k.k.k.b.w.=.w.k.",
"k.k.k.F ..k.j.x.k.k.k.k.k.M.c...g.X.g.u.9 8 G.G.G.G.7 G.E.W.W.W.W.W.H.6 8 9 e.t.B V V Z d.S.k.k.k.k.k.b.9.w.w.k.k.k.k.k.w.k.b.k.",
"k.k.b.^ W k.k.k.k.k.k.k.k.h.x.N.R { q.-.G.J.G.G.G.G.G.H.Q.^.^.^.^.Q.H.G.J.G.u.q.z x x z r.h.k.b.b.k.k.k.Y w.w.b.k.k.k.k.b.k.k.k.",
"k.k.k.w.w.b.k.k.k.k.k.k.b.k.z.h.P *.9 G.G.G.G.G.G.G.G.J.P.I.I.I.I.I.H.G.G.G.2 1 e.x.e.x.x.x.k.q.w.b.k.k.j.k.w.x.k.k.k.k.k.k.k.k.",
"k.k.k.b.b.k.k.k.k.k.k.k.w.k.j.k.k.e.8 J.G.G.G.G.G.G.G.J.P.I.I.I.I.I.H.G.G.G.3 < k.c.c.c.k.k.k.=.u.c.k.k.b.k.k.k.k.k.k.k.k.k.k.k.",
"k.k.k.k.k.k.k.k.k.k.x.k.w.k.b.k.b.z.8 G.G.G.G.G.G.G.G.J.~.Q.I.I.Q.Q.H.G.G.6 2 < k.b.k.k.k.k.k.b.b.k.k.k.k.b.k.k.k.k.k.k.b.k.k.k.",
"k.k.k.k.k.k.k.j.x.x.k.k.b.w.j.x.k.e.8 G.G.G.G.G.G.G.G.J.Q.^.U.U.Q.!.H.G.G.6 2 < q.k.k.k.k.k.k.k.k.k.k.k.k.w.b.x.k.k.k.k.e.k.k.k.",
"k.k.k.k.k.x.k.L g.+.e.c.x.w.j.e.0 8 G.G.3 3 G.G.G.G.G.J.P.T.Q.Q.U.I.H.G.G.6 3 2 < 1 e.b.k.k.k.k.k.k.k.x.g.T j.g.b.k.b.w.=.k.k.k.",
"k.k.k.k.k.k.k.4.{ +.e.k.k.k.b.e.G.J.G.6 2 2 G.G.G.G.G.J.P.T.Q.Q.U.I.H.G.G.6 3 2 5 4 w.b.x.x.k.k.k.k.k.k.N.6.} +.x.k.k.j.k.j.k.k.",
"k.k.k.k.k.k.b.w.[ O.+.x.k.k.b.e.8 G.G.6 2 2 G.G.G.G.G.J.Q.^.U.U.Q.!.H.G.G.G.3 2 2 < e.b...j.b.k.k.k.k.k.s.O.} o.+.x.k.k.k.x.k.k.",
"k.k.k.k.k.k.x.;.%.{ o.x.k.k.b.e.8 G.G.6 2 2 G.G.G.G.G.J.Q.Q.U.U.Q.Q.H.G.G.G.3 2 2 , w...^ w.p.c.k.k.k.k.p.&.Q ) >.x.k.k.k.k.k.k.",
"k.k.k.k.k.k.k.z.z.k.k.k.k.k.b.e.8 G.G.6 2 2 G.G.G.G.G.J.P.U.Q.Q.U.I.H.G.G.G.3 2 2 , ) { X.p.p.b.k.k.k.k.b.z.e.k.k.k.k.k.k.k.k.k.",
"k.k.k.k.k.k.k.k.b.k.k.k.k.k.b.e.8 G.G.G.2 2 G.G.G.G.G.J.P.T.Q.Q.U.I.H.G.G.G.3 2 2 , ) #.:.p.c.k.k.k.k.k.k.b.b.x.k.k.k.k.k.k.k.k.",
"k.k.k.k.k.k.k.k.k.k.k.k.k.k.b.e.8 G.G.6 2 2 G.G.G.G.G.J.Q.^.I.I.Q.Q.H.G.G.G.2 > > > ) w.u.b.k.x.k.k.k.k.k.k.k.k.k.k.k.k.k.k.k.k.",
"k.x.k.k.b.k.N.N.k.k.k.k.k.k.b.e.K.H.H.J.2 2 G.G.G.G.G.G.!./.U.U.!.!.H.G.G.G.3 3 3 4 q.b.b.k.k.k.w.k.k.k.k.b.h.b.k.k.k.k.k.k.k.k.",
"k.k.w.w.k.k.k.k.k.k.k.k.k.k.h.i.~.Q.Q.~.3 2 6 G.G.G.G.G.{.|.}.}.|.}.K.6 G.J.P.Y.I.L.p.k.k.k.x.w.j.x.k.k.k.b.N.b.k.k.k.k.k.b.b.k.",
"k.k.k.j.w.k.k.k.k.k.k.k.k.k.b.i.W.!.!.E.4 4 G.G.G.K.G.K.{.XXXXXXXX.XK.G.G.G.R.Y.Y.L.p.b.k.k.k.x.k.k.k.k.k.k.k.k.k.b.w.j.k.h.h.k.",
"k.k.k.b.b.k.k.k.k.k.k.k.k.k.c.e.M M M M q.i.OX}.{.{.{.{.|.|.XXXXXXXX}.OXs.q.s p p s r.c.k.k.k.k.x.k.k.k.k.k.k.k.k.w.k.k.k.k.k.k.",
"k.k.k.k.k.k.k.k.k.k.k.k.k.k.c.e.x u u x h.C.[..XXXXXXXXX[.[.|.|.|.|..X[.C.r.w q q w r.c.k.k.k.k.g.x.k.k.k.k.k.k.k.k.x.k.w.k.k.k.",
"k.k.k.k.k.k.k.k.k.k.k.k.k.k.b.e.x l l x e.c.k.Z..XXXXX.XA.a.).`.`.).a.k.c.r.a i i a r.c.k.k.k.x.Y 2.x.k.k.x.x.k.k.k.k.k.k.k.k.k.",
"k.k.k.k.k.k.k.k.k.k.k.k.k.k.g.e.n x x n e.c.h.A..XXXXX.XC.i.)._._.).i.h.c.e.f a a f e.c.k.k.x.x.g.L x.x.b.g.2.x.k.k.k.k.k.k.k.k.",
"k.k.k.k.b.X.g.x.c.c.k.k.k.j.+.w.e.e.e.e.b.x.h.A..XXXXX.XC.i.).`.`.).a.h.k.k.r.r.r.r.k.x.3.g.w.u.w.} ..F j.2.I b.e.p.c.k.k.k.k.k.",
"k.k.k.c.z.5.4.k.e.e.c.k.k.k.k.k.c.c.z.6.8.+.h.A..XXXXX.XC.i.).`.`.).a.N.h.k.c.c.c.c.k.x.g.Y X.{ >.W G o.u.g.G +.u.k.k.k.k.k.k.k.",
"x.k.k.k.x.T ! >.y.w.c.k.k.k.k.k.k.k.k.N.h.| h.A..XXXXX.XC.i.).`.`.).a.h.k.w.k.k.k.k.k.x.j.K u...E E #.u.x.2.G _ u.c.k.k.k.k.k.k.",
"k.k.k.k.x.g.o.u.e.b.k.k.k.k.k.k.k.b.e.s.| o.U Z..XXXXX.XC.i.).`.`.).a.h.k.w.k.k.k.k.k.k.k.X.w.b.>.*.>.k.b.j...w.x.k.k.b.N.k.k.k.",
"k.k.k.k.k.x.b.b.c.k.b.k.k.k.x.k.k.k.k.s.%.o.P Z..XXXXX.XC.i.).`.`.).a.h.k.b.b.b.b.k.k.k.k.b.b.k.b.B.b.k.k.x.b.b.k.k.k.b.N.k.k.k.",
"k.k.x.k.k.k.k.k.k.x.X.k.k.b.g.k.b.k.k.b.z.z.h.A..XXXXX.XC.i.).`.`.).a.h.k.N.N.N.h.k.k.k.k.k.k.k.k.k.k.k.k.k.k.k.k.k.k.k.k.k.k.k.",
"k.k.k.k.k.k.k.k.k.x...X.B.>./ g.e.c.k.k.b.k.h.A..XXXXX.XC.i.).`.`.).a.h.k.k.k.k.k.k.k.k.k.k.k.k.k.k.k.k.k.k.b.b.k.k.k.k.k.k.k.k.",
"k.b.w.k.x.k.k.k.k.k.B.7.X.| { u.e.c.k.k.k.k.h.A..XXXXX.XO.,.).`.`.).a.h.k.k.k.k.k.b.k.k.k.k.k.k.k.k.k.k.k.b.>.>.w.k.k.k.k.k.k.k.",
"k.k.k.k.k.k.k.k.k.k.h.F $.$.:.p.c.k.k.k.k.k.h.A. X|.|. XO.i.'._._.'.a.h.k.k.k.b.} X.x.k.k.x.b.k.k.b.k.k.k.w.w.w.k.k.k.k.k.k.k.k.",
"k.k.k.k.k.k.k.k.k.k.k.( W %.*.b.k.k.k.k.k.k.N.A.oXoXoXoXC.a.].].].].a.h.b.x.k.k.k.T k.B.b.j.g.x.k.e.k.k.k.k.c.b.k.k.k.k.k.k.k.k.",
"k.k.k.k.k.k.k.k.k.k.k.u.&.>.x.k.k.k.k.k.k.b.h.F.3X2X2X3XS.S.=X=X=X=XS.h...j.b.x.b.9.g.} j.X.} B.q.q.c.k.k.k.k.k.k.x.k.k.k.k.k.k.",
"k.k.k.k.k.k.k.k.k.k.k.b.B.b.k.k.k.k.k.b.w.+.w.F.1X1X1X,XF.D.&X&X&X%XD.x.X.} X...k._ F [ z.g.G o.p.c.k.k.k.k.k.k.k.k.k.k.k.k.k.k.",
"k.k.k.x.k.k.k.k.k.k.k.k.k.k.k.k.k.k.k.b.w.w.=.d.(.(.(.(.<X>Xj j j j ;X*XS./ u.{ W <.( -.y.g.! Q u.k.k.k.k.k.k.b.g.} k.u.e.k.k.k.",
"k.k.k.2.k.k.k.k.k.k.k.k.k.k.k.k.k.k.k.k.k.x.c.t.D D D D <X>Xh d d h ;X*Xx.&.u.b.$.#.%.u.b.g.) *.u.k.k.k.k.k.k.k.b.O.{ B.u.k.k.k.",
"k.k.k.~ j.b.k.k.k.k.k.k.k.k.k.k.k.k.k.k.k.k.k.k.e.e.e.e.b.b.e.e.e.e.x.x.k.b.b.k.b.b.b.b.k.x.b.b.c.k.k.k.k.k.k.k.b.:.W >.u.k.k.k.",
"k.k.b.~ #.b.k.k.k.k.k.k.k.k.k.k.k.k.k.k.k.k.k.k.c.c.c.c.k.k.c.c.c.c.k.k.k.k.k.k.k.k.k.k.k.k.k.k.k.k.k.k.k.k.k.k.b.X.E ;.e.k.k.k."
};
