/* XPM */
static char *_934f77fae5b4d2fb092354156005c3570CgU8xKZIVFf9lb[] = {
/* columns rows colors chars-per-pixel */
"64 64 213 2 ",
"   c #030202",
".  c #0B0605",
"X  c #060A03",
"o  c #0D0D06",
"O  c #130D0A",
"+  c #130B07",
"@  c #0B140C",
"#  c #19120B",
"$  c #13160B",
"%  c #181714",
"&  c #150F11",
"*  c #211A1B",
"=  c #24171E",
"-  c #7E3D3C",
";  c #7F403D",
":  c #4D535F",
">  c #53545E",
",  c #535B5F",
"<  c #5A555D",
"1  c #55625C",
"2  c #4C5363",
"3  c #515863",
"4  c #4A4F67",
"5  c #646D7F",
"6  c #696A7C",
"7  c #65717E",
"8  c #68767B",
"9  c #6A7A78",
"0  c #8D5C3D",
"q  c #87563A",
"w  c #925E3F",
"e  c #95613E",
"r  c #96733D",
"t  c #883D41",
"y  c #873E45",
"u  c #894341",
"i  c #894B42",
"p  c #854747",
"a  c #974C41",
"s  c #895A42",
"d  c #945F41",
"f  c #9B5247",
"g  c #964954",
"h  c #A34D53",
"j  c #956243",
"k  c #996343",
"l  c #996A44",
"z  c #94654C",
"x  c #9A6649",
"c  c #966A4A",
"v  c #9D694A",
"b  c #976F44",
"n  c #9A7048",
"m  c #9F6A52",
"M  c #A16A4C",
"N  c #A36F50",
"B  c #A47153",
"V  c #A87357",
"C  c #A6714F",
"Z  c #D3487C",
"A  c #5CB63C",
"S  c #57B539",
"D  c #54AE3F",
"F  c #6EBC3E",
"G  c #64B73E",
"H  c #72BE3D",
"J  c #79BF3D",
"K  c #64A93F",
"L  c #75C13D",
"P  c #7CC33A",
"I  c #4A9857",
"U  c #579C58",
"Y  c #649C5B",
"T  c #4CA547",
"R  c #5DAA4B",
"E  c #59A747",
"W  c #5BB142",
"Q  c #5CA353",
"!  c #6EAC4E",
"~  c #65AA4C",
"^  c #7CAD42",
"/  c #75A946",
"(  c #65B443",
")  c #6BB645",
"_  c #6CBA41",
"`  c #69B14B",
"'  c #66B546",
"]  c #7DB243",
"[  c #74BC43",
"{  c #7CBE45",
"}  c #73B44B",
"|  c #7CB54E",
" . c #75B949",
".. c #7CBA4A",
"X. c #70B546",
"o. c #63A554",
"O. c #6BAB53",
"+. c #66A459",
"@. c #6AA25B",
"#. c #67A854",
"$. c #74AC55",
"%. c #7AAB55",
"&. c #7EAB5A",
"*. c #73A55A",
"=. c #74B151",
"-. c #7BB352",
";. c #7EBF50",
":. c #4D9363",
">. c #6B9D65",
",. c #7DC143",
"<. c #77C040",
"1. c #83C63B",
"2. c #93CD3B",
"3. c #99D23B",
"4. c #98D535",
"5. c #89CE2F",
"6. c #A5DC34",
"7. c #AEE32F",
"8. c #84AC46",
"9. c #81B545",
"0. c #85B946",
"q. c #8BB54A",
"w. c #85BD4C",
"e. c #8ABD4C",
"r. c #86B549",
"t. c #82AD57",
"y. c #84B553",
"u. c #86BB52",
"i. c #89BC52",
"p. c #85B95C",
"a. c #92BB54",
"s. c #93B54F",
"d. c #85BE60",
"f. c #83C245",
"g. c #8DC546",
"h. c #86C14A",
"j. c #8CC44A",
"k. c #8EC54A",
"l. c #8BC34A",
"z. c #8EC84B",
"x. c #90C746",
"c. c #93CA43",
"v. c #91C54A",
"b. c #91C94D",
"n. c #86C154",
"m. c #8AC253",
"M. c #86C15A",
"N. c #88C15A",
"B. c #92C352",
"V. c #94C55B",
"C. c #9AC358",
"Z. c #87C067",
"A. c #636B82",
"S. c #616B8A",
"D. c #616785",
"F. c #657282",
"G. c #647189",
"H. c #657690",
"J. c #4C5DBD",
"K. c #5359B8",
"L. c #4E59C5",
"P. c #4B56CB",
"I. c #4C59CC",
"U. c #5051C0",
"Y. c #4C5BD0",
"T. c #4F60CD",
"R. c #5C79C9",
"E. c #5475D7",
"W. c #5975D4",
"Q. c #5374DD",
"!. c #577DD6",
"~. c #5275E1",
"^. c #557CE0",
"/. c #D8488C",
"(. c #5E99CF",
"). c #5B96D3",
"_. c #5794DE",
"`. c #5A96DC",
"'. c #5C98D4",
"]. c #609CC6",
"[. c #6395DB",
"{. c #72B4CC",
"}. c #76B6C4",
"|. c #6FADD4",
" X c #6FAFD9",
".X c #6FB2DC",
"XX c #6FB4D5",
"oX c #71B3D3",
"OX c #70B3DA",
"+X c #7CB0D7",
"@X c #74AFCE",
"#X c #5793E1",
"$X c #5996E0",
"%X c #6FB2E0",
"&X c #CEBEB4",
"*X c #DFC9BD",
"=X c #E1CBBD",
"-X c #EFAFC3",
";X c #EEB8C1",
":X c #F5B4CB",
">X c #F6BACA",
",X c #FEBCD4",
"<X c #F7B4D2",
"1X c #EFBAD0",
"2X c #DECCC1",
"3X c #E4CEC1",
"4X c #EBD8C5",
"5X c #F4DACC",
"6X c #F2D7C7",
"7X c #F3DDD3",
"8X c #FADED1",
"9X c #FBE4D7",
"0X c #EFE3CC",
/* pixels */
"l.l.l.i. .F v.l.l.l.l.l.l.l.l.l.l.l.l.l.l.l.l.l.l.l.l.l.l.l.l.l.l.l.l.l.l.l.l.l.l.l.l.l.l.l.l.l.l.l.l.l.l.l.l.l.l.l.l.l.l.l.l.l.",
"l.l.l.&.>.` f.j.l.l.l.l.l.l.l.l.l.l.l.l.l.l.l.l.l.l.l.l.l.l.l.l.l.l.l.l.l.l.l.l.l.l.l.l.l.l.l.l.l.l.l.l.l.l.l.l.l.l.l.l.l.l.l.l.",
"l.l.l.l.y.| f.j.l.l.l.l.l.l.l.l.l.l.l.l.l.l.l.l.l.l.l.l.l.l.l.l.l.l.l.l.l.l.l.l.l.l.l.l.l.l.l.l.l.l.l.l.l.l.l.l.l.l.l.l.l.l.l.l.",
"l.l.l.l.k.k.j.l.l.l.l.l.l.l.l.l.l.l.l.l.l.l.l.l.l.l.l.l.l.l.l.k._ { j.l.l.l.l.l.l.l.l.l.l.l.l.l.l.l.l.c.c.l.l.l.l.l.l.l.l.l.l.l.",
"l.l.l.l.l.l.l.l.l.j.j.l.l.l.l.l.l.l.l.l.l.j.l.w.l.l.l.l.l.l.l.k._ { ..l.l.l.l.l.k.l.w.j.l.l.w.l.l.l.l.k.k.l.l.l.l.l.l.l.l.l.l.l.",
"l.l.l.l.l.l.l.l.j.f.f.j.l.l.l.l.l.l.l.l.l.l.w.w.w.l.l.l.l.l.l.j._ } R e.l.l.l.k.h.w.h.l.g.h.w.l.l.l.l.l.l.l.k.j.l.l.l.l.l.l.l.l.",
"l.l.l.l.l.l.l.l.k.F ,.j.w.k.l.l.l.l.l.l.l.l.l.h.l.l.l.l.l.l.l.k.f.w.-.e.l.l.l.w.w.l.l.l.g.w.l.l.l.l.l.l.l.k.[ { j.l.l.l.l.l.l.l.",
"l.l.l.l.l.l.l.l.v.#.O.) w.k.l.l.l.l.l.l.l.l.k.l.k.j.l.l.k.j.q.q.j.k.k.l.q.q.l.l.l.k.l.l.l.l.l.l.l.l.l.l.l.k.[ [ [ l.l.l.l.l.l.l.",
"l.l.l.l.l.l.l.l.k.=.$.O.w.k.l.l.l.l.l.l.l.l.l.j.{ h.j.j.f.0.l l e.l.z.e.i i q.k.l.l.l.l.l.l.l.l.l.l.l.l.l.l.k.` { w.w.l.l.l.l.l.",
"l.l.l.l.l.l.l.l.l.k.k.k.l.l.l.l.l.l.l.l.l.l.l.k.{ ) l.h.A / k l q.e.9.8.- ; q.l.l.j.l.j.j.l.l.l.l.l.l.l.l.l.k.+.O.R e.l.l.l.l.l.",
"l.l.l.l.l.l.l.l.l.l.l.l.l.l.l.l.l.l.l.l.l.l.l.l.j.4.L [ _ t.k k l j $ X   o ] l.w.l.k.,.f.j.l.l.l.l.l.l.l.l.k.w.y.-.e.l.l.l.l.l.",
"l.l.l.l.l.j.l.l.h.w.k.l.l.l.l.l.l.l.l.l.l.l.l.l.l.4.G @.Y 8.l k k d +     o ] k.l.l.j.H f.v.l.l.l.g.c.l.l.l.l.k.k.k.l.l.l.l.l.l.",
"l.l.l.l.l.l.l.j.w.w.k.l.l.l.l.l.l.l.l.l.j.j.l.l.k.O.U *.@ # j k k k 0 0 q 0 H f.j.k.L [ j.{ j.k.l.l.l.l.l.l.l.l.l.l.l.l.l.l.l.l.",
"l.l.l.k.l.l.k.l...w.k.l.l.l.l.l.l.l.l.j.f.f.j.l.k.l.~ / X . j k k k k k B B q.1.h.f.D } 1.{ { { k.l.l.l.l.l.l.l.l.l.l.l.l.l.l.l.",
"l.l.w.w.l.j.l.l.$.-.k.l.l.l.l.l.l.l.l.k.J P k.l.k.9.$     o d k l k k N 5X5XC r f.c.{ O.P k._ _ v.l.l.l.l.l.l.l.l.l.l.l.l.l.l.l.",
"l.l.l.w.l.l.l.l.$.%.k.l.l.l.l.l.l.l.w.e.[ T w.j.k.9.X     # d l w w 0 c 5X5Xx s / E #.) I ..D  .k.l.l.l.l.l.l.l.l.l.l.l.l.l.l.l.",
"l.l.l.l.l.l.l.k.u.y.k.j.l.l.l.l.l.l.y.u.,.~ y.l.z.9.X   q d k 0 +     O x x +   X @ ! -.+.f.} u.k.l.l.l.l.l.l.l.l.l.l.x.c.l.l.l.",
"l.l.l.l.l.l.l.l.l.k.l.[ l.l.l.l.j.j.k.l.j.v.k.l.e.^ X   0 k k 0 O     . w w O     o 0.z.k.j.k.k.l.l.l.l.l.l.l.l.l.l.l.x.c.l.l.l.",
"l.l.l.l.l.l.l.k.l.l.l.f.3.l.k.j.l.l.l.l.l.l.k.] $ o     0 k j v 3X2X&   w v 3X&X  X 0.k.l.l.l.l.l.l.l.l.k.g.l.k.j.l.l.l.l.l.l.l.",
"l.l.l.l.l.l.l.{ j.k.k.f.H l.{ k.[ [ v.l.l.l.z.^     . O 0 k j v 5X5X* + w v 5X=XO $ 0.k.l.l.l.l.l.l.l.l.k.6.c.f.l.k.l.l.l.l.l.l.",
"l.l.l.l.l.l.l._ { { f.w.R A G k.[ G l.j.l.l.z.^   . 0 j k k k k v v d d k k v x d j e.l.l.l.k.k.l.l.l.l.l.c.2.( w.e.l.l.l.l.l.l.",
"l.l.l.l.l.l.k.f.( f._ U I G l.j.,.S { k.l.l.z.^   . d k k k k k k k k k k k k k k l q.e.l.k.y.y.k.l.l.l.l.v.O.=.y.y.k.l.l.l.l.l.",
"l.l.l.l.l.l.k.w.#.v.w.U U =.w.l.,.A f.k.l.l.z.^     w k k k l l k k k k k k k k w e l b q.l.l.l.l.l.l.l.j.,.T $.y.e.l.l.l.l.l.l.",
"l.l.l.l.l.l.l.l.l.l.j.l.l.l.l.l.l.l.l.l.l.l.b./ o # d k k k d d k k k k k k k k B B k l q.l.e.k.l.l.l.l.j.f.R %.j.l.l.l.l.l.l.l.",
"l.l.l.k.l.l.l.l.l.l.l.l.l.l.l.l.l.l.l.l.l.j.l.] j d k k l j u u k l k k k k e B 9X5Xv e 0.w.w.l.l.l.l.l.l.j.k.k.l.l.l.l.l.l.l.l.",
"l.l.l.l.l.l.l.l.l.l.l.l.l.l.l.l.l.l.l.l.l.j.f.K k l k k l j u u k k k k k k j B 9X5XV n a.p.w.l.l.l.l.l.l.l.l.l.l.l.l.l.l.k.l.l.",
"l.j.w.*.&.k.l.l.l.l.l.l.l.l.j.k.l.l.l.l.l.l.l.r.k k k k k d t u k l k k k k w N 9X9X7X5X9X0Xm.l.l.l.l.l.l.l.k.l.l.l.l.l.l.w.l.l.",
"l.l.l.{ j.k.l.l.l.l.l.l.l.l.l.{ j.j.j.l.l.l.l.q.k k k k k d u u d k k k k k k V 6X7X9X9X7X4Xk.l.l.l.l.l.c.l.h.l.l.l.l.k.w.%.w.l.",
"l.l.l.A [ l.h.j.l.l.l.l.l.x.g.[ f.,.f.e.k.k.z.q.l k k k k k k d u u u u k v 5X*X& % :X>X* % w.k.l.l.l.k.7.w.w.l.l.l.l.l.w.l.k.l.",
"l.l.k.E U l.l.l.l.l.l.l.l.g.j.c.P ` y.&.w.u.u.q.z z k k k k k k u u u p d c 6X*X& * :X:X= % e.k.l.l.l.l.L w.w.k.l.l.l.l.k.l.l.l.",
"l.l.l.w.w.k.l.l.l.l.l.l.k.l.l.w.8 A.A.A.A.A.A.5 A.6 j k k k k k k j 6 5 2 > k V :X<X,X,X<X;Xj.| w.k.l.l.h.l.w.j.l.l.l.l.l.l.l.l.",
"l.l.l.k.k.l.l.l.l.l.l.l.w.h.w.y.A.A.A.A.A.A.A.A.A.5 z j z z z z z z 6 A.2 3 s m :X<X:X:X,X;Xj.%.y.l.l.l.k.l.l.l.l.l.l.l.l.l.l.l.",
"l.l.l.l.l.l.l.l.l.l.j.l.h.w.8 7 A.A.A.A.A.A.A.A.A.A.5 A.W.E.W.W.W.W.S.5 A.5 3 < v M M M a.B.j.k.k.l.l.l.l.k.l.l.l.l.l.l.k.l.l.l.",
"l.l.l.l.l.l.l.h.j.j.l.l.j.y.A.A.A.A.A.A.A.A.A.A.A.A.A.S.Q.~.~.~.~.Q.S.A.S.A.2 > j j d k 0.l.l.l.l.l.l.l.l.w.k.j.l.l.l.l.e.l.l.l.",
"l.l.l.l.l.j.l.F f...l.l.9 7 A.A.A.A.y.y.A.A.A.A.A.A.A.A.L.I.I.I.I.I.S.A.A.A.2 2 > > > , e.z.l.l.l.l.l.j.f.P h.f.k.l.k.w.%.l.l.l.",
"l.l.l.l.l.l.l.1.) ..e.w.7 D.A.A.7 8 e.e.A.A.A.A.A.A.A.A.L.P.P.P.I.I.S.A.A.A.3 , 2 2 2 2 r.w.l.l.l.l.l.l.c.3._ ..j.l.l.h.l.h.l.l.",
"l.l.l.l.l.l.k.w.(  ...e.8 A.A.7 u.l.l.w.5 A.A.A.A.A.A.A.E.~.P.P.Q.Q.S.A.A.5 w.r.2 2 : : : 1 e.k.l.l.l.l.t.X._ } | j.l.l.l.j.l.l.",
"l.l.l.l.l.l.j.*.+.) } e.F.S.A.F.e.g.l.w.5 A.A.A.A.A.A.A.E.Q.I.I.Q.Q.S.A.A.5 l.w., 2 2 2 4 3 y.k.l.l.l.l.u.@.Y ~ | j.l.l.l.l.l.l.",
"l.l.l.l.l.l.l.l.l.l.l.i.!.Q.Q.!.i.H f.i.5 A.A.A.A.A.A.A.L.I.Q.Q.I.I.S.A.A.7 e.l.w.( J.P.P.J.y.k.l.l.l.l.k.l.e.l.l.l.l.l.l.l.l.l.",
"l.l.l.l.l.l.l.l.k.l.k.i.R.W.W.R.m.`  ...A.A.A.A.A.A.A.A.L.Y.Q.Q.I.I.S.A.A.7 e.k.l.Q K.K.U.K.e.k.l.l.l.l.l.k.k.j.l.l.l.l.l.l.l.l.",
"l.l.l.l.l.l.l.l.l.l.l.e.c j j c v.+.=.Q 7 A.A.A.A.A.A.A.E.~.P.I.~.Q.S.A.A.7 e.k.l.%.p u y i e.k.l.l.l.l.l.l.l.l.l.l.l.l.l.l.l.l.",
"l.j.l.l.k.l.c.c.l.l.l.e.l k k l e.h.l.y.5 A.A.A.A.A.A.A.E.Q.I.I.Q.Q.S.A.A.5 e.c.l.q.u t t i e.l.w.l.l.l.l.k.g.k.l.l.l.l.l.l.l.l.",
"l.l.w.w.l.l.l.l.l.l.l.e.l k k l e.k.k.e.5 A.A.A.A.A.A.A.L.I.Q.Q.I.I.S.A.A.7 e.k.l.q.u t t i e.h.h.j.l.l.l.k.c.k.l.l.l.l.l.k.k.l.",
"l.l.l.h.w.l.l.l.l.l.l.e.b l l b e.l.k.w.5 A.A.A.A.A.A.A.L.I.Q.Q.I.I.S.A.A.7 e.k.l.q.i u u i e.k.l.l.l.l.l.l.l.l.l.k.w.h.l.g.g.l.",
"l.l.l.k.k.l.l.l.l.l.l.l.q.q.q.q.l.l.k.e.5 A.A.A.A.A.A.A.E.Q.P.I.Q.Q.S.A.A.7 e.k.l.l.q.q.q.q.l.l.j.l.l.l.l.l.l.l.l.w.l.l.l.l.l.l.",
"l.l.l.l.l.l.l.l.l.l.l.l.l.l.l.l.l.l.k.w.7 A.A.A.A.A.A.S.!.^.I.T.^.!.S.A.A.7 e.k.l.l.l.l.l.l.l.l.f.j.l.l.l.l.l.l.l.l.j.l.w.l.l.l.",
"l.l.l.l.l.l.l.l.l.l.l.l.l.l.j.l.g.k.l.e.A.A.A.A.A.A.5 S.|..X X X.X|.G.5 A.A.e.k.l.l.l.l.l.l.l.j.L ,.j.l.l.j.j.l.l.l.l.l.l.l.l.l.",
"l.l.l.l.l.l.l.l.l.l.l.l.l.l.w.l.g.k.l.e.8 7 G.G.G.G.S.G.|.OXOXOXOXoXH.S.F.8 e.k.l.l.l.l.l.l.k.k.f.F j.j.k.f.,.j.l.l.l.l.l.l.l.l.",
"l.l.l.l.k.{ f.j.l.l.l.l.l.h...w.l.l.l.j.e.i.@X X|.|.|.|.OXOXOXOXOXOX X{.i.e.l.l.l.l.l.j.<.f.w.y.w._ [ A h.,.H k.e.u.l.l.l.l.l.l.",
"l.l.l.l.l.2.1.l.e.e.l.l.l.l.l.l.l.k.l.3.7.;.{.OXOXOXOXOXOXOX.X.X.XOX.X{.k.k.l.l.l.l.l.j.f.L  .) -.U S } y.f.A ..y.l.l.l.l.l.l.l.",
"j.l.l.l.j.P T -.t.w.l.l.l.l.l.l.l.l.l.c.g.` m.Z.OX.XOXOXOX.X`.`.$X`.$X(.l.f.l.l.l.l.l.j.h.G y. .I I o.y.j.,.S ! y.l.l.l.l.l.l.l.",
"l.l.l.l.j.f.} y.e.k.l.l.l.l.l.l.l.k.e.y.` } J n.{.oXOXOXOX.X`.`.).)._.).p.u.l.l.l.l.l.l.l.{ w.k.-.$.-.l.k.h.[ w.j.l.l.k.c.l.l.l.",
"l.l.l.l.l.j.k.k.l.l.k.l.l.l.j.l.l.l.l.y.+.} _ h.l.N.oX.XOXOX.XoXM.i.(._.`.(.m.g.l.l.l.l.l.k.k.l.k.v.k.l.l.j.k.k.l.l.l.k.c.l.l.l.",
"l.l.j.l.l.l.l.l.l.j.{ l.l.k.f.l.k.l.l.k.l.l.l.l.g.m.{.oXOXOXOXoXm.l.(.#X_.'.k.2.k.l.l.l.l.l.l.l.l.l.l.l.l.l.l.l.l.l.l.l.l.l.l.l.",
"l.l.l.l.l.l.l.l.l.j.[ { v.-.W f.e.l.l.l.k.l.l.l.l.l.l.N.{..X%XoXl.l.(.#X#X`.i.h.l.l.l.l.l.l.l.l.l.l.l.l.l.l.k.k.l.l.l.l.l.l.l.l.",
"l.k.w.l.j.l.l.l.l.l.v.5.{ ` ) y.e.l.l.l.l.l.l.l.j.l.m.M.{.OX{.}.d.p.(.`.(.].m.g.l.k.l.l.l.l.l.l.l.l.l.l.l.k.-.-.w.l.l.l.l.l.l.l.",
"l.l.l.l.l.l.l.l.l.l.g.A O.O.=.i.l.l.l.l.l.l.k.l.h.n.{.OX.X{.l.n.(.`.#X).i.l.l.k._ { j.l.l.j.k.l.l.k.l.l.l.w.w.w.l.l.l.l.l.l.l.l.",
"l.l.l.l.l.l.l.l.l.l.l.Q U +.$.k.l.l.l.l.l.l.c.k.B.V.oXOXoX}.B.a.'._.'.].m.g.l.l.l.P l.v.k.h.f.j.l.e.l.l.l.l.l.k.l.l.l.l.l.l.l.l.",
"l.l.l.l.l.l.l.l.l.l.l.y.O.-.j.l.l.l.l.l.l.k.h.V.0X0XOXXXM.V.>X1X[.`.p.l.[ h.k.j.k.7.f._ h.{ _ v.w.w.l.l.l.l.l.l.l.j.l.l.l.l.l.l.",
"l.l.l.l.l.l.l.l.l.l.l.k.v.k.l.l.l.l.l.k.w...w.V.8X7X+X@Xm.C.:X<X[.).p.v.{ _ {  .l.! A ( l.f.A } i.l.l.l.l.l.l.l.l.l.l.l.l.l.l.l.",
"l.l.l.j.l.l.l.l.l.l.l.l.l.l.l.l.l.l.l.k.w.w.%.s././././.5X4Xh h g g -X;XB.W y.X.U :.Q &.&.f.T Y y.l.l.l.l.l.l.k.f._ l.y.e.l.l.l.",
"l.l.l.,.l.l.l.l.l.l.l.l.l.l.l.l.l.l.l.l.l.j.l.s.Z Z Z Z 5X4Xf a a f -X;Xj.O.y.k.O.o.@.y.k.f.~ $.y.l.l.l.l.l.l.l.k. .) v.y.l.l.l.",
"l.l.l.R h.k.l.l.l.l.l.l.l.l.l.l.l.l.l.l.l.l.l.l.e.e.e.e.k.v.e.e.e.e.j.j.l.k.k.l.k.k.k.k.l.j.k.k.l.l.l.l.l.l.l.l.k.=.U -.y.l.l.l.",
"l.l.k.R +.k.l.l.l.l.l.l.l.l.l.l.l.l.l.l.l.l.l.l.l.l.l.l.l.l.l.l.l.l.l.l.l.l.l.l.l.l.l.l.l.l.l.l.l.l.l.l.l.l.l.l.k.{ I *.e.l.l.l."
};
