/* XPM */
static char *b24b02179be04a51b0211df21120afc6FjaVKR2ieUGTDFwo[] = {
/* columns rows colors chars-per-pixel */
"64 64 207 2 ",
"   c #030201",
".  c #0B0604",
"X  c #060A03",
"o  c #0B0A06",
"O  c #0E0B0A",
"+  c #130E0B",
"@  c #120A06",
"#  c #0A1408",
"$  c #18150C",
"%  c #1A1415",
"&  c #7E383C",
"*  c #4C555E",
"=  c #54585E",
"-  c #7F4253",
";  c #4D5362",
":  c #4D536D",
">  c #525761",
",  c #636B7F",
"<  c #696B7B",
"1  c #66717E",
"2  c #69777B",
"3  c #8A3F3C",
"4  c #8B423E",
"5  c #8D5B3D",
"6  c #87573A",
"7  c #925D3D",
"8  c #995D3D",
"9  c #95623E",
"0  c #98663D",
"q  c #8B603B",
"w  c #883D41",
"e  c #873F43",
"r  c #894341",
"t  c #894C42",
"y  c #83414B",
"u  c #864545",
"i  c #954C41",
"p  c #8C5743",
"a  c #935E41",
"s  c #995645",
"d  c #A34C53",
"f  c #8E6646",
"g  c #966242",
"h  c #996343",
"j  c #976C43",
"k  c #986944",
"l  c #94644B",
"z  c #9D6B4C",
"x  c #967243",
"c  c #8F665A",
"v  c #916554",
"b  c #A16C4E",
"n  c #A36C50",
"m  c #A26750",
"M  c #A47153",
"N  c #A97759",
"B  c #D2477C",
"V  c #63983E",
"C  c #56AD3D",
"Z  c #5CB63C",
"A  c #57B539",
"S  c #6DBC3D",
"D  c #64B73E",
"F  c #71BE3E",
"G  c #78BD3E",
"H  c #7BB73F",
"J  c #75C23D",
"K  c #7BC33B",
"L  c #7DC92F",
"P  c #4A9857",
"I  c #579C57",
"U  c #649A59",
"Y  c #4CA547",
"T  c #5DAA4B",
"R  c #59A748",
"E  c #5BB142",
"W  c #59A254",
"Q  c #67AA4A",
"!  c #7CAE42",
"~  c #65B542",
"^  c #6BB645",
"/  c #6CBA41",
"(  c #68B14A",
")  c #74BC43",
"_  c #7CBE45",
"`  c #73B44C",
"'  c #7CB44E",
"]  c #74B849",
"[  c #7CBA4A",
"{  c #77B344",
"}  c #63A554",
"|  c #6BAB53",
" . c #66A359",
".. c #69A657",
"X. c #74AC54",
"o. c #7AAB56",
"O. c #7DAB5B",
"+. c #74A45B",
"@. c #75B151",
"#. c #7BB352",
"$. c #7CB956",
"%. c #418965",
"&. c #6B9D65",
"*. c #7DC143",
"=. c #84C73D",
"-. c #92CD3A",
";. c #98D338",
":. c #89CE2F",
">. c #A7DD34",
",. c #B1E52E",
"<. c #82B444",
"1. c #84BA46",
"2. c #82B54E",
"3. c #89B44C",
"4. c #84BD4C",
"5. c #8ABD4B",
"6. c #8DBD47",
"7. c #81AD59",
"8. c #84B553",
"9. c #85B952",
"0. c #89B951",
"q. c #83B45A",
"w. c #93B551",
"e. c #83C246",
"r. c #8CC546",
"t. c #86C04A",
"y. c #8BC34A",
"u. c #8AC24A",
"i. c #89C24A",
"p. c #8CC34B",
"a. c #8DC24B",
"s. c #8BC44A",
"d. c #8CC44A",
"f. c #8EC54A",
"g. c #8BC34A",
"h. c #8DC84C",
"j. c #8EC846",
"k. c #90C746",
"l. c #93CA43",
"z. c #90C54B",
"x. c #90C94C",
"c. c #89C151",
"v. c #86C05B",
"b. c #89C25A",
"n. c #92C25C",
"m. c #97C457",
"M. c #5F6A8B",
"N. c #636B82",
"B. c #616B8A",
"V. c #606780",
"C. c #64738C",
"Z. c #4E51BD",
"A. c #555DB8",
"S. c #5366BF",
"D. c #4C56C3",
"F. c #4D59C5",
"G. c #4C59CC",
"H. c #4B57CB",
"J. c #4C5AD0",
"K. c #5154C1",
"L. c #5C78CB",
"P. c #5674D6",
"I. c #5375DC",
"U. c #567ADB",
"Y. c #5974D3",
"T. c #5265C0",
"R. c #5274E0",
"E. c #5479E0",
"W. c #DE4A8C",
"Q. c #5E99CF",
"!. c #5981D3",
"~. c #5C98D0",
"^. c #5894DD",
"/. c #5794DA",
"(. c #6597DC",
"). c #609BC6",
"_. c #70ADCA",
"`. c #6FADD3",
"'. c #6EADD9",
"]. c #6EB0DB",
"[. c #6EB3D6",
"{. c #71B3D4",
"}. c #70B3DA",
"|. c #7BB6D9",
" X c #75B7C3",
".X c #5793E0",
"XX c #5894E0",
"oX c #E5B1BB",
"OX c #DCCBBC",
"+X c #E1CCBF",
"@X c #EFB9C2",
"#X c #F4B3CB",
"$X c #FAB6CD",
"%X c #F3BBC5",
"&X c #F4BAD4",
"*X c #FFBAD4",
"=X c #EEAEC4",
"-X c #E1CDC1",
";X c #EAD6C8",
":X c #F3DACC",
">X c #F8DECF",
",X c #F9DFD2",
"<X c #F5E1D3",
"1X c #FAE3D5",
"2X c #FCE6D9",
"3X c #F9E8DA",
"4X c #EEE4CC",
/* pixels */
"y.y.y.0.] S z.y.y.y.y.y.y.y.y.y.y.y.y.y.y.y.y.y.y.y.y.y.y.y.y.y.y.y.y.y.y.y.y.y.y.y.y.y.y.y.y.y.y.y.y.y.y.y.y.y.y.y.y.y.y.y.y.y.",
"y.y.s.O.&.( e.p.y.y.y.y.y.y.y.y.y.y.y.y.y.y.y.y.y.y.y.y.y.y.y.y.y.y.y.y.y.y.y.y.y.y.y.y.y.y.y.y.y.y.y.y.y.y.y.y.y.y.y.y.y.y.y.y.",
"y.y.y.s.q.' e.p.y.y.y.y.y.y.y.y.y.y.y.y.y.y.y.y.y.y.y.y.y.y.y.y.y.y.y.y.y.y.y.y.y.y.y.y.y.y.y.y.y.y.y.y.y.y.y.y.y.y.y.y.y.y.y.y.",
"y.y.y.y.f.f.p.y.y.y.p.y.y.y.y.y.y.y.y.y.y.y.y.y.y.y.y.y.y.y.y.f./ _ a.y.y.y.y.y.y.y.y.y.y.y.y.y.y.y.y.l.l.y.y.y.y.y.y.y.y.y.y.y.",
"y.y.y.y.y.y.y.y.y.p.p.y.y.y.y.y.y.y.y.y.y.p.y.4.y.y.y.y.y.y.y.f./ _ [ s.y.y.y.y.f.y.4.p.y.y.4.y.y.y.y.f.f.y.y.y.y.y.y.y.y.y.y.y.",
"y.y.y.y.y.y.y.y.p.e.e.p.s.y.y.y.y.y.y.y.y.y.4.4.4.y.y.y.y.y.y.p./ ` T 2.y.y.y.y.t.4.t.y.r.t.4.y.y.y.y.y.y.y.f.p.y.y.y.y.y.y.y.y.",
"y.y.y.y.y.y.y.y.f.S *.a.2.f.y.y.y.y.y.y.y.y.y.t.y.y.y.y.y.y.h.x.e.4.$.a.h.h.s.t.4.y.y.y.r.4.y.y.y.y.y.y.y.f.) _ p.y.s.y.y.y.y.y.",
"y.y.y.y.y.y.y.y.z.} | ^ 4.f.y.y.y.y.y.y.y.y.f.s.f.p.y.y.p.y.! ! 6.6.<.! ! ! 3.3.y.f.y.y.y.y.y.y.y.y.y.y.y.f.) ) ) i.y.y.y.y.y.y.",
"y.y.y.y.y.y.y.y.f.@.X...2.f.y.y.y.y.y.y.y.y.y.p._ t.p.p.s.{ X . g h +     o & p 5.s.y.y.y.y.y.y.y.y.y.y.y.y.f.( _ 4.4.s.y.y.y.y.",
"y.y.y.y.y.y.y.y.y.f.f.f.s.y.y.y.y.y.y.y.y.y.y.f._ ^ y.1.C V o @ a g o       & t 5.s.y.p.p.y.y.y.y.y.y.y.y.y.f. .| T 5.s.y.y.y.y.",
"y.y.y.y.y.y.y.y.y.y.y.y.y.y.y.y.y.y.y.y.y.y.y.y.a.;.J { # + 5 7 h a o     . & t 3.y.p.*.e.p.y.y.y.y.y.y.y.y.f.4.9.#.5.s.y.y.y.y.",
"y.y.y.y.y.p.y.s.t.4.f.y.y.y.y.y.y.y.y.y.y.y.y.y.y.;.D U X . g h h a +   . O & t 5.s.p.F e.z.y.y.y.r.l.y.y.y.y.f.f.f.s.y.y.y.y.y.",
"y.y.y.y.y.y.y.p.4.4.f.y.y.y.y.y.y.y.y.y.p.p.y.y.f.} # o   o a h h h 5 5 6 6 a j p.f.J ) a._ p.f.y.y.y.y.y.y.y.y.y.y.y.y.y.y.y.y.",
"y.y.y.f.y.y.f.y.[ 4.f.y.y.y.y.y.y.y.y.p.e.e.p.y.f.<.X   . $ a h h h h h M M h j i.r.C ` =._ _ _ f.y.y.y.y.y.y.y.y.y.y.y.y.y.y.y.",
"y.y.4.4.y.p.y.s.X.#.f.y.y.y.y.y.y.y.s.f.G K f.y.x.1.X   6 g h h h h g b :X:Xb 0 e.l._ | K f./ / z.y.y.y.y.y.y.y.y.y.y.y.y.y.y.y.",
"y.y.y.4.y.y.y.s.X.o.f.y.y.y.y.y.y.y.4.5.) Y 4.y.1.! X   5 h h h h h 9 b 1X<Xb f ' Q ..^ P [ C ] f.y.y.y.y.y.y.y.y.y.y.y.y.y.y.y.",
"y.y.y.y.y.y.y.f.0.9.f.p.y.y.y.y.y.y.9.0.*.Q 8.! # o   . 5 h h h h h h n 1X<Xb h k f X.#. .*.` 9.f.y.y.y.y.y.y.y.y.y.y.k.l.y.y.y.",
"y.y.y.y.y.y.y.y.s.f.y.) y.y.s.y.p.p.f.s.p.f.x.!       o 5 h h h g g 7 z >X:Xz 7 a h 6.f.f.p.f.f.y.y.y.y.y.y.y.y.y.y.y.k.l.y.y.y.",
"y.y.y.y.y.y.y.f.y.y.y.e.;.i.f.p.y.y.y.y.y.y.h.!   . 6 5 g h h 5 @ . . $ z z + . . $ 1.f.y.y.y.y.y.y.y.y.f.r.i.f.p.y.y.y.y.y.y.y.",
"y.y.y.y.y.y.y._ p.f.f.e.F y._ f.) ) z.y.y.y.h.! O + g h h h h a % +   . 7 7 % O   X 1.f.y.y.y.y.y.y.y.y.r.>.l.e.y.f.y.y.y.y.y.y.",
"y.y.y.y.y.y.y./ _ _ e.4.T Z D f.) D y.p.y.y.s.6.g a h h h h g z ;X;X%   a z :XOX  X 1.f.y.y.f.f.y.y.y.y.y.l.-.( 4.5.y.y.y.y.y.y.",
"y.y.y.y.y.y.f.e.~ e./ I P D y.a.*.A _ f.y.y.s.6.h h h h h h g z :X:X% @ 7 z >X+XO # 1.f.y.f.9.8.f.y.y.y.y.z.| @.q.8.f.y.y.y.y.y.",
"y.y.y.y.y.y.f.4.| z.4.I I @.4.y.*.Z e.f.y.y.s.3.h h h h h h h h z z 5 5 h h b z 6 q 5.s.p.s.i.5.s.y.y.y.p.*.Y X.9.5.y.y.y.y.y.y.",
"y.y.y.y.y.y.y.y.y.y.p.y.y.y.y.y.y.y.y.y.y.y.f.1.g h h h h h a a g g h h h h g h M N <.H p.y.5.f.y.y.y.y.p.e.T X.p.s.y.y.y.y.y.y.",
"y.y.y.f.s.y.y.y.y.y.y.y.y.y.y.y.y.y.y.y.y.p.r.H h h h h h g r r h h h h h h g M <X:Xz 9 1.0.2.s.y.y.y.y.y.p.f.f.y.y.y.y.y.y.y.y.",
"y.y.y.y.y.y.y.y.y.y.y.y.y.y.y.y.y.y.y.y.y.p.4.Q l l h h h g r r h h h h h h 9 M 2X>XM z 6.q.2.f.y.y.y.y.y.y.y.y.y.y.y.y.y.f.y.y.",
"y.p.4.+.O.f.y.y.y.y.y.y.y.y.p.f.y.y.y.y.f.5.2 N., < l h h a w r h h h h h h 9 M <X2X,X;Xl.3.5.s.y.y.y.y.i.y.f.y.y.y.y.s.y.4.y.y.",
"y.y.y._ p.f.y.y.y.y.y.y.y.y.y._ p.f.p.y.i.0.1 N.N., l l l l r r a h h h h h g M <X2X2X<X$.y.f.y.y.y.y.y.l.y.t.y.y.y.y.f.4.o.4.y.",
"y.y.y.Z ) y.t.p.y.y.y.y.y.k.s.) e._ e.9.2 1 N.N.N.N.< N.Y.L.l 8 4 4 4 r h h 7 n 2X3X2X2X2X4Xf.y.y.y.y.f.,.4.4.y.y.y.y.y.4.y.f.y.",
"y.y.f.R I y.y.y.y.y.y.y.y.r.p.l.L ^ 2.O.N.N.N.N.N.N.N.N.I.P.c v y y y u h h b N -X;X1X1X;XOXf.s.f.y.y.y.J 4.4.f.y.y.y.y.f.y.y.y.",
"y.y.y.4.4.f.y.y.y.y.y.y.f.y.i.r.D X.2 N.N.N.N.N.N.N.N.N.F.G.P.P.F.D.B.< g z >X-Xo % #X#X% # 4.9.4.f.y.y.t.y.4.p.y.y.y.y.y.y.y.y.",
"y.y.y.f.f.y.y.y.y.y.y.y.4.y.t.y.5.0.1 N.N.N.N.N.N.N.N.N.F.J.R.I.J.H.M.< l z :XOX+ % #X#X% $ 4.#.2.s.y.y.f.y.y.y.y.y.y.y.y.y.y.y.",
"y.y.y.y.y.y.y.y.y.y.p.y.4.y.f.5.2 , N.N.N.N.N.N.N.N.N.N.P.R.G.G.I.P.B., , < z N =X#X*X*X#XoXa.r.f.y.y.y.y.f.y.y.y.y.y.y.f.y.y.y.",
"y.y.y.y.y.y.y.t.p.a.y.y.f.4.t.5., N.N.N.N.N.N.N.N.N.N.N.P.R.H.G.I.I.B.N.N.N.a m $X*X$X$X*X%Xz.y.y.y.y.y.y.4.f.p.y.y.y.y.5.y.y.y.",
"y.y.y.y.y.p.y.S e.[ 5.s.p.4.s.5.1 N.N.N.N.N.N.N.N.N.N.N.F.J.I.I.G.H.B.N.N.N.> = m n n n m M 5.s.y.y.y.p.e.K t.e.f.y.f.4.o.y.y.y.",
"y.y.y.y.y.y.y.=.^ [ 5.y.s.y.5.9.1 N.N.N., , N.N.N.N.N.N.F.J.I.I.G.H.B.N.N.N.; = a g a g h x 5.s.y.y.y.y.l.;./ [ p.y.y.t.y.t.y.y.",
"y.y.y.y.y.y.f.4.~ [ [ a.s.2.1 N.N.N.N., ; ; N.N.N.N.N.N.P.R.H.G.R.I.B.N.N.N.; ; ; > ; > Q t.p.y.y.y.y.y.q.] / ] ' p.y.y.y.p.y.y.",
"y.y.y.y.y.y.p.+. .^ ` a.s.0.N.N.N.N.N., ; ; N.N.N.N.N.N.P.I.G.G.I.I.B.N.N.N.; ; ; ; ; * I 4.9.s.y.y.y.y.0...U ( ' p.y.y.y.y.y.y.",
"y.y.y.y.y.y.y.i.i.y.y.y.r.5., N.N.N.N., ; ; N.N.N.N.N.N.F.G.I.I.G.H.B.N.N., ; ; ; ; ; * [ 5.0.f.y.y.y.y.f.i.5.y.y.y.y.y.y.y.y.y.",
"y.y.y.y.y.y.y.y.f.y.s.y.9.q.N.N.N.N.N., ; ; N.N.N.N.N.N.F.J.I.I.G.H.B.N.N., ; ; ; ; ; ; +.q.y.y.y.y.y.y.y.f.f.p.y.y.y.y.y.y.y.y.",
"y.y.y.y.y.y.y.y.y.y.s.c.!.P.N., N.N.N.V.; ; N.N.N.N.N.N.P.R.H.H.I.I.B.N.N.N.; ; ; ; * ; D.S.i.f.y.y.y.y.y.y.y.y.y.y.y.y.y.y.y.y.",
"y.p.y.y.f.y.l.l.y.y.6.0.L.Y.B.N.N.N.N., ; ; N.N.N.N.N.N.U.E.G.G.U.U.B.N.N.N.> = ; ; ; : Z.A.3.3.4.y.y.y.y.f.r.f.y.y.y.y.y.y.y.y.",
"y.y.4.4.y.y.y.y.s.6.j h l c P.I.N., 0.2.; ; , N.N.N.N.N.`.].'.'.].'.C., N., 2.2.* ; D.D.- u r t 3.s.y.y.s.f.l.f.y.y.y.y.y.f.f.y.",
"y.y.y.t.4.y.y.y.s.6.k h 0 l Y.P.B.N.5.4.= ; N.B.B.B.N.C.`.}.}.}.}.{.C.N.N.1 i.2.; : D.K.y 3 w r 3.s.y.y.s.y.y.y.y.f.4.t.y.r.r.y.",
"y.y.y.f.f.y.y.y.s.6.h h h h l c P.U.9.r.3.9._.'.`.`.`.`.}.}.}.}.}.}.'._.q.2.f.q.D.Z.- y e w w r 6.s.y.y.y.y.y.y.y.4.y.y.y.y.y.y.",
"y.y.y.y.y.y.y.y.s.6.x k h h 0 l L.!.9.r.f.c. X{.}.}.}.}.}.}.].].].].].{.c.r.r.9.T.A.u 3 w r t p 1.f.y.y.y.y.y.y.y.y.p.y.4.y.y.y.",
"y.y.y.y.y.y.y.y.y.y.y.6.k h h l 5.p.y.y.y.y.y.v.{.}.}.}.}.].^.^.^.^.XX~.c.y.y.y.i.3.r w w t 3.y.J *.p.y.y.p.p.y.y.y.y.y.y.y.y.y.",
"y.y.y.y.y.y.y.y.y.y.s.y.x k k j r.j.y.y.y.y.r.b.{.}.}.}.}.].^./.^.^..X~.c.f.y.y.f.3.t r r p p.f.e.S p.p.f.e.*.p.y.y.y.y.y.y.y.y.",
"y.y.y.y.f._ e.a.s.s.y.y.6.3.2.3.y.y.y.f.f.a.r.b.{.}.}.}.}.].^.^.^.^..X~.c.y.y.y.y.y.3.6.H 1.4.8.4./ ) Z t.*.F f.5.0.s.y.y.y.y.y.",
"y.y.y.s.i.-.=.y.5.5.s.y.s.s.s.s.y.f.i.;.>.[ i.b.{.}.}.}.}.].^.^.^.^..XQ.i.f.y.y.y.y.s.f.e.J _ ^ #.I A ` 9.e.A [ 8.y.y.y.y.y.y.y.",
"p.y.y.y.a.K Y #.7.4.s.y.y.y.y.y.y.y.y.l.j.( r.b.{.}.}.}.}.].^.^.^.^..X~.c.t.y.y.y.y.y.p.t.D 9.) P P } 8.a.*.A ( 9.s.y.y.y.y.y.y.",
"y.y.y.y.p.e.` 8.5.f.y.y.y.y.y.y.y.f.5.q.( ` G v.{.}.}.}.}.].^.^.^.^..X~.c.t.y.y.y.y.y.y.y._ 4.f.#.X.#.y.f.t.) 4.p.y.y.f.l.y.y.y.",
"y.y.y.y.y.p.f.f.s.y.f.y.y.y.p.y.y.y.y.q. .` S v.{.}.}.}.}.].^.^.^.^..X~.c.r.f.f.f.y.y.y.y.f.f.y.f.z.f.y.y.p.f.f.y.y.y.f.l.y.y.y.",
"y.y.p.y.y.y.y.y.y.p._ y.y.f.e.y.f.y.y.f.i.i.i.b.{.}.}.}.}.].^.^.^.^..X~.c.l.l.l.r.y.y.y.y.y.y.y.y.y.y.y.y.y.y.y.y.y.y.y.y.y.y.y.",
"y.y.y.y.y.y.y.y.y.p.) _ z.#.E e.5.s.y.y.f.y.r.b.{.}.}.}.}.].^.^.^.^..X~.c.y.y.y.y.y.y.y.y.y.y.y.y.y.y.y.y.y.f.f.y.y.y.y.y.y.y.y.",
"y.f.4.y.p.y.y.y.y.y.z.:._ ( ^ 9.5.s.y.y.y.y.i.b.{.}.}.}.}.].^.^.^.^..XQ.c.f.y.y.y.f.y.y.y.y.y.y.y.y.y.y.y.f.#.#.4.y.y.y.y.y.y.y.",
"y.y.y.y.y.y.y.y.y.y.r.Z | | @.0.s.y.y.y.y.y.r.b.[.].].].}.].^././.^..X~.c.s.y.f./ _ p.y.y.p.f.y.y.f.y.y.y.4.4.4.y.y.y.y.y.y.y.y.",
"y.y.y.y.y.y.y.y.y.y.y.W I  .X.f.y.y.y.y.y.y.l.b.|.|.|.|.{.{.(.(.(.(.~.).c.f.y.y.y.K y.z.f.t.e.p.y.5.y.y.y.y.s.f.y.y.y.y.y.y.y.y.",
"y.y.y.y.y.y.y.y.y.y.y.q...#.p.y.y.y.y.y.y.f.i.m.<X3X3X<Xb.n.&X&X&X&Xn.t.) t.f.p.f.,.e./ t._ / z.2.2.s.y.y.y.y.y.y.p.y.y.y.y.y.y.",
"y.y.y.y.y.y.y.y.y.y.y.f.z.f.y.y.y.y.y.f.4.[ 4.m.>X,X,X>Xm.m.$X$X$X#Xm.f._ / _ ) y.( Z ~ i.e.A ` 0.s.y.y.y.y.y.y.y.y.y.y.y.y.y.y.",
"y.y.y.p.y.y.y.y.y.y.y.y.y.y.y.y.y.y.y.f.4.4.o.w.W.W.W.W.:X;Xd d d d =X@Xa.E 8.] I %.W O.7.e.Y U 8.y.y.y.y.y.y.f.e./ y.9.5.y.y.y.",
"y.y.y.*.y.y.y.y.y.y.y.y.y.y.y.y.y.y.y.y.y.p.s.w.B B B B :X;Xs i i s =X@Xa...9.f.| }  .q.f.e.( X.9.y.y.y.y.y.y.y.f.] ^ z.8.y.y.y.",
"y.y.y.T t.f.y.y.y.y.y.y.y.y.y.y.y.y.y.y.y.y.y.y.5.5.5.5.f.f.6.6.5.5.a.a.y.f.f.s.f.f.f.f.y.p.f.f.s.y.y.y.y.y.y.y.f.@.I #.q.y.y.y.",
"y.y.f.T } f.y.y.y.y.y.y.y.y.y.y.y.y.y.y.y.y.y.y.s.s.s.s.y.y.s.s.s.s.y.y.y.y.y.s.y.y.y.y.y.y.y.y.y.y.y.y.y.y.y.y.f._ P +.5.y.y.y."
};
