/* XPM */
static char *_02294d7c9db42a0b0062ccc849f4c85dKIRV333O4p9nnHg[] = {
/* columns rows colors chars-per-pixel */
"64 64 215 2 ",
"   c #020201",
".  c #0B0605",
"X  c #060B04",
"o  c #0C0B04",
"O  c #0A0D0A",
"+  c #110A06",
"@  c #140D0B",
"#  c #0C1204",
"$  c #17140B",
"%  c #140F11",
"&  c #1E1917",
"*  c #131311",
"=  c #21171C",
"-  c #19200C",
";  c #7D383C",
":  c #525E5E",
">  c #56555D",
",  c #4D5364",
"<  c #4C526C",
"1  c #515866",
"2  c #5D6D7E",
"3  c #63697E",
"4  c #67687A",
"5  c #66737D",
"6  c #67777A",
"7  c #893D3D",
"8  c #813B3D",
"9  c #8A453E",
"0  c #8D5B3E",
"q  c #84563A",
"w  c #925D3E",
"e  c #95633F",
"r  c #9A643E",
"t  c #8D623F",
"y  c #883E41",
"u  c #D63C7F",
"i  c #894342",
"p  c #85444D",
"a  c #874A46",
"s  c #9D4B4C",
"d  c #984645",
"f  c #8B5942",
"g  c #935E41",
"h  c #995944",
"j  c #844B51",
"k  c #82515C",
"l  c #A14D52",
"z  c #966142",
"x  c #996343",
"c  c #966C42",
"v  c #9B6A44",
"b  c #94644D",
"n  c #9D674C",
"m  c #9D6A4C",
"M  c #96684C",
"N  c #946952",
"B  c #93725A",
"V  c #936B47",
"C  c #A16C4E",
"Z  c #A2674F",
"A  c #A16D50",
"S  c #A67356",
"D  c #D5447F",
"F  c #CE4E7A",
"G  c #5CB63C",
"H  c #57B539",
"J  c #4FA33C",
"K  c #77A63F",
"L  c #63B63E",
"P  c #6DBC3D",
"I  c #68B83C",
"U  c #71BE3E",
"Y  c #77BA3F",
"T  c #60A83D",
"R  c #79C23C",
"E  c #72C532",
"W  c #4A9757",
"Q  c #579C58",
"!  c #649C5E",
"~  c #4CA447",
"^  c #5DAA4B",
"/  c #57A847",
"(  c #5BB142",
")  c #58A156",
"_  c #64AC4D",
"`  c #6CAD4E",
"'  c #7DAF42",
"]  c #7FAD4D",
"[  c #65B443",
"{  c #6BB545",
"}  c #6CBA41",
"|  c #6AB24A",
" . c #67B248",
".. c #7EB243",
"X. c #74BC43",
"o. c #7BBE45",
"O. c #74B44C",
"+. c #73B94A",
"@. c #7CBA4A",
"#. c #77B44A",
"$. c #64A454",
"%. c #6CAB53",
"&. c #66A359",
"*. c #69A658",
"=. c #74AC54",
"-. c #7AAB56",
";. c #7DAB5B",
":. c #72A55B",
">. c #74B351",
",. c #7BB352",
"<. c #6FBA58",
"1. c #499466",
"2. c #6B9D65",
"3. c #7DC144",
"4. c #77C141",
"5. c #7FC250",
"6. c #86C73A",
"7. c #92CD3A",
"8. c #99D23B",
"9. c #8DC72F",
"0. c #A7DE34",
"q. c #B1E52E",
"w. c #82B445",
"e. c #8CBB46",
"r. c #8BB549",
"t. c #84BD4B",
"y. c #8ABD4B",
"u. c #84B74B",
"i. c #90BA4E",
"p. c #81AD59",
"a. c #84B553",
"s. c #86BC53",
"d. c #89BB51",
"f. c #86BE58",
"g. c #86B859",
"h. c #94B550",
"j. c #94BB54",
"k. c #98AE54",
"l. c #83C245",
"z. c #8CC546",
"x. c #86C14A",
"c. c #8BC34A",
"v. c #8AC24A",
"b. c #89C14A",
"n. c #8CC34B",
"m. c #8CC04A",
"M. c #8BC44A",
"N. c #8DC44A",
"B. c #8EC74C",
"V. c #8BC34A",
"C. c #8CC84A",
"Z. c #8DCA45",
"A. c #90C746",
"S. c #93CA43",
"D. c #90C54B",
"F. c #91CA4D",
"G. c #8AC253",
"H. c #87C15A",
"J. c #94C354",
"K. c #96C758",
"L. c #636B82",
"P. c #616B8A",
"I. c #616784",
"U. c #647189",
"Y. c #657483",
"T. c #657790",
"R. c #5364B9",
"E. c #4E59C5",
"W. c #4B56CA",
"Q. c #4C59CC",
"!. c #4E54C5",
"~. c #4F61CD",
"^. c #5979CF",
"/. c #5575D6",
"(. c #5374DD",
"). c #567BDB",
"_. c #5276E2",
"`. c #567CE0",
"'. c #DA3D84",
"]. c #D94785",
"[. c #5A94D7",
"{. c #5794DD",
"}. c #5995DC",
"|. c #5796DB",
" X c #5B82CC",
".X c #6497D9",
"XX c #7299DB",
"oX c #6EADD5",
"OX c #6EA7D3",
"+X c #6FB2DA",
"@X c #6EB2D5",
"#X c #72B3D5",
"$X c #70B3DB",
"%X c #79B5D5",
"&X c #70ACD5",
"*X c #E7B1BE",
"=X c #DCCABC",
"-X c #E0CABD",
";X c #83B9D7",
":X c #EEAEC7",
">X c #F1ADC1",
",X c #EFB7C1",
"<X c #F5B3CD",
"1X c #F6B7C7",
"2X c #FDBBD4",
"3X c #F2BBD3",
"4X c #EAB8DA",
"5X c #E3CFC4",
"6X c #EAD5CB",
"7X c #F3DBCC",
"8X c #F5D5CA",
"9X c #F6DAD2",
"0X c #EBE4C4",
"qX c #ECE4D7",
"wX c #FBE6D8",
/* pixels */
"c.c.c.d.+.P D.c.c.c.c.c.c.c.c.c.c.c.c.c.c.c.c.c.c.c.c.c.c.c.c.c.c.c.c.c.c.c.c.c.c.c.c.c.c.c.c.c.c.c.c.c.c.c.c.c.c.c.c.c.c.c.c.c.",
"c.c.M.;.2. .l.n.c.c.c.c.c.c.c.c.c.c.c.c.c.c.c.c.c.c.c.c.c.c.c.c.c.c.c.c.c.c.c.c.c.c.c.c.c.c.c.c.c.c.c.c.c.c.c.c.c.c.c.c.c.c.c.c.",
"c.c.c.M.g.,.l.n.c.c.c.c.c.c.c.c.c.c.c.c.c.c.c.c.c.c.c.c.c.c.B.B.M.M.N.B.B.B.M.M.c.c.c.c.c.c.c.c.c.c.c.c.c.c.c.c.c.c.c.c.c.c.c.c.",
"c.c.c.c.N.N.n.c.c.c.c.c.c.c.c.c.c.c.c.c.c.c.c.c.c.c.c.c.c.c...w.X.w.w.....w.r.r.c.c.c.c.c.c.c.c.c.c.c.S.S.c.c.c.c.c.c.c.c.c.c.c.",
"c.c.c.c.c.c.c.c.c.n.n.c.c.c.c.c.c.c.c.c.c.n.c.t.c.c.c.c.F.w.X o t z $ X X o ; f c.c.t.n.c.c.t.c.c.c.c.N.N.c.c.c.c.c.c.c.c.c.c.c.",
"c.c.c.c.c.c.c.c.n.l.l.n.M.c.c.c.c.c.c.c.c.c.t.t.t.c.c.c.t.K X . g z .       ; a t.t.x.c.z.x.t.c.c.c.c.c.c.c.N.n.c.c.c.c.c.c.c.c.",
"c.c.c.c.c.c.c.c.B.P 3.n.u.N.c.c.c.c.c.c.c.c.c.x.c.c.F.c.$ $ 0 0 x g o       ; a t.c.c.c.z.t.c.c.c.c.c.c.c.N.X.o.n.c.M.c.c.c.c.c.",
"c.c.c.c.c.c.c.c.D.$.%.{ t.N.c.c.c.c.c.c.c.c.N.c.N.c...K X . z v x g $ o + @ 8 f y.N.c.c.c.c.c.c.c.c.c.c.c.N.X.X.X.b.c.c.c.c.c.c.",
"c.c.c.c.c.c.c.c.N.>.=.*.u.N.c.c.c.c.c.c.c.c.c.n.l...#     o g x x x z z w w g c n.M.c.c.c.c.c.c.c.c.c.c.c.c.N. .o.t.t.M.c.c.c.c.",
"c.c.c.c.c.c.c.c.c.N.N.N.M.c.c.c.c.c.c.c.c.c.c.n.3.T X   . $ g v x x x x C C x c y.M.c.n.n.c.c.c.c.c.c.c.c.c.N.&.%.^ y.M.c.c.c.c.",
"c.c.c.c.c.c.c.c.c.c.c.c.c.c.c.c.c.c.c.c.c.c.c.c.F.9.X   q z x x x v x C 7X7XZ c y.M.N.3.l.n.c.c.c.c.c.c.c.c.N.u.a.,.y.M.c.c.c.c.",
"c.c.c.c.c.n.c.M.x.t.N.c.c.c.c.c.c.c.c.c.c.c.c.c.t.9.X   0 v x x z z w M 7X7Xn e w.t.n.U l.D.c.c.c.z.S.c.c.c.c.N.N.N.M.c.c.c.c.c.",
"c.c.c.c.c.c.c.n.t.t.N.c.c.c.c.c.c.c.c.c.n.c.B.' $ X     0 x x 0 +   . $ m M +   o - I 4.n.o.n.N.c.c.c.c.c.c.c.c.c.c.c.c.c.c.c.c.",
"c.c.c.N.c.c.N.c.@.t.N.c.c.c.c.c.c.c.c.n.l.l.F.'     o @ 0 x x g & *   . w w & *   X J >.6.o.o.o.N.c.c.c.c.c.c.c.c.c.c.c.c.c.c.c.",
"c.c.t.t.c.n.c.M.=.,.N.c.c.c.c.c.c.c.M.N.Y R F.'   . 0 z x x z m 7X6X*   g m 7X=X  # Y %.R N.} } D.c.c.c.c.c.c.c.c.c.c.c.c.c.c.c.",
"c.c.c.t.c.c.c.M.=.-.N.c.c.c.c.c.c.c.t.y.X.~ t.'   . g v x x z m 7X7X& + w m 7X-X+ O $.{ W @.H +.N.c.c.c.c.c.c.c.c.c.c.c.c.c.c.c.",
"c.c.c.c.c.c.c.N.d.a.N.n.c.c.c.c.c.c.a.d.3._ s.'   . w x x x x x m m g 0 x x m m w f =.>.&.l.O.s.N.c.c.c.c.c.c.c.c.c.c.A.S.c.c.c.",
"c.c.c.c.c.c.c.c.M.N.c.X.c.M.M.c.n.n.N.M.n.N.F.' X + g x x x x x z z x v x x z x x v e.n.D.n.N.N.c.c.c.c.c.c.c.c.c.c.c.A.S.c.c.c.",
"c.c.c.c.c.c.c.N.c.c.c.l.8.b.N.n.c.c.c.c.c.c.M.r.0 0 x x x x x x x x x x x x x x e z c c r.M.c.c.c.c.c.c.N.z.b.N.n.c.c.c.c.c.c.c.",
"c.c.c.c.c.c.c.o.n.N.B.l.U c.o.N.X.X.D.c.c.c.M.r.v v x x x x x x x x x x x x x x A C x x r.M.c.c.c.c.c.c.z.0.S.l.c.N.c.c.c.c.c.c.",
"c.c.c.c.c.c.c.} o.o.l.t.^ G L N.X.L c.n.c.c.M.r.x x x x x z i i x x x x x x e A 7X8Xn e y.M.n.N.c.c.c.c.c.S.7. .t.y.c.c.c.c.c.c.",
"c.c.c.c.c.c.N.l.[ l.} Q W L c.n.3.H o.N.c.c.M.r.x x x x x z i i x x x x x x z S wX7XS m j.D.a.a.N.c.c.c.c.D.%.>.g.a.N.c.c.c.c.c.",
"c.c.c.c.c.c.N.t.%.D.t.Q Q >.t.c.3.G l.N.c.c.C.e.x x x x x z y i x x x x x x w A wXwX7X7XwX0XG.t.N.c.c.c.n.3.~ =.a.y.c.c.c.c.c.c.",
"c.c.c.c.c.c.c.c.c.c.n.c.c.c.c.c.c.c.c.c.c.c.d.] b b x x x z i i g z g z x x C S =X5XwXwX6X=XG.M.c.c.c.c.n.l.^ -.n.M.c.c.c.c.c.c.",
"c.c.c.N.M.c.c.c.c.c.c.c.c.c.c.c.c.c.c.c.N.b.5 L.L.4 z x x x x g 9 7 y i x m 9X5XX % <X<X% # u.N.c.c.c.c.c.n.N.N.c.c.c.c.c.c.c.c.",
"c.c.c.c.c.c.c.c.c.c.c.c.c.c.c.c.c.c.c.c.y.a.5 L.L.3 b x b b b b p p p a g M 8X=X% = <X<X= * u.N.c.c.c.c.c.c.c.c.c.c.c.c.c.N.c.c.",
"c.n.t.:.;.N.c.c.c.c.c.c.c.c.n.N.c.c.N.y.5 L.L.L.L.L.3 L.^./././././.P.4 , > M S :X<X2X2X<X*XG.c.c.c.c.c.b.c.N.c.c.c.c.M.c.t.c.c.",
"c.c.c.o.n.N.c.c.c.c.c.c.c.c.c.o.n.n.c.a.L.P.L.L.L.L.L.P./._._._._.(.P.3 , 1 f A <X2X<X<X2X,Xn.c.c.c.c.c.S.c.x.c.c.c.c.N.u.-.t.c.",
"c.c.c.G X.c.x.n.c.c.c.c.c.A.M.X.l.@.6 5 L.L.L.L.L.L.L.P.E.Q.Q.Q.Q.W.P.L.L.3 1 > Z Z Z A j.J.c.c.c.c.c.N.q.t.u.c.c.c.c.c.t.c.N.c.",
"c.c.N.^ Q c.c.c.c.c.c.c.c.z.n.S.E | 5 I.L.L.L.L.L.L.L.P.E.Q.W.W.Q.W.P.L.L.L., > c c c c e.z.c.N.N.c.c.c.R t.t.N.c.c.c.c.N.c.c.c.",
"c.c.c.t.t.N.c.c.c.c.c.c.N.c.b.z.I =.5 L.L.L.L.L.L.L.L.P./._.W.Q.(.(.P.L.L.L., : y.n.e.n.n.n.c.u.t.N.c.c.x.c.t.n.c.c.c.c.c.c.c.c.",
"c.c.c.N.N.c.c.c.c.c.c.c.t.c.c.c.M.b.5 L.L.L.3 3 L.L.L.P./.(.Q.Q.(.(.P.L.L.L., : c.M.M.M.c.c.c.-.a.M.c.c.N.c.c.c.c.c.c.c.c.c.c.c.",
"c.c.c.c.c.c.c.c.c.c.n.c.t.c.N.c.N.b.5 L.L.L., , L.L.L.P.E.Q.(.(.Q.W.P.L.L.L., : y.N.c.c.c.c.c.N.N.c.c.c.c.N.c.c.c.c.c.c.N.c.c.c.",
"c.c.c.c.c.c.c.x.n.n.c.c.N.t.x.n.c.y.5 L.L.L., , L.L.L.P.E.Q.(.(.Q.W.P.L.L.L., : c.N.c.c.c.c.c.c.c.c.c.c.c.t.N.n.c.c.c.c.y.c.c.c.",
"c.c.c.c.c.n.c.P l.@.y.M.n.t.x.c.N.c.5 L.L.L., , L.L.L.P./.(.Q.Q.(./.P.L.L.L., : c.M.c.c.c.c.c.c.c.c.c.n.l.R x.l.N.c.N.t.-.c.c.c.",
"c.c.c.c.c.c.c.6.{ @.y.c.c.c.c.c.z.n.5 L.L.L., , L.L.L.P./.(.Q.Q.(./.P.L.L.L., : b.N.c.c.N.n.c.c.c.c.c.c.S.8.} @.n.c.c.x.c.x.c.c.",
"c.c.c.c.c.c.N.t.[ @.@.n.c.c.c.c.M.y.5 L.L.L., , L.L.L.P.E.Q.(.(.Q.W.P.L.L.L., : X.l.n.n.X.x.N.c.c.c.c.c.p.+.} #.,.n.c.c.c.n.c.c.",
"c.c.c.c.c.c.n.:.&.{ O.n.c.c.c.c.N.y.5 L.L.L., , L.L.L.P.E.Q.(.(.Q.W.P.L.L.L., : l.U c.X./ u.d.M.c.c.c.c.d.*.! _ ,.n.c.c.c.c.c.c.",
"c.c.c.c.c.c.c.b.b.c.c.c.c.c.c.c.N.Y 5 P.L.L., , L.L.L.P./.(.Q.Q.(.(.P.L.L.L., : c.E  .{ o.d.d.N.c.c.c.c.N.b.y.c.c.c.c.c.c.c.c.c.",
"c.c.c.c.c.c.c.c.N.c.c.c.c.c.c.c.N.` 2 L.L.L., , L.L.L.L.).`.~.~.`.).P.L.L.L., : y./  .$.O.d.M.c.c.c.c.c.c.N.N.n.c.c.c.c.c.c.c.c.",
"c.c.c.c.c.c.c.c.c.c.c.c.c.c.c.c.N.&.2 L.L.3 , , 3 L.3 L.oX$X+X+X+XoXU.3 L.3 , : c.=._ t.a.N.c.n.c.c.c.c.c.c.c.c.c.c.c.c.c.c.c.c.",
"c.n.c.c.N.c.S.S.c.c.c.c.c.c.c.c.N.t.Y.P.P.P.1 1 U.U.U.U.oX$X$X$X$X#XT.L.P.P.< 1 c.N.t.N.N.c.c.c.t.c.c.c.c.N.z.N.c.c.c.c.c.c.c.c.",
"c.c.t.t.c.c.c.c.c.c.c.c.c.c.c.c.N.b.^._.(.).oX@XoXoXoXoX+X$X$X$X$X$X$XOXE.W.W.R.y.M.N.c.c.c.n.t.x.n.c.c.c.N.S.N.c.c.c.c.c.N.N.c.",
"c.c.c.x.t.c.c.c.c.c.c.c.c.c.c.c.N.G. X)./.).&X#X$X$X$X$X#X#X+X+X+X+X#XOXE.!.W.R.b.M.c.c.c.c.c.n.c.c.c.c.c.c.c.c.c.N.t.x.c.z.z.c.",
"c.c.c.N.N.c.c.c.c.c.c.c.c.c.c.c.c.c.f.g.N b M B #X$X+X#X<.1.[.{.}.[.k p p p a.f.c.c.c.c.c.c.c.c.n.c.c.c.c.c.c.c.c.t.c.c.c.c.c.c.",
"c.c.c.c.c.c.c.c.c.c.c.c.c.c.c.c.c.c.z.e.v x r N #X$X+X#X| ) }.{.{.[.p 7 7 9 e.C.c.c.c.c.c.c.c.c.l.n.c.c.c.c.c.c.c.c.n.c.t.c.c.c.",
"c.c.c.c.c.c.c.c.c.c.c.c.c.c.N.c.z.N.M.r.x x x N #X$X$X#XG.G.[.{.{.[.j 7 y i r.M.c.c.c.c.c.c.c.n.R 3.n.c.c.n.n.c.c.c.c.c.c.c.c.c.",
"c.c.c.c.c.c.c.c.c.c.c.c.c.c.t.c.z.z.M.r.c v r B #X$X$X#XG.f.[.{.{.[.j 9 i a r.M.c.c.c.c.c.c.n.n.l.P n.n.N.l.3.n.c.c.c.c.c.c.c.c.",
"c.c.c.c.N.o.l.n.M.M.c.c.c.x.@.t.c.c.c.n.e.e.e.f.#X$X$X#XG.f.[.{.{.[.g.e.r.r.c.c.c.c.c.n.4.l.t.a.t.} X.G x.3.U N.y.d.M.c.c.c.c.c.",
"c.c.c.M.b.7.6.c.y.y.M.c.c.c.c.c.c.N.b.8.0.@.l.H.#X$X$X#XG.f.[.{.{.[.H.S.C.M.c.c.c.c.c.n.l.R o.{ ,.Q H O.a.l.H @.a.c.c.c.c.c.c.c.",
"n.c.c.c.n.R / ,.p.t.M.c.c.c.c.c.c.c.c.S.Z.| z.H.#X$X$X#XG.f.[.{.{.[.f.z.c.t.c.c.c.c.c.n.x.L a.X.W W $.a.n.3.H ` a.M.c.c.c.c.c.c.",
"c.c.c.c.n.l.O.a.y.N.c.c.c.c.c.c.c.N.y.g.| O.Y H.#X$X$X#XG.f.[.{.{.[.f.z.M.t.c.c.c.c.c.c.c.o.t.N.,.=.,.c.N.x.X.t.n.c.c.N.S.c.c.c.",
"c.c.c.c.c.n.N.N.M.c.N.c.c.c.n.c.c.c.c.g.&.O.P H.@X+X$X#XG.f.|.{.{.[.f.z.M.N.N.N.N.c.c.c.c.N.N.c.N.D.N.c.c.n.N.N.c.c.c.N.S.c.c.c.",
"c.c.n.c.c.c.c.c.c.n.o.c.c.N.l.c.N.c.c.N.b.b.z.H.%X%X$X#XG.f..X.X{.[.f.z.c.S.S.S.z.c.c.c.c.c.c.c.c.c.c.c.c.c.c.c.c.c.c.c.c.c.c.c.",
"c.c.c.c.c.c.c.c.c.n.X.o.D.,.( l.y.M.c.c.N.n.z.K.qXqX$X@XG.J.3X4X}.|.f.z.c.c.c.c.c.c.c.c.c.c.c.c.c.c.c.c.c.c.N.N.c.c.c.c.c.c.c.c.",
"c.N.t.c.n.c.c.c.c.c.D.9.o.| { a.y.M.c.c.c.n.z.K.8X8X;X;X+.d.>X:XXX.Xf.z.c.c.c.c.c.N.c.c.c.c.c.c.c.c.c.c.c.N.,.,.t.c.c.c.c.c.c.c.",
"c.c.c.c.c.c.c.c.c.c.z.G %.%.>.d.M.c.c.c.c.n.Z.h.].].9XqX5.r.s l <X2XJ.z.c.c.c.N.} o.n.c.c.n.N.c.c.N.c.c.c.t.u.t.c.c.c.c.c.c.c.c.",
"c.c.c.c.c.c.c.c.c.c.c.) Q &.=.N.c.c.c.c.c.n.Z.h.u ].8X7XK.r.d s >X1XJ.z.B.n.c.c.c.R c.D.N.x.l.n.c.y.c.c.c.c.M.N.c.c.c.c.c.c.c.c.",
"c.c.c.c.c.c.c.c.c.c.c.a.*.,.n.c.c.c.c.c.c.n.M.h.'.'.].].i.e.d d s s r.M.X.x.N.n.N.q.l.} x.o.} D.u.u.M.c.c.c.c.c.c.n.c.c.c.c.c.c.",
"c.c.c.c.c.c.c.c.c.c.c.N.D.N.c.c.c.c.c.N.t.@.x.h.D ].'.D j.y.d d d d i.J.o.} o.X.c.` G [ b.l.H O.d.M.c.c.c.c.c.c.c.c.n.c.c.c.c.c.",
"c.c.c.n.c.c.c.c.c.c.c.c.c.c.c.c.c.c.c.N.t.t.-.y.i.k.'.'.8X0Xi.r.d d >X,XJ.( a.{ Q 1.) ;.;.l.~ ! a.c.c.c.c.c.c.N.l.} c.a.y.c.c.c.",
"c.c.c.3.c.c.c.c.c.c.c.c.c.c.c.c.c.c.c.c.c.n.c.c.C.i.F ].8X0XB.y.h s >X,Xn.*.a.N.%.$.&.a.N.l._ =.a.c.c.c.c.c.c.c.N.+.{ D.a.c.c.c.",
"c.c.c.^ x.N.c.c.c.c.c.c.c.c.c.c.c.c.c.c.c.c.c.c.n.n.y.y.B.B.c.c.y.e.n.n.c.N.N.M.N.N.N.N.c.n.N.N.M.c.c.c.c.c.c.c.N.>.Q ,.a.c.c.c.",
"c.c.N.^ $.N.c.c.c.c.c.c.c.c.c.c.c.c.c.c.c.c.c.c.n.c.M.M.c.c.c.c.M.M.c.c.c.c.M.M.c.c.c.c.c.c.c.c.c.c.c.c.c.c.c.c.N.o.W :.y.c.c.c."
};
