/* XPM */
static char *_e4424cf3f9e400ef075a8cb98a57ad6u1fQJt0Tm3VWbExS[] = {
/* columns rows colors chars-per-pixel */
"64 64 220 2 ",
"   c #030201",
".  c #090404",
"X  c #070B04",
"o  c #0C0B06",
"O  c #0F0A0B",
"+  c #110A06",
"@  c #130C09",
"#  c #0A1206",
"$  c #13140B",
"%  c #19100B",
"&  c #111809",
"*  c #161514",
"=  c #130D13",
"-  c #221B1B",
";  c #1D2214",
":  c #271E21",
">  c #7A383B",
",  c #7E5237",
"<  c #53595E",
"1  c #4A505C",
"2  c #4A4F63",
"3  c #4D5563",
"4  c #575B67",
"5  c #4D5371",
"6  c #656C7F",
"7  c #69697A",
"8  c #66717E",
"9  c #69777B",
"0  c #697A78",
"q  c #8A3F3E",
"w  c #8D5B3D",
"e  c #85563A",
"r  c #915D3F",
"t  c #985E3F",
"y  c #8E633E",
"u  c #95653E",
"i  c #883D41",
"p  c #863F45",
"a  c #864543",
"s  c #894241",
"d  c #884C42",
"f  c #84424B",
"g  c #974C41",
"h  c #8A5243",
"j  c #935E41",
"k  c #9A5645",
"l  c #964954",
"z  c #A34D53",
"x  c #8D6644",
"c  c #956243",
"v  c #996343",
"b  c #996944",
"n  c #94654B",
"m  c #9D6A4B",
"M  c #986947",
"N  c #997146",
"B  c #A16B4D",
"V  c #A1674A",
"C  c #A36E51",
"Z  c #A37153",
"A  c #A9775B",
"S  c #A0724F",
"D  c #D3487C",
"F  c #5CB63C",
"G  c #57B539",
"H  c #54AE3F",
"J  c #66B93E",
"K  c #6EBC3E",
"L  c #64B63F",
"P  c #71BE3E",
"I  c #76BA3E",
"U  c #6DA73F",
"Y  c #75C13D",
"T  c #7BC33B",
"R  c #7DCD2F",
"E  c #4A9857",
"W  c #579B59",
"Q  c #649C5E",
"!  c #4CA547",
"~  c #5DAB4B",
"^  c #5AA848",
"/  c #5BB142",
"(  c #5BA254",
")  c #69AD4B",
"_  c #7CAE42",
"`  c #7AAA42",
"'  c #65B542",
"]  c #6BB645",
"[  c #6CBA41",
"{  c #68B14B",
"}  c #67B248",
"|  c #74BC43",
" . c #7CBE45",
".. c #73B44C",
"X. c #75B949",
"o. c #7DBA4B",
"O. c #7AB449",
"+. c #63A554",
"@. c #67A952",
"#. c #6BAB53",
"$. c #66A35A",
"%. c #6AA25C",
"&. c #6BA859",
"*. c #74AC54",
"=. c #7AAC56",
"-. c #7EAB5A",
";. c #72A45B",
":. c #74B151",
">. c #7BB452",
",. c #7EBF50",
"<. c #418965",
"1. c #6B9D65",
"2. c #7DC143",
"3. c #77C040",
"4. c #83C33E",
"5. c #89C938",
"6. c #94CA3B",
"7. c #99D23B",
"8. c #98D535",
"9. c #8AD030",
"0. c #A5DC34",
"q. c #AEE32F",
"w. c #82B545",
"e. c #84B946",
"r. c #8CBB44",
"t. c #8BB54B",
"y. c #84BD4C",
"u. c #8ABD4C",
"i. c #84B44A",
"p. c #82AD57",
"a. c #83B553",
"s. c #89B553",
"d. c #86BA52",
"f. c #89BB52",
"g. c #85B95C",
"h. c #92BA57",
"j. c #93B54F",
"k. c #83C246",
"l. c #8DC546",
"z. c #86C14A",
"x. c #8BC34A",
"c. c #8AC24A",
"v. c #89C14A",
"b. c #8CC34B",
"n. c #8BC449",
"m. c #8CC549",
"M. c #8CC44A",
"N. c #8EC54A",
"B. c #8BC34A",
"V. c #8EC84B",
"C. c #8EC947",
"Z. c #91C545",
"A. c #93CA43",
"S. c #91C54A",
"D. c #91CB4C",
"F. c #8AC253",
"G. c #89C15A",
"H. c #85C156",
"J. c #95C45A",
"K. c #96C456",
"L. c #87C066",
"P. c #636B82",
"I. c #616B8A",
"U. c #636684",
"Y. c #647189",
"T. c #657083",
"R. c #637291",
"E. c #4F57BD",
"W. c #5256BC",
"Q. c #4D59C5",
"!. c #4C59CD",
"~. c #4C55C9",
"^. c #4B5BD1",
"/. c #5163C1",
"(. c #5D77CB",
"). c #5573D7",
"_. c #5974D2",
"`. c #5374DD",
"'. c #567DD8",
"]. c #4F60CD",
"[. c #5174E0",
"{. c #557CE0",
"}. c #D8488C",
"|. c #5F9BCF",
" X c #5B96D3",
".X c #5794DC",
"XX c #5995DC",
"oX c #5D99D7",
"OX c #5982CF",
"+X c #609CC6",
"@X c #6395DB",
"#X c #72B4CB",
"$X c #76B6C4",
"%X c #6FADD4",
"&X c #6FAFD9",
"*X c #6FB1DB",
"=X c #6EB3D4",
"-X c #71B4D3",
";X c #70B3DA",
":X c #7BB4D8",
">X c #74AFCE",
",X c #5692E1",
"<X c #5996E0",
"1X c #6FB2E0",
"2X c #DFC9BC",
"3X c #EFB7C1",
"4X c #F4B3CC",
"5X c #F7B8CB",
"6X c #F8B7D3",
"7X c #EFB4CA",
"8X c #DDCCC0",
"9X c #EDD5C3",
"0X c #EDD9CA",
"qX c #F2DACB",
"wX c #F6DBCB",
"eX c #F4DDD3",
"rX c #F6E2D3",
"tX c #F9E3D5",
"yX c #FCE6D9",
"uX c #EBE2CF",
/* pixels */
"x.x.x.f.X.K S.x.x.x.x.x.x.x.x.x.x.x.x.x.x.x.x.x.x.x.x.x.x.x.x.x.x.x.x.x.x.x.x.x.x.x.x.x.x.x.x.x.x.x.x.x.x.x.x.x.x.x.x.x.x.x.x.x.",
"x.x.n.-.1.} k.b.x.x.x.x.x.x.x.x.x.x.x.x.x.x.x.x.x.x.x.x.x.x.x.x.x.x.x.x.x.x.x.x.x.x.x.x.x.x.x.x.x.x.x.x.x.x.x.x.x.x.x.x.x.x.x.x.",
"x.x.x.n.a.o.k.b.x.x.x.x.x.x.x.x.x.x.x.x.x.x.x.x.x.x.x.x.x.x.x.x.x.x.x.x.x.x.x.x.x.x.x.x.x.x.x.x.x.x.x.x.x.x.x.x.x.x.x.x.x.x.x.x.",
"x.x.x.x.N.N.b.x.x.x.x.x.x.x.x.x.x.x.x.x.x.x.x.x.x.x.x.x.x.x.x.N.[  .b.x.x.x.x.x.x.x.x.x.x.x.x.x.x.x.x.A.A.x.x.x.x.x.x.x.x.x.x.x.",
"x.x.x.x.x.x.x.x.x.b.b.x.x.x.x.x.x.x.x.x.x.b.x.y.x.x.x.x.x.x.x.N.[  .o.n.x.x.x.x.N.x.y.b.x.x.y.x.x.x.x.N.N.x.x.x.x.x.x.x.x.x.x.x.",
"x.x.x.x.x.x.x.x.b.k.k.b.n.x.x.x.x.x.x.x.x.x.y.y.y.x.x.x.x.x.x.N.[ ..~ u.n.x.x.N.z.y.z.x.l.z.y.x.x.x.x.x.x.x.N.b.x.x.x.x.x.x.x.x.",
"x.x.x.x.x.x.x.x.N.K 2.b.y.N.x.x.x.x.x.x.x.x.x.z.x.x.x.x.x.x.x.b.k.y.>.u.n.x.x.y.y.x.x.x.l.y.x.x.x.x.x.x.x.N.|  .b.x.n.x.x.x.x.x.",
"x.x.x.x.x.x.x.x.S.@.#.] y.N.x.x.x.x.x.x.x.x.N.n.N.b.x.x.b.b.n.x.N.N.N.n.x.x.x.x.x.N.x.x.x.x.x.x.x.x.x.x.x.N.| | | v.x.x.x.x.x.x.",
"x.x.x.x.x.x.x.x.N.:.*.&.y.N.x.x.x.x.x.x.x.x.x.b. .z.b.N.z.z.u.x.x.x.x.x.x.x.x.N.x.x.x.x.x.x.x.x.x.x.x.x.x.x.N.}  .y.y.n.x.x.x.x.",
"x.x.x.x.x.x.x.x.x.N.N.N.n.x.x.x.x.x.x.x.x.x.x.N. .] x.z.F ..f.x.x.x.x.x.x.x.x.x.x.b.x.b.b.x.x.x.x.x.x.x.x.x.N.$.#.~ u.n.x.x.x.x.",
"x.x.x.x.x.x.x.x.x.x.x.x.x.x.x.x.x.x.x.x.x.x.x.x.b.8.Y | J a.x.n.N.N.N.N.n.N.x.y.y.x.N.2.k.b.x.x.x.x.x.x.x.x.N.y.a.>.u.n.x.x.x.x.",
"x.x.x.x.x.b.x.n.z.y.N.x.x.x.x.x.x.x.x.x.x.x.x.x.x.8.J $.$.u.u.u.e.e.e.e.u.u.k.N.x.x.b.P k.S.x.x.x.l.A.x.x.x.x.N.N.N.n.x.x.x.x.x.",
"x.x.x.x.x.x.x.b.y.y.N.x.x.x.x.x.x.x.x.x.b.b.x.x.N.&.W ;.>.S.N y $ X # $ a h I k.b.N.Y | b. .b.N.x.x.x.x.x.x.x.x.x.x.x.x.x.x.x.x.",
"x.x.x.N.x.x.N.x.o.y.N.x.x.x.x.x.x.x.x.b.k.k.b.x.x.N.:.y.w.` v r @ .   . > > r.9.z.l.H ..4. . . .N.x.x.x.x.x.x.x.x.x.x.x.x.x.x.x.",
"x.x.y.y.x.b.x.n.*.>.N.x.x.x.x.x.x.x.n.N.I T N.x.x.x.D.u.& @ c v c w o     o r.5. .A. .#.T N.[ [ S.x.x.x.x.x.x.x.x.x.x.x.x.x.x.x.",
"x.x.x.y.x.x.x.n.*.=.N.x.x.x.x.x.x.x.y.u.| ! y.N.x.x.e._ X . c v v c % . . $ i.$...~ @.] E o.H X.N.x.x.x.x.x.x.x.x.x.x.x.x.x.x.x.",
"x.x.x.x.x.x.x.N.d.a.N.b.x.x.x.x.x.x.a.d.2.@.a.x.N.w.& X   o j v v v r w w y t.&.o.&.:.>.$.k...d.N.x.x.x.x.x.x.x.x.x.x.Z.A.x.x.x.",
"x.x.x.x.x.x.x.x.n.N.x.| x.x.x.x.b.b.N.n.b.S.N.x.N._ X     @ j v v v v v B m r.N.b.N.N.N.S.b.N.N.x.x.x.x.x.x.x.x.x.x.x.Z.A.x.x.x.",
"x.x.x.x.x.x.x.N.x.x.x.k.7.v.N.b.x.x.x.x.x.x.x.x.D.e.X   , w v v v v c B 9X9Xm N x.n.x.x.x.x.x.x.x.x.x.x.N.l.v.N.b.x.x.x.x.x.x.x.",
"x.x.x.x.x.x.x. .b.N.N.k.P x. .N.| | S.x.x.x.x.x.w.U X   r V v v v v u B tXtXB v r.u.x.x.x.x.x.x.x.x.x.x.l.0.A.k.x.N.x.x.x.x.x.x.",
"x.x.x.x.x.x.x.[  . .k.y.~ F L N.| J x.b.x.x.V._ o .     w v v v v v v C tXrXB v b N u.n.x.x.N.N.x.x.x.x.x.A.6.} y.u.x.x.x.x.x.x.",
"x.x.x.x.x.x.N.k.' k.[ W E J x.b.2.G  .N.x.x.V._     . + w v v v j j w M qXqXM r j c u.n.x.n.a.a.N.x.x.x.x.S.#.:.a.a.N.x.x.x.x.x.",
"x.x.x.x.x.x.N.y.@.S.y.W W >.y.x.2.F k.N.x.x.V._   . e r c v v w o   . % m M +   . $ e.N.x.n.v.u.n.x.x.x.b.2.! *.a.u.x.x.x.x.x.x.",
"x.x.x.x.x.x.x.x.x.x.b.x.x.x.x.x.x.x.x.x.x.x.D.` o % c v v v v j - *   . r r - =   o I Y N.x.u.N.x.x.x.x.b.k.~ *.b.n.x.x.x.x.x.x.",
"x.x.x.N.n.x.x.x.x.x.x.x.x.x.x.x.x.x.x.x.x.b.n._ c j v v v v c m qX0X=   r m wX8X  X 4.R k.d.y.n.x.x.x.x.x.b.N.N.x.x.x.x.x.x.x.x.",
"x.x.x.x.x.x.x.x.x.x.x.x.x.x.x.x.x.x.x.n.x.b.k.U v v v v v v c m qX0X* + r m wX2X@ $ 6.8.k.p.y.N.x.x.x.x.x.x.x.x.x.x.x.x.x.N.x.x.",
"x.b.y.;.-.N.x.x.x.x.x.x.x.x.b.N.x.x.n.n.x.x.n.i.v v v v v v v v m m j r v v m m w w b x 5.u.u.n.x.x.x.x.v.x.N.x.x.x.x.n.x.y.x.x.",
"x.x.x. .b.N.x.x.x.x.x.x.x.x.x. .b.N.b.n.x.x.n.r.v v v v v v v v v v v v v v c v B B v c ) n.b.x.x.x.x.x.A.x.z.x.x.x.x.N.y.=.y.x.",
"x.x.x.F | x.z.b.x.x.x.x.x.Z.n.| k. .k.u.N.N.C.r.v v v v v v s s v v v v v v c Z qX9Xv u u.n.x.x.x.x.x.N.q.y.y.x.x.x.x.x.y.x.N.x.",
"x.x.N.^ W x.x.x.x.x.x.x.x.l.b.A.R ] d.-.y.d.f.t.n n v v v c i s v v v v v v c Z yXeXA S u.n.x.N.N.x.x.x.Y y.y.N.x.x.x.x.N.x.x.x.",
"x.x.x.y.y.N.x.x.x.x.x.x.N.x.v.l.J *.9 P.P.P.P.6 P.7 c v v j i s v v v v v v t C rXyXtXqXK.k.x.a.y.N.x.x.z.x.y.b.x.x.x.x.x.x.x.x.",
"x.x.x.N.N.x.x.x.x.x.x.x.y.x.z.x.u.d.8 P.P.P.P.P.P.6 n c n n s s j v v v v v m A rXyXyXrXJ.N.x.=.a.n.x.x.N.x.x.x.x.x.x.x.x.x.x.x.",
"x.x.x.x.x.x.x.x.x.x.b.x.y.x.N.u.9 6 P.P.P.P.P.P.P.P.6 P._.(.c t s s s s j m 9XtXyXyXyXyXyX0XN.l.N.x.x.x.x.N.x.x.x.x.x.x.N.x.x.x.",
"x.x.x.x.x.x.x.z.b.b.x.x.N.y.y.f.6 P.P.P.P.P.P.P.P.P.P.P.`._.n c f p p a c m qXyXeXeXyXtXeX0XF.x.x.x.x.x.x.y.N.b.x.x.x.x.u.x.x.x.",
"x.x.x.x.x.b.x.K k.o.u.n.N.y.9 8 P.P.P.P.P.P.P.P.P.P.P.P.Q.!._._.W.W.U.7 6 7 Z n $ - 5X5X: ; u.N.x.x.x.b.k.T z.k.N.x.N.y.=.x.x.x.",
"x.x.x.x.x.x.x.4.] o.u.u.u.a.P.P.P.P.8 8 P.P.P.P.P.P.P.P.Q.^.[.[.^.!.I.P.P.6 c e O - 4X4X= # i.y.x.x.x.x.A.7.[ o.b.x.x.z.x.z.x.x.",
"x.x.x.x.x.x.N.y.' X. .u.9 P.P.P.P.P.d.y.P.P.P.P.P.P.P.P.).[.!.!.`.).I.6 P.6 c C 4X5X6X6X4 1 3 < u.N.x.x.p.X.[ ..o.b.x.x.x.b.x.x.",
"x.x.x.x.x.x.b.;.$.] :.f.8 P.P.P.P.8 u.u.P.P.P.P.P.P.P.P.).`.!.!.`.`.I.6 P.6 n Z 5X6X5X7X4 2 2 3 a.f.x.x.d.&.Q } >.b.x.x.x.x.x.x.",
"x.x.x.x.x.x.x.v.n.d.OX'.P.6 U.P.s.| k.f.6 P.P.P.P.P.P.P.Q.!.`.`.!.!.I.P.P.6 u.t.m V B m < 2 1 3 E./.d.C.n.v.u.x.x.x.x.x.x.x.x.x.",
"x.x.x.x.x.x.x.x.r.s.(._.R.I.8 0 b.{ X.o.P.P.P.P.P.P.P.P.Q.^.`.`.!.!.I.P.P.8 z.u.N x u x < 4 3 5 W.W.p.r.x.N.N.b.x.x.x.x.x.x.x.x.",
"x.x.x.x.x.x.n.r.b v v n ).'.f.x.N.$.:.( 8 P.P.P.P.P.P.P.).[.~.!.[.`.I.P.P.8 u.N.b.*.@.y.y.a.Q.~.f s s d u.n.x.x.x.x.x.x.x.x.x.x.",
"x.b.x.x.N.x.A.Z.v v v n (.OXv.N.x.y.x.a.6 P.P.P.P.P.P.P.).`.!.!.`.`.I.P.P.6 u.A.b.N.y.N.C.d./.W.f q i d u.N.l.N.x.x.x.x.x.x.x.x.",
"x.x.y.y.x.x.n.r.v v v v s.F.x.n.x.b.N.u.6 P.P.P.P.P.P.P.Q.!.`.`.!.!.I.P.P.8 u.N.b.x.N.x.x.x.f.a.a i i d u.N.A.N.x.x.x.x.x.N.N.x.",
"x.x.x.z.y.x.n.r.b v v b r.n.x.x.x.x.N.y.6 P.P.P.P.P.P.P.Q.!.`.`.!.!.I.P.P.8 u.n.b.b.x.x.x.x.N.u.d s s h u.n.x.x.x.N.y.z.x.l.l.x.",
"x.x.x.N.N.x.x.x.r.r.r.r.x.x.x.x.x.x.N.u.6 P.P.P.P.P.P.P.).`.!.!.`.`.I.P.P.8 u.N.x.x.x.x.x.x.x.x.r.t.t.t.x.x.x.x.x.y.x.x.x.x.x.x.",
"x.x.x.x.x.x.x.x.n.n.n.n.x.x.x.x.x.x.N.y.8 P.P.P.P.P.P.P.'.{.!.].{.'.I.P.P.8 u.N.x.x.x.x.x.x.x.x.k.N.n.n.x.x.x.x.x.x.b.x.y.x.x.x.",
"x.x.x.x.x.x.x.x.x.x.x.x.x.x.N.x.l.N.n.u.P.P.P.P.P.P.6 P.%X*X&X&X*X%XY.6 P.P.u.N.x.x.x.x.x.x.x.b.Y 2.b.x.x.b.b.x.x.x.x.x.x.x.x.x.",
"x.x.x.x.x.v.x.x.x.x.x.x.x.x.y.x.l.N.n.u.8 8 Y.Y.Y.Y.I.Y.%X;X;X;X;X;XR.I.T.9 u.N.x.x.x.x.x.x.b.b.k.K b.b.N.k.2.b.x.x.x.x.x.x.x.x.",
"x.x.x.x.N. .k.b.n.n.x.x.x.z.o.y.x.x.x.b.u.f.>X&X%X%X%X%X;X;X;X;X;X;X&X#Xd.u.x.x.x.x.x.b.3.k.y.a.y.[ | F z.2.P N.u.d.n.x.x.x.x.x.",
"x.x.x.n.v.6.5.x.u.u.n.x.x.x.x.x.x.N.v.7.q.,.#X;X;X;X;X;X;X;X;X;X*X*X*X#XN.N.x.x.x.x.x.b.k.Y  .] >.W F ..a.k.G o.a.x.x.x.x.x.x.x.",
"b.x.x.x.b.T ! >.p.y.n.x.x.x.x.x.x.x.x.A.l.{ F.L.;X*X;X;X;X;X;X*XXXXX<X|.v.k.x.x.x.x.x.b.z.L a.| E E +.a.b.2.G ) a.n.x.x.x.x.x.x.",
"x.x.x.x.b.k...a.u.N.x.x.x.x.x.x.x.N.u.a.{ ..I H.#X-X;X;X;X;X;X*XXX.X,X Xg.d.v.x.x.x.x.x.x. .y.N.>.*.>.x.N.z.| y.b.x.x.N.A.x.x.x.",
"x.x.x.x.x.b.N.N.n.x.N.x.x.x.b.x.x.x.x.a.$...[ z.v.G.-X;X;X;X;X*XXXXXXXXXXX|.F.l.x.x.x.x.x.N.N.x.N.S.N.x.x.b.N.N.x.x.x.N.A.x.x.x.",
"x.x.b.x.x.x.x.x.x.b. .x.x.N.k.x.N.x.x.N.v.x.x.x.l.G.-X;X;X;X;X*XXXXXXXXX,X XN.6.N.x.x.x.x.x.x.x.x.x.x.x.x.x.x.x.x.x.x.x.x.x.x.x.",
"x.x.x.x.x.x.x.x.x.b.|  .S.>./ k.u.n.x.x.N.x.x.x.l.F.-X;X;X;X;X*XXXXXXXXX,XXXd.z.x.x.x.x.x.x.x.x.x.x.x.x.x.x.N.N.x.x.x.x.x.x.x.x.",
"x.N.y.x.b.x.x.x.x.x.S.9. .{ ] a.u.n.x.x.x.x.x.v.G.L.-X;X;X;X#X#XXXXXXXXX|.+XG.l.x.N.x.x.x.x.x.x.x.x.x.x.x.N.>.>.y.x.x.x.x.x.x.x.",
"x.x.x.x.x.x.x.x.x.x.l.F #.#.:.f.n.x.x.x.x.x.l.G.-X=X;X;X1X#XF.H. X.X,X Xd.v.x.N.[  .b.x.x.b.N.x.x.N.x.x.x.y.y.y.x.x.x.x.x.x.x.x.",
"x.x.x.x.x.x.x.x.x.x.x.( W $.*.N.x.x.x.x.x.x.A.G.:X:X;X;X-X$XK.h. XXX X+XF.l.x.x.x.T x.S.N.z.k.b.x.u.x.x.x.x.n.N.x.x.x.x.x.x.x.x.",
"x.x.x.x.x.x.x.x.x.x.x.a.&.>.b.x.x.x.x.x.x.N.z.J.rXuX:X=XH.J.5X7X@X.Xg.v.| z.N.b.N.q.k.[ z. .[ S.y.y.n.x.x.x.x.x.x.b.x.x.x.x.x.x.",
"x.x.x.x.x.x.x.x.x.x.x.N.S.N.x.x.x.x.x.N.y.o.y.J.wXeX:X>XF.K.5X4X@X Xh.S. .[  .| x.) F ' v.k.G ..f.n.x.x.x.x.x.x.x.x.x.x.x.x.x.x.",
"x.x.x.b.x.x.x.x.x.x.x.x.x.x.x.x.x.x.x.N.y.y.=.j.}.}.}.}.qX9Xz z l l 7X3XS./ a.] W <.( -.p.k.! Q a.x.x.x.x.x.x.N.k.[ x.a.u.x.x.x.",
"x.x.x.2.x.x.x.x.x.x.x.x.x.x.x.x.x.x.x.x.x.b.n.j.D D D }.qX9Xk g g k 3X3Xb.&.a.N.#.+.%.a.N.k.} *.a.x.x.x.x.x.x.x.N.X.] S.a.x.x.x.",
"x.x.x.~ z.N.x.x.x.x.x.x.x.x.x.x.x.x.x.x.x.x.x.x.u.u.u.u.N.N.u.u.u.u.b.b.x.N.N.x.N.N.N.N.x.b.N.N.n.x.x.x.x.x.x.x.N.:.W >.a.x.x.x.",
"x.x.N.~ +.N.x.x.x.x.x.x.x.x.x.x.x.x.x.x.x.x.x.x.n.n.n.n.x.x.n.n.n.n.x.x.x.x.x.x.x.x.x.x.x.x.x.x.x.x.x.x.x.x.x.x.N. .E ;.u.x.x.x."
};
