/* XPM */
static char *f4e7ec62db5d483bf8bd0347779b6a09fopnYPqNdQicuO3J[] = {
/* columns rows colors chars-per-pixel */
"64 64 217 2 ",
"   c #164532",
".  c #1B4633",
"X  c #1E4B34",
"o  c #1E5D34",
"O  c #1F5634",
"+  c #214735",
"@  c #234D35",
"#  c #294A36",
"$  c #245235",
"%  c #285636",
"&  c #225B34",
"*  c #2C5B36",
"=  c #2D5C3A",
"-  c #305F37",
";  c #325F39",
":  c #1E6532",
">  c #1D6C34",
",  c #146E38",
"<  c #186E38",
"1  c #106D36",
"2  c #167434",
"3  c #1D7332",
"4  c #177F30",
"5  c #1B7B31",
"6  c #167239",
"7  c #1B723B",
"8  c #1A7A3E",
"9  c #216433",
"0  c #2D6435",
"q  c #216A33",
"w  c #2D6B35",
"e  c #286538",
"r  c #316237",
"t  c #326B35",
"y  c #346339",
"u  c #346A3B",
"i  c #3C6C3B",
"p  c #39693A",
"a  c #2C7B33",
"s  c #217C3D",
"d  c #277635",
"f  c #357535",
"g  c #357835",
"h  c #397C35",
"j  c #3E713A",
"k  c #416E3F",
"l  c #42733C",
"z  c #4D7C3D",
"x  c #396B44",
"c  c #257C41",
"v  c #4D7D41",
"b  c #4E784B",
"n  c #148C2F",
"m  c #198E2F",
"M  c #17872F",
"N  c #0D9C2D",
"B  c #16932F",
"V  c #19932F",
"C  c #139D2E",
"Z  c #19992E",
"A  c #178530",
"S  c #1A8330",
"D  c #178930",
"F  c #198B30",
"G  c #1F9130",
"H  c #258232",
"J  c #238C31",
"K  c #2A8C32",
"L  c #2A813D",
"P  c #338135",
"I  c #3B8335",
"U  c #3E8B35",
"Y  c #3B823A",
"T  c #338838",
"R  c #2A9431",
"E  c #239E30",
"W  c #2A9D30",
"Q  c #259731",
"!  c #359533",
"~  c #3A9434",
"^  c #359932",
"/  c #0FA12D",
"(  c #13A32E",
")  c #1BA32F",
"_  c #13A92D",
"`  c #1FA92F",
"'  c #24A72F",
"]  c #25AD2F",
"[  c #2BA230",
"{  c #26A930",
"}  c #2CAC30",
"|  c #36A332",
" . c #36AC31",
".. c #3BAC32",
"X. c #3DA333",
"o. c #35B131",
"O. c #3BB332",
"+. c #4D823E",
"@. c #458A3A",
"#. c #46893A",
"$. c #558A3F",
"%. c #58863F",
"&. c #459535",
"*. c #469A35",
"=. c #4A9D35",
"-. c #61963C",
";. c #4BA435",
":. c #4EAD35",
">. c #43A834",
",. c #50AE35",
"<. c #43B533",
"1. c #4BB533",
"2. c #46B933",
"3. c #4BBB33",
"4. c #53B335",
"5. c #54BD34",
"6. c #58BF35",
"7. c #5CB43D",
"8. c #6EBC3F",
"9. c #64BD3F",
"0. c #57C035",
"q. c #5BC335",
"w. c #5DCA35",
"e. c #5FD035",
"r. c #60C436",
"t. c #60C935",
"y. c #78C23E",
"u. c #61D135",
"i. c #328A41",
"p. c #4D814B",
"a. c #548443",
"s. c #588543",
"d. c #5C8D44",
"f. c #58874B",
"g. c #5A9442",
"h. c #569D59",
"j. c #489A52",
"k. c #608D44",
"l. c #629444",
"z. c #679A44",
"x. c #6A9C46",
"c. c #669449",
"v. c #6B9C49",
"b. c #669D5C",
"n. c #5DA94D",
"m. c #5BAB48",
"M. c #53A849",
"N. c #6EA246",
"B. c #6FA248",
"V. c #62AD4A",
"C. c #6BAC4B",
"Z. c #69A847",
"A. c #74AA46",
"S. c #72A749",
"D. c #74AD49",
"F. c #73A846",
"G. c #6CB646",
"H. c #6BBA41",
"J. c #65B349",
"K. c #68B346",
"L. c #71B546",
"P. c #73BC43",
"I. c #7CBE45",
"U. c #73B34B",
"Y. c #7CB44B",
"T. c #7FBB4B",
"R. c #76B548",
"E. c #63A556",
"W. c #6CAB53",
"Q. c #69A25A",
"!. c #65A458",
"~. c #75AC54",
"^. c #7AAA57",
"/. c #7CAC5C",
"(. c #70A25C",
"). c #75B152",
"_. c #7CB352",
"`. c #7CBA50",
"'. c #408865",
"]. c #699E64",
"[. c #7CC145",
"{. c #72C142",
"}. c #89CE2F",
"|. c #8FD23A",
" X c #90CB38",
".X c #A1DA35",
"XX c #83BB46",
"oX c #84BD4A",
"OX c #89BE4C",
"+X c #80AC5B",
"@X c #83B453",
"#X c #84B950",
"$X c #89BA51",
"%X c #88B751",
"&X c #83C245",
"*X c #8CC547",
"=X c #85C14A",
"-X c #89C14A",
";X c #8AC14A",
":X c #8BC34A",
">X c #8AC24A",
",X c #8AC349",
"<X c #8CC34B",
"1X c #8BC44A",
"2X c #8CC44A",
"3X c #8DC549",
"4X c #8AC14C",
"5X c #8BC34A",
"6X c #8EC84A",
"7X c #90C746",
"8X c #92C944",
"9X c #90C64A",
"0X c #91CA4B",
"qX c #91CA4C",
"wX c #99D24D",
"eX c #95D14B",
"rX c #93C950",
/* pixels */
":X:X:X$XR.8.9X:X:X:X:X:X:X:X:X:X:X:X:X:X:X:X:X:X:X:X:X:X:X:X:X:X:X:X:X:X:X:X:X:X:X:X:X:X:X:X:X:X:X:X:X:X:X:X:X:X:X:X:X:X:X:X:X:X",
":X:X1X/.].J.&X<X:X:X:X:X:X:X:X:X:X:X:X:X:X:X:X:X:X:X:X:X:X:X:X:X:X:X:X:X:X:X:X:X:X:X:X:X:X:X:X:X:X:X:X:X:X:X:X:X:X:X:X:X:X:X:X:X",
":X:X:X1X@XY.&X<X:X:X:X:X:X:X:X:X:X:X:X:X:X:X:X:X:X:X:X:X:X:X:X:X:X:X:X:X:X:X:X:X:X:X:X:X:X:X:X:X:X:X:X:X:X:X:X:X:X:X:X:X:X:X:X:X",
":X:X:X:X3X3X<X:X:X:X:X:X:X:X:X:X:X:X:X:X:X:X:X:X:X:X:X:X:X:X:X3XH.I.<X:X:X:X:X:X:X:X:X:X:X:X:X:X:X:X:X8X8X:X:X:X:X:X:X:X:X:X:X:X",
":X:X:X:X:X:X:X:X:X<X<X:X:X:X:X:X:X:X:X:X3X3X:XoX:X:X:X:X:X:X:X3XH.I.T.1X:X:X3X3X3X1X=X3X3X3X4X:X:X:X:X3X3X:X:X:X:X:X:X:X:X:X:X:X",
":X:X:X:X:X:X:X:X<X&X&X<X1X:X:X:X:X:X:X:XXXXXXXoXOX:X:X:X:X:X:X3XH.U.n.OX1X:XOXXXXXY.XXXXXXXXY.OX3X:X:X:X:X:X3X<X:X:X:X:X:X:X:X:X",
":X:X:X:X:X:X:X:X3X8.[.<XoX3X:X:X:X:X6XD.* % l 4X:X:X:X:X:X:X:X<X&XoX_.OX:X3Xi % * * * * = * % N.qX:X:X:X:X3XP.I.<X:X1X:X:X:X:X:X",
":X:X:X:X:X:X:X:X9XE.W.G.oX3X:X:X:X:XqXD.@ X i 3X3X3X:X:X<X<X1X:X3X3X3X3X3X3Xp X $ @ @ @ @ $ X x.qX:X:X:X:X3XP.P.P.4X:X:X:X:X:X:X",
":X:X:X:X:X:X:X:X3X).~.W.oX3X:X:X:XOX3XS.$ $ i :XI.oX<X3X=X=XOX:X:X:X:XOXOX4Xp $ % % % % % % $ x.3XOX:X:X:X:X3XJ.I.oXoX1X:X:X:X:X",
":X:X:X:X:X:X:X:X:X3X3X3X1X:X:XqXS.* ; w Z Z F ; * i :X=X7.U.$X:X:X:X4Xi = y F Z B B B B >.4.5.h * * x.qX:X:X3X!.W.n.OX1X:X:X:X:X",
":X:X:X:X:X:X:X:X:X:X:X:X:X:X:XqXB.X @ : ( ( B @ X p P.P.H.@X:X1X:X3X4X; X $ B ( ( ( ( ( 2.q.w.f X X z.qX:X:X3XoX#X_.OX1X:X:X:X:X",
":X:X:X:X:X<X:X1X=XoX3X:X:X:X:XqXB.@ $ q ( ( m % @ p K.Q.Q.<X:X:X:X:X4Xy $ % B ( C C C C <.0.q.f @ @ z.qX:X:X:X3X3X3X1X:X:X:X:X:X",
":X:X:X:X:X:X:X:XoXoX3X:X6XN.= y d B B E 5.3.3.,.4.;.= = x :X3XoXi r u ;.4.:.w & & & & & G ` ` q @ X z.qX:X:X:X:X:X:X:X:X:X:X:X:X",
":X:X:X3X:X:X3X:XT.oX3X:XqXz.. @ > _ ( { q.0.0.q.w.4.$ X y OX3XoX* X $ 4.w.0.0 @ $ $ $ @ A ( ( > @ X z.qX:X:X:X:X:X:X:X:X:X:X:X:X",
":X:XOXoX:X<X:X1X~._.3X:XqXx.X $ > ( C { q.0.0.0.q.,.% @ y :X3XoX= @ % 4.q.6.0 @ $ $ $ @ F _ _ > @ X z.qX:X:X:X:X:X:X:X:X:X:X:X:X",
":X:X:XoX:X:X:X1X~.^.3X:XqXx.X @ f 3.3.>.0 w w w w 0 $ $ % p p u F B m w t w F B V B n B > 9 o g.Y.A.XX3X:X:X:X:X:X:X:X:X:X:X:X:X",
":X:X:X:X:X:X:X3X#X@X3X<XqXx.X @ f q.q.;.@ @ @ @ @ @ $ $ $ @ @ O C ( C & @ @ B ( ( ( ( ( q # @ v.qX3X3X:X:X:X:X:X:X:X:X7X8X:X:X:X",
":X:X:X:X:X:X:X:X1X3X:XP.qXx.X @ f q.q.;.@ % $ $ @ $ @ @ @ @ @ $ Z ( C & @ $ B ( C C C ( > $ @ N.qX3X3X3X3X3X3X3X3X:X:X7X8X:X:X:X",
":X:X:X:X:X:X:X3X:X:X:X&X.Xv.X @ q [ [ K $ $ & F n J ;.;.;.;.;.;.q : q *.;.;.<.2.2.) C ( > @ $ p l i j j j j l p z.qX:X:X:X:X:X:X",
":X:X:X:X:X:X:XI.:X<X<XI.y.v.X $ : B B 4 $ @ q _ ( ` q.q.q.q.w.5.% @ $ 5.w.q.q.q.q.' C ( : @ $ @ X X X X X X @ . d.qX:X:X:X:X:X:X",
":X:X:X:X:X:X:XP.[.&X1X=XJ.g.X $ q V V S $ @ 9 C N ) 5.0.0.0.q.5.* $ & 4.q.0.0.0.0.] ( ( > @ $ $ $ $ $ @ $ @ @ . d.rX6X3X:X:X:X:X",
":X:X:X:X:X:XqXx.t j j l u 0 $ @ q V V S $ @ w 2.<.2.0.0.5.} } [ & $ % R [ [ 5.0.0.a : > & $ $ > S 5 S F A ! =.;.@.k l l.6X:X:X:X",
":X:X:X:X:X:XqXd.. @ @ X @ @ % @ q V V 5 $ @ t q.q.q.0.0.3.C N B & $ % M B n 1.0.0.t @ @ $ $ $ 5 Z V C _ / O.t.w.U . . a.qX:X:X:X",
":X:X:X:X3X6XwXd.. @ @ @ @ @ @ # q V V S @ @ t w.q.q.q.q.5._ ( C $ @ $ F V V 5.w.w.t @ $ @ @ @ 5 Z V C C N  .q.q.@.# @ s.wXqX3X:X",
":X:X:XqXx.l z #.*.*.*.*.=.T 5 5 3 q q > 5 5 d h h P } } [ 3 > 3 5 5 5 B Z Z P h h d 5 5 U *.*.a : : ! 2.O.3.0.q.X.4 S P z l l.3X",
":X:X:XqXa.  . U u.q.w.q.t.<.B Z 5 @ @ 9 V Z S @ @ o C N B $ # $ V V V C ( C o @ @ S Z B 2.w.w.f @ @ *.t.6.0.0.q.o./ _ S @ . v qX",
":X<XoX/.b $ @ U q.5.0.0.r.<.B Z 4 @ @ o V V S @ @ & _ _ C $ $ & m V V ( ( ( & @ @ S B n 1.r.q.f @ @ *.w.q.q.q.r.O./ _ S @ . v qX",
":X:X:X=Xa.X @ U w.0.<.} o.R > > a &.&.! Z Z V 3 3 3 3 3 > % $ & B Z B 5 3 3 3 3 3 | ....| |  .H 3 3 a I h ^ o.o.R 3 3 Y d.a.N.3X",
":X:X:X9.+.@ @ U q.6. .N / 4 # @ f w.t.3.( ( C V Z F @ @ @ $ $ & Z ( C & # @ F Z V 3.r.q.W n n B V V > @ + 2 / / 5 # @ s.qX3XqX:X",
":X:X:XV.x .   U u.t.O.C _ S $ @ f q.0.<.N C C n n A $ @ @ $ $ & C _ ( & @ $ F Z V 1.0.0.W n V V V V q # # 5 _ _ 5 .   v qX:X:X:X",
":X:X:X4XB.$.d.$.U @.R ( _ S @ @ f q.0.5.o.o.......| 3 3 > $ $ $ 3 5 5 3 3 3 3 q 3 :.q.0.[ B Z 5 > 3 3 5 5 5 5 5 Y d.$.N.3X:X:X:X",
":X:X:X:X6XqXwXd.. # 3 ( ( S $ @ f q.5.0.q.q.q.q.r.5.V V m $ $ $ @ @ $ m Z V & # @ ;.q.6.{ C _ > # # S _ _ 3 # @ k.wXqX3X:X:X:X:X",
":X:X:X:X:XOXqXd.  @ 5 _ _ S # + f t.q.q.0.0.0.0.0.3.V V m $ $ $ @ @ @ S V m & $ $ 4.w.w.] / _ > # # S _ _ 5 .   a.qXOX:X3X:X:X:X",
":X:X:X:X:X:X3XN.+.s.Y 4 5 5 3 3 J O.O.<.0.0.0.0.q.4.3 3 3 % $ % I I I V Z B & $ $ I &.&.H 4 4 3 3 3 5 5 4 Y %.+.N.3X:X:XOX:X:X:X",
":X:X:X:X:X<X:X8.*X2Xc.. # > _ ( ( C N ' 0.6.6.6.0.:.@ @ @ % $ * 0.w.q.) ( ( & @ $ @ @ @ @ @ # S _ _ > # . l.eX*X9X:X3XoX^.:X:X:X",
":X:X:X:X:X:X:X&XH.=Xc.X $ 3 ( C C ( C } w.w.w.q.w.4.% $ $ @ # % 4.0.5.) N C & @ $ $ @ $ @ @ @ A _ ( 3 @ X -.{.Y.<X1X:X=X:X=X:X:X",
":X:X:X:X:X:X9XD.#.l.l $ @ 3 ( C ( ( ( E *.*.*.*.*.U $ $ $ > > d 5.0.0. .}  .e @ $ q q > g h h H S S q $ @ #.{.U.Y.<X:X:X:X<X:X:X",
":X:X:X:X:X:XqXp.. X @ % @ 3 ( C C C ( D @ @ @ @ @ @ $ $ & ( ( ) 5.0.0.q.q.0.0 @ $ S Z B 2.w.w.f + @ $ % @ p.].V.Y.<X:X:X:X:X:X:X",
":X:X:X:X3XqXwXl.. % @ @ + > _ ( ( ( _ F @ @ @ @ @ @ $ $ & C C ) 0.q.q.q.q.0.0 @ $ S B n 1.r.q.g @ % @ @ . l.qX3X3X:X:X:X:X:X:X:X",
":X:X:X3XD.z.N.+.: q w f f a S S S S F 4 > > > > > q $ $ & C ( ) O.<.<.<.<.<.e @ $ K [ W O.<.2.d @ $ w g f $.N.z.Y.3X:X:X:X:X:X:X",
":X:X:XqXa.  @ 3 Z B  .w.w.*.@ $ @ $ # q ( ( ( ( ( B % $ & C ( C C C C C C C & $ $ :.w.q.{ N ( > $ @ *.w.w.I X . d.qX:X:X:X:X:X:X",
":X3X3XwXs.X # > B n | r.w.*.@ $ $ $ # : ( ( ( ( ( B @ @ O ( ( ( _ _ _ _ _ ( 9 @ $ ,.q.q.} ( _ > # @ *.q.q.I + . d.eX6X3X:X:X:X:X",
"3XY.z.F.#.: q H [ W  .2.3.~ o q 9 9 9 > F F F F F S f t f F F F F F F F F F & $ $ X.3.2.Q D F 3 9 o ! 3.2.~ t w $.A.N.Y.3X3X3X:X",
"qXv . @ 4 _ N o.q.q.O.N C Z V V V V V S @ $ @ $ @ 0 0.w.4.% @ $ $ $ $ @ @ @ $ $ $ n ( ( : @ @ 5 Z V Z ( N O.q.w.U . . a.qX*X*X:X",
"qXv . @ 4 _ / o.q.q.O.C ( Z m m V V V S @ $ $ % @ 0 6.q.4.$ @ @ $ @ @ $ $ $ $ $ @ B ( ( q @ @ 5 V m Z ( C O.q.q.U @ X a.qX:X:X:X",
"qXd.y i H B n ..q.q.O.C ( Z V V m S S 5 $ & $ $ @ 0 0.q.4.t t w & & & % $ $ $ & & S B B > & & S B B Z ( C O.q.w.U @ X a.3X:X:X:X",
":X3X:XqXa.X @ U q.q.O.C ( C C ( S @ $ o 6 6 > $ @ 0 0.0.0.0.q.5.V B V & $ $ < 6 6 & $ @ S V V Z ( C C ( C O.q.q.U @ X a.qX:X:X:X",
":X:X:XqXa.. X U w.q.O./ ( ( ( _ F @ $ & 6 6 > $ @ 0 0.q.q.0.q.5.V V m & $ $ < 6 6 & $ @ S V V C ( ( ( ( / O.q.w.U X . a.qX:X:X:X",
":X:X:XqXd.0 y @.4.4.| B B B B B 4 $ $ o 6 6 < $ $ e ,.,.4.3.3.2.V B V & $ $ < 6 6 o $ $ 5 F S m B B B B B | 4.4.@.; - d.qX:X:X:X",
":X:X:X3X4X X|.d.X % $ $ $ $ % $ & 6 6 6 8 8 8 6 6 < % $ & C ( C C ( C & $ $ < 6 6 6 6 6 & $ $ $ $ $ $ $ $ $ % X s.3X:X:X:X:X:X:X",
"<X:X:X:X<Xy.m.p.X $ @ @ @ @ @ @ o 6 6 6 8 8 8 6 6 < $ @ & C ( ( ( ( C & @ $ > 6 6 6 6 6 & @ $ @ @ @ @ @ @ @ $ . s.qX:X:X:X:X:X:X",
":X:X:X:X<X&X`.d.* y = - - - = - e 6 6 6 8 8 8 < < > $ $ & B Z B B Z B & $ $ < 6 6 6 6 6 o $ $ = r - - - - - r * l.qX:X3X8X:X:X:X",
":X:X:X:X:X<X3X:XOXOX:XOXOXOXOX<XC.8 8 8 8 8 7 $ $ & < 6 < $ % $ $ $ $ < 6 < 8 8 8 8 8 8 6 6 < Z.<XOXOXOXOXOXOXOX:X:X:X3X8X:X:X:X",
":X:X<X:X:X:X:X:X3X3X[.1X3X3X&XqXC.6 8 8 8 8 7 $ $ $ 6 6 < $ $ $ $ $ $ < 6 6 8 8 8 8 8 8 6 6 , Z.qX:X3X3X3X3X1X3X1X:X:X:X:X:X:X:X",
":X:X:X:X:X:X:X:X:X<XP.P.3X_.m.:XC.8 L s 8 8 7 $ $ $ 6 6 < $ $ $ $ $ $ > < < 8 8 8 8 8 8 8 s 7 Z.9X:X:X:X:X:X3X3X:X:X:X:X:X:X:X:X",
":X3XoX:X<X:X:X:X:X:X9X}.I.J.G.@XoXoX:XC.8 8 7 $ $ & 8 8 8 < < < < < < $ $ $ 7 8 8 8 8 8 C.:XoX:X:X:X:X:X:X3X_._.OX:X:X:X:X:X:X:X",
":X:X:X:X:X:X:X:X:X:X*X7.W.W.).%X1X<XqXU.8 8 7 $ @ $ 8 8 8 6 6 6 6 6 6 $ $ $ 7 8 8 8 8 8 U.qX3X:X:X3X:X:X:XXXoXoX:X:X:X:X:X:X:X:X",
":X:X:X:X:X:X:X:X:X:X:Xn.h.Q.~.3X:X:X9XU.8 8 s % % & 8 8 8 6 6 6 6 6 6 $ $ $ 7 8 8 8 s c U.1XI.:X:XOX:X:X:X:X1X3X:X:X:X:X:X:X:X:X",
":X:X:X:X:X:X:X:X:X:X:X@XW._.<X:X:X:X<X:XT.T.T.Y.XXD.8 8 8 8 8 8 8 8 8 6 < 7 D.oXXX.XI.7.=XI.H.9XoXoX1X:X:X:X:X:X:X<X:X:X:X:X:X:X",
":X:X:X:X:X:X:X:X:X:X:X3X9X3X:X:X:X:X:X3X:XoX4X3XqXT.8 8 8 8 8 8 8 8 8 , 1 7 L.[.<XU.7.H.4X&X7.U.$X1X:X:X:X:X:X:X:X:X<X:X:X:X:X:X",
":X:X:X<X:X:X:X:X:X:X:X:X:X:X:X:X:X:X:X<XOXoX^.:X3XoXi.i.i.i.i.i.i.i.i.T L c ~.L.h.'.h./.+X&XM.b.@X:X:X:X:X:X:X3X=XH.:X@XOX:X:X:X",
":X:X:X[.:X:X:X:X:X:X:X:X:X:X:X:X:X:X:X:X:X<X:X:X:X:X3X3X3X3X3X3X3X3X3X3X3XW.#X3XW.E.Q.@X3X&XV.~.@X:X:X:X:X:X:X:X3XR.G.9X@X:X:X:X",
":X:X:Xn.=X3X:X:X:X:X:X:X:X:X:X:X:X:X:X:X:X:X:X:X:X:X:X:X:X:X:X:X:X:X:X:X:X3X3X:X3X3X3X3X:X<X3X3X1X:X:X:X:X:X:X:X3X).h._.@X:X:X:X",
":X:X3Xm.E.3X:X:X:X:X:X:X:X:X:X:X:X:X:X:X:X:X:X:X:X:X:X:X:X:X:X:X:X:X:X:X:X:X:X:X:X:X:X:X:X:X:X:X:X:X:X:X:X:X:X:X3XI.j.(.OX:X:X:X"
};
