/* XPM */
static char *_306fbdcebcb4a26fc705725a397046fBXTc4n58PATU1E0o[] = {
/* columns rows colors chars-per-pixel */
"64 64 227 2 ",
"   c #174632",
".  c #1A4633",
"X  c #1E4B34",
"o  c #1E5D34",
"O  c #1E5334",
"+  c #214735",
"@  c #234D35",
"#  c #284D36",
"$  c #264E38",
"%  c #245235",
"&  c #295436",
"*  c #225B35",
"=  c #2C5B36",
"-  c #2C5A38",
";  c #285138",
":  c #315D39",
">  c #305F37",
",  c #0E6B36",
"<  c #1C6436",
"1  c #136E37",
"2  c #1D6B33",
"3  c #166F38",
"4  c #196D38",
"5  c #167037",
"6  c #1D7332",
"7  c #1C7B31",
"8  c #177238",
"9  c #19743A",
"0  c #1A7A3E",
"q  c #167E30",
"w  c #216334",
"e  c #2D6336",
"r  c #216B33",
"t  c #2F6B36",
"y  c #2E6138",
"u  c #256B38",
"i  c #336E35",
"p  c #346339",
"a  c #39653A",
"s  c #3C6C3B",
"d  c #336638",
"f  c #247E33",
"g  c #2B7B34",
"h  c #20773A",
"j  c #237A3B",
"k  c #287635",
"l  c #347335",
"z  c #3A7C36",
"x  c #3D723B",
"c  c #367D38",
"v  c #43733C",
"b  c #4B7C3D",
"n  c #45793C",
"m  c #507E3D",
"M  c #2D6141",
"N  c #4D7D41",
"B  c #487544",
"V  c #507F41",
"C  c #416A44",
"Z  c #16842F",
"A  c #168D2F",
"S  c #198D2F",
"D  c #18822F",
"F  c #0E9D2E",
"G  c #16942F",
"H  c #19932F",
"J  c #139D2E",
"K  c #18992E",
"L  c #168430",
"P  c #1A8430",
"I  c #1A8A30",
"U  c #1C9330",
"Y  c #258134",
"T  c #2A8234",
"R  c #358134",
"E  c #3E8A35",
"W  c #3B8736",
"Q  c #2E9332",
"!  c #259B30",
"~  c #2D9E31",
"^  c #369833",
"/  c #0FA22D",
"(  c #14A32E",
")  c #1CA32F",
"_  c #13AA2D",
"`  c #1EA82F",
"'  c #21A62F",
"]  c #27AD2F",
"[  c #26A830",
"{  c #2BAB30",
"}  c #34A631",
"|  c #33AB31",
" . c #3CAB32",
".. c #38A332",
"X. c #2FB030",
"o. c #36B231",
"O. c #3BB232",
"+. c #3DB932",
"@. c #418D35",
"#. c #4D843F",
"$. c #468939",
"%. c #52853F",
"&. c #598C3F",
"*. c #56893F",
"=. c #439335",
"-. c #4B9E35",
";. c #479D35",
":. c #57923F",
">. c #4BA335",
",. c #4EAB35",
"<. c #45A934",
"1. c #54AD3B",
"2. c #43B533",
"3. c #44B833",
"4. c #4CBC33",
"5. c #53B235",
"6. c #53BD34",
"7. c #59BB36",
"8. c #5BB53C",
"9. c #7AAE3D",
"0. c #6EBC3F",
"q. c #72BE3D",
"w. c #7CB03D",
"e. c #56C135",
"r. c #5BC335",
"t. c #5ECB35",
"y. c #5FD035",
"u. c #61C436",
"i. c #60C935",
"p. c #77C23D",
"a. c #548442",
"s. c #5B8D42",
"d. c #578943",
"f. c #5D9241",
"g. c #529A45",
"h. c #5A9D46",
"j. c #469657",
"k. c #549C58",
"l. c #4F9844",
"z. c #629443",
"x. c #659944",
"c. c #6B9E46",
"v. c #60974D",
"b. c #669D5C",
"n. c #5DA94D",
"m. c #56A948",
"M. c #5FB244",
"N. c #59A254",
"B. c #49A347",
"V. c #64A544",
"C. c #6DA345",
"Z. c #6BAB44",
"A. c #67AD49",
"S. c #71A645",
"D. c #75A947",
"F. c #72A548",
"G. c #76AA49",
"H. c #79AC48",
"J. c #78AE46",
"K. c #65B444",
"L. c #6BB345",
"P. c #6ABA41",
"I. c #67B248",
"U. c #6BB14C",
"Y. c #68B84C",
"T. c #71B646",
"R. c #7BB246",
"E. c #73BC43",
"W. c #7CBE45",
"Q. c #74B44B",
"!. c #7CB44B",
"~. c #7EB949",
"^. c #74B849",
"/. c #63A654",
"(. c #6CAB53",
"). c #64A35A",
"_. c #6DA85A",
"`. c #68A459",
"'. c #72AC54",
"]. c #7CAB5B",
"[. c #77A858",
"{. c #6FB151",
"}. c #75B152",
"|. c #7CB353",
" X c #7EB850",
".X c #418965",
"XX c #6B9D65",
"oX c #7DC044",
"OX c #6AC341",
"+X c #87BB37",
"@X c #89CE2F",
"#X c #85CC36",
"$X c #91CD39",
"%X c #96D23B",
"&X c #B3E62E",
"*X c #80AF42",
"=X c #82BD46",
"-X c #81B74B",
";X c #84BD4B",
":X c #89BE4C",
">X c #81AD59",
",X c #84B453",
"<X c #85B950",
"1X c #89B853",
"2X c #83C246",
"3X c #8DC646",
"4X c #86C04A",
"5X c #8BC34A",
"6X c #89C14A",
"7X c #8CC34B",
"8X c #8DC34A",
"9X c #8BC44A",
"0X c #8CC44A",
"qX c #8EC549",
"wX c #8DC34C",
"eX c #8BC34A",
"rX c #8FC84B",
"tX c #8FC84B",
"yX c #90C746",
"uX c #93CA44",
"iX c #91C64A",
"pX c #91C94B",
"aX c #92CA4B",
"sX c #97D04C",
"dX c #98D24D",
"fX c #9BD144",
"gX c #8EC256",
/* pixels */
"5X5X5X1X^.0.iX5X5X5X5X5X5X5X5X5X5X5X5X5X5X5X5X5X5X5X5X5X5X5X5X5X5X5X5X5X5X5X5X5X5X5X5X5X5X5X5X5X5X5X5X5X5X5X5X5X5X5X5X5X5X5X5X5X",
"5X5X9X].XXI.2X7X5X5X5X5X5X5X5X5X5X5X5X5X5X5X5X5X5X5X5X5X5X5X5X5X5X5X5X5X5X5X5X5X5X5X5X5X5X5X5X5X5X5X5X5X5X5X5X5X5X5X5X5X5X5X5X5X",
"5X5X5X9X,X!.2X7X5X5X5X5X5X5X5X5X5X5X5X5X5X5X5X5X5X5X5X5X5X5X5X5X5X5X5X5X5X5X5X5X5X5X5X5X5X5X5X5X5X5X5X5X5X5X5X5X5X5X5X5X5X5X5X5X",
"5X5X5X5XqXqX7X5X5X5X5X5X5X5X5X5X5X5X5X5X5X5X5X5X5X5X5X5X5X5X5X7XP.W.wX5X5X5X5X5X5X5X5X5X5X5X5X5X5X5X5XuXuX5X5X5X5X5X5X5X5X5X5X5X",
"5X5X5X5X5X5X5X5X5X7X7X5X5X5X5X5X5X5X5X5X5X7X5X;X5X5X5X5X5XqXqXiXP.W.~.9X5X5X5X5XqX5X;X7X5X5X;X5X5X5X5XqXqX5X5X5X5X5X5X5X5X5X5X5X",
"5X5X5X5X5X5X5X5X7X2X2X7X9X5X5X5X5X5X5X5X5X5X;X;X;X5X5X5X5X-X-X:XP.Q.n.:X9X5X5XqX4X;X4X5X3X4X;X5X5X5X5X5X5X5XqX7X5X5X5X5X5X5X5X5X",
"5X5X5X5X5X5X5X5XwX0.oXwX;X9X5X5X5X5X5X5X5X5X5X4X5X5X5XtXG.- & v 2X;X|.:X9X5X5X;X;X5X5X5X3X;X5X5X5X5X5X5X5XqXE.W.7X5X9X5X5X5X5X5X",
"5X5X5X5X5X5X5X5XiX/.(.L.;XqXqXqXqXqXqXqX5X5XqX9XqXqX5XpXG.@ X s iXqXqXqX5X5X5X5X5XqX5X5X5X5X5XqXqXqX5X5X5XqXE.E.E.5X5X5X5X5X5X5X",
"5X5X5X5X5X5X5X5XqX}.'._.;X5X;X;X;X;X;X5X5X5X5X7X2X4X:XqXC.% % s 5X;X;X5X5X5X5XqX5X5X5X5X5X5X5X:X;X;X5X5X5X5XqXI.W.;X;X9X5X5X5X5X",
"5X5X5X5X5X5X5X5X5XqXqX7XaXs.- p > p - s.pX5X5X7X2Xh.= : u K K I : = v 5X5X5X5X5X5X7X5X7X5X5XwXv - p R.qX5X5XqX)._.n.:X9X5X5X5X5X",
"5X5X5X5X5X5X5X5X5X5X5X5XaXd.. % @ % . d.pX5X5X5XpX9.X @ < _ _ H @ X p 5X9X7X5X;X;X5XqXoX2XqXwXp X ; H.tX5X5XqX;X<X|.:X9X5X5X5X5X",
"5X5X5X5X5X7X5X9X4X;X7X5XaXd.X & ; & X d.pX5X5X5XpX9.@ ; r ( ( S ; @ a 5X5X5X2XqX5X5X7Xq.oX7XwXa @ & R.qX5X5X5XqXqXqX9X5X5X5X5X5X",
"5X5X5X5X5X5X5X7X-X6Xs.= a f G H H H G f a = d.qXtXv.@ @ t 4.6.2.H G I p p v q.2XwXqXp.E.v y p I G H t p p H.qX5X5X5X5X5X5X5X5X5X",
"5X5X5XqX5X5XqX5X~.6Xa.. @ q _ ( ( ( _ q @ X N pXtXF.@ @ i r.r.4.( _ G % X : 3X#X4X2X1.(.p X % G _ ( o @ X D.pX5X5X5X5X5X5X5X5X5X",
"5X5X;X;X5X7X5X9X'.,Xa.X @ q _ J ( J _ q @ X N pXpXF.@ @ i r.r.4.J ( H & @ p qX#XW.uXW._.p @ % H ( J w ; ; D.pX5X5X5X5X5X5X5X5X5X",
"5X5X5X;X5X5X5X9X'.[.=XS.R.#.o o Q 4.4.} A H Y a s p ; @ i r.r.6.4.4.<.& @ p :X).'.v p d >.,.,.) ( ( w @ % D.pX5X5X5X5X5X5X5X5X5X",
"5X5X5X5X5X5X5XqX<X,XqXiXaXd.X @ @.t.r.O./ _ L @ X @ & @ i r.r.r.r.r.5.& X p <X_.!.= X & 6.t.r.) J ( w @ % D.pX5X5X5X5XyXuX5X5X5X",
"5X5X5X5X5X5X5XqXtXpXqXE.aXd.X @ E t.r.O.J ( P @ ; ; ; @ i r.r.r.r.r.5.& X p 7XaX5X: @ & 5.r.6.) F J w @ % G.pX5X5X5X5XyXuX5X5X5X",
"5X5X5X5X5X5XaXs.s v s i v p % @ f ] [ ) J _ P @ @ r S I U [ [ [ [ ] ! & % & s s x I A I 6.r.r.4.3.3.e @ ; D.wX7X7X5X5X5X5X5X5X5X",
"5X5X5X5X5X5XaXv . @ X @ X % & @ 7 / J J J _ P @ @ 2 _ ( ( J J J J ( H & ; % X X O J _ ( 6.r.r.r.r.r.t @ ; +XfXW.5XqX5X5X5X5X5X5X",
"5X5X5X5XqXqXaXb @ ; @ @ @ @ @ # 7 _ ( ( ( _ P # # 2 _ ( ( _ _ ( ( _ G ; @ ; & ; = K ( ( 6.r.r.r.r.r.t @ % *X%XI.;X:X5X5X5X5X5X5X",
"5X5X5XwXs.x n T A L ^ -.-.Q L I 7 2 2 2 2 2 6 7 7 7 2 2 2 2 2 2 2 2 2 7 7 7 % ; * K ( ( [ [ [ c l l = % % G.{.'.,X,XqX5X5X5X5X5X",
"5X5X5XiXv   X Z _ / +.t.t.o.( _ 7 # ; @ @ # r K K 7 # @ @ @ @ @ @ # * H H S % ; * K ( J J J J o @ @ % % ; V.B.'.<X:X5X5X5X5X5X5X",
"5XtXpXdXB @ # P ( F O.u.u.| F ( 7 # ; ; ; @ r H H 7 # ; @ @ @ ; & % * S H P ; @ % J _ _ ( ( ( * @ ; @ @ $ Z.Y.|.qX5X5X5X5X5X5X5X",
"wXs.n b T L P G ( J ' { { o.2.3.Q 7 7 r ; @ 2 J K H 7 7 7 7 7 6 ; ; * K J G 7 7 7 6 6 2 2 2 2 7 7 7 7 7 7 n m b H.qX5X5X5X5X5X5X",
"aXs . @ A _ ( ( J J J J F O.u.u. .H K 7 @ @ 2 _ ( J H H H H H P ; ; * ( ( ( H H S ; @ @ @ @ @ S K H H H H o X X c.qX5X5X9XqX5X5X",
"aXs . @ A _ ( _ _ _ ( ( J O.r.r. .H K 7 @ @ 2 / F J A A A H H P @ # * J F J S H S % ; ; ; @ ; P H S S S H * @ X F.dXpXqX5X;X5X5X",
"qXC.f.:.c 6 7 6 7 6 A ( J O.r.r.^ < r w ; @ k +.O.O. .O.^ 2 r 2 7 7 Y O.O.o.K K G % ; % 6 7 7 G K K K K K ^ =.=.#.%.b J.<X[.;X5X",
"5XpXpXOXx + # @ @ # q ( J  .7.r.E + ; ; & @ z i.r.r.r.t.>.@ @ * H H ! r.r.6.( ( K * ; % S H H J ( ( ( ( ( 4.i.t.l . X x.6X;X5X5X",
"5X5X5XA.M . X X X . D _ / +.i.t.@.+ ; ; & @ z i.r.r.r.t.,.@ @ * H H ! r.r.6.( _ J % # ; S H H ( _ _ J F F 3.r.r.l # @ c.dXpXqX5X",
"5X5X5X5Xx.*.d.d.&.s.R 7 7 T @.E g 6 7 r ; @ k o.o...E E R 6 6 6 6 2 f | o.} 7 7 7 6 6 6 6 6 6 7 7 7 } O.o.6.r.r.Q 7 7 $.d.%.H.qX",
"5X5X5XqXpXaXpXpXqXdXa.. ; @ @ + 2 K K 7 ; ; 2 F / L @ @ o K K P @ @ * J F G ; # ; H K H % # @ @ @ @ ,.r.r.r.e.r.] / _ 2 @ . z.pX",
"5X5X5X5X5X5X5XqXtXdXa.. ; @ @ # r H H 6 # # 2 _ _ I @ @ o A A q @ # * ( _ K ; @ % S H S * ; % X X X ,.t.r.r.r.u.[ J ( 2 @ . z.pX",
"5X5X5X5X5X5XqXC.&.z.c 2 r 6 7 6 P K K I 6 7 7 q 7 f E W E } } ~ 7 7 7 q q 7 2 2 6 G K G * ; & b %.%.$.@.@. .O.O.' J ( E a.#.D.qX",
"5X5X5X5X5X5XtXx   X 7 K H J _ _ ( ( ( ( ( _ P # @ l t.r.r.r.u.4._ _ G @ # % H H H ( ( J * ; - -XaXaXs . @ A / J J J J K.1XtXqX5X",
"5X5X5X5XpXpXdXb X # 7 H S G ( J J F F ( ( _ P @ @ l r.r.r.e.r.4.F F G % ; * S H H J ( K O @ $ -XaXaXa . @ H _ ( _ ( / M.7X;X5X5X",
"5X5X5XqXS.z.x.c < r P K G J ( J ' | { ! q P 7 r < T 3.O.3.r.r.6.{ { ~ & ; * G G G J ( J R z z f.x.x.d.b B Y D P P P q Z.iX5X5X5X",
"5X5X5XaXv . @ q K H K ( ( ( J F o.u.t.@.+ # r K H G J F ' r.e.r.r.r.5.& ; * J ( ( ( ( ) e.t.r.* . X !.aXgXC + ; @ ; @ x.pX5X5X5X",
"5X5X5XaXv . @ q K H K ( ( ( ( F o.t.t.=.@ @ r K H G ( J [ r.r.r.r.t.5.; @ * ( _ _ J F ( 6.r.6.y # ; !.aXaXs   X X X . x.pX5X5X5X",
"5X5X5XwXs.v b g q 7 H ( J ( ( ( ~ -.>.R o * 2 q 7 P ( J ' 3.2.2.;.-.=.* * < P P I [ [ { 6.r.7.k 2 r f.c.C.a.v n n n v D.tX5X5X5X",
"5X5X5X5XqXtXdXN X # P _ J J J _ 7 @ @ o 9 9 < @ # 2 _ J ( J / A @ @ O 8 9 3 ; @ - 7.r.r.r.r.e.` ( _ o X X G.aXqXpXpXpXqX5X5X5X5X",
"5X7X5X5X5X:XuXb   @ D _ ( _ ( _ 7 @ ; o 8 8 < ; @ 2 _ J ( ( ( H ; ; * 8 8 4 ; @ - 6.t.r.r.r.r.) J ( * @ @ H.sXqX5X5X5X5X5X5X5X5X",
"5X5X;X;X5X5XaXs.s v T A I I I S 6 % * < 8 8 < ; @ 2 _ J ( J ( H ; ; % 8 8 3 * * w ;.>.>.3.3.3.) J ( 6 < < z.w.S.-XqX5X5X5XqXqX5X",
"5X5X5X4X;X5X5XqXqXaXa.X ; @ ; @ < 9 8 8 8 8 < ; @ 2 ( J J J ( A ; ; % 8 8 8 8 8 3 % @ % G ( J J J J ( ( _ < @ X C.pX;X4X5X3X3X5X",
"5X5X5XqXqX5X5X5X5XaXN . @ @ ; @ < 8 8 8 8 8 < ; @ 2 _ ( ( ( _ H ; ; % 8 8 8 8 8 1 % ; & K _ ( _ _ _ _ ( _ < @ X c.wX5X5X5X5X5X5X",
"5X5X5X5X5X5X5X5X5XaXf.p s y o % < 9 8 8 8 9 4 * % 2 H S A A H P * * o 8 8 8 8 8 8 o % * I H S A A A A H H l s p D.qX5X5X;X5X5X5X",
"5X5X5X5X5X5X5X5X5X5XqX9XaXg., 8 9 0 0 0 0 0 9 8 8 < @ ; ; ; @ % 8 8 8 0 0 0 0 0 0 8 8 8 % ; ; ; ; ; ; ; @ G.aX9XqX5X5X5X5X5X5X5X",
"5X5X5X5X5X5X5X5X5X5X5X5XaXg., 8 9 0 0 0 0 0 0 8 9 < ; ; ; ; ; * 8 8 8 0 0 0 0 0 0 8 8 3 % ; ; @ @ @ @ @ @ C.2X7X5X5X5X5X5X5X5X5X",
"5X5X5X5XqXW.2XwX9X9X5X5XaXg., 8 9 0 0 0 0 0 9 4 3 < % % % % % * 4 4 3 0 0 0 0 0 0 8 8 8 * % % p p y y e p Z.p.7X:X<X9X5X5X5X5X5X",
"5X5X5X9X5X$X#X5X:X:X9X5XaXg., 8 9 0 0 9 8 8 < ; ; * 8 8 8 8 8 4 ; ; * 0 0 0 0 0 0 0 0 0 8 8 8 Z.!.k.8.^.<X2X7.~.,X5X5X5X5X5X5X5X",
"7X5X5X5XwXp.m.|.>X;X9X5XaXl., 1 9 0 0 9 8 9 < ; ; * 8 8 8 8 8 4 ; ; * 0 0 0 0 0 0 0 0 0 8 8 9 L.k.j./.,XwXoX5.(.<X9X5X5X5X5X5X5X",
"5X5X5X5X7X2XQ.,X:XqX5X5XaXh.9 j j 0 0 9 4 3 < % % o 8 8 8 8 8 3 % % * 0 0 0 0 0 0 0 0 0 8 8 9 ~. X'.|.5XqX4XE.;X7X5X5XqXuX5X5X5X",
"5X5X5X5X5X7XqXqX9X5XqX5X5X5X;XqXh.1 9 < ; ; o 8 1 8 0 0 0 0 0 0 3 8 4 % ; * 0 0 0 8 8 8 8 8 9 ~.pXqXqX5X5X7XqXqX5X5X5XqXuX5X5X5X",
"5X5X7X5X5X5X5X5X5X7XW.5X5XqX2XpXh., 8 < @ @ o 8 8 9 0 0 0 0 0 0 8 8 3 ; ; % 0 0 0 8 3 3 8 1 8 ~.qX5X5X5X5X5X5X5X5X5X5X5X5X5X5X5X",
"5X5X5X5X5X5X5X5X5X7XE.W.iX|.m.9Xh.8 j u = = w 8 8 9 0 0 0 0 0 0 8 8 4 ; ; % 0 0 0 h h h j 9 j ~.qX5X5X5X5X5XqXqX5X5X5X5X5X5X5X5X",
"5XqX;X5X7X5X5X5X5X5XiX@XW.I.L.<X;X;X;X;X-X5XV.1 8 9 0 0 0 0 0 0 8 8 3 % ; % 8 8 j ~.;X;X;X;X;X5X5X5X5X5X5XqX|.|.;X5X5X5X5X5X5X5X",
"5X5X5X5X5X5X5X5X5X5X3X8.(.(.}.1XqXqXqXqX9XaXA., 8 8 0 0 0 0 0 0 8 8 4 % % % 3 1 h ~.qXqXqXqXqX5X5XqX5X5X5X-X;X;X5X5X5X5X5X5X5X5X",
"5X5X5X5X5X5X5X5X5X5X5XN.k.`.[.qX5X5X5X5X5XpXZ.8 9 9 0 0 0 0 0 0 9 9 9 & - = 9 8 j q.qXqX7X4XW.7X5X:X5X5X5X5X9XqX5X5X5X5X5X5X5X5X",
"5X5X5X5X5X5X5X5X5X5X5X,X_.|.7X5X5X5X5X5X5XqX4X~.~.~.~.T.-X~.=X=X~.~.~.-XL.R.-X~.=X&X2XP.4XW.P.iX;X;X9X5X5X5X5X5X5X7X5X5X5X5X5X5X",
"5X5X5X5X5X5X5X5X5X5X5XqXiXqX5X5X5X5X5X9X;X~.5XqXqXqXqXiXqXqXuXiXqXqXqXqX2XE.oXE.qXU.8.K.5X2X8.Q.1X9X5X5X5X5X5X5X5X5X7X5X5X5X5X5X",
"5X5X5X7X5X5X5X5X5X5X5X5X5X5X5X5X5X5X5XqX;X;X].5X5X5X5X5X5X5X9X5X5X5X5X5X5XM.-XT.k..XN.].>X2XB.b.,X5X5X5X5X5X5XqX2XP.5X<X:X5X5X5X",
"5X5X5XoX5X5X5X5X5X5X5X5X5X5X5X5X5X5X5X5X5X7X5X5X5X5X5X5X5X5X5X5X5X5X5X5X5X(.,XqX(./.`.,XqX2XA.[.<X5X5X5X5X5X5X5XqX^.L.iX,X5X5X5X",
"5X5X5Xn.4XqX5X5X5X5X5X5X5X5X5X5X5X5X5X5X5X5X5X5X5X5X5X5X5X5X5X5X5X5X5X5X5XqXqX5XqXqXqXqX5X7XqXqX9X5X5X5X5X5X5X5XqX}.k.|.,X5X5X5X",
"5X5XqXn./.qX5X5X5X5X5X5X5X5X5X5X5X5X5X5X5X5X5X5X5X5X5X5X5X5X5X5X5X5X5X5X5X5X5X5X5X5X5X5X5X5X5X5X5X5X5X5X5X5X5X5XqXW.j._.:X5X5X5X"
};
