/* XPM */
static char *princess_eight_xpm1739227854[] = {
/* columns rows colors chars-per-pixel */
"64 64 214 2 ",
"   c #060606",
".  c #07180B",
"X  c #160E11",
"o  c #230E18",
"O  c #24181C",
"+  c #1F271D",
"@  c #21271E",
"#  c #321824",
"$  c #32292A",
"%  c #787F79",
"&  c #BD1C6E",
"*  c #B82A6B",
"=  c #B8246C",
"-  c #B43969",
";  c #B0386C",
":  c #C11C6F",
">  c #C11E72",
",  c #D3397D",
"<  c #AE4068",
"1  c #837E6B",
"2  c #C8467F",
"3  c #D3487D",
"4  c #C8517B",
"5  c #5CB63C",
"6  c #57B539",
"7  c #6DBC3E",
"8  c #65B83C",
"9  c #71BE3D",
"0  c #7DCA2F",
"q  c #74C13D",
"w  c #7BC33C",
"e  c #3D9455",
"r  c #469658",
"t  c #579C58",
"y  c #4C984B",
"u  c #649C5E",
"i  c #5DAA4B",
"p  c #56A848",
"a  c #59A254",
"s  c #4FA648",
"d  c #64AD4D",
"f  c #6FAE4E",
"g  c #65B444",
"h  c #6BB645",
"j  c #6CBA41",
"k  c #68B14A",
"l  c #73BC43",
"z  c #7BBE45",
"x  c #74B44C",
"c  c #74B849",
"v  c #7CBA4A",
"b  c #79B54D",
"n  c #63A654",
"m  c #6CAC53",
"M  c #66A359",
"N  c #68A757",
"B  c #73AD54",
"V  c #7AAB56",
"C  c #78A85B",
"Z  c #75B151",
"A  c #7BB352",
"S  c #418965",
"D  c #7B8275",
"F  c #6B9D65",
"G  c #7CB26D",
"H  c #76AF76",
"J  c #6FB47E",
"K  c #75B175",
"L  c #7BB272",
"P  c #73B47C",
"I  c #7AB87B",
"U  c #7BA860",
"Y  c #7DC143",
"T  c #77C040",
"R  c #99BE3C",
"E  c #D59F0E",
"W  c #C89C11",
"Q  c #CDA60B",
"!  c #D6A505",
"~  c #DBA402",
"^  c #D4A50A",
"/  c #DAAA08",
"(  c #CBA312",
")  c #D7A114",
"_  c #E1AC05",
"`  c #E5B30E",
"'  c #84C63C",
"]  c #92CD3A",
"[  c #9AD23C",
"{  c #8DD22E",
"}  c #A7DD34",
"|  c #B1E42E",
" . c #EEDC2C",
".. c #F3DE2A",
"X. c #F4DE26",
"o. c #EBDE3C",
"O. c #E5DA38",
"+. c #F1DD33",
"@. c #F6E22C",
"#. c #FAE52C",
"$. c #FBEA2D",
"%. c #FAE626",
"&. c #FEF22E",
"*. c #ECE234",
"=. c #ECE239",
"-. c #EFE93A",
";. c #E7E139",
":. c #F4E434",
">. c #FDEE32",
",. c #F3E33A",
"<. c #FBE63B",
"1. c #F3EB3A",
"2. c #FEEB3A",
"3. c #F9E931",
"4. c #FFF131",
"5. c #84BD4C",
"6. c #8BBD4D",
"7. c #89B64C",
"8. c #91B24D",
"9. c #90BD4F",
"0. c #98B94A",
"q. c #86AD57",
"w. c #96A656",
"e. c #84B553",
"r. c #85B851",
"t. c #8BBB52",
"y. c #86B359",
"u. c #93BD53",
"i. c #9ABC5A",
"p. c #97B65A",
"a. c #95AE4B",
"s. c #84856E",
"d. c #9FB861",
"f. c #81B574",
"g. c #83AE6D",
"h. c #A3B564",
"j. c #83C245",
"k. c #8BC547",
"l. c #86C14A",
"z. c #8BC34A",
"x. c #8DC945",
"c. c #92C244",
"v. c #93CA43",
"b. c #90C44C",
"n. c #97C747",
"m. c #8BC251",
"M. c #87C152",
"N. c #91C151",
"B. c #98C156",
"V. c #A4CD42",
"C. c #92E57F",
"Z. c #E8DD44",
"A. c #FEDC57",
"S. c #FEE543",
"D. c #FDE545",
"F. c #E8E143",
"G. c #D93B84",
"H. c #CA4880",
"J. c #DA4A89",
"K. c #E2418A",
"L. c #DB6999",
"P. c #D66D96",
"I. c #DA7C9A",
"U. c #DA7899",
"Y. c #E1679E",
"T. c #E5779C",
"R. c #DD75A2",
"E. c #E46EA3",
"W. c #E86DA6",
"Q. c #E573A5",
"!. c #E776A9",
"~. c #E974AA",
"^. c #6AAF86",
"/. c #73AE88",
"(. c #64B284",
"). c #69B385",
"_. c #68B288",
"`. c #76B288",
"'. c #E79DAF",
"]. c #EF8EBB",
"[. c #F38DBE",
"{. c #EC99BB",
"}. c #F292BC",
"|. c #F49BBD",
" X c #F99FBD",
".X c #FFADAD",
"XX c #EDA2B6",
"oX c #EDA3B8",
"OX c #FFA9B4",
"+X c #F3A1BD",
"@X c #FEA3BD",
"#X c #F8AAB9",
"$X c #E7A7AA",
"%X c #9BF585",
"&X c #B2F793",
"*X c #A8EC8C",
"=X c #C3F89B",
"-X c #C7FCA0",
";X c #EF97C0",
":X c #F797C0",
">X c #FB96C5",
",X c #F39CC4",
"<X c #FC9CC6",
"1X c #FE97CB",
"2X c #FF9CCB",
"3X c #FF9AD0",
"4X c #FB8DC2",
"5X c #FCA0C3",
"6X c #FEA1CA",
"7X c #FAA8C9",
"8X c #FFA4D1",
"9X c #FBDBD6",
"0X c #E6DAC8",
"qX c #F3E2D1",
/* pixels */
"z.z.z.t.c j b.z.z.z.z.z.z.z.z.z.z.z.z.z.z.z.z.z.z.z.z.z.z.z.z.z.z.z.z.z.z.z.z.z.z.z.z.z.z.z.z.z.z.z.z.z.z.z.z.z.k.z.z.z.z.z.z.z.",
"z.z.z.V F k j.z.z.z.z.z.z.z.z.z.z.z.z.z.z.z.z.z.z.z.z.z.z.z.M.M.z.z.z.z.z.z.z.z.z.z.z.z.z.z.z.z.z.z.z.z.z.z.z.z.z.z.z.z.z.z.z.z.",
"z.z.z.z.y.v j.z.z.z.z.z.z.z.z.z.z.z.z.z.z.m.k.B.XXXXN.u.'.#X0X0XoX'.i.k.k.t.XX$Xz.z.z.z.z.z.z.z.z.z.z.z.z.z.z.z.z.z.z.z.z.z.z.z.",
"z.z.z.z.z.z.z.z.z.z.z.z.z.z.z.z.z.z.z.z.z.z.z.d.2X<XN.u.|.8X9X9X8X2Xp.z.z.i.2XoXz.z.z.z.z.z.z.z.z.z.z.b.v.z.z.z.z.z.z.z.z.z.z.z.",
"z.z.z.z.z.z.z.z.z.z.z.z.z.z.z.z.z.z.z.z.k.u.oX|.Q.Q.u.j.6.d.<X7X9X9Xy.z.XX|.Q.I.z.z.5.z.z.z.5.l.z.z.z.z.z.z.z.z.z.z.z.z.z.z.z.z.",
"z.z.z.z.z.z.z.z.z.j.z.z.z.z.z.z.z.z.z.z.j.u.2X1X!.R.i.N.b.d.:X6X9X9Xg.t.5X2XQ.I.z.5.5.z.z.z.5.l.z.z.z.z.z.z.b.z.z.z.z.z.z.z.z.z.",
"z.z.z.z.z.z.z.z.z.l Y z.r.z.z.z.z.z.z.z.z.N.5X2X<X<X<X2X<X2X2X2X2X2X6X6X6X2X3X{.6.l.z.z.z.l.z.z.z.z.z.z.z.z.z z z.z.z.z.z.z.z.z.",
"z.z.z.z.z.z.z.z.v.n m h l.z.z.z.z.z.z.z.z.N.,X2X2X2X:X{.}.;X2X2X2X<X;X;X}.{.2XoXz.z.z.z.z.z.z.z.z.z.z.z.z.z.l j l z.5.z.z.z.z.z.",
"z.z.z.z.z.z.z.z.z.Z B m r.z.z.z.z.z.z.z.k.u.5X<X6X].O   . $ >X2X2X>X#   X O ].+Xz.z.z.z.z.z.z.z.z.z.z.z.z.z.z.d z 5.6.z.z.z.z.z.",
"z.z.z.z.z.z.z.z.z.z.z.z.z.z.z.z.z.z.z.z.z.i.<X2X6X].+ .   o >X2X2X>X$ .     ].+Xm.N.z.z.z.z.z.z.z.z.z.z.z.z.k.M m i 6.z.z.z.z.z.",
"z.z.z.z.z.z.z.z.z.z.z.z.z.z.z.z.z.z.z.z.XX,X2X2X2X<X&X%X. X >X2X2X6X&X%X    ].6X,XoXB.w j.z.z.z.z.z.z.z.z.z.z.5.e.A z.z.z.z.z.z.",
"z.z.z.z.z.z.z.z.l.l.z.z.z.z.z.z.z.z.z.u.5X3X<X2X2X6X=X&XO # <X2X>X<X-X*XO o ].2X2X<XB.q j.N.z.z.z.k.x.z.z.z.z.z.z.k.z.z.z.z.z.z.",
"z.z.z.z.z.5.z.z.5.5.z.z.z.z.z.z.z.z.z.m.+X2X<X2X2X2X7X7X}.].2X>XJ.J.5X7X}.:X2X2X2X<X5.q z.z z.z.z.z.z.z.z.z.z.z.z.l.z.z.z.z.z.z.",
"z.z.z.z.z.z.z.z.v j.z.z.z.z.z.z.z.z.z.b.+X2X2X2X2X2X2X2X2X>X>X>XJ.J.[.>X>X1X2X<X2X5Xd k j.l Y Y z.z.z.z.z.z.z.z.z.z.z.z.z.z.z.z.",
"z.z.5.5.z.z.z.z.B A b.z.z.z.z.z.z.z.z.N.|.2X2X2X2X2X2X>XQ.E.E.Q.1X>X~.Q.E.Q.2X2X2X5Xr.m 0 z.j j b.z.z.z.z.z.z.z.z.z.z.z.z.z.z.z.",
"z.z.z.5.5.z.z.k.B V z.z.z.z.z.z.z.z.l.t.+X2X2X2X2X2X2X<X!.Q.Q.!.1X2X!.!.Q.!.2X2X2X,XU g t v p l z.z.z.z.z.z.z.z.z.z.z.z.z.z.z.z.",
"z.z.z.z.z.z.z.k.r.r.z.z.z.z.z.z.z.z.5.y.+X2X2X2X2X2X2X2X>X<X<X1X<X2X1X2X<X>X2X2X3X,Xy.x M Y Z r.z.z.z.z.z.z.z.z.z.z.z.b.x.z.z.z.",
"z.z.z.z.z.z.z.z.k.b.z.l z.z.z.z.z.z.z.N.|.<X<X2X2X2X2X2X6X2X2X2X2X2X2X2X2X2X2X2X1X:XB.z.v.z.b.z.z.z.z.z.z.z.z.z.z.z.z.v.v.z.z.z.",
"z.z.z.z.z.z.z.z.z.z.l.j.[ z.z.z.z.l.z.z.u.h.<X2X2X2X2X2X2X2X2X2X2X2X2X2X2X2X3X|.p.p.m.z.z.z.z.z.z.z.z.z.k.b.z.z.z.z.z.z.z.z.z.z.",
"z.z.z.z.z.z.z.z z.z.z.j.q l.z z.l l b.z.k.m.|.>X:X:X>X:X<X2X<X<X2X<X:X|.:X|.:X'.j.x.z.z.z.z.z.z.z.z.z.z.b.} v.Y j.z.z.z.z.z.z.z.",
"z.z.z.z.z.z.z.l Y z l.5.i 8 8 z.l 8 z.z.z.z.u.u.u.u.t.a.L.~.Q.Q.~.Y.w.N.u.u.u.u.z.z.z.z.z.z.z.z.z.z.z.z.z.v.] d 5.t.z.z.z.z.z.z.",
"z.z.z.z.z.z.z.5.g j.j a r 8 z.z.Y 6 z b.z.z.z.k.v.c.N.p.U.Q.Q.Q.!.Y.a.v.c.k.z.k.z.z.z.z.z.z.r.r.z.z.z.z.z.b.m Z e.A z.z.z.z.z.z.",
"z.z.z.z.z.z.z.5.n b.j.t t Z 5.z.Y 5 5.z.z.z.5.c.>.1. X:X2.D.1X3X3X1XD.&./ ^ z.m.z.z.z.z.z.z.z.6.z.z.z.z.z.Y y B r.6.z.z.z.z.z.z.",
"z.z.z.z.z.z.z.z.z.z.z.z.z.z.z.z.z.k.z.z.z.z.n.V.$.2..X.XD.A.OXOXOXOXA.D.` / R c.z.z.T q z.z.5.z.z.z.z.z.z.j.i A z.z.z.z.z.z.z.z.",
"z.z.z.z.z.z.z.z.z.z.z.z.z.z.z.z.z.z.z.z.z.n.3.4.>.>.4.S.2XOX4.>.>.>.OX2XS.$.~ Q j.z.x.0 j.t.6.z.z.z.z.z.z.z.z.z.z.z.z.z.z.z.z.z.",
"z.z.z.l.6.z.z.z.z.z.z.z.z.z.z.z.z.z.z.z.t.b.3.4.>.>.4.2.@XOX2.>.2.<.OX<XS.$._ Q 0.z.[ { j.y.5.z.z.z.z.z.z.z.z.z.z.z.z.z.z.z.z.z.",
"z.z.5.C V z.z.z.z.z.z.z.z.z.z.b.z.z.k.z.Z.:.>.4.$.4.>.4.>.A.@X5X@X5X2X<XS.&.&...! Q v.n ' 6.5.z.z.z.z.z.z.z.z.z.z.z.z.z.z.r.z.z.",
"z.z.l.z z.z.z.z.z.z.z.z.z.z.z.z z.z.z.m.1.&.>.>.1.-.>.>.&.D.,X,X5X@X,X+X<.4.4.$.~ ! n.B g l.z.z.z.z.z.z.v.z.l.z.z.z.z.z.r.V j.z.",
"z.z.k.5 l 5.k.z.z.z.z.z.z.c.k.l j.Y 5.t.-.>.4.=.t.u.,.4.4.@.L `.S.#.f.f.$.4.4.@.~ ! c.k.b.z.z.z.z.z.z.z.| 5.5.z.z.z.z.z.5.l.z.z.",
"z.z.k.i t z.6.z.z.z.z.z.z.k.z.v.' h 5.y.-.4.4.o.6.6.,.&.4.@.K P *.X.P L #.4.4.#.~ ! 0.j.k.z.z.z.z.z.z.z.q 5.5.z.z.z.z.z.z.z.z.z.",
"z.z.z.5.6.z.z.z.z.z.z.z.z.z.z.j.8 f r.m.-.4.4.o.t.6.,.4.4.:.L ).L K ).g.$.4.2.$.~ ! c.z.z.z.z.A 5.z.z.z.l.z.l.z.z.z.z.z.z.z.z.z.",
"z.z.z.z.k.k.z.z.z.z.z.z.5.l.l.z.k.z.z.m.-.$.&.=.5.t.,.>.>.@.K (.).P (.G @.>.$.@.~ ! c.z.z.z.z.V 5.z.z.z.z.z.z.z.z.z.z.z.z.z.z.z.",
"z.z.z.z.z.z.z.z.z.z.z.z.5.l.z.z.z.z.z.m.-.&.4.o.6.7.,.$._ W e e Q ^ y r E _ / ~ ~ ! c.z.z.z.z.z.z.z.z.z.z.z.z.z.z.z.z.z.z.z.z.z.",
"z.z.z.z.z.z.z.z.z.z.z.z.k.5.z.z.z.z.z.m.1.4.4.o.t.9.,.$.~ W e e ! ~ y e W ~ ~ ~ ~ ! k.z.z.z.z.z.z.z.z.z.z.5.z.z.z.z.z.z.z.z.z.z.",
"z.z.z.z.z.z.z.8 j.v 6.z.z.5.5.z.k.z.z.m.=.4.4.=.6.t.<.&.$...K J G L (.G @.@.~ ~ ~ ! k.z.k.z.z.z.z.z.z.z.j.w l.j.z.z.z.6.V z.z.z.",
"z.z.z.z.z.z.z.w h v 6.z.z.z.z.l.c.x.z.m.-.4.4.Z.6.9.O.@.:. .G ).^._.^.G @.@.~ ! ~ ! 0.z.z.z.z.z.z.z.z.z.v.[ j v z.z.z.z.z.5.z.z.",
"z.z.z.z.z.z.z.5.g v v z.z.z.z.z.z.z.z.m.1.&.&.=.6.l.s.1 1 % % D D D D D 7.R ~ ~ ~ ! ] z.l 5.z.z.z.z.z.z.y.h j x A z.z.z.z.z.z.z.",
"z.z.z.z.z.z.z.C M h x 5.z.z.z.z.z.z.z.m.Z.,.2.Z.p.u.D D s.s.% D % D D D b.n.) E ! Q 0.j a 5.r.z.z.z.z.z.t.N u d b 6.z.z.z.z.z.z.",
"z.z.z.z.z.z.z.z.5.z.z.z.z.z.z.z.z.q Y b.z.p.@X5X5X;X`.K :.:.K _.J (.^.L $.<.T.U.b.7 k h l 6.5.z.z.z.z.z.z.z.t.z.z.z.z.z.z.z.z.z.",
"z.z.z.z.z.z.z.z.b.z.z.z.z.z.z.z.b.k c Y j.B.,X3X2X<X/.K O.*.K _.f.f.).L *.Z.T.U.z.p g n f 6.z.z.z.z.z.z.z.z.z.z.z.z.z.z.z.z.z.z.",
"z.z.z.z.z.z.z.z.z.z.z.z.z.z.z.z.z.N Z d l.N.<X2X2X6X/.)._.)._.I 1.$.G _.)./.Q.U.k.B d 5.e.k.z.z.z.z.z.z.z.z.z.z.z.z.z.z.z.z.z.z.",
"z.z.z.z.z.z.v.v.z.z.z.z.z.z.z.z.z.z.z.r.z.u.5X<X<X,X`.(.J P ).P -.3.L ).P `.U.I.z.k.5.z.z.z.z.z.5.z.z.z.z.z.k.z.z.z.z.z.z.z.z.z.",
"z.z.5.5.5.z.z.z.z.z.z.z.z.z.z.z.z.z.z.z.z.z.N.i././._.K =.*.K ).P P ).L :.F.p.N.z.z.z.z.z.z.z.5.l.z.z.z.z.c.v.z.z.z.z.z.z.k.z.z.",
"z.z.5.z.5.z.z.z.z.z.z.z.z.z.z.z.z.z.z.z.z.m.z.Y K K ).H @.%.L _.P H _.f.%...6.z.z.z.z.z.z.z.z.z.z.z.z.z.z.z.z.z.z.z.5.5.z.k.z.z.",
"z.z.z.z.z.z.z.z.z.z.z.z.z.z.z.z.z.z.z.z.z.z.z.n.@.*.I _.L L _.P *.@.L _.L G z.z.z.z.z.z.z.z.z.z.z.z.z.z.z.z.z.z.z.5.z.z.z.z.z.z.",
"z.z.z.z.z.z.z.z.z.z.z.z.z.z.z.z.z.z.z.z.z.z.M.n.$.:.I _.I K ).I :.X.L _.I G z.z.z.z.z.z.z.z.z.z.j.z.z.z.z.z.z.z.z.5.z.z.z.z.z.z.",
"z.z.z.z.z.z.z.z.z.z.z.z.z.z.z.z.x.z.z.z.z.z.z.M.K K _.H  .@.K _.K K _.L %.+.6.z.z.z.z.z.z.z.z.z.w Y z.z.z.z.z.z.z.z.z.z.z.z.z.z.",
"z.z.z.z.z.z.z.z.z.z.z.z.z.z.l.z.z.x.z.z.z.z.z.M.).)./.f.,.:.G _.)././.g.#.=.t.z.z.z.z.z.z.z.z.z.j.9 z.z.z.j.j.z.z.z.z.z.z.z.z.z.",
"z.z.z.z.z.Y j.z.z.z.z.z.z.5.5.5.z.z.z.z.z.z.z.z.l.m.oX,X<X$Xz.u.I.R.R.P.0.v.z.z.z.z.z.z.w j.5.e.l.j l 5 z.z 9 z.6.5.z.z.z.z.z.z.",
"z.z.z.z.6.] ' k.6.5.z.z.z.z.z.z.z.z.z.[ } Y z.z.z.b.,X3X3XoXz.u.U.W.W.L.8.z.z.z.z.z.z.z.l.9 z h A a 6 c e.j.6 z e.6.z.z.z.z.z.z.",
"z.l.l.z.z.w s A e.5.z.z.z.z.z.z.z.z.z.v.b.k z.z.z.N.+X2X2XoXz.6.R.W.Q.L.8.l.z.z.z.z.z.z.l.5 e.c r r n e.z.Y 6 f e.z.z.z.z.z.z.z.",
"z.z.z.z.z.k.x e.6.z.z.z.z.z.l.z.z.z.l.y.k c l z.z.b.,X2X2XXXz.u.U.W.Q.L.r.l.z.z.z.z.z.z.z.z 6.b.A B A z.z.5.l 5.z.z.z.z.v.z.z.z.",
"z.z.z.z.z.z.b.k.z.z.z.z.z.z.z.z.z.z.z.r.M x 8 z.z.z.+X2X3XoXz.b.U.W.Q.L.8.x.z.x.z.z.z.z.z.z.z.z.z.b.z.z.z.z.z.z.z.z.z.z.v.z.z.z.",
"z.z.z.z.z.z.z.z.z.z.Y k.z.z.j.z.z.z.z.z.6.z.z.z.z.N.+X2X2XXXz.9.R.W.Q.L.8.v.v.v.z.z.z.z.z.z.z.z.z.z.z.z.z.z.z.z.z.z.z.z.z.z.z.z.",
"z.z.z.z.z.z.z.z.z.z.l z b.A p j.t.z.z.z.z.z.z.z.z.u.5X2X3XXXz.N.R.W.Q.L.8.z.z.z.z.z.z.z.z.z.z.z.z.z.z.z.z.z.z.z.z.z.z.z.z.z.z.z.",
"z.z.5.5.z.z.z.z.z.z.z.{ T k h r.6.z.z.z.z.z.z.z.k.z.{.>X2X{.z.9.P.L.W.L.8.z.z.z.z.z.z.z.z.z.z.z.z.z.z.z.z.z.e.b 5.z.z.z.z.z.z.z.",
"z.z.z.z.z.z.z.z.z.z.k.5 m m Z r.z.z.z.z.z.z.k.z.z.9.3 J.>XoXz.9.* > E.L.8.k.z.z.j z z.z.z.z.z.z.z.z.z.z.z.v 5.5.z.z.z.z.z.z.z.z.",
"z.z.z.z.z.z.z.z.z.z.z.a t M V z.z.z.z.z.z.z.v.z.k.6.3 G.>X{.z.7.* > Y.L.a.z.z.z.z.w z.b.z.l.j.z.z.6.z.z.z.z.z.z.z.z.z.z.z.z.z.z.",
"z.z.z.z.z.z.z.z.z.z.z.y.m A z.z.z.z.z.z.z.z.z.z.z.6.3 J.K.J.l.c.* & > ; c j.z.z.z.| j.j z.z j z.r.5.z.z.z.z.z.z.z.5.z.z.z.z.z.z.",
"z.z.z.z.z.z.z.z.z.z.z.z.v.z.z.z.z.z.z.z.l.5.5.z.k.9.3 G., 2 8.a.* & * - b c Y c z.k 5 g z.Y 5 x t.z.z.z.z.z.z.z.z.k.z.z.z.z.z.z.",
"z.z.z.z.z.z.z.z.z.z.z.z.z.l.z.z.z.z.z.z.5.5.V z.z.6.3 G.q.w., , : = 8.7.; ; e.j a S t U V j.s u y.l.z.z.z.z.z.z.j.j z.e.6.z.z.z.",
"z.z.z.z z.z.z.z.z.z.z.z.z.z.z.z.z.z.z.z.z.z.z.z.k.z.4 H.6.8.G.2 - ; t.z.- - 7.z.B a F e.z.j.d B e.z.z.z.z.z.z.z.z.c c b.e.z.z.z.",
"z.z.z.i l.z.z.z.z.z.z.z.z.z.z.z.z.z.z.z.z.z.z.z.z.z.t.7.z.z.6.6.6.z.z.z.z.z.z.z.z.v.c.z.z.z.z.z.k.z.z.z.z.z.z.z.z.A t A e.z.z.z.",
"z.z.z.i M z.z.z.z.z.z.z.z.z.z.z.z.z.z.z.z.z.z.z.z.z.z.z.z.z.z.z.z.z.z.z.z.z.z.z.z.z.z.z.z.z.z.z.z.z.z.z.z.z.z.z.z.z y u 6.z.z.z."
};
