/* XPM */
static char *efe370d12c224506ef898e856fdc73633g0E3Fx6oOpRdKpz[] = {
/* columns rows colors chars-per-pixel */
"64 64 220 2 ",
"   c #060605",
".  c #13010B",
"X  c #1D1415",
"o  c #111310",
"O  c #280B1A",
"+  c #20221C",
"@  c #361224",
"#  c #2A2121",
"$  c #787E78",
"%  c #BB1B6C",
"&  c #B8256B",
"*  c #B43969",
"=  c #BB3372",
"-  c #AD3A6A",
";  c #C21C71",
":  c #CD327A",
">  c #AE4068",
",  c #817D6C",
"<  c #C8477E",
"1  c #D4477E",
"2  c #C8517B",
"3  c #5CB63C",
"4  c #58B639",
"5  c #6DBC3D",
"6  c #64B83E",
"7  c #71BE3E",
"8  c #75C13C",
"9  c #7BC43B",
"0  c #7ACB2E",
"q  c #3E9355",
"w  c #4C9A53",
"e  c #45945A",
"r  c #579C58",
"t  c #49964C",
"y  c #649C5E",
"u  c #729F5C",
"i  c #4BA24B",
"p  c #5DAA4B",
"a  c #56AA43",
"s  c #59A254",
"d  c #58B042",
"f  c #67AD4D",
"g  c #65B443",
"h  c #6CB645",
"j  c #6CBA41",
"k  c #68B149",
"l  c #74BC43",
"z  c #7BBE45",
"x  c #74B54C",
"c  c #74B94A",
"v  c #7CBA4A",
"b  c #79B64A",
"n  c #62A653",
"m  c #66AA52",
"M  c #6CAB53",
"N  c #66A359",
"B  c #6AA45B",
"V  c #74AC54",
"C  c #7AAA57",
"Z  c #77A859",
"A  c #74B151",
"S  c #7CB352",
"D  c #7FB950",
"F  c #428F63",
"G  c #7B8275",
"H  c #6B9D65",
"J  c #7AB26E",
"K  c #76AF73",
"L  c #6EB67E",
"P  c #74B175",
"I  c #7BB272",
"U  c #73B47C",
"Y  c #7AB97B",
"T  c #75B87D",
"R  c #7DC143",
"E  c #77C040",
"W  c #C79D18",
"Q  c #D29F0D",
"!  c #D5A607",
"~  c #DBA402",
"^  c #D3A10C",
"/  c #D7AA09",
"(  c #CAA115",
")  c #C8A418",
"_  c #D5AA0D",
"`  c #E1AA02",
"'  c #E5B409",
"]  c #8CCB2C",
"[  c #87C73D",
"{  c #91C93B",
"}  c #9AD23C",
"|  c #90D52C",
" . c #A7DD34",
".. c #A4C036",
"X. c #B1E52E",
"o. c #DBD937",
"O. c #EEDB2C",
"+. c #F2DE2A",
"@. c #F5DF26",
"#. c #ECDD38",
"$. c #F7DF37",
"%. c #EDE32E",
"&. c #F5E32D",
"*. c #FAE52B",
"=. c #FCEA2C",
"-. c #F8E324",
";. c #FEF22E",
":. c #EEE235",
">. c #ECE63D",
",. c #F2E533",
"<. c #F7ED34",
"1. c #FDEE32",
"2. c #F2E339",
"3. c #FEEB3B",
"4. c #F9E63B",
"5. c #FFF232",
"6. c #87AE4E",
"7. c #84BD4C",
"8. c #8BBD4D",
"9. c #87BA4A",
"0. c #92BE42",
"q. c #95BA4A",
"w. c #85AC57",
"e. c #95A859",
"r. c #84B553",
"t. c #85B951",
"y. c #8BBA51",
"u. c #85B357",
"i. c #94BD54",
"p. c #94BF58",
"a. c #9BBE5B",
"s. c #98B855",
"d. c #95AC49",
"f. c #868671",
"g. c #888C6A",
"h. c #8AAB7A",
"j. c #86B576",
"k. c #87AF68",
"l. c #A2B362",
"z. c #83C246",
"x. c #8BC547",
"c. c #86C14A",
"v. c #8BC34A",
"b. c #8EC943",
"n. c #92C344",
"m. c #93CA44",
"M. c #91C54B",
"N. c #9AC747",
"B. c #87C151",
"V. c #89C151",
"C. c #93C253",
"Z. c #98C258",
"A. c #A4CD44",
"S. c #92DA7A",
"D. c #FADB42",
"F. c #FEDD57",
"G. c #E2D542",
"H. c #FEE643",
"J. c #FAE546",
"K. c #D73983",
"L. c #CA4880",
"P. c #DC488B",
"I. c #D55183",
"U. c #E2428A",
"Y. c #DD769D",
"T. c #D97C99",
"R. c #D57997",
"E. c #DA7593",
"W. c #E6769C",
"Q. c #E16A9F",
"!. c #DD74A0",
"~. c #E36DA3",
"^. c #E96EA8",
"/. c #E573A5",
"(. c #E775A9",
"). c #E976AA",
"_. c #73AE87",
"`. c #66B285",
"'. c #69B284",
"]. c #69B389",
"[. c #72B680",
"{. c #77B18A",
"}. c #84AE88",
"|. c #CA838C",
" X c #EF8CB9",
".X c #F28BBB",
"XX c #EA9BB9",
"oX c #F49CBC",
"OX c #F698BB",
"+X c #E29EAB",
"@X c #FFADAE",
"#X c #EBA3B4",
"$X c #EEA1B9",
"%X c #FFA9B4",
"&X c #F2A1BC",
"*X c #FFA2BE",
"=X c #FAA8B7",
"-X c #E6A5AE",
";X c #9AE980",
":X c #A8F889",
">X c #B6EF90",
",X c #C2FF9C",
"<X c #FB96C5",
"1X c #F69DC3",
"2X c #FA9DC5",
"3X c #FD96CB",
"4X c #FE9AC9",
"5X c #FF9DCA",
"6X c #FF9CCA",
"7X c #F797C2",
"8X c #FF9AD0",
"9X c #EF95C0",
"0X c #FDA1C4",
"qX c #FFA1CC",
"wX c #F4A6C0",
"eX c #FFABD0",
"rX c #FBDDD6",
"tX c #FCD6D6",
"yX c #F4DDCE",
"uX c #FAE2D6",
/* pixels */
"v.v.v.y.c 5 M.v.v.v.v.v.v.v.v.v.v.v.v.v.v.v.v.v.v.v.v.v.v.v.v.v.v.v.v.v.v.v.v.v.v.v.v.v.v.v.v.v.v.v.v.v.v.v.v.v.v.v.v.v.v.v.v.v.",
"v.v.v.C H k z.v.v.v.v.v.v.v.v.v.v.v.v.v.v.v.v.v.v.v.v.v.v.v.v.v.v.v.v.v.v.v.v.v.v.v.v.v.v.v.v.v.v.v.v.v.v.v.v.v.v.v.v.v.v.v.v.v.",
"v.v.v.v.u.b z.v.v.v.v.v.v.v.v.v.v.v.v.v.v.v.v.v.v.v.v.v.v.v.v.v.v.v.v.v.v.v.v.v.v.v.v.v.v.v.v.v.v.v.v.v.v.v.v.v.v.v.v.v.v.v.v.v.",
"v.v.v.v.v.v.v.v.v.v.v.v.v.v.v.v.v.v.v.v.v.v.v.v.v.v.v.v.v.v.v.v.l 7.v.v.v.v.v.v.v.v.v.v.v.v.v.v.v.v.v.m.m.v.v.v.v.v.v.v.v.v.v.v.",
"v.v.v.v.v.v.v.v.v.v.v.v.v.v.v.v.v.v.v.v.v.v.v.7.v.v.v.v.v.v.c.v.6 l v v.v.v.v.v.v.v.7.v.v.v.7.v.v.v.v.v.v.v.v.v.v.v.v.v.v.v.v.v.",
"v.v.v.v.v.v.v.v.v.z.z.v.v.v.v.v.v.v.v.v.v.v.7.7.7.v.v.v.v.v.C.Z.b S n 7.v.v.v.v.c.7.c.v.x.c.7.v.v.v.v.v.v.v.v.v.v.v.v.v.v.v.v.v.",
"v.v.v.v.v.v.v.v.v.5 E v.9.v.v.v.v.v.v.v.v.v.z.z.v.v.v.v.x.a.yXuX0XOXk.c.x.x.v.7.7.v.v.v.x.7.v.v.v.v.v.v.v.v.l z v.v.v.v.v.v.v.v.",
"v.v.v.v.v.v.v.v.M.m M h 7.v.v.v.v.v.v.v.v.v.a.a.v.v.v.v.x.a.tXtXeX6Xa.x.a.a.v.v.v.v.v.v.v.v.v.v.v.v.v.v.v.v.l l l v.v.v.v.v.v.v.",
"v.v.v.v.v.v.v.v.v.A V M 9.v.v.v.v.v.v.v.x.i.2X$XR z.v.v.z.s.<XqXuXrXa.v.1X1Xv.x.v.v.v.v.v.v.v.v.v.v.v.v.v.v.v.k z 7.7.v.v.v.v.v.",
"v.v.v.v.v.v.v.v.v.v.v.v.v.v.v.v.v.v.v.v.x.Z.6X&X7.c v.c.4 w.<XqXuXrXa.v.1X2Xi.8.v.v.v.v.v.v.v.v.v.v.v.v.v.v.v.N M p 8.v.v.v.v.v.",
"v.v.v.v.v.v.v.v.v.v.v.v.v.v.v.v.v.v.v.v.x.i.2X<XY.R.b l 3 e.<XqXuXrXZ.v.&X4XY.|.7.v.v.E z.v.v.v.v.v.v.v.v.v.v.7.t.S 8.v.v.v.v.v.",
"v.v.v.v.v.v.v.v.c.7.v.v.v.v.v.v.v.v.v.v.x.i.2X<X)./.C u u l.<XqXrXtXl.i.oX3X).T.v.v.v.7 z.M.v.v.v.x.m.v.v.v.v.v.v.v.v.v.v.v.v.v.",
"v.v.v.v.v.v.v.v.7.7.v.v.v.v.v.v.v.v.v.v.v.Z.2X4X4X4X1X7X1X2X6X6X6X6X2X2XqXqX6X#Xv.v.8 l v.z v.v.v.v.v.v.v.v.v.v.v.v.v.v.v.v.v.v.",
"v.v.v.v.v.v.v.v.v 7.v.v.v.v.v.v.v.v.v.v.R y.2X6X6X6X.X.X.X.X4X6X4X4X.X.X.X.X6X#Xv.x.d x [ z z z v.v.v.v.v.v.v.v.v.v.v.v.v.v.v.v.",
"v.v.7.7.v.v.v.v.V S v.v.v.v.v.v.v.v.v.v.8 7.2X4X5X.XO . . @ <X6X6X<X@ . . O 9X#XR { z M 9 v.j j M.v.v.v.v.v.v.v.v.v.v.v.v.v.v.v.",
"v.v.v.7.v.v.v.v.V C v.v.v.v.v.v.v.v.7.8.v M 2X6X5X XX     X <X6X6X<X#     . .X9Xu.f M h w v 4 c v.v.v.v.v.v.v.v.v.v.v.v.v.v.v.v.",
"v.v.v.v.v.v.v.v.t.r.v.v.v.v.v.v.v.v.7.y.#X7X6X6X4X2X>X;Xo X <X5X4XqX>XS.  .  X5X1XXXu.x N z.x t.v.v.v.v.v.v.v.v.v.v.v.m.m.v.v.v.",
"v.v.v.v.v.v.v.v.v.v.v.l v.v.v.v.v.v.v.M.1X6X6X6X4X0X>X:X+ @ <X6X<X2X,X:XX O  XqX6X2XZ.x.M.v.v.v.v.v.v.v.v.v.v.v.v.v.v.m.m.v.v.v.",
"v.v.v.v.v.v.v.v.v.v.v.z.} v.v.v.v.v.v.M.&X6X6X6X6X6XwXwX X.X6X<XP.P.&X&X X.X4X6X5X2Xi.x.v.v.v.v.v.v.v.v.v.x.v.v.v.v.v.v.v.v.v.v.",
"v.v.v.v.v.v.v.z v.v.v.z.7 v.z v.l l v.v.&X6X6X6X6X6X6X6X5X5X6X<XP.P.<X6X5X5X6X6X5X2Xi.x.v.v.v.v.v.v.v.v.x. .m.z.v.v.v.v.v.v.v.v.",
"v.v.v.v.v.v.v.j z z z.7.p 3 6 v.l 6 c.M.&X6X6X6X6X6X6X4X/././.(.<X4X)././.(.4X6X4X2Xi.x.v.v.v.v.v.v.v.v.v.m.{ k 7.8.v.v.v.v.v.v.",
"v.v.v.v.v.v.v.z.g z.j r w 6 v.v.R 4 z C.&X6X6X6X6X6X6X4X(././.(.4X5X)././.).4X6X5X2Xi.x.v.v.t.r.v.v.v.v.v.M.m A u.r.v.v.v.v.v.v.",
"v.v.v.v.v.v.v.7.m M.7.r r A 7.v.R 3 z.C.1X8X6X6X6X6X6X6X4X4X4X4X6X6X4X4X4X4X6X6X8X6Xi.x.v.v.v.8.v.v.v.v.v.R i V r.8.v.v.v.v.v.v.",
"v.v.v.v.v.v.v.v.v.v.v.v.v.v.v.v.v.v.v.v.-X&X6X6X6X6X6X6X6X6X6X6X6X6X6X6X6X6X6X2X$X#X7.5 v.v.8.v.v.v.v.v.v.z.p V v.v.v.v.v.v.v.v.",
"v.v.v.v.v.v.v.v.v.v.v.v.v.v.v.v.v.v.v.v.v.i.2X6X6X6X6X5X6X6X4X4X6X6X6X4X6X5X8X$Xv.v.b.0 z.y.9.v.v.v.v.v.v.v.v.v.v.v.v.v.v.v.v.v.",
"v.v.v.v.v.v.v.v.v.v.v.v.v.v.v.v.v.v.v.v.x.i.oX2X2X2X2X2X4X4X4X4X4X4X2X2X2X2X6X#Xv.c.} | z.w.9.v.v.v.v.v.v.v.v.v.v.v.v.v.v.v.v.v.",
"v.v.7.Z C v.v.v.v.v.v.v.v.v.v.v.v.v.v.v.v.v.p.p.p.Z.C.s.Q.)././.(.~.e.C.Z.Z.Z.C.v.v.m.m [ 8.8.v.v.v.v.v.v.v.v.v.v.v.v.v.v.7.v.v.",
"v.v.v.z v.v.v.v.v.v.v.v.v.v.v.z v.v.0.0.0.0.n.n.{ 0.v.d.E.W./././.Q.d.{ 7.7.7.7.7.9.8.Z k x.v.v.v.v.v.v.m.v.c.v.v.v.v.v.7.C 7.v.",
"v.v.v.3 l v.c.v.v.v.v.v.v.m.v.l R c o.*.&.&.&.&.&.$.OXOX1.J.3X3X6X3XD.-.) W ( ( ( ( ( W 8.v.v.v.v.v.v.v.X.7.7.v.v.v.v.v.7.v.v.v.",
"v.v.v.p r v.v.v.v.v.v.v.v.x.v.m.] z >.5.5.5.5.5.5.3.@X@XH.F.%X%X%X%XF.H.' ` ~ ~ ~ ~ ` ^ 6.8.v.v.v.v.v.v.8 7.7.v.v.v.v.v.v.v.v.v.",
"v.v.v.7.7.v.v.v.v.v.v.v.v.v.c.x.%.*.1.1.1.1.1.1.1.1.;.H.4X%X1.5.5.5.%X2XH.*.~ ~ ~ ~ ~ ~ ^ W 8.D 7.v.v.v.c.v.7.v.v.v.v.v.v.v.v.v.",
"v.v.v.v.v.v.v.v.v.v.v.v.7.v.v.N.<.5.1.1.<.<.<.<.1.1.;.3.*X@X3.3.3.3.%X6XH.*./ ~ ! ! ~ ~ ~ ^ 8.6.t.v.v.v.v.v.v.v.v.v.v.v.v.v.v.v.",
"v.v.v.v.v.v.v.v.v.v.v.v.7.0.&.<.1.1.5.&.N.M.M.A.5.5.1.1.1.F.*X0X*X*X6X0XH.;.=.#.8.n.! ~ ~ ~ ! _ n.v.v.v.v.v.v.v.v.v.v.v.v.v.v.v.",
"v.v.v.v.v.v.v.c.v.v.v.v.v.0.*.5.1.1.=.O.0.v.c.N.&.*.1.1.;.H.<X3X6X6X3XOX3.;.5.>.y.x.( Q ~ ~ ~ ! n.v.v.v.v.7.v.v.v.v.v.v.8.v.v.v.",
"v.v.v.v.v.v.v.5 z.v 8.v.v.0.*.5.5.*...n.v.v.v.v.n.q.2.5.5.&.h.}.J.D.h.h.*.5.5.#.8.v.7.6.( ~ ~ ~ n.v.v.v.z.9 c.z.v.v.v.7.C v.v.v.",
"v.v.v.v.v.v.v.[ h v 8.v.v.n.O.&.3.4.q.B.v.v.v.v.c.y.2.5.5.&.P L %.@.P I *.5.5.#.y.v.v.y.W ~ W ) n.v.v.v.m.} j v v.v.v.c.v.c.v.v.",
"v.v.v.v.v.v.v.7.g v v v.v.v.x.q.=X*XwXXXi.v.v.v.v.8.2.5.5.*.I ].U U ].j.=.5.;.2.b v.R.Y.W.E.8.8.v.v.v.v.u.c j c b v.v.v.v.v.v.v.",
"v.v.v.v.v.v.v.Z N h x v.v.v.c.C.1X6X5X<Xi.v.v.v.v.y.2.5.1.+.K `.U U `.J &.1.2.G.7.l Y.^.^.R.t.v.v.v.v.v.t.B y f S v.v.v.v.v.v.v.",
"v.v.v.v.v.v.v.v.v.v.v.v.v.v.v.C.2X6X5X<Xi.v.v.v.v.8.2.=.` Q q q ^ ~ t e ^ ! q.y.v.5 Y.^.^.R.t.v.v.v.v.v.v.v.8.v.v.v.v.v.v.v.v.v.",
"v.v.v.v.v.v.v.v.v.v.v.v.v.v.v.C.-XXX$X+Xi.v.v.v.v.y.2.=.' ) e e ) ( w e _ / x.v.v.n |.R.R.|.v.v.v.v.v.v.v.v.v.v.v.v.v.v.v.v.v.v.",
"v.v.v.v.v.v.v.v.v.v.v.v.v.v.v.v.M.B A m v.v.v.v.v.y.2.;.5.&.P `.'.'.`.I =.2.8.v.v.M m 7.7.v.v.v.v.v.v.v.v.v.v.v.v.v.v.v.v.v.v.v.",
"v.v.v.v.v.v.m.m.v.v.v.v.v.v.v.v.v.7.c.7.v.v.v.v.v.v #.<.<.:.P '.'.'.'.I &.2.q.b.v.v.7.v.v.v.v.v.7.v.v.v.v.v.x.v.v.v.v.v.v.v.v.v.",
"v.v.7.7.v.v.v.v.v.v.v.v.v.v.v.v.v.v.v.v.v.v.v.v.v.v.g.f.f.f.G G G G G G w.M.v.v.v.v.v.v.v.v.v.7.c.v.v.v.v.v.m.v.v.v.v.v.v.v.v.v.",
"v.v.v.c.7.v.v.v.v.v.v.v.v.v.v.v.v.v.v.v.v.v.v.v.v.y.G $ , , G G G G G G 6.6.v.v.v.v.v.v.v.v.v.v.v.v.v.v.v.v.v.v.v.v.7.c.v.x.x.v.",
"v.v.v.v.v.v.v.v.v.v.v.v.v.v.v.v.v.v.v.v.v.v.v.B.'.'.'.K O.O.K '.'.'.'.I &.#.8.v.v.v.v.v.v.v.v.v.v.v.v.v.v.v.v.v.v.7.v.v.v.v.v.v.",
"v.v.v.v.v.v.v.v.v.v.v.v.v.v.v.v.v.v.v.v.v.v.v.B.I I '.U O.&.P '.I I `.I *.#.8.v.v.v.v.v.v.v.v.v.z.v.v.v.v.v.v.v.v.v.v.v.7.v.v.v.",
"v.v.v.v.v.v.v.v.v.v.v.v.v.v.v.v.x.v.v.v.v.v.c.N.*.&.Y `.P P '.T ,.@.I '.P J v.v.v.v.v.v.v.v.v.v.8 R v.v.v.v.v.v.v.v.v.v.v.v.v.v.",
"v.v.v.v.v.v.v.v.v.v.v.v.v.v.7.v.x.x.v.v.v.v.c.N.<.>.Y '.[.[.'.T >.,.I '.[.T B.v.v.v.v.v.v.v.v.v.x.5 v.v.v.z.R v.v.v.v.v.v.v.v.v.",
"v.v.v.v.v.z z.v.v.v.v.v.v.c.v 7.v.v.v.v.v.v.v.B.T T '.P :.,.I '.[.T '.I ,.>.T U v.v.v.v.E z.7.r.7.j l 3 c.R 7 v.8.t.v.v.v.v.v.v.",
"v.v.v.v.v.{ [ v.8.8.v.v.v.v.v.v.v.v.v.}  .z c.B.P P '.U +.&.P '.P P `.I -.,.[.L B.B.v.v.z.8 z h S r 4 x r.z.4 v r.v.v.v.v.v.v.v.",
"v.v.v.v.v.9 a S w.7.v.v.v.v.v.v.v.v.v.m.b.k c.N.&.,.T '.P P '.T :.&.I '.P P `.Y >.>.M.v.v.6 r.b e e n r.v.R 4 A r.v.v.v.v.v.v.v.",
"v.v.v.v.v.z.x r.8.v.v.v.v.v.v.v.v.v.8.u.k x l N.&.,.Y '.P P '.T :.+.I '.I I '.j.*.&.N.v.v.z 7.v.S V S v.v.c.l 7.v.v.v.v.m.v.v.v.",
"v.v.v.v.v.v.v.v.v.v.v.v.v.v.v.v.v.v.v.u.N x 5 c.0.0.'.U +.-.P `.P P `.J -.,.L '.P P v.v.v.v.v.v.v.M.v.v.v.v.v.v.v.v.v.v.m.v.v.v.",
"v.v.v.v.v.v.v.v.v.v.z v.v.v.z.v.v.v.v.v.v.v.v.v.v.v.L P $.4.h.{.{.{.{.h.$.J.{._._._.B.v.v.v.v.v.v.v.v.v.v.v.v.v.v.v.v.v.v.v.v.v.",
"v.v.v.v.v.v.v.v.v.v.l z M.S d z.8.v.v.v.v.v.v.v.v.v.x.y.oX0X1X1X2X2X2X1X/.W./././.!.i.v.v.v.v.v.v.v.v.v.v.v.v.v.v.v.v.v.v.v.v.v.",
"v.v.7.v.v.v.v.v.v.v.M.] z k h r.8.v.v.v.v.v.v.v.v.v.a.l.7X6X6X4X<X<X<X<X(.~.T.T.T.R.i.v.v.v.v.v.v.v.v.v.v.v.S S 7.v.v.v.v.v.v.v.",
"v.v.v.v.v.v.v.v.v.v.x.3 m M A y.v.v.v.v.v.v.v.v.v.C.&X5X6X6X5X4X(./././.^.Y.8.v.l v v.v.v.v.v.v.v.v.v.v.v.7.7.7.v.v.v.v.v.v.v.v.",
"v.v.v.v.v.v.v.v.v.v.v.s r N V v.v.v.v.v.v.v.m.v.v.C.oX3X4X4X2X7X/.~.~.~./.T.8.v.v.9 v.M.v.c.z.v.v.8.v.v.v.v.v.v.v.v.v.v.v.v.v.v.",
"v.v.v.v.v.v.v.v.v.v.v.u.M S v.v.v.v.v.v.v.v.v.v.v.8.I.P.U.I.p.i.= ; ; = S 8.v.v.v.X.z.j c.z j M.9.9.v.v.v.v.v.v.v.v.v.v.v.v.v.v.",
"v.v.v.v.v.v.v.v.v.v.v.v.M.v.v.v.v.v.v.v.7.v 7.v.v.8.1 K.K.< q.d.& % & - x j z b v.A 3 g v.z.4 x y.v.v.v.v.v.v.v.v.v.v.v.v.v.v.v.",
"v.v.v.v.v.v.v.v.v.v.v.v.v.v.v.v.v.v.v.v.7.7.C v.v.8.1 K.e.e.: : ; & 6.8.* - r.h r F s Z w.z.i y r.v.v.v.v.v.v.v.z.j v.r.8.v.v.v.",
"v.v.v.R v.v.v.v.v.v.v.v.v.v.v.v.v.v.v.v.v.v.v.v.v.8.2 L.8.q.< L.* > 8.v.* * 6.v.M n B u.v.z.f V r.v.v.v.v.v.v.v.v.c h M.r.v.v.v.",
"v.v.v.p c.v.v.v.v.v.v.v.v.v.v.v.v.v.v.v.v.v.v.v.v.v.8.8.v.v.8.8.v.v.v.v.v.v.v.v.v.v.v.v.v.v.v.v.v.v.v.v.v.v.v.v.v.A r S u.v.v.v.",
"v.v.v.p n v.v.v.v.v.v.v.v.v.v.v.v.v.v.v.v.v.v.v.v.v.v.v.v.v.v.v.v.v.v.v.v.v.v.v.v.v.v.v.v.v.v.v.v.v.v.v.v.v.v.v.v.z w B 8.v.v.v."
};
