/* XPM */
static char *princess_six_xpm1739227854[] = {
/* columns rows colors chars-per-pixel */
"64 64 217 2 ",
"   c #070606",
".  c #021609",
"X  c #170E11",
"o  c #220E18",
"O  c #27141C",
"+  c #381927",
"@  c #330F21",
"#  c #2B2424",
"$  c #7C7E75",
"%  c #777C74",
"&  c #BB1A6B",
"*  c #B7256B",
"=  c #AD3A6A",
"-  c #B43969",
";  c #BC3574",
":  c #C21C72",
">  c #CE337B",
",  c #AE4068",
"<  c #C8477E",
"1  c #D4477E",
"2  c #C8517B",
"3  c #5CB63C",
"4  c #57B539",
"5  c #6DBC3E",
"6  c #64B83D",
"7  c #72BF3D",
"8  c #7BCB2D",
"9  c #75C13C",
"0  c #7BC43B",
"q  c #3D9555",
"w  c #478E5E",
"e  c #489657",
"r  c #579C58",
"t  c #4D954D",
"y  c #679B5C",
"u  c #4BA24B",
"i  c #5DAA4B",
"p  c #59AA46",
"a  c #59A254",
"s  c #58B042",
"d  c #68AE4C",
"f  c #64B444",
"g  c #6CB645",
"h  c #6CBA41",
"j  c #68B149",
"k  c #74BC43",
"l  c #7BBE45",
"z  c #74B54B",
"x  c #74B849",
"c  c #7CBA4A",
"v  c #7AB44C",
"b  c #64A555",
"n  c #6BAB53",
"m  c #66A359",
"M  c #68A756",
"N  c #73AC54",
"B  c #7AAB56",
"V  c #77A85B",
"C  c #74B152",
"Z  c #7BB351",
"A  c #7BA648",
"S  c #418965",
"D  c #7A8272",
"F  c #6F9D62",
"G  c #7DB36C",
"H  c #77AD77",
"J  c #6DB57D",
"K  c #75B176",
"L  c #7BB372",
"P  c #73B47B",
"I  c #78B87C",
"U  c #7CC143",
"Y  c #77C040",
"T  c #BF9820",
"R  c #9EBF3A",
"E  c #D19F0E",
"W  c #DC9F0C",
"Q  c #C99D16",
"!  c #DC9C1A",
"~  c #CBA80D",
"^  c #DBA502",
"/  c #D2A30B",
"(  c #D9A708",
")  c #DDB202",
"_  c #CDA211",
"`  c #C6A219",
"'  c #DAA811",
"]  c #E3AB01",
"[  c #E0B101",
"{  c #C79C21",
"}  c #DC9B22",
"|  c #DD952E",
" . c #83C63D",
".. c #92CD3A",
"X. c #97D339",
"o. c #8BD32C",
"O. c #A8D937",
"+. c #B1E42E",
"@. c #EDDD2C",
"#. c #F3DE2A",
"$. c #F1DF24",
"%. c #EADC39",
"&. c #FFDE3F",
"*. c #FBE326",
"=. c #F6E32C",
"-. c #FAE62D",
";. c #FCE92C",
":. c #FFF32E",
">. c #ECE135",
",. c #EEE43B",
"<. c #EDEA3D",
"1. c #E6E73A",
"2. c #F3E433",
"3. c #FDEE32",
"4. c #F2E439",
"5. c #F7EA37",
"6. c #FFF132",
"7. c #EBE32F",
"8. c #84BD4C",
"9. c #8ABD4D",
"0. c #87B74E",
"q. c #91B54A",
"w. c #92BD4D",
"e. c #97BA44",
"r. c #82AF55",
"t. c #8BAC57",
"y. c #84B553",
"u. c #85B951",
"i. c #8CBA51",
"p. c #87B354",
"a. c #94BD53",
"s. c #99BA59",
"d. c #90AA4F",
"f. c #818272",
"g. c #83AC6E",
"h. c #88B16B",
"j. c #A4B765",
"k. c #A3AE64",
"l. c #83C246",
"z. c #8BC547",
"x. c #86C14A",
"c. c #8BC34A",
"v. c #8DC849",
"b. c #92C445",
"n. c #93CA43",
"m. c #91C44C",
"M. c #9AC948",
"N. c #86C052",
"B. c #8AC252",
"V. c #92C151",
"C. c #99C256",
"Z. c #8BDC7B",
"A. c #A6CD48",
"S. c #D5DE46",
"D. c #E5D944",
"F. c #FCE646",
"G. c #D73983",
"H. c #CA4880",
"J. c #DB478A",
"K. c #D65184",
"L. c #E2428A",
"P. c #D66A9B",
"I. c #D66797",
"U. c #CE7998",
"Y. c #DD749E",
"T. c #D97A99",
"R. c #D57D93",
"E. c #D46B8D",
"W. c #E2788C",
"Q. c #E5789C",
"!. c #DE74A3",
"~. c #E46EA4",
"^. c #E86DA9",
"/. c #E472A4",
"(. c #E774AA",
"). c #EA76AA",
"_. c #E978A9",
"`. c #6AAE84",
"'. c #68AD86",
"]. c #66B385",
"[. c #69B385",
"{. c #6EB28B",
"}. c #67B388",
"|. c #71B681",
" X c #79B081",
".X c #77AB8A",
"XX c #83A892",
"oX c #E78390",
"OX c #EE8CB9",
"+X c #F28BBD",
"@X c #EB98B8",
"#X c #F193BD",
"$X c #F49CBC",
"%X c #F89BB8",
"&X c #E79FAF",
"*X c #E9A2B5",
"=X c #F3A1BC",
"-X c #FEA3BA",
";X c #E2A5AA",
":X c #CC878B",
">X c #93EA80",
",X c #ACEF8D",
"<X c #C3FA9B",
"1X c #FB95C4",
"2X c #F49DC2",
"3X c #FB9BC5",
"4X c #FF96CA",
"5X c #FF9CCA",
"6X c #F498C3",
"7X c #FD94CA",
"8X c #FFA2CD",
"9X c #F9A5C4",
"0X c #FFA7D2",
"qX c #FCDAD7",
"wX c #F0DDC9",
"eX c #FBE6D8",
"rX c #F0E3CA",
/* pixels */
"c.c.c.i.x Y c.c.c.c.c.c.c.c.c.c.c.c.c.c.c.c.c.c.c.c.c.c.c.c.c.c.c.c.c.c.c.c.c.c.c.c.c.c.c.c.c.c.c.c.c.c.c.c.c.c.c.c.c.c.c.c.c.c.",
"c.c.c.B F j U B.c.c.c.c.c.c.c.c.c.c.c.c.c.c.c.c.c.c.c.c.c.c.c.c.c.c.c.c.c.c.c.c.c.c.c.c.c.c.c.c.c.c.c.c.c.c.c.c.c.c.c.c.c.c.c.c.",
"c.c.c.c.p.Z l.c.c.c.c.c.c.c.c.c.c.c.c.c.c.c.c.c.c.c.c.c.c.c.c.c.c.c.c.c.c.c.c.c.c.c.c.c.c.c.c.c.c.c.c.c.c.c.c.c.c.c.c.c.c.c.c.c.",
"c.c.c.c.v.c.c.c.c.c.c.c.c.c.c.c.c.c.c.c.c.c.c.c.c.c.c.c.c.c.c.c.h 8.c.c.c.c.c.c.c.c.c.c.c.c.c.c.c.c.c.z.n.c.c.c.c.c.c.c.c.c.c.c.",
"c.c.c.c.c.c.c.c.c.v.c.c.c.c.c.c.c.c.c.c.c.c.x.8.9.x.c.c.c.c.c.m.f l c c.c.c.c.c.c.c.8.c.c.c.8.c.c.c.c.c.c.c.c.c.c.c.c.c.c.c.c.c.",
"c.c.c.c.c.c.c.c.c.l.x.c.c.c.c.c.c.c.c.c.c.c.8.8.8.c.c.c.c.c.c.c.6 z i 9.c.c.c.c.c.8.x.c.z.x.8.8.c.c.c.c.c.c.c.c.c.c.c.c.c.c.c.c.",
"c.c.c.c.c.c.c.c.c.k U c.u.v.c.c.c.c.c.c.c.c.9.c.c.c.c.c.c.c.c.c.x.8.Z 9.c.c.c.8.8.9.c.c.v.8.c.c.c.c.c.c.c.c.l l c.c.v.c.c.c.c.c.",
"c.c.c.c.c.c.c.c.v.b n g 8.c.c.c.c.c.c.c.c.c.c.c.v.c.c.c.c.c.c.c.c.c.v.c.c.c.c.8.c.c.c.c.c.c.c.c.c.c.c.c.c.v.k h k 9.9.c.c.c.c.c.",
"c.c.c.c.c.c.c.c.m.C N n u.c.c.c.c.c.c.c.c.c.c.c.l z.c.z.l.x.8.c.c.l.c.c.c.c.c.v.c.c.c.c.c.c.c.c.c.c.c.c.c.c.c.j l 8.8.v.c.c.c.c.",
"c.c.c.c.c.c.c.c.v.z.c.c.c.c.c.c.c.c.c.c.c.c.c.v.l g c.q.3 v i.V.V.V.V.c.c.c.c.8.9.z.c.c.c.c.c.c.c.c.c.c.c.c.v.m n i 9.c.c.c.c.c.",
"c.c.c.c.c.c.c.c.c.c.c.c.c.c.c.c.c.c.c.c.c.c.c.c.c.X.7 k 6 h.$X=XwXrX9X&X9.z.z.8.8.c.c.l l.c.c.c.c.c.c.c.c.c.c.c 0.Z c.c.c.c.c.c.",
"c.c.c.c.c.c.c.c.8.8.v.c.c.c.c.c.c.c.c.c.c.c.c.9.i.O.7 F y s.1X8XeXeX0X1Xk.w.i.i.c.c.c.9 l.m.c.c.c.z.v.9.c.c.c.c.c.z.c.c.c.c.c.c.",
"c.c.c.c.x.x.v.c.8.8.c.c.c.c.c.c.c.c.c.c.c.c.l.s.#X6X1X@XC a.1X8XqXeX0X5X6X$X1X&Xc.c.7 k c.l v.c.c.c.c.c.c.c.c.c.c.c.c.c.c.c.c.c.",
"c.c.c.c.c.9.c.c.c 8.c.c.c.c.c.c.c.c.c.c.8.z.a.k.1X4X4X#Xs.k.1X8XqXqX9X5X1X1X4X&Xc.z.4 C  .x c l v.c.c.c.c.c.c.c.c.c.c.c.c.c.c.c.",
"c.c.8.8.z.c.z.9.C v m.c.c.c.c.c.c.c.z.m.9 8.3X1X/././.).5X5X5X5X5X5X8X5X).^.^.R.l n.l n 0 z.k h m.c.c.c.c.c.c.c.c.c.c.c.c.c.c.c.",
"c.c.c.8.9.c.z.z.N V z.c.c.c.c.c.c.z.9.9.5 i 9X4X/./.P.P.OX6X5X5X5X5X#X#XP.P.).U.Z p n g r x 4 x c.c.c.c.c.c.c.c.c.c.c.c.9.c.c.c.",
"c.c.c.c.c.c.c.c.i.y.c.c.c.c.c.c.c.c.u.p.U N 3X5X5X+Xo   X + 1X5X5X1X+   X O +X@Xc M C Z m U C u.c.c.c.c.c.c.c.c.c.c.c.b.v.c.c.c.",
"c.c.c.c.c.c.c.c.c.v.x.k c.c.c.c.c.c.v.c.z.C.2X5X8X#XX .   o 1X5X5X1X#       6X=Xc.v.c.c.v.c.v.c.c.c.c.c.c.c.c.c.c.c.c.v.n.c.c.c.",
"c.c.c.c.c.c.c.c.c.c.c.l.X.c.c.c.c.x.c.c.;X$X5X5X5X9X,X>X. X 1X5X5X8X,XZ.    OX8X=X*XC.x.c.c.c.c.c.c.c.c.z.n.9.v.c.c.c.c.c.c.c.c.",
"c.c.c.c.c.c.c.l c.c.c.U Y x.U c.k x v.V.9X5X5X5X5X8X,X,X# + 1X5X1X1X<X,XO O +X5X5X3XC.c.c.c.c.c.c.c.c.c.v.O.n.l c.c.c.c.c.c.c.c.",
"c.c.c.c.c.c.c.k l l x.l.i 6 6 m.k 6 c.m.$X5X5X5X5X5X9X9X1X1X5X1XJ.J.$X9X1X1X5X5X5X9Xa.c.c.c.c.c.c.c.c.c.8.M...j 8.9.c.c.c.c.c.c.",
"c.c.c.c.c.c.c.8.6 l.6 y e 6 c.c.U 4 l V.=X5X5X5X5X5X5X5X3X5X5X1XJ.J.1X4X5X5X3X5X5X3XV.c.c.c.u.y.z.c.c.c.c.v.n z p.Z c.c.c.c.c.c.",
"c.c.c.c.c.c.z.8.M m.c r r C 8.c.U 6 U V.$X5X5X5X5X5X5X3X^.~././.1X1X/.~.~./.5X5X5X3Xa.c.c.c.c.8.c.c.c.c.c.l.u N u.9.c.c.c.c.c.c.",
"c.c.c.c.c.c.c.c.c.c.v.c.c.c.c.c.c.c.x.B.=X5X5X5X5X5X5X3X_.(._._.5X8X_.(._.).5X5X5X9Xc 9 c.c.9.c.c.c.c.c.c.8.i N c.c.c.c.c.c.c.c.",
"c.c.c.c.v.c.c.c.c.c.c.c.c.c.c.c.c.c.c.c.=X5X5X5X5X5X5X5X5X5X5X5X5X5X5X5X5X5X5X5X5X3Xm.8 l.u.9.x.c.c.c.c.c.c.c.v.c.c.c.c.c.c.c.c.",
"c.c.c.x.9.c.c.c.c.c.c.c.c.c.c.c.c.c.c.V.=X9X5X5X5X5X5X5X5X5X5X5X5X5X5X5X5X5X5X3X3X2XA.o.l.p.9.c.c.c.c.c.c.c.c.c.c.c.c.c.c.v.c.c.",
"c.c.8.V B c.c.c.c.c.c.c.c.c.c.c.c.c.c.c.V.j.9X5X5X5X5X5X5X5X5X5X5X5X5X5X5X5X5X=Xa.a.n.b  .9.c.c.c.c.c.c.c.c.c.c.c.c.c.c.c.9.c.9.",
"c.c.x.l c.c.c.c.c.c.c.c.c.c.c.l c.v.c.c.l.i.3X4X3X4X5X3X4X3X3X5X3X1X5X3X5X1X5X@X9.9.v.N j l.c.c.c.c.c.c.n.c.x.9.c.c.c.c.0.N 8.c.",
"c.c.c.3 k 9.x.z.c.c.c.c.9.b.z.k x.l 8.9.x.c.} } } } ! | /.^.(.^.^.(./.Q.| ! } } Q ` b.z.m.c.c.c.c.c.c.c.+.8.c c.c.c.c.c.8.x.c.c.",
"c.c.z.i r z.9.c.c.c.c.c.c.z.v.n.8 g 8.p.e.R ) [ ) ) [ ' oXoXW.W.W.W._./.' [ ^ ^ ^ ^ q.9.c.c.c.c.c.c.c.c.9 8.x.v.c.c.c.c.c.c.c.c.",
"c.c.c.8.9.c.c.c.c.c.c.c.v.c.c.l.6 N p.9.>.;.3.3.3.3.3.3.6.=.^ ^ ^ ! 1X5XF.;.( ^ ^ ( E Q q.c.c.c 8.c.c.c.8.c.8.c.c.c.c.c.c.c.c.c.",
"c.c.c.c.z.z.c.c.c.c.c.c.8.x.8.c.c.c.z.B.<.:.6.3.5.5.3.6.6.-./ / ' ' $X-XF.;.) ^ ^ ^ ^ E 9.c.c.B u.c.c.c.v.c.c.c.c.c.c.c.c.c.c.c.",
"c.c.c.c.c.c.c.c.c.c.c.c.8.x.v.c.c.c.z.B.<.6.6.%.w.m.4.:.6.=.G  X$X%XXXh.;.6.5.#.^ ^ ^ / q.c.c.v.v.c.c.c.c.c.c.c.c.c.c.c.c.c.c.c.",
"c.c.c.c.c.c.c.x.c.c.c.c.v.8.8.c.c.c.x.B.5.;.;.%.9.p.4.6.6.=.L {.3X1X.XG ;.6.6.-.E E ^ E t.x.c.c.c.c.c.c.c.x.c.c.c.c.c.c.c.c.c.c.",
"c.c.c.c.c.c.c.5 x.c 9.c.c.8.x.c.c.c.S.,.6.2.e.b.c.w.4.6.6.2.H |.F.F.H L -.6.6.>.r.q./ W / { u.c.c.c.c.c.l.0 x.x.c.c.c.8.V c.c.c.",
"c.c.c.c.c.c.c.0 g c 9.c.c.c.c.c.z.B.<.6.6.4.i.c.c.i.4.6.6.=.L J %.$.K L ;.6.6.%.9.../ ^ ^ / 9.c.c.c.c.9.n.X.h c m.c.c.c.c.8.c.c.",
"c.c.c.c.c.c.c.8.f l x 9.c.c.c.c.z.N.1.:.:.2.i.z.c.9.4.3.6.2.L ].P P }.G ;.6.:.,.k R / ^ ] _ 8.z.c.c.c.c.r.x g v Z c.c.c.c.c.c.c.",
"c.c.c.c.c.c.c.V m g z c.c.c.c.c.V.s.D.5.4.D.i.c.z.i.4.3.;.#.L ].P J '.L =.5.2.D.8.7 ~ ~ W { t.a.c.c.c.c.u.M r d Z c.c.c.c.c.c.c.",
"c.c.c.c.c.c.c.c.9.c.c.c.c.c.c.V.=X3X8X-Xs.9.c.c.c.q.5.;.] _ q q E ^ t e ' ^ q.i.z.6 5 A E./.!.T.a.z.c.c.c.B.c.9.c.c.c.c.c.c.c.c.",
"c.c.c.c.c.c.c.c.c.c.c.c.c.c.c.V.9X5X5X6Xa.z.c.c.c.9.D.%.Q T w e Q E t w _ ~ z.c.9.p j y I.(.~.Q.a.l.c.c.c.c.v.c.c.c.c.c.c.c.c.c.",
"c.c.c.c.c.c.c.c.c.c.c.c.c.c.c.V.2X5X5X6Xa.c.c.c.v.9.D $ $ $ $ $ % $ $ % 0.z.c.c.c.N d p.I.^.^.Y.i.z.c.c.c.c.c.c.c.c.c.c.c.c.c.c.",
"c.c.c.c.v.9.n.n.c.c.c.c.c.c.x.a.=X3X3X$Xa.c.c.c.c.k D D f.f.$ $ % D $ % r.w.z.n.c.c.8.q.E././.T.p.c.c.c.c.c.b.c.c.c.c.c.c.c.c.c.",
"c.x.8.8.x.c.c.c.c.c.c.c.c.c.c.c.V.C.a.V.c.c.z.N.J ].].H %.%.G `.`.[.`.g.2.D.i.c.c.c.c.c.a.i.a.i.c.c.c.c.c.v.n.v.c.c.9.c.c.c.z.c.",
"c.9.c.x.8.c.c.c.c.c.c.c.c.c.c.c.c.l.c.z.c.c.z.N.K H [.K #.*.L ].K P }.G *.2.i.c.c.c.c.c.z.c.z.c.c.c.c.c.c.c.c.c.c.c.8.x.c.z.v.c.",
"c.c.c.c.v.c.c.c.c.c.c.c.c.c.c.c.c.c.c.c.c.c.c.M.=.>.I }.L L }.P >.#.L [.L h.c.v.c.c.c.c.c.c.c.c.c.c.c.c.c.c.c.c.z.8.c.c.c.c.c.c.",
"c.c.c.c.c.c.c.c.c.c.c.c.c.c.c.c.c.c.c.c.c.c.8.M.-.2.I }.K K [.P 2.#.L [.K K N.x.c.c.c.c.c.c.c.c.x.z.c.c.c.c.c.c.c.c.c.c.9.c.c.c.",
"c.c.c.c.c.c.c.c.c.c.c.c.c.c.c.c.v.c.c.c.c.c.v.u.K K }.K =.#.L {.K K }.L *.>.P J c.c.c.c.c.c.c.c.9 l c.c.c.c.c.c.c.c.c.c.c.c.c.c.",
"c.c.c.c.c.c.c.c.c.c.c.c.c.c.8.c.v.b.c.c.c.c.v.B.|.|.}.K >.2.L [.|.P }.G 5.<.|.J c.c.c.c.c.c.c.c.l.7 c.c.c.l.l c.c.c.c.c.c.c.c.c.",
"c.c.c.c.m.l 8.z.z.c.c.c.c.x.c 8.c.c.c.c.c.m.c.M.5.<.I }.|.P [.|.F.-.L ].P P [.J c.c.c.c.7 z.8.y.c.6 k 6 9.U 7 c.9.9.c.c.c.c.c.c.",
"c.c.x.c.c... .z.9.9.c.c.c.c.c.c.c.v.8.X.O.8.x.M.;.=.I [.P H [.P >.#.L ].K H [.P c.c.c.c.x.7 x g Z r 4 x u.l.4 l p.8.c.c.c.c.c.c.",
"c.x.9.z.c.7 s B r.8.c.c.c.c.c.c.c.c.c.n.z.j z.c.b.e.J J @.#.K ].G G ].L =.>.|.J c.c.c.c.z.6 u.x e w b p.c.l 4 n u.c.c.c.c.c.c.c.",
"c.c.c.c.c.x.z u.9.z.c.c.c.c.c.c.c.v.N.p.j x k c.c.c.|.H 2.2.L {.{.}..Xg.3.<..XH c.c.c.c.8.l 9.m.Z n Z z.z.8.k 8.c.c.c.c.n.c.c.c.",
"c.c.c.c.c.c.v.c.c.c.m.c.c.c.c.c.c.c.c.u.m z h x.c.m.*X6X9X-X2X2X2X2X!.!.Q.W./.:Xc.c.c.9.c.c.v.c.v.v.b.c.c.c.c.c.c.c.c.c.n.c.c.c.",
"c.c.c.c.c.c.c.c.c.c.8.c.c.v.8.c.c.c.c.c.c.c.c.c.c.V.2X5X5X5X5X5X9X5X_.~.^.~./.T.z.c.c.c.c.c.c.c.c.c.c.c.c.c.c.c.c.c.c.c.c.c.c.c.",
"c.c.c.c.c.c.c.c.c.c.k 7 v.Z s l.9.c.c.c.c.c.c.c.c.m.=X8X5X5X5X5X5X5X_.~././.^.T.c.c.c.c.c.c.c.c.c.c.c.c.c.c.c.c.c.c.c.c.c.c.c.c.",
"c.c.8.8.c.c.c.c.c.c.c.o.l j j u.u.c.c.c.c.c.c.c.z.i.$X5X5X5X5X5X5X3X(.~.~./.T.:X9.v.c.c.c.c.c.c.c.c.c.c.c.v.y.Z 8.c.c.c.c.c.c.c.",
"c.c.8.c.c.c.c.c.c.c.z.3 n n C i.c.c.c.c.c.c.z.v.c.i.2X5X8X5X5X3X5X8X_.~.~.Y.V.c.k l c.c.c.c.v.c.c.c.c.c.c.c 8.8.x.z.c.c.c.c.c.c.",
"c.c.z.c.c.c.c.c.c.c.c.a r m N c.c.c.c.c.c.c.b.c.c.c.$X4X3X3X3X3X1X1X/.!./.T.c.c.c.0 c.c.c.x.c v.c.9.c.c.c.c.c.c.c.c.c.c.c.c.c.c.",
"c.c.c.c.c.c.c.c.c.c.c.y.n B c.c.c.c.c.c.c.c.c.c.c.c.K.J.L.K.s.s.; > & ; Z a.c.c.v.+.l.h c.l 6 m.8.u.c.c.c.c.c.c.c.9.c.c.c.c.c.c.",
"c.c.c.c.c.c.c.c.c.c.c.z.m.v.c.c.c.c.c.v.8.c 9.z.c.w.1 G.G.< q.q.* & * = v h l x c.n 3 g 9.l.3 z 0.c.c.c.c.c.c.c.c.z.c.c.c.c.c.c.",
"c.c.c.c.c.c.c.c.c.c.c.c.c.c.c.c.c.c.c.c.x.8.B c.c.9.1 G.t.d.G.> : * t.q.- = p.g r S a V B l.u y p.c.c.c.c.c.c.c.8.h x.u.8.c.c.c.",
"c.c.c.l c.c.c.c.c.c.c.c.c.c.c.c.c.c.c.c.c.c.c.c.c.c.2 H.i.q.G.< - , 9.z.- - p.z.n b y y.v.l.j N u.9.c.c.c.c.c.c.b.x g m.y.c.c.c.",
"c.c.c.i 8.v.c.c.c.c.c.c.c.c.c.c.c.c.c.c.c.c.c.c.c.c.i.i.c.c.0.9.9.9.c.c.c.c.z.c.c.m.c.v.c.c.v.c.c.c.c.c.c.c.c.c.v.C r y.r.c.c.c.",
"c.c.c.i b v.c.c.c.c.c.c.c.c.c.c.c.c.c.c.c.c.c.c.c.c.c.c.c.c.c.v.c.z.c.c.c.c.c.c.c.c.c.c.c.c.x.c.c.c.c.c.c.c.c.c.m.l e M 9.c.c.c."
};
