/* XPM */
static char *princess_five_xpm1739227853[] = {
/* columns rows colors chars-per-pixel */
"64 64 214 2 ",
"   c #060405",
".  c #041B0B",
"X  c #1D0B14",
"o  c #191717",
"O  c #230F18",
"+  c #1D251C",
"@  c #331623",
"#  c #2C2C27",
"$  c #411D2E",
"%  c #422330",
"&  c #767E72",
"*  c #787E78",
"=  c #BB1A6B",
"-  c #B43969",
";  c #B62F6D",
":  c #C21C72",
">  c #CE337B",
",  c #AE4068",
"<  c #827F6C",
"1  c #C8477E",
"2  c #D4477E",
"3  c #C8517B",
"4  c #5CB63C",
"5  c #57B539",
"6  c #6DBC3E",
"7  c #65B73E",
"8  c #71BE3E",
"9  c #7BCB2D",
"0  c #6AC138",
"q  c #75C13C",
"w  c #7BC43B",
"e  c #3E915B",
"r  c #3D954F",
"t  c #479656",
"y  c #579C58",
"u  c #479350",
"i  c #649C5E",
"p  c #4BA24B",
"a  c #5DAA4B",
"s  c #58AA47",
"d  c #58AA4A",
"f  c #64AC4D",
"g  c #6FAE4E",
"h  c #65B443",
"j  c #6BB645",
"k  c #6CBA41",
"l  c #65B148",
"z  c #69B14A",
"x  c #73BC43",
"c  c #7BBE45",
"v  c #73B44C",
"b  c #74B849",
"n  c #7DBA4A",
"m  c #7AB54D",
"M  c #63A654",
"N  c #6CAB53",
"B  c #66A359",
"V  c #6AA658",
"C  c #73AD54",
"Z  c #7BAB56",
"A  c #78A85A",
"S  c #74B151",
"D  c #7BB351",
"F  c #418965",
"G  c #7B8377",
"H  c #689A66",
"J  c #74AE6D",
"K  c #79B46E",
"L  c #77AF74",
"P  c #6EB67E",
"I  c #75B175",
"U  c #7BB273",
"Y  c #73B57C",
"T  c #7AB97B",
"R  c #75B87D",
"E  c #61AF7F",
"W  c #7CC143",
"Q  c #7BC145",
"!  c #9CBE39",
"~  c #A0BE3A",
"^  c #CA9D15",
"/  c #DC9D15",
"(  c #DC9C1C",
")  c #D09F0F",
"_  c #CDA30A",
"`  c #D6A703",
"'  c #DBA402",
"]  c #DCAB00",
"[  c #DBA20E",
"{  c #D4A509",
"}  c #C9A214",
"|  c #DEA312",
" . c #E2AE08",
".. c #DC9A24",
"X. c #D19725",
"o. c #CE992B",
"O. c #E19A2F",
"+. c #84C63D",
"@. c #92CD3A",
"#. c #97D339",
"$. c #8BD32C",
"%. c #A7D936",
"&. c #B1E42E",
"*. c #EDDA2C",
"=. c #F3DE29",
"-. c #F8DF27",
";. c #EBDD37",
":. c #F6DE36",
">. c #F5E32D",
",. c #FAE62C",
"<. c #FCE92D",
"1. c #FAE325",
"2. c #FFF52E",
"3. c #EEE13A",
"4. c #EBE93C",
"5. c #ECE537",
"6. c #F3E532",
"7. c #FDED32",
"8. c #F2E339",
"9. c #FBE839",
"0. c #FFF132",
"q. c #92AC4A",
"w. c #84BD4C",
"e. c #8BBD4D",
"r. c #85BA47",
"t. c #93B948",
"y. c #87AB56",
"u. c #93AA52",
"i. c #84B453",
"p. c #84B951",
"a. c #8ABA51",
"s. c #87B355",
"d. c #94BB53",
"f. c #9ABB5A",
"g. c #9BBA59",
"h. c #85AD4F",
"j. c #86866C",
"k. c #84B368",
"l. c #87AE77",
"z. c #85B576",
"x. c #9FB560",
"c. c #A6B466",
"v. c #83C246",
"b. c #8CC547",
"n. c #86C14A",
"m. c #8BC34A",
"M. c #89C848",
"N. c #8EC946",
"B. c #93C545",
"V. c #93CA43",
"C. c #91C44C",
"Z. c #9AC948",
"A. c #87C151",
"S. c #89C150",
"D. c #92C251",
"F. c #9AC254",
"G. c #A3CB46",
"H. c #DAD444",
"J. c #F4DF46",
"K. c #F4E445",
"L. c #D73983",
"P. c #CA4880",
"I. c #DC4A8C",
"U. c #D55183",
"Y. c #E2478D",
"T. c #D57D94",
"R. c #DB7A9B",
"E. c #D97497",
"W. c #D37098",
"Q. c #E1669E",
"!. c #E3749D",
"~. c #E57B95",
"^. c #DE74A1",
"/. c #E46EA4",
"(. c #E56BA6",
"). c #E471A5",
"_. c #E775A9",
"`. c #E976A8",
"'. c #76AE86",
"]. c #66B286",
"[. c #69B385",
"{. c #6AB38A",
"}. c #71B681",
"|. c #76B18D",
" X c #60AE81",
".X c #8BA193",
"XX c #EF8FBB",
"oX c #F08EBC",
"OX c #F88DBF",
"+X c #EA98B6",
"@X c #FA93BF",
"#X c #F599BA",
"$X c #EE9CA9",
"%X c #ECA2B5",
"&X c #F3A2BC",
"*X c #FEA5B8",
"=X c #98F083",
"-X c #B3F593",
";X c #A9E68B",
":X c #C5F39C",
">X c #FB96C4",
",X c #F79CC3",
"<X c #FB9BC5",
"1X c #FF97CA",
"2X c #FF9CCB",
"3X c #F797C1",
"4X c #FF9CD1",
"5X c #F48DC0",
"6X c #F7A1C2",
"7X c #FAA0C5",
"8X c #FEA3CB",
"9X c #FFA9D1",
"0X c #F7D8D1",
"qX c #FBE3D8",
/* pixels */
"m.m.m.a.b Q m.M.m.m.m.m.m.m.m.m.m.m.m.m.m.m.m.m.m.m.m.m.m.m.m.m.m.m.m.m.m.m.m.m.m.m.m.m.m.m.m.m.m.m.m.m.m.m.m.m.m.m.m.m.m.m.m.m.",
"m.m.m.Z H z v.m.m.m.m.m.m.m.m.m.m.m.m.m.m.m.m.m.m.m.m.m.m.m.m.m.m.m.m.m.m.m.m.m.m.m.m.m.m.m.m.m.m.m.m.m.m.m.m.m.m.m.m.m.m.m.m.m.",
"m.m.m.m.s.n v.m.m.m.m.m.m.m.n.m.m.m.m.m.m.m.m.m.m.m.m.m.m.m.m.m.m.m.m.m.m.m.m.m.m.m.m.m.m.m.m.m.m.m.m.m.m.m.m.m.m.m.m.m.m.m.m.m.",
"m.m.m.m.m.m.m.m.m.m.m.m.m.m.m.m.m.m.m.m.m.m.m.m.m.m.m.m.m.m.m.m.x c m.m.m.m.m.m.m.m.m.m.m.m.m.m.m.m.n.B.V.m.m.m.m.m.m.m.m.m.m.m.",
"m.m.m.m.m.m.m.m.m.m.m.m.m.m.m.m.m.m.m.m.m.m.m.w.n.m.m.m.m.m.m.m.k Q n m.m.m.m.m.m.m.w.m.m.m.w.n.m.m.m.m.m.m.m.m.m.m.m.m.m.m.m.m.",
"m.m.m.m.m.m.m.m.m.v.m.m.m.m.m.m.m.m.m.m.m.m.w.p.w.n.m.m.m.m.m.C.7 g f p.m.m.m.m.w.w.n.m.m.m.w.m.m.m.m.m.m.m.m.m.m.m.m.m.m.m.m.m.",
"m.m.m.m.m.m.m.m.m.x Q m.p.m.m.m.m.m.m.m.m.m.m.w.m.m.m.m.m.m.m.m.v.w.D m.m.m.m.w.n.m.m.m.m.w.m.m.m.m.m.m.m.m.c W m.m.m.m.m.m.m.m.",
"m.m.m.m.m.m.m.m.C.M g j w.m.m.m.m.m.m.m.m.m.m.m.m.m.m.m.m.m.m.m.m.m.m.m.m.m.m.e.m.m.m.m.m.m.m.m.m.m.m.m.m.m.x k x m.m.m.m.m.m.m.",
"m.m.m.m.m.m.m.m.N.S C N p.m.m.m.m.m.m.m.m.m.m.C.c m.m.m.n.v.w.m.m.m.m.m.m.m.m.m.m.m.m.m.m.m.m.m.m.m.m.m.m.m.m.l c w.w.m.m.m.m.m.",
"m.m.m.m.m.m.m.m.m.m.m.m.m.m.m.m.m.m.m.m.m.m.m.m.c k m.r.4 v a.m.m.m.m.m.m.m.m.m.m.m.m.m.m.m.m.m.m.m.m.m.m.m.m.B V a e.m.m.m.m.m.",
"m.m.m.m.m.m.m.m.m.m.m.m.m.m.m.m.m.m.m.m.m.m.m.m.m.#.8 c 7 i.m.b.M.n.m.m.m.m.n.n.w.m.C.W W m.m.m.m.m.m.m.m.m.m.n p.D m.m.m.m.m.m.",
"m.m.m.m.m.m.m.m.n.w.m.m.m.m.m.m.m.m.m.m.m.m.m.m.d.%.7 B B e.d.d.d.d.d.d.m.m.a.a.m.m.m.q v.D.m.m.m.b.C.m.m.m.m.m.m.b.m.m.m.m.m.m.",
"m.m.m.m.m.n.m.m.w.w.m.m.m.m.m.m.m.m.m.m.m.m.v.g.@XXXH B S d.XX,X0X0X6X+Xe.C.#X+Xm.m.q q m.c m.C.m.m.m.m.m.m.m.m.m.m.m.m.m.m.m.m.",
"m.m.m.m.m.w.m.m.n n.m.m.m.m.m.m.m.m.m.m.r.b.d.c.>X,Xk.w.b.g.<X8XqXqX9X>Xx.x.<X+Xm.n.s S +.x c Q m.m.m.m.m.m.m.m.m.m.m.m.m.m.m.m.",
"m.m.w.w.m.m.m.b.S Z m.m.m.m.m.m.m.m.m.C.q r.,X>X(.R.d.b.b.g.>X8XqXqX9X<X>X>X(.T.v.V.8 N w m.k k C.m.m.m.m.m.m.m.m.m.m.m.m.m.m.m.",
"m.m.m.w.n.m.m.b.C Z N.m.m.m.m.m.m.m.w.m.6 a ,X1X).).g.m.a.g.>X8X0XqX8X<X2X<X`.W.v a N j y c 5 v m.m.m.m.m.m.m.m.m.m.m.m.m.m.m.m.",
"m.m.m.m.m.m.m.m.p.p.m.m.m.m.m.m.m.m.p.a.c C ,X2X1X2X6X6X6X,X2X2X8X8X8X2X2X2X<X+Xp.V S D B v.S a.N.m.m.m.m.m.m.m.m.m.m.B.N.m.m.m.",
"m.m.m.m.m.m.m.m.m.m.m.x m.m.m.m.m.m.m.m.m.F.,X2X2X2X1X<X1X>X2X2X2X1X1X1X<X<X4X&Xm.N.m.m.N.m.m.m.m.m.m.m.m.m.m.m.m.m.m.b.N.m.m.m.",
"m.m.m.m.m.m.m.m.m.m.n.v.#.m.m.m.m.n.m.m.n.D.,X2X2XoX@ X O % 3X2X2X<X@ X O @ 5X&Xm.n.m.m.m.m.m.m.m.m.m.m.m.N.m.m.m.m.m.m.m.m.m.m.",
"m.m.m.m.m.m.m.c C.m.m.v.q m.c m.x x C.m.m.f.<X2X8XoX+ .   X >X2X2X>X# .     oX6XD.m.m.m.m.m.m.m.m.m.m.m.M.%.Z.Q m.m.m.m.m.m.m.m.",
"m.m.m.m.m.m.m.x Q Q n.n.a 7 7 m.x 7 n.D.%X,X2X2X2X7X-X=X. X <X2X1X8X-X=X    oX8X,X%XF.v.m.m.m.m.m.m.m.m.n.V.@.h w.w.m.m.m.m.m.m.",
"m.m.m.m.m.m.m.v.h v.6 y t 7 m.m.W 5 Q D.6X4X<X2X2X7X:X-X+ @ >X2X<X8X:X;Xo O oX8X2X2Xd.m.m.m.p.p.m.m.m.m.m.C.N S s.i.m.m.m.m.m.m.",
"m.m.m.m.m.m.m.w.V C.Q y y v w.m.W 7 W D.&X2X2X2X2X2X7X7XoXoX2X<XI.I.<X7XoXoX1X2X2X6XF.n.S.m.m.w.m.m.m.m.m.v.p C p.e.m.m.m.m.m.m.",
"m.m.m.m.m.m.m.m.m.m.m.m.m.m.m.m.b.M.m.D.&X2X<X2X2X2X2X2X1X1X>X>XY.I.OX1X<X2X2X2X2X7Xp.0 m.m.w.m.m.m.m.m.m.v.a A m.m.m.m.m.m.m.m.",
"m.m.m.m.m.m.m.m.m.m.m.m.m.m.m.m.m.m.m.m.&X2X2X2X2X2X<X2X)././.).1X8X`././._.<X2X2X,XF.9 v.A.e.m.m.m.m.m.m.m.C.m.m.m.m.m.m.m.m.m.",
"m.m.m.w.m.m.m.m.m.m.m.m.m.m.m.m.m.m.m.d.6X2X2X2X2X2X2X>X_.).)._.1X2X`.).)._.1X2X2X,XG.$.Q s.e.m.m.m.m.m.m.m.m.m.m.m.m.m.m.m.m.m.",
"m.m.v.A Z m.m.m.m.m.m.m.m.m.m.m.m.m.M.e.6X2X2X2X2X2X2X2X1X<X<X<X2X2X<X<X<X<X2X2X2X,XF.f v.w.m.m.m.m.m.m.m.m.m.m.m.m.m.m.m.w.m.m.",
"m.m.m.n m.m.m.m.m.m.m.m.m.m.m.c m.m.m.C.#X2X<X<X<X2X2X2X2X2X2X2X2X2X2X2X2X2X2X<X1X3XF.g l b.m.m.m.m.m.m.V.m.w.n.m.m.m.m.w.Z w.m.",
"m.m.m.4 x w.w.m.m.m.m.m.m.B.m.x v.c W s.X.O.<X2X2X2X8X2X2X2X2X2X8X2X2X2X2X8X4X#X....B.m.C.m.m.m.m.m.m.m.&.w.w.m.m.m.m.m.w.n.m.m.",
"m.m.m.a y b.m.m.m.m.m.m.m.b.m.V.+.j t.q.{  .#X>X@X>X@X>X>X<X>X>X>X>X>X>X>X@X>X$X' ` t.e.b.m.m.m.m.m.m.m.q w.w.m.m.m.m.m.m.m.m.m.",
"m.m.m.w.w.m.m.m.m.m.m.m.m.m.m.b.7 N ;.,.0.<.| / | ( / ..!.(.).).(.).(.).../ | | ' ' ) ^ e.m.m.D w.m.m.m.n.m.w.m.m.m.m.m.m.m.m.m.",
"m.m.m.m.B.m.m.m.m.m.m.m.w.n.w.m.V.m.4.0.0.7.{ ` ] ] ] [ ~.!.!.!.!.!.).!.[ ] ` ' ' ' ' ) t.b.m.Z w.m.m.m.m.m.m.m.m.m.m.m.m.m.m.m.",
"m.m.m.m.m.m.m.m.m.m.m.m.w.n.b.C.5.6.0.7.2.8.t.G.7.7.<.7.9.:.[ [ ' ( @X<X9.:.t.! ' ' ' { ' } e.m.m.m.m.m.m.m.m.m.m.m.m.m.m.m.m.m.",
"m.m.m.m.m.m.m.n.m.m.m.m.m.v.p.S.7.0.7.7.<.:.i.Z.6.<.7.0.0.1.' ' [ ..>X#X9.9.a.e.) { ' ' ' ^ e.m.m.m.m.m.m.v.m.m.m.m.m.m.e.m.m.m.",
"m.m.m.m.m.m.m.6 n.n e.m.m.r.;.4.0.0.0.,.~ B.m.m.t.~ 8.<.7.>.k.l.#X@X.Xl.<.7.4.H.s.t.' ' ' / R.T.T.T.u.M.n.w n.n.m.m.m.A.Z m.m.m.",
"m.m.m.m.m.m.b.v.j n a.m.e.G.<.0.7.7.,.*.r.m.m.m.m.a.8.0.0.6.I {.6X#X'.K <.0.2.3.a.m.} ^ _ o.(.(.(.Q.u.M.B.#.k n m.m.m.m.n.n.m.m.",
"m.m.m.m.m.m.C.c h b c d.+X6X&X*X9.<.~ b.m.m.m.m.m.t.8.0.0.>.U }.K.9.U U <.7.0.3.b v.e.e.h u.(.(.`.Q.u.M.s.b k b D m.m.m.m.m.m.m.",
"m.m.m.m.m.m.m.A V j v d.3X2X2X7XK.5.B.n.b.m.m.m.m.a.3.0.0.>.I }.5.>.T U ,.7.0.;.r.0 b.x p u.W.R.!.W.u.M.a.V i f D m.m.m.m.m.m.m.",
"m.m.m.m.m.m.m.m.w.m.b.d.3X4X2X,Xg.x r.m.m.m.m.m.m.a.8.0.0.6.U {.[.}.{.k.7.0.0.3.e.6 h h c a.i.C.m.e.m.m.m.m.p.m.m.m.m.m.m.m.m.m.",
"m.m.m.m.m.m.m.m.m.e.v.d.$X&X&X%Xd.l c W m.m.m.m.m.e.8.0.>.*.J  XU U E J =.>.8.H.a.s z M S e.m.m.m.m.m.m.m.m.m.m.m.m.m.m.m.m.m.m.",
"m.m.m.m.m.m.m.m.m.m.m.m.m.m.m.m.C.V C f m.m.m.m.m.e.8.<. ._ e r _ ' u t ) ` t.a.m.C N Q p.m.m.m.m.m.m.m.m.m.m.m.m.m.m.m.m.m.m.m.",
"m.m.m.m.m.m.N.V.m.m.m.m.m.m.m.m.m.n.m.w.m.m.m.m.m.n 3.6.` ^ e u _ ' u e ) { B.N.m.m.p.m.m.m.m.m.w.m.m.m.m.m.B.m.m.m.m.m.m.m.m.m.",
"m.m.w.n.w.m.b.m.m.m.m.m.m.m.m.m.m.m.m.b.m.m.m.m.m.m.j.j.j.< & & < < & & y.r.m.m.m.m.N.m.m.m.m.n.n.m.m.m.m.m.V.m.m.m.m.n.m.m.b.m.",
"m.w.m.w.w.m.m.m.m.m.m.m.m.m.m.m.m.m.m.m.m.m.m.m.m.m.G * < < * G * G * G h.h.m.m.m.m.m.m.m.m.m.m.m.m.m.m.m.m.m.m.m.m.e.w.m.b.b.m.",
"m.m.m.m.m.m.m.m.m.m.m.m.m.m.m.m.m.m.m.m.m.m.b.p.[.[.[.I *.*.L [.[.[.[.U =.;.a.m.m.m.m.m.m.m.m.m.m.m.m.m.m.m.m.m.m.w.m.m.m.m.m.m.",
"m.m.m.m.m.m.m.m.m.m.m.m.m.m.m.m.m.m.m.m.m.m.m.S.U U [.I *.=.I [.U k.[.U 1.:.t.m.m.m.m.m.m.m.m.m.M.b.m.m.m.m.m.m.m.m.m.m.n.m.m.m.",
"m.m.m.m.m.m.m.m.m.m.m.m.m.m.m.m.N.m.m.m.m.m.n.Z.<.>.T {.I I [.Y 6.-.U [.I K w.m.m.m.m.m.m.m.m.m.q W m.m.m.m.m.m.m.m.m.m.m.m.m.m.",
"m.m.m.m.m.m.m.m.m.m.m.m.m.m.w.m.b.N.m.m.m.m.n.Z.9.4.T [.}.}.[.R 4.6.U [.[.R S.m.m.m.m.m.m.m.m.m.M.6 m.m.m.v.c m.m.m.m.m.m.m.m.m.",
"m.m.m.m.C.c r.m.b.m.m.m.m.n.n w.m.m.m.m.m.m.m.S.R }.{.I 5.6.I [.R R ].z.6.4.Y I m.m.m.S.q v.e.p.w.k c 4 w.W 8 C.w.e.m.m.m.m.m.m.",
"m.m.m.m.C.@.+.b.e.n.m.m.m.m.m.m.m.m.S.#.%.w.m.A.I I ].I =.>.I [.I I ].U 1.>.[.P S.S.m.m.v.q b j D p 4 v p.v.5 c s.w.m.m.m.m.m.m.",
"m.m.n.m.m.8 5 Z Z e.m.m.m.m.m.m.m.m.m.V.N.z n.Z.>.5.R ].I U {.Y 5.>.U ].U U ].T 4.4.B.m.m.4 p.b t t M i.m.c 5 g p.m.m.m.m.m.m.m.",
"m.m.m.m.m.v.S p.m.m.m.m.m.m.m.m.m.m.n.s.z b x V.>.6.T [.U U [.R 5.=.U {.U U ].z.>.6.B.m.m.c a.C.D C Z b.m.w.x w.m.m.m.m.V.m.m.m.",
"m.m.m.m.m.m.m.m.m.m.m.m.m.m.m.m.m.m.m.p.B v 6 w.B.t.[.I >.1.Y ].I I ].K 1.6.P [.I I n.m.m.m.m.m.m.C.b.m.m.m.m.m.m.m.m.m.V.m.m.m.",
"m.m.m.m.m.m.m.m.m.m.v.m.m.m.v.m.m.m.m.m.m.m.m.m.m.n.P U :.8.l.|.|.|.|.l.9.K.Y '.'.'.A.m.m.m.m.m.m.m.m.m.m.m.m.m.m.m.m.m.m.m.m.m.",
"m.m.w.m.m.m.m.m.m.m.x x m.D s v.e.m.m.m.m.m.m.m.m.m.n.a.#X<X,X,X<X,X,X,X`.!.^.^./.R.d.m.m.m.m.m.m.m.m.m.m.m.b.m.m.m.m.m.m.m.m.m.",
"m.m.w.m.m.m.m.m.m.m.C.$.Q l j p.a.m.m.m.m.m.m.m.m.m.F.c.3X4X2X2X2X1X>X>X)./././.R.T.d.M.m.m.m.m.m.m.m.m.m.m.p.D r.m.m.m.m.m.m.m.",
"m.m.m.m.m.m.m.m.m.m.M.4 g N S a.m.m.m.m.m.m.b.m.m.D.#X1X2X1X2X2X8X2X`.).).).(.R.x c m.m.m.m.m.m.m.m.m.m.m.n w.m.m.m.m.m.m.m.m.m.",
"m.m.m.m.m.m.m.m.m.m.m.y y B C m.m.m.m.m.m.m.V.m.m.S.#X1X<X2X<X,X<X1X_.).).^.W.$Xm.w m.m.m.m.v.m.m.e.m.m.m.n.m.m.m.m.m.m.m.m.m.m.",
"m.m.m.m.m.m.m.m.m.m.m.s.V D m.m.m.m.m.m.m.b.m.m.M.e.U.I.Y.U.f.F.; : : ; h.e.q.a.m.&.v.k n.c k m.p.e.m.m.m.m.m.m.m.m.m.m.m.m.m.m.",
"m.m.m.m.m.m.m.m.m.m.m.m.B.m.m.m.m.m.m.m.w.w.w.m.M.t.1 L.L.1 t.q.; = ; - v k c x m.g 4 h m.w.5 v p.m.m.m.m.m.m.m.m.n.m.m.m.m.m.m.",
"m.m.m.m.m.m.m.m.m.m.m.m.m.m.m.m.m.m.m.m.w.w.Z w.m.e.I.L.y.u.L.> = = u.e.- - p.j y F y A i.v.p i i.m.m.m.m.m.m.m.w.6 b.p.w.m.m.m.",
"m.m.m.Q m.m.m.m.m.m.m.m.m.m.m.m.m.m.m.m.m.m.m.m.M.m.3 1 p.t.L.P.- - e.m.- - p.m.N M B i.m.v.f C p.e.m.m.m.m.m.m.m.v j C.i.m.m.m.",
"m.m.m.a n.m.m.m.m.m.m.m.m.m.m.m.m.m.m.m.b.m.m.m.m.m.e.a.m.m.a.p.m.m.m.m.m.m.m.m.m.C.b.m.m.m.m.m.m.m.m.m.m.m.m.m.B.S y i.i.m.m.m.",
"m.m.m.a M m.m.m.m.m.m.m.m.m.m.m.m.m.m.m.m.m.m.m.m.m.m.b.m.m.M.m.m.m.m.m.m.m.m.m.m.m.m.m.m.m.m.m.m.m.m.m.m.m.m.m.m.W t i e.m.m.m."
};
