/* XPM */
static char *princess_one_xpm1739227854[] = {
/* columns rows colors chars-per-pixel */
"64 64 219 2 ",
"   c #060505",
".  c #11080C",
"X  c #121310",
"o  c #231219",
"O  c #260F19",
"+  c #291E23",
"@  c #371927",
"#  c #2C2D27",
"$  c #7C7E74",
"%  c #BB1B6C",
"&  c #B8256B",
"*  c #B43969",
"=  c #BA3371",
"-  c #AD3B6A",
";  c #C21C71",
":  c #CC327A",
">  c #AE4068",
",  c #C8467F",
"<  c #D4477E",
"1  c #C8517B",
"2  c #5CB63C",
"3  c #57B539",
"4  c #6DBC3E",
"5  c #64B73E",
"6  c #71BE3E",
"7  c #7DCA2F",
"8  c #75C13D",
"9  c #7CC33B",
"0  c #4A9857",
"q  c #579C58",
"w  c #639C5A",
"e  c #729F5D",
"r  c #4BA24B",
"t  c #5DAA4B",
"y  c #57A845",
"u  c #58A457",
"i  c #51AB50",
"p  c #68AD4C",
"a  c #65B443",
"s  c #6CB645",
"d  c #6CBA41",
"f  c #68B14A",
"g  c #74BC43",
"h  c #7BBE45",
"j  c #74B54B",
"k  c #74B949",
"l  c #7CBB4A",
"z  c #79B54D",
"x  c #6BAB53",
"c  c #66A359",
"v  c #66A656",
"b  c #73AC55",
"n  c #7BAB56",
"m  c #77A75B",
"M  c #75B151",
"N  c #7BB352",
"B  c #6EB04C",
"V  c #469465",
"C  c #7A8376",
"Z  c #798975",
"A  c #6B9D65",
"S  c #4CA366",
"D  c #50A269",
"F  c #78AC78",
"G  c #76B175",
"H  c #7BB272",
"J  c #74B57C",
"K  c #75B97D",
"L  c #78B87C",
"P  c #77AF6C",
"I  c #7DC143",
"U  c #77C040",
"Y  c #BE9F18",
"T  c #96BE3E",
"R  c #A1BC38",
"E  c #D19F0C",
"W  c #D19D18",
"Q  c #CFA709",
"!  c #DBA502",
"~  c #D2A20B",
"^  c #DAA907",
"/  c #C9A516",
"(  c #DAAE0F",
")  c #E2AA05",
"_  c #E4B207",
"`  c #85C63C",
"'  c #95C03E",
"]  c #92CD3A",
"[  c #9AD23C",
"{  c #8DD22E",
"}  c #A7DD34",
"|  c #B1E42E",
" . c #EDDC2E",
".. c #E9DC38",
"X. c #F4DE2D",
"o. c #F5E32C",
"O. c #FAE62C",
"+. c #FCEA2C",
"@. c #FAE427",
"#. c #FEF32D",
"$. c #EEE234",
"%. c #E7E63D",
"&. c #EBE43B",
"*. c #EAE93D",
"=. c #F3E433",
"-. c #FDEE32",
";. c #F2E339",
":. c #F4EB3A",
">. c #FEEA3B",
",. c #FAE739",
"<. c #FFF131",
"1. c #8CB54D",
"2. c #84BD4B",
"3. c #8BBD4D",
"4. c #85B947",
"5. c #91B34D",
"6. c #91BD4F",
"7. c #95B944",
"8. c #87AD57",
"9. c #97A858",
"0. c #84B553",
"q. c #8AB454",
"w. c #85B951",
"e. c #8CBB51",
"r. c #87B859",
"t. c #93BD53",
"y. c #9BBC5C",
"u. c #95B757",
"i. c #94AE4B",
"p. c #89896D",
"a. c #838072",
"s. c #80AE6F",
"d. c #85B367",
"f. c #9EB565",
"g. c #A7B767",
"h. c #A2B34E",
"j. c #84C245",
"k. c #8CC547",
"l. c #86C14A",
"z. c #8BC34A",
"x. c #8CC946",
"c. c #90C445",
"v. c #93CA43",
"b. c #91C44C",
"n. c #9AC745",
"m. c #87C151",
"M. c #8BC252",
"N. c #8EC358",
"B. c #91C151",
"V. c #98C156",
"C. c #8BD97A",
"Z. c #EFDB48",
"A. c #E9E641",
"S. c #FDE444",
"D. c #FEE14C",
"F. c #FFEA42",
"G. c #FFE050",
"H. c #D1D544",
"J. c #D73983",
"K. c #CA4880",
"L. c #DD458A",
"P. c #D14E86",
"I. c #D65184",
"U. c #E2428B",
"Y. c #DB689A",
"T. c #DB6798",
"R. c #DD759D",
"E. c #D7789B",
"W. c #D37592",
"Q. c #E3769E",
"!. c #E0699F",
"~. c #DE73A0",
"^. c #E46EA4",
"/. c #E86EAA",
"(. c #E572A5",
"). c #E775A8",
"_. c #E876AA",
"`. c #6AAE84",
"'. c #66B386",
"]. c #69B385",
"[. c #66B388",
"{. c #72B781",
"}. c #81B382",
"|. c #D9809B",
" X c #E98298",
".X c #EF8EBA",
"XX c #F18DBD",
"oX c #EB9FBE",
"OX c #EC9BB4",
"+X c #F392BE",
"@X c #F39DBC",
"#X c #DEA3B5",
"$X c #E8A7AB",
"%X c #FCACAB",
"&X c #EDA2B6",
"*X c #EDA2BB",
"=X c #FEA7B5",
"-X c #F4A1BD",
";X c #FFA4BC",
":X c #93E780",
">X c #AFEB91",
",X c #B0EF91",
"<X c #CAF9A2",
"1X c #FB96C4",
"2X c #F59DC2",
"3X c #FB9CC5",
"4X c #FF97C9",
"5X c #FF9CCB",
"6X c #F797C0",
"7X c #FF9AD1",
"8X c #E99FC1",
"9X c #FEA0C4",
"0X c #FEA2CC",
"qX c #F8A6C4",
"wX c #FFA8D1",
"eX c #FCD9D6",
"rX c #EDDDCE",
"tX c #FDE1D7",
"yX c #ECE2CF",
/* pixels */
"z.z.z.w.k 4 b.z.z.z.z.z.z.z.z.z.z.z.z.z.z.z.z.z.z.z.z.z.z.z.z.z.z.z.z.z.z.z.z.z.z.z.z.z.z.z.z.z.z.z.z.z.z.z.z.z.z.z.z.z.z.z.z.z.",
"z.z.z.8.A f j.z.z.z.z.z.z.z.z.z.z.z.z.z.z.z.z.z.z.z.z.z.z.z.z.z.z.z.z.z.z.z.z.z.z.z.z.z.z.z.z.z.z.z.z.z.z.z.z.z.z.z.z.z.z.z.z.z.",
"z.z.z.z.r.z j.z.z.z.z.z.z.z.z.z.z.z.z.z.z.z.z.z.z.z.z.z.z.z.k.k.z.z.z.z.z.z.z.z.z.z.z.z.z.z.z.z.z.z.z.z.z.z.z.z.z.z.z.z.z.z.z.z.",
"z.z.z.z.z.z.z.z.z.z.z.z.z.z.z.z.z.z.z.z.z.z.z.z.B.M.z.z.3.b.N.N.k 2.z.z.z.z.B.z.z.z.z.z.z.z.z.z.z.z.z.k.v.z.z.z.z.z.z.z.z.z.z.z.",
"z.z.z.z.z.z.z.z.z.z.z.z.z.z.z.z.z.z.z.z.z.z.I u.-X-XB.z.OXqXyXyX-XOXq.x.j.B.-X&Xz.z.2.z.z.z.2.z.z.z.z.z.z.z.z.z.z.z.z.z.z.z.z.z.",
"z.z.z.z.z.z.z.z.z.j.j.z.z.z.z.z.z.z.z.z.z.z.M.f.5X1XV.t.OXwXtXeXwX4Xe 2.V.y.5XOX3.2.l.z.k.l.w.l.z.z.z.z.z.z.b.z.z.z.z.z.z.z.z.z.",
"z.z.z.z.z.z.z.z.b.g I z.w.z.z.z.z.z.z.z.z.t.-X6X^.R.6.j.j.y.1X0XeXeXd.3.&X1X(.E.2.z.z.z.z.l.z.z.z.z.z.z.z.z.h h z.z.z.z.z.z.z.z.",
"z.z.z.z.z.z.z.l.x.v x s 2.z.z.z.z.z.z.z.l.V.3X4X_.).g.t.y.g.1X5XeXeXg.y.qX5X_.|.z.z.z.z.z.z.z.z.z.z.z.z.z.z.g d g z.z.z.z.z.z.z.",
"z.z.z.z.z.z.z.z.x.M b x w.z.z.z.z.z.z.z.z.V.3X5X5X5X0X5X0X5X5X5X5X3X0X5X5X0X5X&Xz.z.z.z.z.z.z.z.z.z.z.z.z.z.z.f h l 3.z.z.z.z.z.",
"z.z.z.z.z.z.z.z.z.z.z.z.z.z.z.z.z.z.z.z.z.t.2X5X5X5X+X.X.X+X3X5X5X5X+X.X.X.X5XoXz.z.z.z.z.z.z.z.z.z.z.z.z.l.z.c x t 3.z.z.z.z.z.",
"z.z.z.z.z.z.z.z.z.z.z.z.z.z.z.z.z.z.z.z.j.B.3X5X5X.Xo . . @ 1X0X5X1X@   . o XX&X2.z.b.h j.z.z.z.z.z.z.z.z.z.z.2.0.N z.z.z.z.z.z.",
"z.z.z.z.z.z.z.z.z.2.z.z.z.z.z.z.z.z.z.z.t.y.9X5X0X.XX     o 1X5X5X1X+     . +X-X5.t.z.6 j.b.z.z.z.k.k.z.z.z.z.z.z.k.z.z.z.z.z.z.",
"z.z.z.z.2.z.z.z.2.2.z.z.z.z.z.z.z.z.z.B.OX1X3X5X5X9X>XC.X X 1X5X5X0X>XC.    .X0X6X@Xl 8 z.h z.z.z.z.z.z.z.z.z.z.z.l.z.z.z.z.z.z.",
"z.z.z.z.z.z.z.z.l l.z.z.z.z.z.z.z.z.z.M.-X5X5X5X5X3X<X,X# @ 1X0X1X3X<X>Xo @ +X0X5X3Xp f j.g I l z.z.z.z.z.z.z.z.z.z.z.z.z.z.z.z.",
"z.z.2.2.z.z.z.j.M n z.z.z.z.z.z.z.z.k.B.-X5X5X5X5X5XwXwX1X1X5X1XL.L.2X0X3X1X5X5X5X9Xw.x 9 z.d d b.z.z.z.z.z.z.z.z.z.z.z.z.z.z.z.",
"z.z.z.2.z.z.z.k.b n z.z.z.z.z.z.z.z.l.e.-X5X3X5X5X5X5X3X5X5X1X1XL.L.1X5X5X5X5X5X5X2Xm s q h 3 k z.z.z.z.z.z.z.z.z.z.z.z.z.z.z.z.",
"z.z.z.z.z.z.z.z.w.w.z.z.z.z.z.z.z.z.2.q.-X7X5X5X5X5X5X1X_.).).).1X4X_.(.).).1X5X5X2X8.j c j.j w.z.z.z.z.z.z.z.z.z.z.z.v.x.z.z.z.",
"z.z.z.z.z.z.z.z.z.z.z.g z.z.z.z.z.z.z.B.-X5X5X5X5X5X5X1X(.(.^.(.1X5X_.~.^.).5X0X5X9XN.x.b.z.z.z.z.z.z.z.z.z.z.z.z.z.z.z.c.z.z.z.",
"z.z.z.z.z.z.z.z.z.z.l.j.[ z.z.z.z.l.z.B.-X7X3X5X5X5X5X5X1X1X1X1X5X5X1X4X1X1X5X5X7X3XV.l.z.z.z.z.z.z.z.z.z.v.M.z.z.z.z.z.z.z.z.z.",
"z.z.z.z.z.z.z.h z.b.z.j.8 l.h z.g g z.z.OX1X3X5X3X5X5X5X5X5X5X0X3X5X5X5X0X3X5X1X1XoXV.l.z.z.z.z.z.z.z.z.z.} v.I z.z.z.z.z.z.z.z.",
"z.z.z.z.z.z.z.g I I l.l.t 5 5 z.g 5 k.z.6.y.3X7X5X5X7X5X5X0X5X5X5X5X5X5X5X5X7XoXt.t.z.z.z.z.z.z.z.z.z.z.z.v.] a 2.2.z.z.z.z.z.z.",
"z.z.z.z.z.z.z.2.a j.d q 0 5 z.z.I 3 h z.j.B.&XqX-X-X2X-X1X3X1X1X1X5X3X-X-X@X3X$Xz.k.z.z.z.z.w.0.z.z.z.z.z.b.x M q.0.z.z.z.z.z.z.",
"z.z.z.z.z.z.k.2.x z.l q q j 2.z.j.2 2.z.z.z.b.e.e.e.b.5.!.).(.(.(.Y.9.z.t.M.B.6.z.z.z.j.z.z.3.3.z.z.z.z.z.I r b 0.z.z.z.z.z.z.z.",
"z.z.z.z.z.z.z.z.z.z.z.z.z.z.z.z.k.k.z.z.z.z.b.h ` n.V.f.W. X_._._.(.7.v.T n.j.z.z.z.h 6 z.z.z.z.z.z.z.z.z.j.t n z.z.z.z.z.z.z.z.",
"z.z.z.z.z.z.z.z.z.z.z.z.z.z.z.z.z.z.z.z.z.z.l.` +.>.;X3X-.S.5X5X5X5XD.+.^ Q 3.z.z.z.x.7 j.w.2.z.z.z.z.z.z.z.z.z.z.z.z.z.z.z.z.z.",
"z.z.z.l.3.z.z.z.z.z.z.z.z.z.z.z.z.z.z.z.z.b.2.h -.>.=X=X>.D.3X3X9X9XD.>._ ^ 7.k.z.z.[ { j.8.3.z.z.z.z.z.z.z.z.z.z.z.z.z.z.z.z.z.",
"z.z.2.m n z.z.z.z.z.z.z.z.z.z.z.z.z.z.z.l.x.&.&.-.-.>.G.;X%X>.>.>.F.%X=X,.@.^ / z.z.v.v ` 3.2.z.z.z.z.z.z.z.z.z.z.z.z.z.z.2.z.z.",
"z.z.l.h b.z.z.z.z.z.z.z.z.z.z.h z.z.z.z.7.n.+.<.-.-.#.>.9X%X>.>.>.>.=X5XF.#.^ ( 3.2.k.b a l.z.z.z.z.z.z.v.z.2.z.z.z.z.z.0.n 2.l.",
"z.z.z.2 g 2.2.k.z.z.z.z.z.c.k.g j.I I r...o.-.-.<.#.-.-.-.D.3X0X3X5X5X0XS.+.-.o.W / 3.z.b.z.z.z.z.z.z.z.| 2.2.z.z.z.z.z.2.z.z.z.",
"z.z.k.t q z.z.z.z.z.z.z.z.k.z.v.7 s 7.5.:.<.-.-.&.&.-.-.#.S.oX8X=X=XoX*X,.#.<.O.! ! 7.2.z.z.z.z.z.z.z.z.8 2.2.z.z.z.z.z.z.z.z.z.",
"z.z.z.2.3.z.z.z.z.z.z.z.z.z.z.k.5 b ..+.<.<.<...w.e.;.<.<.o.H {.:.+.H H +.-.<.O.! ! E / 3.k.z.N 2.z.z.z.l.l.l.z.z.z.z.z.z.z.z.z.",
"z.z.z.z.k.k.z.z.z.z.z.z.2.l.2.z.z.z.A.<.<.-.-.%.3.3.;.<.<.=.H ].*.o.F H +.<.<.o.! ! ! ~ 1.z.z.N w.z.z.z.z.z.z.z.z.z.z.z.z.z.z.z.",
"z.z.z.z.z.z.z.z.z.z.z.z.2.z.z.z.k.m.%.#.<.;.6.c.z.5.;.<.<.o.G '.L L [.s.+.<.<.O.E ! ) E 5.z.z.k.z.z.z.z.z.z.z.z.z.z.z.z.z.z.z.z.",
"z.z.z.z.z.z.z.z.z.z.z.z.z.2.l.z.z.M.%.-.<.;.e.z.z.3.&.#.<.o.G J ].].[.H +.-.O.X.) ! ! E 1.z.z.z.z.z.z.z.z.2.z.z.z.z.z.z.z.z.z.z.",
"z.z.z.z.z.z.z.5 l.l M.z.z.l.l.z.k.z.%.<.<.;.e.z.z.3.;.+._ / S S / / u D ( _ n.R ! ! ) E 1.z.z.z.z.z.z.z.j.9 l.2.z.z.z.2.n z.z.z.",
"z.z.z.z.z.z.z.9 s k e.l.z.z.z.l.z.z.%.<.<.=.3.k.z.6.:.+.^ / S S Q ! u S E Q z.7.E ) E E 3.z.z.z.z.z.z.z.v.[ d 2.z.z.z.z.z.2.z.z.",
"z.z.z.z.z.z.z.2.s k l 3.z.z.z.z.z.m.%.-.#.;.e.z.z.6.;.#.-. .G '.J G '.H @.$.3.T ! ! ! E B j.z.z.z.z.z.3.0.k d j N z.z.z.z.z.z.z.",
"z.z.z.z.z.z.z.m c s j z.z.z.z.z.z.z.%.<.<.;.t.z.z.w...:.*.%.P '.`.`.`.H =.Z.e.T ! E ! E w 2.w.z.z.z.z.z.w.c q p N z.z.z.z.z.z.z.",
"z.z.z.z.z.z.z.z.z.3.k.z.z.z.z.z.M.U &.#.#.;.2.j.z.z.a.a.> F $ $ $ $ $ $ q.3.l.' ) ) ) E 4.2.1.z.z.z.z.z.b.z.3.z.z.z.z.z.z.z.z.z.",
"z.z.z.z.z.z.z.z.z.z.z.z.z.z.z.z.z.B H.;.S.Z.g.y.M.w.Z C p.p.C Z C C C Z n.n.u.h.W W Q Y n 1.z.z.z.z.z.z.z.z.z.z.z.z.z.z.z.z.z.z.",
"z.z.z.z.z.z.z.z.z.z.z.z.z.z.z.l.x.c b m @X5X5X*X].].].G o.O.H '.].].'.H +.>.Q.^.(.Y.m l w.j.z.z.z.z.z.z.z.z.z.z.z.z.z.z.z.z.z.z.",
"z.z.z.z.z.z.v.v.z.z.z.z.z.z.z.z.z.z.l.e.@X7X5X8X{.{.].F $.;.G [.J J ].H o.S.Q.^.(.R.r.k.b.z.z.z.2.z.z.z.z.z.k.z.z.z.z.z.z.z.z.z.",
"z.z.2.2.2.z.z.z.z.z.z.z.z.z.z.z.z.z.z.b.2X5X7X=X:.*.L ].K J '.J A.=.H ].K {.(././.Q.t.z.z.z.z.2.l.z.z.z.z.c.v.b.2.z.z.z.z.k.z.z.",
"z.z.2.z.2.z.z.z.z.z.z.z.z.z.z.z.z.z.z.M.&XqX2X$X+.O.L '.J G '.J =.@.H ].G F E.R.R.E.t.x.z.z.z.z.z.z.z.z.z.z.z.z.z.z.2.z.z.k.z.z.",
"z.z.z.z.z.z.z.z.z.z.z.z.z.z.z.z.z.z.z.z.z.6.b.r.H H [.J  . .G ].H H ].H @...u.z.3.b.z.z.z.z.z.z.z.z.z.z.z.z.z.z.z.2.z.z.z.z.z.z.",
"z.z.z.z.z.z.z.z.z.z.z.z.z.z.z.z.z.z.z.z.z.z.z.z.G G ].G  .o.G ].G H ].H @. .3.l.z.j.z.z.z.z.z.z.j.z.z.z.z.z.z.z.z.z.z.z.2.z.z.z.",
"z.z.z.z.z.z.z.z.z.z.z.z.z.z.z.z.z.k.z.z.z.z.z.n.O.o.L '.G G ].J =.@.H '.G G z.z.z.z.z.z.z.z.z.z.9 I z.z.z.z.z.z.z.z.z.z.z.z.z.z.",
"z.z.z.z.z.z.z.z.z.z.z.z.z.z.l.z.x.k.z.z.z.z.z.n.-.:.L '.{.J ].J *.=.H ].{.K z.z.z.z.z.z.z.z.b.z.j.6 z.z.z.j.h z.z.z.z.z.z.z.z.z.",
"z.z.z.z.b.h 2.z.k.z.z.z.z.l.l l.z.z.z.z.z.z.b.M.J J ].G ..=.G ].J L ].H O.A.e.z.z.z.z.z.9 j.2.0.2.5 g 5 z.I 4 z.3.2.z.z.z.z.z.z.",
"z.z.z.z.z.] ` k.3.z.z.z.z.z.z.z.z.z.l.[ } 2.j.m.].].].G O.+.H '.`.`.`.P @.=.3.z.z.z.z.z.l.6 h s N u 3 k 0.j.2 h 0.3.z.z.z.z.z.z.",
"z.l.l.z.z.6 y N n 3.z.z.z.z.z.z.z.z.z.v.x.f j.z.m.M.#XoX=X$XM.r.W.E.R.W.i.T z.z.z.z.z.z.l.2 0.k 0 0 v 0.z.I 3 x 0.z.z.z.z.z.z.z.",
"z.z.z.z.z.j.k 0.3.z.z.z.z.z.z.z.z.z.3.r.f k h z.z.b.3X5X7X*Xk.t.(././.T.q.j.z.z.z.z.z.z.z.l z.z.M b N z.k.4.g 2.z.z.z.z.v.z.z.z.",
"z.z.z.z.z.z.b.z.z.z.z.z.z.z.z.z.z.z.z.w.c j 5 z.z.M.-X5X5X&Xz.z.R.^.(.Y.1.x.c.x.z.z.z.z.z.z.z.z.z.b.k.z.z.z.b.z.z.z.z.z.v.z.z.z.",
"z.z.z.z.z.z.z.z.z.z.h z.z.z.j.z.z.z.z.z.M.z.z.z.z.b.2X5X5X*Xz.6.R.^.(.Y.5.v.v.v.k.z.z.z.z.z.z.z.z.z.z.z.z.z.z.z.z.z.z.z.z.z.z.z.",
"z.z.2.z.z.z.z.z.z.z.g h x.M y j.3.z.z.z.z.z.z.z.z.B.@X5X5X&Xz.t.R.^.(.Y.5.z.z.z.z.z.z.z.z.z.z.z.z.z.z.z.z.z.z.j.z.z.z.z.z.z.z.z.",
"z.z.2.z.z.z.z.z.z.z.z.{ h f s w.3.z.z.z.z.z.z.z.j.B.-X5X5XoXz.6.R.^.(.Y.5.k.2.z.z.z.z.z.z.z.z.z.z.z.z.z.z.z.0.N 2.z.z.z.z.z.z.z.",
"z.z.z.z.z.z.z.z.z.z.k.5 x x b 3.z.z.z.z.z.z.k.z.z.B.-X5X7X&Xz.t.R.(.).T.1.x.z.z.d h z.z.z.z.z.z.z.z.z.z.z.l 2.2.l.z.z.z.z.z.z.z.",
"z.z.z.z.z.z.z.z.z.z.j.u q c n z.z.z.z.z.z.z.c.z.z.B.@X1X5XOXz.t.R.^.(.T.5.z.z.z.z.9 z.z.z.z.j.z.z.3.z.z.z.z.z.z.z.z.z.z.z.z.z.z.",
"z.z.z.z.z.z.z.z.z.z.z.r.x N z.z.z.z.z.z.z.z.z.z.k.3.I.L.U.P.z.n.= ; ; = g l.z.z.z.| l.d l.h 5 b.2.w.z.z.z.z.z.z.z.z.z.z.z.z.z.z.",
"z.z.z.z.z.z.z.z.z.z.z.z.z.z.z.z.z.z.z.z.l.l z.z.z.3., J.J., 5.i.& % & > N d l g z.B 2 a z.2.2 j 2.z.z.z.z.z.z.z.z.j.z.z.z.z.z.z.",
"z.z.z.z.z.z.z.z.z.z.z.z.z.z.z.z.z.z.z.z.2.2.n z.x.3.< J.9.9.: : ; & 5.1.* - 0.s q V q m n j.r w 8.z.z.z.z.z.z.z.l.5 k.0.3.z.z.z.",
"z.z.z.h z.z.z.z.z.z.z.z.z.z.z.z.z.z.z.z.z.z.z.z.z.z.1 K.3.5., K.= - w.k.* * q.z.x v w 0.z.j.f b 0.z.z.z.z.z.z.z.b.k k b.0.z.z.z.",
"z.z.z.t l.z.z.z.z.z.z.z.z.z.z.z.z.z.z.z.z.z.z.z.z.z.e.e.2.z.3.3.3.k.z.z.z.z.k.z.b.b.x.z.z.z.z.z.z.z.z.z.z.z.z.z.k.N 0 N 8.z.z.z.",
"z.z.z.t v z.z.z.z.z.z.z.z.z.z.z.z.z.z.z.z.z.z.z.z.z.z.z.z.z.z.k.z.k.z.z.z.z.z.z.z.z.z.z.z.z.z.z.z.z.z.z.z.z.z.z.z.h 0 m 2.z.z.z."
};
