/* XPM */
static char *princess_seven_xpm1739227854[] = {
/* columns rows colors chars-per-pixel */
"64 64 215 2 ",
"   c black",
".  c #000B05",
"X  c #0D0208",
"o  c #11070B",
"O  c #121311",
"+  c #240D17",
"@  c #291E23",
"#  c #371927",
"$  c #2C2D27",
"%  c #787E76",
"&  c #BD1C6E",
"*  c #B82A6B",
"=  c #B8246C",
"-  c #AD3B6A",
";  c #B43969",
":  c #B83472",
">  c #C11C6F",
",  c #C11E72",
"<  c #D3397D",
"1  c #AE4068",
"2  c #C8467F",
"3  c #D3487D",
"4  c #C8517B",
"5  c #5CB63C",
"6  c #57B539",
"7  c #63B63E",
"8  c #6DBC3E",
"9  c #66BA3E",
"0  c #71BE3D",
"q  c #7DCA2F",
"w  c #75C13D",
"e  c #7BC33B",
"r  c #3D9059",
"t  c #3C944E",
"y  c #479657",
"u  c #579C58",
"i  c #4B974B",
"p  c #649C5E",
"a  c #4BA24B",
"s  c #5DAA4B",
"d  c #56A748",
"f  c #59A254",
"g  c #58B042",
"h  c #68AD4C",
"j  c #73AE4F",
"k  c #65B543",
"l  c #6CB645",
"z  c #6CBA41",
"x  c #69B14B",
"c  c #67B248",
"v  c #74BC43",
"b  c #7BBE45",
"n  c #74B54B",
"m  c #7AB54E",
"M  c #74B849",
"N  c #7CBA4A",
"B  c #76B647",
"V  c #62A654",
"C  c #6BAB53",
"Z  c #66A359",
"A  c #68A757",
"S  c #74AC54",
"D  c #7AAB56",
"F  c #7DAB5B",
"G  c #72A55B",
"H  c #75B151",
"J  c #7BB352",
"K  c #76BC51",
"L  c #6FB050",
"P  c #418965",
"I  c #74816E",
"U  c #6B9D65",
"Y  c #7BB46C",
"T  c #74AD76",
"R  c #6DB57F",
"E  c #6EB277",
"W  c #76B175",
"Q  c #7CB372",
"!  c #72B47D",
"~  c #76B97E",
"^  c #79B97B",
"/  c #7BB47B",
"(  c #7BA860",
")  c #7DC143",
"_  c #77C040",
"`  c #D19F0D",
"'  c #DC9D19",
"]  c #CA9E11",
"[  c #CFA90C",
"{  c #CEA70C",
"}  c #DCA402",
"|  c #DDAA05",
" . c #D5A40C",
".. c #DAA50A",
"X. c #DEB003",
"o. c #CBA412",
"O. c #D6A714",
"+. c #E0AC04",
"@. c #E0AD10",
"#. c #83C63C",
"$. c #92CD3A",
"%. c #9AD23C",
"&. c #8DD22E",
"*. c #A7DD34",
"=. c #B1E42E",
"-. c #EADD29",
";. c #F5DF28",
":. c #EBDC38",
">. c #F6E42E",
",. c #FAE52C",
"<. c #FCEB2C",
"1. c #FAE429",
"2. c #ECE335",
"3. c #EBE43D",
"4. c #F3E633",
"5. c #FCED32",
"6. c #F8E939",
"7. c #FFF132",
"8. c #FFF12F",
"9. c #968D5E",
"0. c #8FB34D",
"q. c #84BD4B",
"w. c #8ABD4D",
"e. c #80B74F",
"r. c #91B34D",
"t. c #90BD4F",
"y. c #86AD57",
"u. c #84B553",
"i. c #8BB454",
"p. c #85B851",
"a. c #8ABA51",
"s. c #83B25B",
"d. c #93BD53",
"f. c #9ABA5B",
"g. c #94A851",
"h. c #898265",
"j. c #87836A",
"k. c #858873",
"l. c #81B26B",
"z. c #8AA979",
"x. c #86B274",
"c. c #A7B768",
"v. c #83C245",
"b. c #8CC547",
"n. c #86C14A",
"m. c #8BC34A",
"M. c #8DC945",
"N. c #92C446",
"B. c #93CA44",
"V. c #92C64A",
"C. c #86C153",
"Z. c #92C151",
"A. c #9CC255",
"S. c #A3C552",
"D. c #8BD97A",
"F. c #F9DD46",
"G. c #E4E542",
"H. c #FDE741",
"J. c #D93B84",
"K. c #CA4880",
"L. c #DD468A",
"P. c #D24F83",
"I. c #E2418A",
"U. c #DB6999",
"Y. c #D96698",
"T. c #DD769D",
"R. c #D87A99",
"E. c #E2778D",
"W. c #E1659E",
"Q. c #E4759D",
"!. c #DF73A3",
"~. c #D96EA2",
"^. c #E56EA5",
"/. c #E76EAA",
"(. c #E572A5",
"). c #E673AA",
"_. c #E977A8",
"`. c #6AAD84",
"'. c #79A98C",
"]. c #77AD87",
"[. c #65B385",
"{. c #69B385",
"}. c #6BB38B",
"|. c #71B681",
" X c #86A793",
".X c #E78290",
"XX c #EE8CB9",
"oX c #F18BBD",
"OX c #EB9BB3",
"+X c #F292BD",
"@X c #F29BBA",
"#X c #FD9DBA",
"$X c #F89CB6",
"%X c #EDA2B7",
"&X c #ECA2B9",
"*X c #F4A1BD",
"=X c #FDA5BB",
"-X c #F5A8AB",
";X c #93E780",
":X c #AFEB91",
">X c #B0EF91",
",X c #CAF9A2",
"<X c #FB95C4",
"1X c #FB9CC5",
"2X c #FF9CCB",
"3X c #F997C8",
"4X c #FF9BD1",
"5X c #F396C1",
"6X c #FBA0C5",
"7X c #FEA2CC",
"8X c #F7A6C3",
"9X c #FFA7D1",
"0X c #F6D9D3",
"qX c #FCE4D9",
"wX c #EBE1CE",
/* pixels */
"m.m.m.a.M z V.m.m.m.m.m.m.m.m.m.m.m.m.m.m.m.m.m.m.m.m.m.m.m.m.m.m.m.m.m.m.m.m.m.m.m.m.m.m.m.m.m.m.m.m.m.m.m.m.m.m.m.m.m.m.m.m.m.",
"m.m.m.F U x n.m.m.m.m.m.m.m.m.m.m.m.m.m.m.m.m.m.m.m.m.m.m.m.m.m.m.m.m.m.m.m.m.m.m.m.m.m.m.m.m.m.m.m.m.m.m.m.m.m.m.m.m.m.m.m.m.m.",
"m.m.m.m.u.N v.m.m.m.m.m.m.m.m.m.m.m.m.m.m.m.m.m.m.m.m.m.m.m.m.w.m.m.m.m.m.m.m.m.m.m.m.m.m.m.m.m.m.m.m.m.m.m.m.m.m.m.m.m.m.m.m.m.",
"m.m.m.m.m.m.m.m.m.m.m.m.m.m.m.m.m.m.m.m.m.m.m.m.m.m.m.C.m.m.m.V.K p.Z.m.m.m.m.m.m.m.m.m.m.m.m.m.m.m.m.N.B.m.m.m.m.m.m.m.m.m.m.m.",
"m.m.m.m.m.m.m.m.m.m.m.m.m.m.m.m.m.m.m.m.m.m.n.n.m.n.m.n.v.d.@X8XwXwX8XOXd.m.m.m.m.m.q.m.m.m.q.n.m.m.m.m.m.m.m.m.m.m.m.m.m.m.m.m.",
"m.m.m.m.m.m.m.m.m.v.m.m.m.m.m.m.m.m.m.m.m.m.n.p.d.d.A.d.Z.c.<X7XqXqX7X<Xf.Z.Z.Z.m.q.q.m.m.n.q.m.m.m.m.m.m.m.m.m.m.m.m.m.m.m.m.m.",
"m.m.m.m.m.m.m.m.V.z ) m.p.m.m.m.m.m.m.m.m.m.) f.1X1X6X1X1X1X1X7XqXqX9X1X6X6X2X&Xw.n.m.m.m.n.m.n.m.m.m.m.m.m.b ) m.m.m.m.m.m.m.m.",
"m.m.m.m.m.m.m.m.M.A C k n.m.m.m.m.m.m.m.m.m.A.c.3X<X<X3X2X2X2X7X0X0X7X2X3X<X<XOXm.m.m.m.m.m.m.m.m.m.m.m.m.m.v z v m.m.m.m.m.m.m.",
"m.m.m.m.m.m.m.m.m.H S C p.m.m.m.m.m.m.m.m.d.1X<X(.^.)._.2X7X2X2X2X2X2X2X_.(./.R.m.m.m.m.m.m.m.m.m.m.m.m.m.m.m.x b N q.m.m.m.m.m.",
"m.m.m.m.m.m.m.m.m.m.m.m.m.m.m.m.m.m.m.m.m.f.6X<X(.).Y.U.XX+X2X2X2X2X5XXXY.Y./.R.m.m.m.m.m.m.m.m.m.m.m.m.m.m.m.Z C V w.m.m.m.m.m.",
"m.m.m.m.m.m.m.m.m.m.m.m.m.m.m.m.m.m.m.m.M.Z.1X2X2XXX+ o X # <X2X2X<X# X o + XX*Xq.v.V.) v.m.m.m.m.m.m.m.m.m.m.N p.J m.m.m.m.m.m.",
"m.m.m.m.m.m.m.m.m.q.m.m.m.m.m.m.m.m.m.m.w.f.1X2X7XXXO .   + <X2X2X<X@ .   o oX*Xd.d.m.w v.Z.m.m.m.m.b.m.m.m.m.m.m.b.m.m.m.m.m.m.",
"m.m.m.m.n.m.m.m.q.q.m.m.m.m.m.m.m.m.m.Z.OX<X1X2X2X1X:XD.. + 1X7X2X7X:XD.. X XX7X+X@XN w m.b m.m.m.m.m.m.m.m.m.m.m.m.m.m.m.m.m.m.",
"m.m.m.m.m.q.m.m.N n.m.m.m.m.m.m.m.m.m.m.*X2X7X2X2X1X,X>X$ # 1X2X<X1X,X>X@ # +X2X2X1Xh x v.b ) b V.m.m.m.m.m.m.m.m.m.m.m.m.m.m.m.",
"m.m.q.q.m.m.m.m.S J M.m.m.m.m.m.m.m.m.Z.*X2X2X2X2X2X9X9X<X<X2X<XL.L.1X7X<X<X2X1X2X=Xp.C e m.z z m.m.m.m.m.m.m.m.m.m.m.m.m.m.m.m.",
"m.m.m.q.m.m.m.m.S D m.m.m.m.m.m.m.m.n.a.*X2X1X2X2X2X1X2X2X2X2X<XL.L.+X<X3X2X2X2X2X3X( k u b 6 M m.m.m.m.m.m.m.m.m.m.m.m.m.m.m.m.",
"m.m.m.m.m.m.m.m.u.u.M.m.m.m.m.m.m.m.p.i.8X2X2X2X1X2X2X1X).(.(._.<X<X_.(.(.).1X2X2X3Xs.K Z ) n u.m.m.m.m.m.m.m.m.m.m.m.V.M.m.m.m.",
"m.m.m.m.m.m.m.m.m.M.m.v m.m.m.m.m.m.m.Z.*X2X2X2X2X2X2X1X(.^.^.(.2X2X_.Q.(.(.2X2X2X1Xd.m.V.m.V.m.m.m.m.m.m.m.m.m.m.m.m.m.B.m.m.m.",
"m.m.m.m.m.m.m.m.m.m.m.v.%.m.m.m.m.m.m.m.*X2X1X2X2X2X2X2X<X<X<X1X2X2X<X<X<X<X2X2X4X6XZ.m.m.m.m.m.m.m.m.m.m.M.n.m.m.m.m.m.m.m.m.m.",
"m.m.m.m.m.m.m.b m.m.m.v._ n.b m.v M m.m.OX<X2X2X2X1X2X2X2X2X2X2X2X2X2X2X7X2X1X1X1X@XZ.m.m.m.m.m.m.m.m.m.V.*.B.) m.m.m.m.m.m.m.m.",
"m.m.m.m.m.m.m.z ) ) m.C.s 5 k V.v 9 m.m.a.f.1X4X2X2X4X4X2X2X7X1X2X2X2X2X2X2X4X*Xd.d.m.m.m.m.m.m.m.m.m.m.m.B.$.x q.a.m.m.m.m.m.m.",
"m.m.m.m.m.m.m.q.k ) k f i 9 m.m.) 6 b m.M.Z.$X#X#X#X#X#X<X1X<X<X<X1X<X1X#X#X#XOXn.v.m.m.m.b.p.p.m.m.m.m.m.V.C H i.J m.m.m.m.m.m.",
"m.m.m.m.m.m.m.q.V V.) u u H q.m.) 9 v.m.m.t.O.....` ..' (.).^././.)./.Q.' ....O.m.m.m.m.m.m.w.q.m.m.m.m.m.) a S p.w.m.m.m.m.m.m.",
"m.m.m.m.m.m.m.m.m.m.Z.m.m.m.m.m.m.b.m.m.m.N.| +.X.+.| @..X.XE.E.E.E._._.@.| } [ m.m.b 0 m.m.w.m.m.m.m.m.m.v.s D m.m.m.m.m.m.m.m.",
"m.m.m.m.m.m.m.m.m.m.m.m.m.m.m.m.m.m.m.m.m.V.4.7.5.5.7.5.5.>.+.` } ' <X6XH.<.} [ m.m.b.&.) u.w.m.m.m.m.m.m.m.m.m.m.m.m.m.m.m.m.m.",
"m.m.m.m.m.m.m.m.m.m.m.m.m.m.m.m.m.m.m.m.m.B.5.7.5.7.5.5.5.1. . .} ' +X=XH.<.+.[ m.n.%.&.v.s.w.m.m.m.m.m.m.m.m.m.m.m.m.m.m.b.m.m.",
"m.m.q.G D m.m.m.m.m.m.m.m.m.m.m.m.m.m.m.n.V.5.7.5.5.+.@.5.>.l./ @X$X Xx.5.7.<.:.w.m.M.C #.w.w.m.m.m.m.m.m.m.m.m.m.m.m.m.m.q.m.m.",
"m.m.m.b m.m.m.m.m.m.m.m.m.m.m.) m.m.m.b.n.V.5.5.7.<.| | 5.>.W }.*X=X'.Y ,.7.7.:.a.m.m.H c v.b.m.m.m.m.m.B.m.n.m.m.m.m.m.u.D n.n.",
"m.m.b.5 v w.q.b.m.m.m.m.m.N.b.v v.b q.q.m.N.5.5.7.5.| | 5.>.W |.H.<./ Q ,.5.7.3.a.m.m.m.m.m.m.m.m.m.m.m.=.q.e.m.m.m.m.m.q.m.m.m.",
"m.m.b.s u m.w.m.m.m.m.m.m.b.m.B.q l w.u.m.V.5.7.7.<.| ..5.,.W |.2.;.W Q <.5.7.:.w.m.m.m.m.m.m.m.m.m.m.m.w q.n.m.m.m.m.m.m.m.m.m.",
"m.m.m.q.w.b.m.m.m.m.m.m.m.m.m.v.9 S u.m.m.V.5.5.7.5.| | 5.4.Q {.W W [.l.<.7.7.3.a.m.m.m.m.m.m.m q.m.m.m.n.n.n.m.m.m.m.m.m.m.m.m.",
"m.m.m.m.b.b.m.m.m.m.m.w.q.m.q.m.m.m.m.m.n.V.5.7.5.5.| | <.;.W {.{.! `.Y >.5.<.:.w.m.m.m.m.m.m.J p.m.m.m.m.m.m.m.m.m.m.m.m.m.m.m.",
"m.m.m.m.m.m.m.m.m.m.m.m.q.m.m.m.m.m.m.m.n.B.5.7.7.5.| } [ o.r t o...a r O.| | [ m.m.m.m.m.m.m.m.m.m.m.m.m.m.m.m.m.m.m.m.m.m.m.m.",
"m.m.m.m.m.m.m.m.m.m.m.m.m.q.n.m.m.m.m.m.m.V.5.5.5.5.| | X.o.r r  .} t t [ | } [ m.m.m.m.m.m.m.m.m.m.m.m.m.q.m.m.m.m.m.m.m.m.m.m.",
"m.m.m.m.m.m.v.8 n.N m.m.m.q.q.m.m.V.m.m.n.V.6.8.7.4.9.h.k.j.U I h.h.% U o.} } [ w.m.m.m.m.m.m.m.m.m.m.m.v.e n.n.m.m.m.q.F m.m.m.",
"m.m.m.m.m.m.m.v.l N a.n.m.m.m.m.N.b.m.m.m.V.5.7.7.5.k.I k.j.1 % % % % 1  .| } [ V.m.m.m.m.m.m.m.m.m.m.m.B.%.z N m.m.m.m.m.q.m.m.",
"m.m.m.m.m.m.m.q.k B N m.m.m.m.m.m.m.m.m.n.B.5.7.7.5.~ T ;.1.T `.`.`.`.l.1.1.} [ e v.b.m.z n.m.m.m.m.m.m.s.B k M J m.m.m.m.m.m.m.",
"m.m.m.m.m.m.m.G Z l M w.m.m.m.m.m.m.m.m.d.A.H.6.5.6.~ E 2.2.W {.^ ~ {.Q 2.4...O.w.B m.0 d e.w.m.m.m.m.m.a.A p h m m.m.m.m.m.m.m.",
"m.m.m.m.m.m.m.m.w.m.m.m.m.m.m.n.m.0 ) Z.%X1X6X-X5.5.~ `.! |.{.! 6.,.Q {.{.].Q.Q.(.R.S z b p.p.m.m.m.m.m.m.m.w.m.m.m.m.m.m.m.m.m.",
"m.m.m.m.m.m.m.m.m.m.m.m.m.m.m.m.V.x M v.8X2X4X=X3.3.~ {.^ ^ {.~ G.2.Q {.^ x.!./.^.T.j f H a.b.m.m.m.m.m.m.m.m.m.m.m.m.m.m.m.m.m.",
"m.m.m.m.m.m.m.m.m.m.m.m.m.m.m.m.V.Z L A 8X2X2X5X{.{.{.W 4.,.W {.[.{.[.l.<.6.(.^./.~.S q.u.m.m.m.m.m.m.m.m.m.m.m.m.m.m.m.m.m.m.m.",
"m.m.m.m.m.m.B.B.m.m.m.m.m.m.m.m.m.n.m.a.%X1X1X&X|.! {.W 2.4.W [.{.~ {.Q 4.6.Q.Q.Q.T.i.b.V.m.m.m.q.m.m.m.m.m.b.m.m.m.m.m.m.m.m.m.",
"m.m.q.q.n.m.m.m.m.m.m.m.m.m.m.m.m.m.m.m.A.Z.C.S.6.3.~ {.^ |.{.! G.4.Q [.|.^ d.d.d.d.m.m.m.m.m.q.n.m.m.m.m.N.B.m.w.m.m.m.m.m.b.m.",
"m.n.m.q.q.m.m.m.m.m.m.m.m.m.m.m.m.m.m.m.m.m.m.V.<.4.~ [.! T {.~ 4.1.Q }.E T n.b.v.m.m.m.m.m.m.m.m.m.m.m.m.m.m.m.m.m.q.q.m.b.b.m.",
"m.m.m.m.m.m.m.m.m.m.m.m.m.m.m.m.m.m.m.m.m.m.m.C.Y Q [.E -.-.! {.l.Y [.Y 1.:.a.m.m.m.m.m.m.m.m.m.m.m.m.m.m.m.m.m.m.q.m.m.m.m.m.m.",
"m.m.m.m.m.m.m.m.m.m.m.m.m.m.m.m.m.m.m.m.m.m.m.C.R R '.z.F.H.Y ! '.'.'.z.2.G.w.m.m.m.m.m.m.m.m.m.v.m.m.m.m.m.m.m.m.m.m.m.q.m.m.m.",
"m.m.m.m.m.m.m.m.m.m.m.m.m.m.m.m.b.M.m.m.m.m.m.m.m.d.@X3X2XOXm.a.Q.(.(.U.i.n.m.m.m.m.m.m.m.m.m.m.w ) m.m.m.m.m.m.m.m.m.m.m.m.m.m.",
"m.m.m.m.m.m.m.m.m.m.m.m.m.m.n.m.M.m.m.m.m.m.m.m.m.m.8X2X4X@Xb.d.T.(.(.U.r.m.m.m.m.m.m.m.m.m.m.m.m.0 m.m.m.v.v.m.m.m.m.m.m.m.m.m.",
"m.m.m.m.V.b ) m.m.m.m.m.m.q.N q.m.m.m.m.m.m.m.m.m.m.1X2X2X&Xm.w.T.^.(.U.r.m.m.m.m.m.m.m.w v.q.u.q.9 b 5 m.) 0 m.m.p.m.m.m.m.m.m.",
"m.m.m.m.w.$.#.m.w.m.m.m.m.m.m.m.m.m.n.%.*.v.m.m.n.V.5X2X2X&Xm.d.T.(.(.U.r.m.m.m.m.m.m.m.v.w N l m f 6 M u.v.6 N u.w.m.m.m.m.m.m.",
"m.m.q.m.m.e d J s.q.m.m.m.m.m.m.m.m.m.B.b.x m.m.m.m.*X2X2X&Xb.d.T.^.(.U.r.m.m.m.m.m.m.m.n.7 u.M y y V u.m.b 6 j u.b.m.m.m.m.m.m.",
"m.m.m.m.m.v.M u.w.m.m.m.m.m.m.m.m.m.m.s.x M v m.m.m.8X2X2X%Xm.Z.T.^.(.U.0.n.m.m.m.m.m.m.m.N m.V.J S m w.m.n.z q.m.m.m.m.B.m.m.m.",
"m.m.m.m.m.m.m.m.m.m.m.m.m.m.m.m.m.m.m.u.Z m 9 m.m.Z.8X2X2X&Xm.w.T.^.(.U.0.M.m.M.m.m.m.m.m.m.m.m.m.V.m.m.m.m.m.m.m.m.m.m.B.m.m.m.",
"m.m.m.m.m.m.m.m.m.m.v.m.m.b.v.m.m.m.m.m.q.m.m.m.m.a.5X2X2X%Xb.d.T.^.).U.0.B.B.B.b.m.m.m.m.m.m.m.m.m.m.m.m.m.m.m.m.m.m.m.m.m.m.m.",
"m.m.q.m.m.m.m.m.m.m.v v V.J g q.w.m.m.m.m.m.m.m.m.m.6X2X4X%Xm.Z.!.^.(.U.0.m.m.m.m.m.m.m.m.m.m.m.m.m.m.m.m.m.m.m.m.m.m.m.m.m.m.m.",
"m.m.q.m.m.m.m.m.m.m.V.&.v c l u.w.m.m.m.m.m.m.m.m.V.@X<X2X@Xm.w.U.W.(.U.0.b.m.m.m.m.m.m.m.m.m.m.m.m.m.m.m.m.u.m q.m.m.m.m.m.m.m.",
"m.m.n.m.m.m.m.m.m.m.b.5 C C H a.m.m.m.m.m.m.b.m.m.w.P.L.<X%XM.r.* = W.Q.r.m.m.m.z b m.m.m.m.m.m.m.m.m.m.m.N q.w.m.m.m.m.m.m.m.m.",
"m.m.m.m.m.m.m.m.m.m.m.f u Z S m.m.m.m.m.m.m.B.m.b.t.3 J.<X%Xm.r.* , W.U.r.m.m.m.m.e m.V.m.n.N m.m.q.m.m.m.m.m.m.m.m.m.m.m.m.m.m.",
"m.m.m.m.m.m.m.m.m.m.m.u.C J m.m.m.m.m.m.m.m.m.m.m.w.3 J.I.P.w.N.* & , : N v.m.m.V.=.v.k n.b z V.w.p.m.m.m.m.m.m.m.m.m.m.m.m.m.m.",
"m.m.m.m.m.m.m.m.m.m.m.m.V.m.m.m.m.m.m.m.q.N w.b.b.t.3 J.J.2 r.g.* & * - m l b b m.x 5 k w.v.6 n w.m.m.m.m.m.m.m.v.m.m.w.m.m.m.m.",
"m.m.m.m.m.m.m.m.m.m.m.m.m.m.m.m.m.m.m.m.m.q.D w.m.w.3 J.y.g.< J.> = 0.0.- - u.l f P f F F v.a p s.q.m.m.m.m.m.m.v.z m.p.w.m.m.m.",
"m.m.m.) m.m.m.m.m.m.m.m.m.m.m.m.m.m.m.m.m.m.m.m.b.m.4 K.w.r.K.K.; - a.m.; ; i.b.C V U u.b.v.x S u.m.m.m.m.m.m.m.m.M l N.u.m.m.m.",
"m.m.m.s q.m.m.m.m.m.m.m.m.m.m.m.m.m.m.m.m.m.m.m.m.m.a.w.m.w.w.w.w.m.m.m.m.m.b.m.m.m.N.m.m.m.m.b.b.m.m.m.m.m.m.m.V.H u D u.m.m.m.",
"m.m.m.s A m.m.m.m.m.m.m.m.m.m.m.m.m.m.m.m.m.m.m.m.m.m.m.m.m.m.m.m.m.m.m.m.m.m.m.m.m.m.m.m.m.m.m.m.m.m.m.m.m.m.m.m.b y G q.m.m.m."
};
