/* XPM */
static char *_908bee4d67642aed98d8ca53f7d7b6afI4EnldfbUxEFCQ8[] = {
/* columns rows colors chars-per-pixel */
"64 64 217 2 ",
"   c #174532",
".  c #1A4633",
"X  c #1E4B34",
"o  c #1F5234",
"O  c #1E5C33",
"+  c #214735",
"@  c #234D35",
"#  c #284C36",
"$  c #254E38",
"%  c #245235",
"&  c #295436",
"*  c #225B35",
"=  c #2B5D35",
"-  c #265538",
";  c #2A5639",
":  c #2D5B3A",
">  c #315D37",
",  c #325D3C",
"<  c #197F2F",
"1  c #0E6B36",
"2  c #1C6334",
"3  c #126D37",
"4  c #1D6D33",
"5  c #146F38",
"6  c #1C6D3A",
"7  c #167137",
"8  c #1D7431",
"9  c #1B7B31",
"0  c #177239",
"q  c #1A743A",
"w  c #1A7A3E",
"e  c #216433",
"r  c #2C6335",
"t  c #206A33",
"y  c #2C6C36",
"u  c #286539",
"i  c #336437",
"p  c #316C35",
"a  c #34633A",
"s  c #3C6B3B",
"d  c #3A663C",
"f  c #2B7B34",
"g  c #237A3B",
"h  c #287637",
"j  c #347535",
"k  c #327B35",
"l  c #397C35",
"z  c #3B7C3A",
"x  c #347A3A",
"c  c #436F3C",
"v  c #44763C",
"b  c #46793C",
"n  c #4C7D3D",
"m  c #507E3E",
"M  c #3F6B41",
"N  c #247941",
"B  c #406D40",
"V  c #447243",
"C  c #4C7A45",
"Z  c #4A7A4A",
"A  c #527D46",
"S  c #168D2F",
"D  c #198D2F",
"F  c #18872F",
"G  c #0E9D2D",
"H  c #16942F",
"J  c #19932F",
"K  c #139D2E",
"L  c #18992E",
"P  c #1A8330",
"I  c #198A30",
"U  c #178630",
"Y  c #189130",
"T  c #2E813A",
"R  c #278633",
"E  c #348234",
"W  c #30833C",
"Q  c #3C8636",
"!  c #269331",
"~  c #269C30",
"^  c #2A9C31",
"/  c #2C9532",
"(  c #3B9733",
")  c #0FA12D",
"_  c #14A32E",
"`  c #1BA42F",
"'  c #13A92D",
"]  c #22A72F",
"[  c #25A92F",
"{  c #26A430",
"}  c #27A930",
"|  c #2AAB30",
" . c #28A230",
".. c #30A531",
"X. c #34AC31",
"o. c #3BAB32",
"O. c #3DA033",
"+. c #36B131",
"@. c #3BB332",
"#. c #3FBA32",
"$. c #428D35",
"%. c #44853E",
"&. c #53863E",
"*. c #439235",
"=. c #469A36",
"-. c #4AA335",
";. c #4CAB35",
":. c #51AD35",
">. c #56AE3F",
",. c #44B633",
"<. c #46B933",
"1. c #4ABA33",
"2. c #4AB234",
"3. c #52B335",
"4. c #55BC35",
"5. c #59BD35",
"6. c #5DB63D",
"7. c #6EBC3F",
"8. c #74BF3E",
"9. c #56C135",
"0. c #5CC335",
"q. c #5ECB35",
"w. c #5FD035",
"e. c #60C436",
"r. c #60CA35",
"t. c #7CC23D",
"y. c #328940",
"u. c #3F8A42",
"i. c #498842",
"p. c #538245",
"a. c #5A8C43",
"s. c #5E8B49",
"d. c #578945",
"f. c #489B49",
"g. c #5D9848",
"h. c #5C9F55",
"j. c #549957",
"k. c #489A52",
"l. c #639443",
"z. c #669A44",
"x. c #65944A",
"c. c #6C9B4A",
"v. c #689B49",
"b. c #669D5C",
"n. c #5DA64C",
"m. c #5DA94D",
"M. c #52AA41",
"N. c #51A34C",
"B. c #6EA244",
"V. c #65A54C",
"C. c #64AE4B",
"Z. c #6EAB4E",
"A. c #6FA04B",
"S. c #73A44C",
"D. c #7AAC4C",
"F. c #72A847",
"G. c #6BB446",
"H. c #6ABA41",
"J. c #66B249",
"K. c #69B149",
"L. c #73BC43",
"P. c #7CBE46",
"I. c #74B34C",
"U. c #7BB44C",
"Y. c #75B849",
"T. c #7EBA4A",
"R. c #72B746",
"E. c #63A556",
"W. c #6CAB53",
"Q. c #68A357",
"!. c #74AC55",
"~. c #7DAB5B",
"^. c #76A758",
"/. c #74B152",
"(. c #7CB252",
"). c #408865",
"_. c #6B9D65",
"`. c #6CA764",
"'. c #7CC144",
"]. c #89CE2F",
"[. c #85C939",
"{. c #81CC32",
"}. c #95CE3A",
"|. c #99D53D",
" X c #A1D72F",
".X c #81B54D",
"XX c #84BD4B",
"oX c #89BE4C",
"OX c #81B846",
"+X c #80AD59",
"@X c #83B453",
"#X c #89BB52",
"$X c #84B556",
"%X c #83C245",
"&X c #8DC647",
"*X c #86C14A",
"=X c #89C14B",
"-X c #8BC34A",
";X c #8AC24A",
":X c #89C24A",
">X c #8CC34B",
",X c #8EC34B",
"<X c #8BC449",
"1X c #8CC549",
"2X c #8CC44A",
"3X c #8EC64A",
"4X c #8BC34A",
"5X c #8FC84A",
"6X c #8AC943",
"7X c #90C746",
"8X c #91C944",
"9X c #90C64B",
"0X c #92CA4B",
"qX c #97D04D",
"wX c #9AD24B",
"eX c #95CB51",
"rX c #9AD250",
/* pixels */
"-X-X-X#XY.7.9X-X-X-X-X-X-X-X-X-X-X-X-X-X-X-X-X-X-X-X-X-X-X-X-X-X-X-X-X-X-X-X-X-X-X-X-X-X-X-X-X-X-X-X-X-X-X-X-X-X-X-X-X-X-X-X-X-X",
"-X-X<X~._.J.%X>X-X-X-X-X-X-X-X-X-X-X-X-X-X-X-X-X-X-X-X-X-X-X-X-X-X-X-X-X-X-X-X-X-X-X-X-X-X-X-X-X-X-X-X-X-X-X-X-X-X-X-X-X-X-X-X-X",
"-X-X-X<X$XU.%X>X-X-X-X-X-X-X-X-X-X-X-X-X-X-X-X-X-X-X-X-X-X-X-X-X-X-X-X-X-X-X-X-X-X-X-X-X-X-X-X-X-X-X-X-X-X-X-X-X-X-X-X-X-X-X-X-X",
"-X-X-X-X3X3X>X-X-X-X-X-X-X-X-X-X-X-X-X-X-X-X-X-X-X-X-X-X-X-X-X>XH.P.,X-X-X-X-X-X-X-X-X-X-X-X-X-X-X-X-X8X8X-X-X-X-X-X-X-X-X-X-X-X",
"-X-X-X-X-X-X-X-X-X>X>X-X-X-X-X-X-X-X-X-X-X>X-XXX-X-X-X-X-X3X3X9XH.P.U.<X-X-X-X-X3X-XXX>X-X-XXX-X-X-X-X3X3X-X-X-X-X-X-X-X-X-X-X-X",
"-X-X-X-X-X-X-X-X>X%X%X>X<X-X-X-X-X-X-X-X-X-XXXXXXX-X-X-X-XXXXXoXH.I.m.oX<X-X-X3X*XXX*X-X&X*XXX-X-X-X-X-X-X-X3X>X-X-X-X-X-X-X-X-X",
"-X-X-X-X-X-X-X-X,X7.'.,XXX3X-X-X-X-X-X-X-X-X-X*X-X-X-X-X=XB % a U..X(.oX<X-X-XXXXX-X-X-X&XXX-X-X-X-X-X-X-X3XL.P.>X-X<X-X-X-X-X-X",
"-X-X-X-X-X-X-X-X9XE.W.G.XX3X-X-X-X-X-X-X-X-X3X<X3X>X<X3X,Xd X ; #X0X3X<X-X-X-X-X-X3X-X-X-X-X-X-X-X-X-X-X-X3XL.L.L.=X-X-X-X-X-X-X",
"-X-X-X-X-X-X-X-X3X/.!.W.XX3X-X-X-X-X-X-X-X-X-X>XP.*X-XoXXXd o : .X-XXX-X-X-X-X3X-X-X-X-X-X-X-X-X-X-X-X-X-X-X3XJ.P.XXXX<X-X-X-X-X",
"-X-X-X-X-X-X-X-X-X3X3X3X-X-X-X-X-X-X-X-X-X-X-X>X'.G.s = r Y L H y > a .X3X-X-X-X-X-X-X>X-X-X-X-X-X-X-X-X-X-X3XE.W.m.oX<X-X-X-X-X",
"-X-X-X-X-X-X-X-X-X-X-X-X-X-X-X-X-X-X-X-X-X-X-X-X3X}.a X % H _ K O @ % @X3X-X-XXXXX-X3X'.%X3X-X-X-X-X-X-X-X-X3X.X.X(.oX<X-X-X-X-X",
"-X-X-X-X-X>X-X<X*XXX3X-X-X-X-X-X-X-X-X-X-X-X-X-X-X}.a @ * H _ K * % ; @X3X-X%X3X-X-X-X8.'.>X-X-X-X&X8X-X-X-X-X3X3X3X<X-X-X-X-X-X",
"-X-X-X-X-X-X-X-XXX*XD.a a a a = p.9X-X-X>X3XXXs i u I H H K _ K * @ - @X3X*X8.%X0Xa.= i a a = A.0X-X-X-X-X-X-X-X-X-X-X-X-X-X-X-X",
"-X-X-X3X-X-X3X-XU.:XS.X @ @ % . V 0X-X>X%X%XXX: X * L _ _ _ _ K * @ - @X3X=X6X{.5XA . % @ % . x.0X-X-X-X-X-X-X-X-X-X-X-X-X-X-X-X",
"-X-XXXXX-X>X-X<X!.@XS.@ % % % X V 0X<X,X8.t.oX, @ * L _ K _ _ K * @ - @X5X-X0X[.6XA X % % % X v.0X-X3X-X-X-X-X-X-X-X-X-X-X-X-X-X",
"-X-X-XXX-X-X5XS.a a k H S H D H R s i A L.>.(., @ = 2.1.<.` _ _ H S Y j d s s a a R H D H S H f s a c.0X-X-X-X-X-X-X-X-X-X-X-X-X",
"-X-X-X-X-X-X0Xc.X + 4 _ _ _ _ _ S @ . M *XC.^., @ = 4.0.9.` K _ _ _ _ O + X X % + F ' _ _ _ ' 8 + . x.0X-X-X-X-X-X-X-X7X8X-X-X-X",
"-X-X-X-X-X-X0Xc.@ @ 4 _ K K K _ S % X M eX0XoX, @ = 4.0.4.` K K K K K e % % % % @ P _ K K K _ 8 # X x.0X3X3X-X-X-X-X-X7X8X-X-X-X",
"-X-X-X-X-X-X0Xc.@ @ 4 _ K ] <.<.2.-.-.=.v s s % % *  .[ } ,.<.<.<.<.<.y @ % 9 D F X.<.<.| K _ H I S T c s c.,X>X>X-X-X-X-X-X-X-X",
"-X-X-X-X-X-X5Xv.@ @ 4 _ K | 0.0.0.0.q.3.X X X % % * H G K 4.0.0.0.0.0.p @ % D ' _ <.0.0.X.K _ _ _ ' 9 +   l.wXP.-X3X-X-X-X-X-X-X",
"-X-X-X-X-X-X5Xg.@ % 4 _ G } 0.0.0.0.0.:.% % % % @ % K _ ` 4.0.0.0.0.0.p + @ I _ K <.0.0.| G K _ _ ' 9 +   l.|.J.XXoX-X-X-X-X-X-X",
"-X-X-X-X-X-X0Xc.@ @ j <.<.@.| | | | | ~ % % * 9 9 9 4 4 4  .| | k j j P I I L _ K ] | | @.<.<./ 2 4 i.F.z..XW./.$X@X3X-X-X-X-X-X",
"-X-X-X-X-X-X0Xc.% @ l 0.e.<.G K K K ) H % % * J L D % @ % H _ K O + @ H _ _ _ K K K K G @.e.q.Q + X x.qX9X%Xf.!.@XXX-X-X-X-X-X-X",
"-X-X-X-X-X-X0Xc.. . k q.q.<._ _ _ _ _ H % % * D J D % @ % L ' _ * @ % H _ _ _ _ _ _ _ _ #.q.q.Q + X x.qX9X6XJ.(.0X0X0X3X-X-X-X-X",
"-X-X-X3X<X-X3X.Xl.z.g.l l k 4 4 9 _ _ H % % * D J D 9 9 9 8 4 4 9 9 9 8 4 4 4 4 4 4 4 4 j l l f 9 9 z n n n n n n n b x.9X-X-X-X",
"-X-X-X-X-X-X-X3X3X0XS.X @ @ @ @ e K _ H % % * D J J L L J % @ % I L L * @ @ @ @ @ @ @ @ @ @ + 8 L L 8 X X X X X X X   C 0X-X-X-X",
"-X>XXX^.~.3X-X3X5X0XS.@ % % % @ e _ ' H % @ % D J J D J D o + @ I L L * @ % @ @ @ % % % % % @ 8 J J 4 + @ @ % @ @ & . A rX=X3X-X",
"-X-X-XP.>X-X3XD.n &.%.8 8 8 8 8 8 8 8 8 8 8 9 L L L L L L ( *.*.h 4 t 8 8 8 8 8 8 * % % t 9 8 I K K / *.*.E 8 8 8 8 8 x p.V l.,X",
"-X-X-X6.L.XX<Xc.. X 2 L L L L L P @ @ * J L L _ _ _ _ _ ` 9.q.0.r + @ P L L L L L t % % 9 L J K _ K @.r.r.@.H L L L L 9 @ . V 0X",
"-X-X3Xn.h.0XqXS.+ # e S S S D J P @ @ * J L H G G G K G K 1.0.4.r @ % P J D S S S 2 + + 8 L J K K G X.0.0.o.S D J L L < +   V 0X",
"-X-X-X=XS.&.a.%.9 8 R o.o...L L J 8 8 8 8 4 h X.+.+.+.+.@.4.0.4.r @ % I K H ..o.o.( Q $.f 8 4 / @.X.<.0.0.o.H L I t 4 x a.&.c.,X",
"-X-XoX0Xx.  . 4 ' ) | 0.e.<._ _ K L L I @ + = 5.0.0.0.0.0.0.0.4.r @ % S _ K <.e.0.0.0.q.l + + $.r.0.0.9.0.@.K _ P @ . A rX0X0X-X",
"-X3X0XqXc.+ # 4 _ K | 0.e.<.G G K D J P % % r 5.0.0.0.0.0.0.0.0.r @ % H ' _ <.0.9.0.0.r.l + + *.w.0.0.0.e.@.) ' P % X C 0X-X-X-X",
"3XD.a.l.%.8 8 P _ K ] @.@.@.X.+.| H L D % @ = o.@.@.@.@.@.@.@.@.r @ % 8 9 9 ;.0.0.<.@.@.R 4 4 E *.$.O.@.@.^ 9 P 4 % X C 9X-X-X-X",
"0Xs.. + 8 ' _ _ K K K K G } 0.e.1.K _ H % % * K G K G G G K G K * % % @ @ @ -.0.5.} G K L L L 4 + + 8 ) ) 9 @ @ % % X C +XXX-X-X",
"0Xs.. + 8 ' _ _ _ _ _ _ _ | 0.0.1._ ' H % @ * _ _ _ _ _ _ _ _ _ * @ @ @ % @ ;.q.q.| K _ H D L 4 % @ 9 ' ' < + X X X   C 0XXX-X-X",
"5XS.b m Q P P P P P P P 9 ! @.,.X.P P 9 4 t 4 P P P K _ K P P P 4 t t t t 4 Q =.*.~ _ _ H D L 4 @ % 4 P P T b z v n b z.9X-X-X-X",
"-X3X0XqXc.+ % @ @ @ @ % # e G ) S @ @ * J L D % @ % L _ L * @ % I L L L L L 2 + + P _ K H D L 4 % % % % + Z `.C.U.0X0X3X-X-X-X-X",
"-X-X-X0Xx.. X X X X X X X 2 _ ' H @ @ * D J P % @ % K _ _ * @ % P J D D D J O + + I ' _ L J L 4 + @ @ @ . s.eX3X3X-X-X-X-X-X-X-X",
"-X-X-X5XS.v v v v v v v v z P I 9 e e 4 J J D e e 4 P I P 4 e t D H H H H H f j j R P P P 9 9 f j j j j j d.B.z.D.3X-X-X-X-X-X-X",
"-X-X-X-X3X0X0X0X0X0X0X3X0XD.$ @ * L L L J J J J L D % @ % D L J K _ _ _ _ _ 1.0.q.j + % @ % + *.q.0.0.0.r.*.X   p.0X-X-X-X-X-X-X",
"-X>X-X-X-X-X8X8X-X-X-X3X0XD.$ + O S S S J J J J L D % @ % D L J K _ _ K K K <.0.0.j + % % % @ *.q.0.0.5.0.$.@ X d.qX5X3X-X-X-X-X",
"-X-XXXXX-X-X-X-X-X3XXXB.F.z.j p k ^ ^ ~ J J D P P 9 e e e 9 P P L _ _ ] } } @.<.<.R 2 t * % @ l ;.-.3.0.0.=.2 2 i.F.B.U.,X3X3X-X",
"-X-X-X*XXX-X-X-X-X0XS.X X p q.0.0.0.0.1.J J I % @ % D L J * @ % H _ K <.0.0.[ G K _ _ _ 8 @ % % @ . Q 0.0.@._ ' P @ . C 0X&X&X-X",
"-X-X-X3X3X-X-X-X-X0XS.% @ j 0.0.0.0.0.1.S H F % % * S H S * % % H _ _ 1.0.0.} K _ _ _ _ 8 @ % % % + $.q.0.@.) ' U + . C 0X-X-X-X",
"-X-X-X-X-X-X-X-X-X0XS.% @ y 1.<.<.<.1.<.~ ~ ! % % * ! ~ ! * % % P H S @.1.<.] K _ H I H 4 % * * * o E :.:.( S H R s i a.>X-X-X-X",
"-X-X-X-X-X-X-X-X-X0XS.% @ 4 _ K K _ K ` 5.0.3.% @ = 4.0.4.= @ % % % % S _ K K K _ 4 @ % 2 0 0 0 0 0 2 @ % % % X d.0X-X3X-X-X-X-X",
"-X-X-X-X-X-X-X-X-X0XS.% @ t _ _ _ _ K ] 0.q.3.% @ = 4.0.5.r @ % % % % H _ _ _ _ _ 4 @ % 2 0 0 0 0 0 2 @ @ @ % . p.0X-X-X-X-X-X-X",
"-X-X-X-X3XP.%X,X-X0XS.% @ t _ _ _ _ _ ` ;.3.-.% @ = 2.4.2.= @ % % % % P H H H H H 4 % * 6 0 0 0 0 0 t r a i i = s.#X-X-X-X-X-X-X",
"-X-X-X<X=X}.[.-XXX,XS.% @ t _ K _ K _ H % % % % % * D J D * % % 6 0 0 * % % % % % 6 w w w w w q 0 3 f.T.@X%X5.Y.$X-X-X-X-X-X-X-X",
">X-X-X-X,Xt.M.(.+X,XS.@ + 2 _ _ _ _ _ H % % % % % % D L D * @ % 6 0 0 * % % % % % 6 w w w w w 0 5 1 j.$X>X'.3.Z.@X<X-X-X-X-X-X-X",
"-X-X-X-X>X%XI.@XoX0XS.: > y L H H H L I * % % % % * P D P * % % 6 0 0 * % % % % % 6 w w w w w g g q h.9X-X*XL.XX>X-X-X3X8X-X-X-X",
"-X-X-X-X-X>X3X3X<X-X>XXX-XS.- % % % % * w w w w w q % % % 5 0 0 w w w 0 5 0 * % % 6 w w q 0 3 V.3XXX-X3X-X>X3X3X-X-X-X3X8X-X-X-X",
"-X-X>X-X-X-X-X-X-X>XP.-X0XD.$ @ % @ @ % w w w w w q % % % 5 0 0 w w w 0 0 0 * % % 6 w w 0 7 1 V.0X-X-X-X-X-X-X-X-X-X-X-X-X-X-X-X",
"-X-X-X-X-X-X-X-X-X>XL.L.0XA.- = : = = u w w w w w q % % % 5 0 0 w w w 0 0 0 * % % 6 w w w g 0 V.0X-X-X-X-X-X3X3X-X-X-X-X-X-X-X-X",
"-X3XXX-X>X-X-X-X-X-X9X].P.K.G.D..XXXXXU.g 7 0 w w q % % % 5 0 0 w w w 0 0 0 * % % 6 q 5 V.-XXX-X-X-X-X-X-X3X(.(.XX-X-X-X-X-X-X-X",
"-X-X-X-X-X-X-X-X-X-X&X6.W.W./.#X3X3X5X.Xq 3 0 w w q % % % 5 0 0 w w w 0 0 0 O @ % 2 0 1 Z.0X3X-X-X3X-X-X-XXX.XXX-X-X-X-X-X-X-X-X",
"-X-X-X-X-X-X-X-X-X-X-Xh.j.Q.!.>X-X-X3X.Xg q q w w w % % % 6 0 0 w w w 0 0 0 = & & t q 0 Z.3XP.>X-XoX-X-X-X-X<X3X-X-X-X-X-X-X-X-X",
"-X-X-X-X-X-X-X-X-X-X-X$XW.(.>X-X-X-X-X-XXXT.T.T.XXU.g 5 6 w w w q 0 0 0 0 0 Z.XXOX XY.>.*XP.H.9XXXXX<X-X-X-X-X-X-X>X-X-X-X-X-X-X",
"-X-X-X-X-X-X-X-X-X-X-X3X9X3X-X-X-X-X-X3X-XXX=X3X3XoXN 1 5 q q q 5 3 3 3 3 0 K.'.,XI.6.H.=X%X6.I.#X<X-X-X-X-X-X-X-X-X>X-X-X-X-X-X",
"-X-X-X>X-X-X-X-X-X-X-X-X-X-X-X-X-X-X-X>XXXXX^.-X3XoXu.T W y.y.y.W W W W T N !.R.j.).h.~.+X%Xf.b.$X-X-X-X-X-X-X3X*XH.-X@XoX-X-X-X",
"-X-X-X'.-X-X-X-X-X-X-X-X-X-X-X-X-X-X-X-X-X>X-X-X-X-X3X3X3X3X3X3X3X3X3X3X3XW.@X3XW.E.Q.$X3X%XC.!.@X-X-X-X-X-X-X-X3XY.G.9X@X-X-X-X",
"-X-X-Xm.*X3X-X-X-X-X-X-X-X-X-X-X-X-X-X-X-X-X-X-X-X>X>X-X-X-X-X-X-X-X-X-X-X3X3X-X3X3X3X3X-X>X3X3X<X-X-X-X-X-X-X-X3X/.j.(.$X-X-X-X",
"-X-X3Xm.E.3X-X-X-X-X-X-X-X-X-X-X-X-X-X-X-X-X-X-X-X-X-X-X-X-X-X-X-X-X-X-X-X-X-X-X-X-X-X-X-X-X-X-X-X-X-X-X-X-X-X-X3XP.k.^.oX-X-X-X"
};
